<svg width="343" height="216" viewBox="0 0 343 216" fill="none" xmlns="http://www.w3.org/2000/svg">
<mask id="path-1-inside-1_8628_279889" fill="white">
<path d="M0 0H343V216H0V0Z"/>
</mask>
<path d="M0 0H343V216H0V0Z" fill="white"/>
<rect width="343" height="56" fill="white"/>
<path d="M16.5728 34H18.1416L19.3452 30.5718H24.1099L25.3135 34H26.8823L22.4663 22.022H20.9888L16.5728 34ZM21.6611 23.9561H21.7939L23.6699 29.3018H19.7852L21.6611 23.9561ZM28.4528 34H29.8971V21.499H28.4528V34ZM32.3226 34H33.767V21.499H32.3226V34ZM39.7867 34.1577C42.335 34.1577 43.9121 32.3979 43.9121 29.5342V29.5176C43.9121 26.6455 42.335 24.894 39.7867 24.894C37.2383 24.894 35.6612 26.6455 35.6612 29.5176V29.5342C35.6612 32.3979 37.2383 34.1577 39.7867 34.1577ZM39.7867 32.8794C38.0933 32.8794 37.1387 31.6426 37.1387 29.5342V29.5176C37.1387 27.4009 38.0933 26.1724 39.7867 26.1724C41.48 26.1724 42.4346 27.4009 42.4346 29.5176V29.5342C42.4346 31.6426 41.48 32.8794 39.7867 32.8794ZM47.1179 34H48.5622L50.5544 27.0771H50.6872L52.6877 34H54.1404L56.6472 25.0518H55.2112L53.4514 32.207H53.3186L51.3181 25.0518H49.9485L47.948 32.207H47.8152L46.0554 25.0518H44.6111L47.1179 34ZM64.9346 34.1577C66.1383 34.1577 67.0762 33.6348 67.6407 32.6802H67.7735V34H69.2178V27.874C69.2178 26.0146 67.9976 24.894 65.8145 24.894C63.9053 24.894 62.544 25.8403 62.3116 27.2432L62.3033 27.293H63.7476L63.7559 27.2681C63.9884 26.5708 64.6939 26.1724 65.7647 26.1724C67.1012 26.1724 67.7735 26.77 67.7735 27.874V28.6875L65.2086 28.8452C63.1251 28.9697 61.9464 29.8911 61.9464 31.4849V31.5015C61.9464 33.1284 63.233 34.1577 64.9346 34.1577ZM63.4239 31.4683V31.4517C63.4239 30.5635 64.0216 30.082 65.3829 29.999L67.7735 29.8496V30.6631C67.7735 31.9414 66.7027 32.9043 65.2335 32.9043C64.1959 32.9043 63.4239 32.373 63.4239 31.4683ZM71.4275 36.9883H72.8718V32.5889H73.0047C73.4944 33.5435 74.5652 34.1577 75.7937 34.1577C78.0681 34.1577 79.5457 32.3398 79.5457 29.5342V29.5176C79.5457 26.7285 78.0598 24.894 75.7937 24.894C74.5486 24.894 73.5525 25.4834 73.0047 26.4795H72.8718V25.0518H71.4275V36.9883ZM75.4617 32.8794C73.8347 32.8794 72.8386 31.6011 72.8386 29.5342V29.5176C72.8386 27.4507 73.8347 26.1724 75.4617 26.1724C77.0969 26.1724 78.0681 27.4341 78.0681 29.5176V29.5342C78.0681 31.6177 77.0969 32.8794 75.4617 32.8794ZM81.3735 36.9883H82.8178V32.5889H82.9506C83.4404 33.5435 84.5112 34.1577 85.7397 34.1577C88.0141 34.1577 89.4916 32.3398 89.4916 29.5342V29.5176C89.4916 26.7285 88.0058 24.894 85.7397 24.894C84.4946 24.894 83.4985 25.4834 82.9506 26.4795H82.8178V25.0518H81.3735V36.9883ZM85.4077 32.8794C83.7807 32.8794 82.7846 31.6011 82.7846 29.5342V29.5176C82.7846 27.4507 83.7807 26.1724 85.4077 26.1724C87.0429 26.1724 88.0141 27.4341 88.0141 29.5176V29.5342C88.0141 31.6177 87.0429 32.8794 85.4077 32.8794ZM94.3907 34.1577C96.4244 34.1577 97.9767 33.0537 97.9767 31.46V31.4434C97.9767 30.165 97.1632 29.4346 95.4781 29.0278L94.1002 28.6958C93.046 28.4385 92.5978 28.0566 92.5978 27.4507V27.4341C92.5978 26.6455 93.378 26.0977 94.4405 26.0977C95.5196 26.0977 96.2169 26.5874 96.4078 27.293H97.8273C97.628 25.832 96.3248 24.894 94.4488 24.894C92.548 24.894 91.1202 26.0146 91.1202 27.5005V27.5088C91.1202 28.7954 91.8756 29.5259 93.5524 29.9243L94.9386 30.2563C96.0426 30.522 96.4991 30.9453 96.4991 31.5513V31.5679C96.4991 32.3813 95.6442 32.9541 94.4405 32.9541C93.295 32.9541 92.5812 32.4644 92.3404 31.7173H90.8629C91.0289 33.1948 92.3986 34.1577 94.3907 34.1577ZM107.443 34.1577C108.688 34.1577 109.684 33.5684 110.232 32.5723H110.365V34H111.809V21.499H110.365V26.4629H110.232C109.742 25.5083 108.671 24.894 107.443 24.894C105.168 24.894 103.691 26.7119 103.691 29.5176V29.5342C103.691 32.3232 105.177 34.1577 107.443 34.1577ZM107.775 32.8794C106.14 32.8794 105.168 31.6177 105.168 29.5342V29.5176C105.168 27.4341 106.14 26.1724 107.775 26.1724C109.402 26.1724 110.398 27.4507 110.398 29.5176V29.5342C110.398 31.6011 109.402 32.8794 107.775 32.8794ZM117.148 34.1577C118.46 34.1577 119.364 33.6182 119.804 32.6636H119.937V34H121.382V25.0518H119.937V30.3477C119.937 31.9165 119.099 32.8794 117.522 32.8794C116.094 32.8794 115.513 32.1074 115.513 30.4971V25.0518H114.069V30.8457C114.069 32.9624 115.114 34.1577 117.148 34.1577ZM123.649 34H125.094V28.4551C125.094 27.1436 126.073 26.272 127.451 26.272C127.766 26.272 128.04 26.3052 128.339 26.355V24.9521C128.198 24.9272 127.891 24.894 127.617 24.894C126.405 24.894 125.567 25.4419 125.226 26.3799H125.094V25.0518H123.649V34ZM130.458 23.3252C131.005 23.3252 131.454 22.877 131.454 22.3291C131.454 21.7812 131.005 21.333 130.458 21.333C129.91 21.333 129.461 21.7812 129.461 22.3291C129.461 22.877 129.91 23.3252 130.458 23.3252ZM129.727 34H131.171V25.0518H129.727V34ZM133.464 34H134.908V28.7041C134.908 27.1353 135.813 26.1724 137.241 26.1724C138.669 26.1724 139.333 26.9443 139.333 28.5547V34H140.777V28.2061C140.777 26.0811 139.656 24.894 137.648 24.894C136.328 24.894 135.489 25.4502 135.041 26.3965H134.908V25.0518H133.464V34ZM146.647 37.1543C149.088 37.1543 150.632 35.876 150.632 33.8755V25.0518H149.187V26.5293H149.088C148.54 25.5166 147.56 24.894 146.299 24.894C143.958 24.894 142.514 26.7119 142.514 29.2188V29.2354C142.514 31.7422 143.95 33.5352 146.266 33.5352C147.494 33.5352 148.507 32.979 149.071 31.9912H149.204V33.8008C149.204 35.1206 148.249 35.876 146.647 35.876C145.361 35.876 144.564 35.3945 144.406 34.7139L144.398 34.7056H142.904L142.887 34.7139C143.111 36.1831 144.489 37.1543 146.647 37.1543ZM146.581 32.2568C144.921 32.2568 143.991 31.0117 143.991 29.2354V29.2188C143.991 27.4424 144.921 26.1724 146.581 26.1724C148.233 26.1724 149.237 27.4424 149.237 29.2188V29.2354C149.237 31.0117 148.241 32.2568 146.581 32.2568ZM157.425 34H158.919V28.812H164.223V27.4839H158.919V23.3667H164.697V22.022H157.425V34ZM170.218 34.1577C172.767 34.1577 174.344 32.3979 174.344 29.5342V29.5176C174.344 26.6455 172.767 24.894 170.218 24.894C167.67 24.894 166.093 26.6455 166.093 29.5176V29.5342C166.093 32.3979 167.67 34.1577 170.218 34.1577ZM170.218 32.8794C168.525 32.8794 167.57 31.6426 167.57 29.5342V29.5176C167.57 27.4009 168.525 26.1724 170.218 26.1724C171.912 26.1724 172.866 27.4009 172.866 29.5176V29.5342C172.866 31.6426 171.912 32.8794 170.218 32.8794ZM179.816 34.1577C181.965 34.1577 183.169 33.0039 183.534 31.3853L183.551 31.2939L182.123 31.3022L182.107 31.3521C181.775 32.3481 181.011 32.8794 179.807 32.8794C178.213 32.8794 177.184 31.5596 177.184 29.501V29.4844C177.184 27.4673 178.197 26.1724 179.807 26.1724C181.094 26.1724 181.891 26.8862 182.115 27.7661L182.123 27.791H183.559L183.551 27.7412C183.285 26.1475 181.982 24.894 179.807 24.894C177.3 24.894 175.707 26.7036 175.707 29.4844V29.501C175.707 32.3398 177.309 34.1577 179.816 34.1577ZM188.234 34.1577C189.546 34.1577 190.45 33.6182 190.89 32.6636H191.023V34H192.468V25.0518H191.023V30.3477C191.023 31.9165 190.185 32.8794 188.608 32.8794C187.18 32.8794 186.599 32.1074 186.599 30.4971V25.0518H185.155V30.8457C185.155 32.9624 186.2 34.1577 188.234 34.1577ZM197.807 34.1577C199.84 34.1577 201.393 33.0537 201.393 31.46V31.4434C201.393 30.165 200.579 29.4346 198.894 29.0278L197.516 28.6958C196.462 28.4385 196.014 28.0566 196.014 27.4507V27.4341C196.014 26.6455 196.794 26.0977 197.856 26.0977C198.936 26.0977 199.633 26.5874 199.824 27.293H201.243C201.044 25.832 199.741 24.894 197.865 24.894C195.964 24.894 194.536 26.0146 194.536 27.5005V27.5088C194.536 28.7954 195.291 29.5259 196.968 29.9243L198.354 30.2563C199.458 30.522 199.915 30.9453 199.915 31.5513V31.5679C199.915 32.3813 199.06 32.9541 197.856 32.9541C196.711 32.9541 195.997 32.4644 195.756 31.7173H194.279C194.445 33.1948 195.814 34.1577 197.807 34.1577Z" fill="black"/>
<g clip-path="url(#clip0_8628_279889)">
<rect x="285" y="12" width="50" height="32" rx="16" fill="#00ACC1"/>
<g filter="url(#filter0_d_8628_279889)">
<circle cx="319" cy="28" r="14" fill="white"/>
</g>
</g>
<path fill-rule="evenodd" clip-rule="evenodd" d="M171.5 65.925C182.525 65.925 191.575 74.975 191.575 86C191.575 97.025 182.525 106.075 171.5 106.075C161.321 106.075 152.826 98.3607 151.582 88.5H175.35V96L185.25 86L175.35 76V83.5H151.582C152.826 73.6393 161.321 65.925 171.5 65.925ZM171.5 111C185.35 111 196.5 99.85 196.5 86C196.5 72.15 185.35 61 171.5 61C157.65 61 146.5 72.15 146.5 86C146.5 99.85 157.65 111 171.5 111Z" fill="black" fill-opacity="0.15"/>
<path d="M41.4051 130H42.5477V126.058L45.7977 120.84H44.4964L42.0272 124.909H41.9256L39.4564 120.84H38.1551L41.4051 126.058V130ZM48.9189 130.121C50.8676 130.121 52.0737 128.775 52.0737 126.585V126.572C52.0737 124.376 50.8676 123.037 48.9189 123.037C46.9702 123.037 45.7641 124.376 45.7641 126.572V126.585C45.7641 128.775 46.9702 130.121 48.9189 130.121ZM48.9189 129.143C47.624 129.143 46.894 128.197 46.894 126.585V126.572C46.894 124.954 47.624 124.014 48.9189 124.014C50.2138 124.014 50.9438 124.954 50.9438 126.572V126.585C50.9438 128.197 50.2138 129.143 48.9189 129.143ZM56.001 130.121C57.004 130.121 57.6959 129.708 58.0323 128.978H58.1339V130H59.2383V123.157H58.1339V127.207C58.1339 128.407 57.4927 129.143 56.2867 129.143C55.1949 129.143 54.7506 128.553 54.7506 127.321V123.157H53.6461V127.588C53.6461 129.207 54.4459 130.121 56.001 130.121ZM67.6009 130.121C69.2449 130.121 70.1654 129.238 70.4447 128L70.4573 127.931L69.3656 127.937L69.3529 127.975C69.0989 128.737 68.515 129.143 67.5946 129.143C66.3758 129.143 65.5887 128.134 65.5887 126.56V126.547C65.5887 125.004 66.3631 124.014 67.5946 124.014C68.5784 124.014 69.1878 124.56 69.3592 125.233L69.3656 125.252H70.4637L70.4573 125.214C70.2542 123.995 69.2576 123.037 67.5946 123.037C65.6776 123.037 64.4588 124.42 64.4588 126.547V126.56C64.4588 128.73 65.6839 130.121 67.6009 130.121ZM73.8769 130.121C74.7973 130.121 75.5146 129.721 75.9462 128.991H76.0478V130H77.1523V125.315C77.1523 123.894 76.2192 123.037 74.5498 123.037C73.0898 123.037 72.0488 123.76 71.871 124.833L71.8647 124.871H72.9692L72.9755 124.852C73.1533 124.319 73.6928 124.014 74.5117 124.014C75.5336 124.014 76.0478 124.471 76.0478 125.315V125.938L74.0864 126.058C72.4931 126.153 71.5918 126.858 71.5918 128.077V128.089C71.5918 129.333 72.5756 130.121 73.8769 130.121ZM72.7216 128.064V128.051C72.7216 127.372 73.1787 127.004 74.2197 126.94L76.0478 126.826V127.448C76.0478 128.426 75.229 129.162 74.1054 129.162C73.312 129.162 72.7216 128.756 72.7216 128.064ZM79.0929 130H80.1973V125.95C80.1973 124.75 80.8892 124.014 81.981 124.014C83.0728 124.014 83.5806 124.604 83.5806 125.836V130H84.6851V125.569C84.6851 123.944 83.8282 123.037 82.2921 123.037C81.2828 123.037 80.6417 123.462 80.2989 124.186H80.1973V123.157H79.0929V130ZM92.9969 130.121C94.9456 130.121 96.1517 128.775 96.1517 126.585V126.572C96.1517 124.376 94.9456 123.037 92.9969 123.037C91.0482 123.037 89.8421 124.376 89.8421 126.572V126.585C89.8421 128.775 91.0482 130.121 92.9969 130.121ZM92.9969 129.143C91.702 129.143 90.972 128.197 90.972 126.585V126.572C90.972 124.954 91.702 124.014 92.9969 124.014C94.2918 124.014 95.0218 124.954 95.0218 126.572V126.585C95.0218 128.197 94.2918 129.143 92.9969 129.143ZM97.7876 130H98.8921V125.95C98.8921 124.75 99.584 124.014 100.676 124.014C101.768 124.014 102.275 124.604 102.275 125.836V130H103.38V125.569C103.38 123.944 102.523 123.037 100.987 123.037C99.9775 123.037 99.3364 123.462 98.9936 124.186H98.8921V123.157H97.7876V130ZM105.365 130H106.469V120.44H105.365V130ZM109.095 132.399C110.308 132.399 110.873 131.955 111.438 130.419L114.11 123.157H112.948L111.076 128.788H110.974L109.095 123.157H107.915L110.447 130.006L110.321 130.413C110.073 131.2 109.692 131.485 109.064 131.485C108.911 131.485 108.74 131.479 108.607 131.454V132.361C108.759 132.387 108.949 132.399 109.095 132.399ZM120.949 130.121C121.87 130.121 122.587 129.721 123.019 128.991H123.12V130H124.225V125.315C124.225 123.894 123.291 123.037 121.622 123.037C120.162 123.037 119.121 123.76 118.943 124.833L118.937 124.871H120.041L120.048 124.852C120.226 124.319 120.765 124.014 121.584 124.014C122.606 124.014 123.12 124.471 123.12 125.315V125.938L121.159 126.058C119.565 126.153 118.664 126.858 118.664 128.077V128.089C118.664 129.333 119.648 130.121 120.949 130.121ZM119.794 128.064V128.051C119.794 127.372 120.251 127.004 121.292 126.94L123.12 126.826V127.448C123.12 128.426 122.301 129.162 121.178 129.162C120.384 129.162 119.794 128.756 119.794 128.064ZM128.964 130.121C130.608 130.121 131.529 129.238 131.808 128L131.821 127.931L130.729 127.937L130.716 127.975C130.463 128.737 129.879 129.143 128.958 129.143C127.739 129.143 126.952 128.134 126.952 126.56V126.547C126.952 125.004 127.727 124.014 128.958 124.014C129.942 124.014 130.551 124.56 130.723 125.233L130.729 125.252H131.827L131.821 125.214C131.618 123.995 130.621 123.037 128.958 123.037C127.041 123.037 125.822 124.42 125.822 126.547V126.56C125.822 128.73 127.047 130.121 128.964 130.121ZM136.161 130.121C137.805 130.121 138.725 129.238 139.005 128L139.017 127.931L137.926 127.937L137.913 127.975C137.659 128.737 137.075 129.143 136.155 129.143C134.936 129.143 134.149 128.134 134.149 126.56V126.547C134.149 125.004 134.923 124.014 136.155 124.014C137.138 124.014 137.748 124.56 137.919 125.233L137.926 125.252H139.024L139.017 125.214C138.814 123.995 137.818 123.037 136.155 123.037C134.238 123.037 133.019 124.42 133.019 126.547V126.56C133.019 128.73 134.244 130.121 136.161 130.121ZM143.351 130.121C144.963 130.121 145.941 129.207 146.176 128.28L146.188 128.229H145.084L145.058 128.286C144.874 128.699 144.303 129.137 143.376 129.137C142.158 129.137 141.377 128.312 141.345 126.896H146.271V126.464C146.271 124.42 145.141 123.037 143.281 123.037C141.421 123.037 140.215 124.484 140.215 126.598V126.604C140.215 128.75 141.396 130.121 143.351 130.121ZM143.275 124.021C144.284 124.021 145.033 124.662 145.147 126.014H141.364C141.485 124.712 142.259 124.021 143.275 124.021ZM150.255 130.121C151.811 130.121 152.998 129.276 152.998 128.058V128.045C152.998 127.067 152.375 126.509 151.087 126.198L150.033 125.944C149.227 125.747 148.884 125.455 148.884 124.992V124.979C148.884 124.376 149.481 123.957 150.293 123.957C151.119 123.957 151.652 124.332 151.798 124.871H152.883C152.731 123.754 151.734 123.037 150.3 123.037C148.846 123.037 147.754 123.894 147.754 125.03V125.036C147.754 126.02 148.332 126.579 149.614 126.883L150.674 127.137C151.519 127.34 151.868 127.664 151.868 128.127V128.14C151.868 128.762 151.214 129.2 150.293 129.2C149.417 129.2 148.872 128.826 148.687 128.254H147.558C147.685 129.384 148.732 130.121 150.255 130.121ZM156.855 130.121C158.41 130.121 159.597 129.276 159.597 128.058V128.045C159.597 127.067 158.975 126.509 157.687 126.198L156.633 125.944C155.827 125.747 155.484 125.455 155.484 124.992V124.979C155.484 124.376 156.081 123.957 156.893 123.957C157.718 123.957 158.252 124.332 158.398 124.871H159.483C159.331 123.754 158.334 123.037 156.9 123.037C155.446 123.037 154.354 123.894 154.354 125.03V125.036C154.354 126.02 154.932 126.579 156.214 126.883L157.274 127.137C158.118 127.34 158.467 127.664 158.467 128.127V128.14C158.467 128.762 157.814 129.2 156.893 129.2C156.017 129.2 155.471 128.826 155.287 128.254H154.157C154.284 129.384 155.332 130.121 156.855 130.121ZM167.243 130.051C167.458 130.051 167.668 130.025 167.884 129.987V129.048C167.681 129.067 167.573 129.073 167.376 129.073C166.665 129.073 166.386 128.75 166.386 127.943V124.071H167.884V123.157H166.386V121.386H165.243V123.157H164.164V124.071H165.243V128.223C165.243 129.53 165.833 130.051 167.243 130.051ZM169.52 130H170.624V125.95C170.624 124.75 171.316 124.014 172.408 124.014C173.5 124.014 174.007 124.604 174.007 125.836V130H175.112V125.569C175.112 123.944 174.255 123.037 172.719 123.037C171.709 123.037 171.068 123.462 170.726 124.186H170.624V120.44H169.52V130ZM179.826 130.121C181.439 130.121 182.416 129.207 182.651 128.28L182.664 128.229H181.559L181.534 128.286C181.35 128.699 180.778 129.137 179.852 129.137C178.633 129.137 177.852 128.312 177.82 126.896H182.746V126.464C182.746 124.42 181.616 123.037 179.756 123.037C177.897 123.037 176.691 124.484 176.691 126.598V126.604C176.691 128.75 177.871 130.121 179.826 130.121ZM179.75 124.021C180.759 124.021 181.508 124.662 181.623 126.014H177.839C177.96 124.712 178.734 124.021 179.75 124.021ZM189.839 130.121C190.76 130.121 191.477 129.721 191.909 128.991H192.01V130H193.115V125.315C193.115 123.894 192.182 123.037 190.512 123.037C189.052 123.037 188.011 123.76 187.833 124.833L187.827 124.871H188.932L188.938 124.852C189.116 124.319 189.655 124.014 190.474 124.014C191.496 124.014 192.01 124.471 192.01 125.315V125.938L190.049 126.058C188.455 126.153 187.554 126.858 187.554 128.077V128.089C187.554 129.333 188.538 130.121 189.839 130.121ZM188.684 128.064V128.051C188.684 127.372 189.141 127.004 190.182 126.94L192.01 126.826V127.448C192.01 128.426 191.191 129.162 190.068 129.162C189.274 129.162 188.684 128.756 188.684 128.064ZM195.119 130H196.223V120.44H195.119V130ZM198.329 130H199.433V120.44H198.329V130ZM204.287 130.121C206.236 130.121 207.442 128.775 207.442 126.585V126.572C207.442 124.376 206.236 123.037 204.287 123.037C202.339 123.037 201.133 124.376 201.133 126.572V126.585C201.133 128.775 202.339 130.121 204.287 130.121ZM204.287 129.143C202.992 129.143 202.262 128.197 202.262 126.585V126.572C202.262 124.954 202.992 124.014 204.287 124.014C205.582 124.014 206.312 124.954 206.312 126.572V126.585C206.312 128.197 205.582 129.143 204.287 129.143ZM210.144 130H211.249L212.772 124.706H212.874L214.404 130H215.515L217.432 123.157H216.333L214.988 128.629H214.886L213.356 123.157H212.309L210.779 128.629H210.678L209.332 123.157H208.227L210.144 130ZM221.353 130.121C222.965 130.121 223.942 129.207 224.177 128.28L224.19 128.229H223.085L223.06 128.286C222.876 128.699 222.305 129.137 221.378 129.137C220.159 129.137 219.378 128.312 219.347 126.896H224.272V126.464C224.272 124.42 223.143 123.037 221.283 123.037C219.423 123.037 218.217 124.484 218.217 126.598V126.604C218.217 128.75 219.397 130.121 221.353 130.121ZM221.276 124.021C222.286 124.021 223.035 124.662 223.149 126.014H219.366C219.486 124.712 220.261 124.021 221.276 124.021ZM228.435 130.121C229.387 130.121 230.149 129.67 230.568 128.908H230.669V130H231.774V120.44H230.669V124.236H230.568C230.193 123.506 229.374 123.037 228.435 123.037C226.695 123.037 225.566 124.427 225.566 126.572V126.585C225.566 128.718 226.702 130.121 228.435 130.121ZM228.689 129.143C227.438 129.143 226.695 128.178 226.695 126.585V126.572C226.695 124.979 227.438 124.014 228.689 124.014C229.933 124.014 230.694 124.992 230.694 126.572V126.585C230.694 128.166 229.933 129.143 228.689 129.143ZM239.273 130.121C240.193 130.121 240.911 129.721 241.342 128.991H241.444V130H242.548V125.315C242.548 123.894 241.615 123.037 239.946 123.037C238.486 123.037 237.445 123.76 237.267 124.833L237.261 124.871H238.365L238.371 124.852C238.549 124.319 239.089 124.014 239.908 124.014C240.93 124.014 241.444 124.471 241.444 125.315V125.938L239.482 126.058C237.889 126.153 236.988 126.858 236.988 128.077V128.089C236.988 129.333 237.972 130.121 239.273 130.121ZM238.118 128.064V128.051C238.118 127.372 238.575 127.004 239.616 126.94L241.444 126.826V127.448C241.444 128.426 240.625 129.162 239.501 129.162C238.708 129.162 238.118 128.756 238.118 128.064ZM244.489 132.285H245.593V128.921H245.695C246.069 129.651 246.888 130.121 247.828 130.121C249.567 130.121 250.697 128.73 250.697 126.585V126.572C250.697 124.439 249.561 123.037 247.828 123.037C246.876 123.037 246.114 123.487 245.695 124.249H245.593V123.157H244.489V132.285ZM247.574 129.143C246.33 129.143 245.568 128.166 245.568 126.585V126.572C245.568 124.992 246.33 124.014 247.574 124.014C248.824 124.014 249.567 124.979 249.567 126.572V126.585C249.567 128.178 248.824 129.143 247.574 129.143ZM252.345 132.285H253.45V128.921H253.551C253.926 129.651 254.745 130.121 255.684 130.121C257.424 130.121 258.553 128.73 258.553 126.585V126.572C258.553 124.439 257.417 123.037 255.684 123.037C254.732 123.037 253.97 123.487 253.551 124.249H253.45V123.157H252.345V132.285ZM255.43 129.143C254.186 129.143 253.424 128.166 253.424 126.585V126.572C253.424 124.992 254.186 124.014 255.43 124.014C256.681 124.014 257.424 124.979 257.424 126.572V126.585C257.424 128.178 256.681 129.143 255.43 129.143ZM262.551 130.121C264.106 130.121 265.293 129.276 265.293 128.058V128.045C265.293 127.067 264.671 126.509 263.382 126.198L262.328 125.944C261.522 125.747 261.179 125.455 261.179 124.992V124.979C261.179 124.376 261.776 123.957 262.589 123.957C263.414 123.957 263.947 124.332 264.093 124.871H265.179C265.026 123.754 264.03 123.037 262.595 123.037C261.141 123.037 260.05 123.894 260.05 125.03V125.036C260.05 126.02 260.627 126.579 261.909 126.883L262.97 127.137C263.814 127.34 264.163 127.664 264.163 128.127V128.14C264.163 128.762 263.509 129.2 262.589 129.2C261.713 129.2 261.167 128.826 260.983 128.254H259.853C259.98 129.384 261.027 130.121 262.551 130.121ZM273.909 130.121C275.642 130.121 276.778 128.718 276.778 126.585V126.572C276.778 124.427 275.648 123.037 273.909 123.037C272.97 123.037 272.151 123.506 271.776 124.236H271.675V120.44H270.57V130H271.675V128.908H271.776C272.195 129.67 272.957 130.121 273.909 130.121ZM273.655 129.143C272.411 129.143 271.649 128.166 271.649 126.585V126.572C271.649 124.992 272.411 124.014 273.655 124.014C274.906 124.014 275.648 124.979 275.648 126.572V126.585C275.648 128.178 274.906 129.143 273.655 129.143ZM281.207 130.121C282.82 130.121 283.797 129.207 284.032 128.28L284.045 128.229H282.94L282.915 128.286C282.731 128.699 282.159 129.137 281.233 129.137C280.014 129.137 279.233 128.312 279.201 126.896H284.127V126.464C284.127 124.42 282.997 123.037 281.137 123.037C279.278 123.037 278.071 124.484 278.071 126.598V126.604C278.071 128.75 279.252 130.121 281.207 130.121ZM281.131 124.021C282.14 124.021 282.889 124.662 283.004 126.014H279.22C279.341 124.712 280.115 124.021 281.131 124.021ZM285.826 130H286.931V120.44H285.826V130ZM291.785 130.121C293.734 130.121 294.94 128.775 294.94 126.585V126.572C294.94 124.376 293.734 123.037 291.785 123.037C289.836 123.037 288.63 124.376 288.63 126.572V126.585C288.63 128.775 289.836 130.121 291.785 130.121ZM291.785 129.143C290.49 129.143 289.76 128.197 289.76 126.585V126.572C289.76 124.954 290.49 124.014 291.785 124.014C293.08 124.014 293.81 124.954 293.81 126.572V126.585C293.81 128.197 293.08 129.143 291.785 129.143ZM297.642 130H298.747L300.27 124.706H300.372L301.901 130H303.012L304.929 123.157H303.831L302.485 128.629H302.384L300.854 123.157H299.807L298.277 128.629H298.175L296.83 123.157H295.725L297.642 130ZM38.6602 148.121C39.6124 148.121 40.3741 147.67 40.793 146.908H40.8946V148H41.9991V138.44H40.8946V142.236H40.793C40.4185 141.506 39.5997 141.037 38.6602 141.037C36.921 141.037 35.7911 142.427 35.7911 144.572V144.585C35.7911 146.718 36.9273 148.121 38.6602 148.121ZM38.9141 147.143C37.6636 147.143 36.921 146.178 36.921 144.585V144.572C36.921 142.979 37.6636 142.014 38.9141 142.014C40.1583 142.014 40.92 142.992 40.92 144.572V144.585C40.92 146.166 40.1583 147.143 38.9141 147.143ZM46.3327 148.121C47.3356 148.121 48.0275 147.708 48.364 146.978H48.4655V148H49.57V141.157H48.4655V145.207C48.4655 146.407 47.8244 147.143 46.6184 147.143C45.5266 147.143 45.0822 146.553 45.0822 145.321V141.157H43.9777V145.588C43.9777 147.207 44.7775 148.121 46.3327 148.121ZM51.555 148H52.6595V143.76C52.6595 142.757 53.4085 142.09 54.4622 142.09C54.7034 142.09 54.9129 142.116 55.1414 142.154V141.081C55.0335 141.062 54.7987 141.037 54.5892 141.037C53.6624 141.037 53.0213 141.456 52.7611 142.173H52.6595V141.157H51.555V148ZM57.0122 139.837C57.4311 139.837 57.7739 139.494 57.7739 139.075C57.7739 138.656 57.4311 138.313 57.0122 138.313C56.5932 138.313 56.2504 138.656 56.2504 139.075C56.2504 139.494 56.5932 139.837 57.0122 139.837ZM56.4536 148H57.5581V141.157H56.4536V148ZM59.5621 148H60.6666V143.95C60.6666 142.75 61.3585 142.014 62.4503 142.014C63.5421 142.014 64.0499 142.604 64.0499 143.836V148H65.1544V143.569C65.1544 141.944 64.2974 141.037 62.7613 141.037C61.752 141.037 61.1109 141.462 60.7681 142.186H60.6666V141.157H59.5621V148ZM69.8942 150.412C71.7605 150.412 72.9411 149.435 72.9411 147.905V141.157H71.8366V142.287H71.7605C71.3415 141.513 70.5925 141.037 69.6276 141.037C67.8376 141.037 66.7331 142.427 66.7331 144.344V144.356C66.7331 146.273 67.8313 147.645 69.6022 147.645C70.5417 147.645 71.3161 147.219 71.7478 146.464H71.8493V147.848C71.8493 148.857 71.1193 149.435 69.8942 149.435C68.9104 149.435 68.301 149.066 68.1804 148.546L68.174 148.54H67.0314L67.0188 148.546C67.1901 149.669 68.2439 150.412 69.8942 150.412ZM69.8435 146.667C68.5739 146.667 67.863 145.715 67.863 144.356V144.344C67.863 142.985 68.5739 142.014 69.8435 142.014C71.1066 142.014 71.8747 142.985 71.8747 144.344V144.356C71.8747 145.715 71.113 146.667 69.8435 146.667ZM80.3769 148.121C81.2973 148.121 82.0146 147.721 82.4462 146.991H82.5478V148H83.6523V143.315C83.6523 141.894 82.7192 141.037 81.0498 141.037C79.5898 141.037 78.5488 141.76 78.3711 142.833L78.3647 142.871H79.4692L79.4755 142.852C79.6533 142.319 80.1928 142.014 81.0117 142.014C82.0336 142.014 82.5478 142.471 82.5478 143.315V143.938L80.5864 144.058C78.9931 144.153 78.0918 144.858 78.0918 146.077V146.089C78.0918 147.333 79.0756 148.121 80.3769 148.121ZM79.2216 146.064V146.051C79.2216 145.372 79.6787 145.004 80.7197 144.94L82.5478 144.826V145.448C82.5478 146.426 81.729 147.162 80.6054 147.162C79.812 147.162 79.2216 146.756 79.2216 146.064ZM89.3108 148H90.4533V144.033H94.5095V143.017H90.4533V139.869H94.8713V138.84H89.3108V148ZM99.3446 148.121C101.293 148.121 102.499 146.775 102.499 144.585V144.572C102.499 142.376 101.293 141.037 99.3446 141.037C97.3958 141.037 96.1898 142.376 96.1898 144.572V144.585C96.1898 146.775 97.3958 148.121 99.3446 148.121ZM99.3446 147.143C98.0497 147.143 97.3197 146.197 97.3197 144.585V144.572C97.3197 142.954 98.0497 142.014 99.3446 142.014C100.639 142.014 101.369 142.954 101.369 144.572V144.585C101.369 146.197 100.639 147.143 99.3446 147.143ZM106.935 148.121C108.579 148.121 109.499 147.238 109.778 146L109.791 145.931L108.699 145.937L108.686 145.975C108.433 146.737 107.849 147.143 106.928 147.143C105.709 147.143 104.922 146.134 104.922 144.56V144.547C104.922 143.004 105.697 142.014 106.928 142.014C107.912 142.014 108.521 142.56 108.693 143.233L108.699 143.252H109.797L109.791 143.214C109.588 141.995 108.591 141.037 106.928 141.037C105.011 141.037 103.792 142.42 103.792 144.547V144.56C103.792 146.73 105.018 148.121 106.935 148.121ZM113.623 148.121C114.626 148.121 115.318 147.708 115.654 146.978H115.756V148H116.86V141.157H115.756V145.207C115.756 146.407 115.115 147.143 113.909 147.143C112.817 147.143 112.373 146.553 112.373 145.321V141.157H111.268V145.588C111.268 147.207 112.068 148.121 113.623 148.121ZM121.194 148.121C122.749 148.121 123.936 147.276 123.936 146.058V146.045C123.936 145.067 123.314 144.509 122.026 144.198L120.972 143.944C120.166 143.747 119.823 143.455 119.823 142.992V142.979C119.823 142.376 120.42 141.957 121.232 141.957C122.057 141.957 122.591 142.332 122.737 142.871H123.822C123.67 141.754 122.673 141.037 121.239 141.037C119.785 141.037 118.693 141.894 118.693 143.03V143.036C118.693 144.02 119.271 144.579 120.553 144.883L121.613 145.137C122.457 145.34 122.806 145.664 122.806 146.127V146.14C122.806 146.762 122.153 147.2 121.232 147.2C120.356 147.2 119.81 146.826 119.626 146.254H118.496C118.623 147.384 119.671 148.121 121.194 148.121ZM126.473 148.063C126.931 148.063 127.299 147.689 127.299 147.238C127.299 146.781 126.931 146.413 126.473 146.413C126.023 146.413 125.648 146.781 125.648 147.238C125.648 147.689 126.023 148.063 126.473 148.063ZM135.452 148H136.594V139.869H139.546V138.84H132.5V139.869H135.452V148ZM141.156 148H142.261V143.95C142.261 142.75 142.953 142.014 144.045 142.014C145.136 142.014 145.644 142.604 145.644 143.836V148H146.749V143.569C146.749 141.944 145.892 141.037 144.356 141.037C143.346 141.037 142.705 141.462 142.363 142.186H142.261V138.44H141.156V148ZM151.463 148.121C153.076 148.121 154.053 147.207 154.288 146.28L154.301 146.229H153.196L153.171 146.286C152.987 146.699 152.415 147.137 151.489 147.137C150.27 147.137 149.489 146.312 149.457 144.896H154.383V144.464C154.383 142.42 153.253 141.037 151.393 141.037C149.534 141.037 148.328 142.484 148.328 144.598V144.604C148.328 146.75 149.508 148.121 151.463 148.121ZM151.387 142.021C152.396 142.021 153.145 142.662 153.26 144.014H149.476C149.597 142.712 150.371 142.021 151.387 142.021ZM159.737 148H160.88V144.731H163.19C164.91 144.731 166.129 143.519 166.129 141.779V141.767C166.129 140.027 164.91 138.84 163.19 138.84H159.737V148ZM162.898 139.856C164.206 139.856 164.961 140.573 164.961 141.779V141.792C164.961 142.998 164.206 143.715 162.898 143.715H160.88V139.856H162.898ZM167.784 148H168.888V143.76C168.888 142.757 169.637 142.09 170.691 142.09C170.932 142.09 171.142 142.116 171.37 142.154V141.081C171.262 141.062 171.028 141.037 170.818 141.037C169.891 141.037 169.25 141.456 168.99 142.173H168.888V141.157H167.784V148ZM173.241 139.837C173.66 139.837 174.003 139.494 174.003 139.075C174.003 138.656 173.66 138.313 173.241 138.313C172.822 138.313 172.479 138.656 172.479 139.075C172.479 139.494 172.822 139.837 173.241 139.837ZM172.682 148H173.787V141.157H172.682V148ZM178.59 148.121C180.234 148.121 181.155 147.238 181.434 146L181.447 145.931L180.355 145.937L180.342 145.975C180.088 146.737 179.504 147.143 178.584 147.143C177.365 147.143 176.578 146.134 176.578 144.56V144.547C176.578 143.004 177.353 142.014 178.584 142.014C179.568 142.014 180.177 142.56 180.349 143.233L180.355 143.252H181.453L181.447 143.214C181.244 141.995 180.247 141.037 178.584 141.037C176.667 141.037 175.448 142.42 175.448 144.547V144.56C175.448 146.73 176.673 148.121 178.59 148.121ZM185.78 148.121C187.393 148.121 188.37 147.207 188.605 146.28L188.618 146.229H187.513L187.488 146.286C187.304 146.699 186.733 147.137 185.806 147.137C184.587 147.137 183.806 146.312 183.775 144.896H188.7V144.464C188.7 142.42 187.57 141.037 185.711 141.037C183.851 141.037 182.645 142.484 182.645 144.598V144.604C182.645 146.75 183.825 148.121 185.78 148.121ZM185.704 142.021C186.714 142.021 187.463 142.662 187.577 144.014H183.794C183.914 142.712 184.689 142.021 185.704 142.021ZM194.371 148H195.476V142.071H197.031V141.157H195.476V140.427C195.476 139.678 195.793 139.291 196.58 139.291C196.777 139.291 196.961 139.297 197.095 139.323V138.44C196.866 138.396 196.625 138.377 196.358 138.377C195.057 138.377 194.371 139.031 194.371 140.396V141.157H193.235V142.071H194.371V148ZM201.047 148.121C202.66 148.121 203.637 147.207 203.872 146.28L203.885 146.229H202.78L202.755 146.286C202.571 146.699 202 147.137 201.073 147.137C199.854 147.137 199.073 146.312 199.042 144.896H203.967V144.464C203.967 142.42 202.837 141.037 200.978 141.037C199.118 141.037 197.912 142.484 197.912 144.598V144.604C197.912 146.75 199.092 148.121 201.047 148.121ZM200.971 142.021C201.98 142.021 202.73 142.662 202.844 144.014H199.061C199.181 142.712 199.956 142.021 200.971 142.021ZM207.482 148.121C208.402 148.121 209.12 147.721 209.551 146.991H209.653V148H210.757V143.315C210.757 141.894 209.824 141.037 208.155 141.037C206.695 141.037 205.654 141.76 205.476 142.833L205.47 142.871H206.574L206.581 142.852C206.758 142.319 207.298 142.014 208.117 142.014C209.139 142.014 209.653 142.471 209.653 143.315V143.938L207.692 144.058C206.098 144.153 205.197 144.858 205.197 146.077V146.089C205.197 147.333 206.181 148.121 207.482 148.121ZM206.327 146.064V146.051C206.327 145.372 206.784 145.004 207.825 144.94L209.653 144.826V145.448C209.653 146.426 208.834 147.162 207.711 147.162C206.917 147.162 206.327 146.756 206.327 146.064ZM215.129 148.051C215.345 148.051 215.554 148.025 215.77 147.987V147.048C215.567 147.067 215.459 147.073 215.262 147.073C214.552 147.073 214.272 146.75 214.272 145.943V142.071H215.77V141.157H214.272V139.386H213.13V141.157H212.051V142.071H213.13V146.223C213.13 147.53 213.72 148.051 215.129 148.051ZM219.634 148.121C220.637 148.121 221.329 147.708 221.665 146.978H221.767V148H222.871V141.157H221.767V145.207C221.767 146.407 221.126 147.143 219.92 147.143C218.828 147.143 218.384 146.553 218.384 145.321V141.157H217.279V145.588C217.279 147.207 218.079 148.121 219.634 148.121ZM224.856 148H225.961V143.76C225.961 142.757 226.71 142.09 227.764 142.09C228.005 142.09 228.214 142.116 228.443 142.154V141.081C228.335 141.062 228.1 141.037 227.891 141.037C226.964 141.037 226.323 141.456 226.063 142.173H225.961V141.157H224.856V148ZM232.332 148.121C233.944 148.121 234.922 147.207 235.157 146.28L235.17 146.229H234.065L234.04 146.286C233.856 146.699 233.284 147.137 232.358 147.137C231.139 147.137 230.358 146.312 230.326 144.896H235.252V144.464C235.252 142.42 234.122 141.037 232.262 141.037C230.402 141.037 229.196 142.484 229.196 144.598V144.604C229.196 146.75 230.377 148.121 232.332 148.121ZM232.256 142.021C233.265 142.021 234.014 142.662 234.129 144.014H230.345C230.466 142.712 231.24 142.021 232.256 142.021ZM241.05 139.837C241.469 139.837 241.812 139.494 241.812 139.075C241.812 138.656 241.469 138.313 241.05 138.313C240.631 138.313 240.288 138.656 240.288 139.075C240.288 139.494 240.631 139.837 241.05 139.837ZM240.492 148H241.596V141.157H240.492V148ZM245.949 148.121C247.504 148.121 248.691 147.276 248.691 146.058V146.045C248.691 145.067 248.069 144.509 246.78 144.198L245.727 143.944C244.92 143.747 244.578 143.455 244.578 142.992V142.979C244.578 142.376 245.174 141.957 245.987 141.957C246.812 141.957 247.345 142.332 247.491 142.871H248.577C248.424 141.754 247.428 141.037 245.993 141.037C244.54 141.037 243.448 141.894 243.448 143.03V143.036C243.448 144.02 244.025 144.579 245.308 144.883L246.368 145.137C247.212 145.34 247.561 145.664 247.561 146.127V146.14C247.561 146.762 246.907 147.2 245.987 147.2C245.111 147.2 244.565 146.826 244.381 146.254H243.251C243.378 147.384 244.425 148.121 245.949 148.121ZM256.431 148.121C257.384 148.121 258.145 147.67 258.564 146.908H258.666V148H259.77V138.44H258.666V142.236H258.564C258.19 141.506 257.371 141.037 256.431 141.037C254.692 141.037 253.562 142.427 253.562 144.572V144.585C253.562 146.718 254.699 148.121 256.431 148.121ZM256.685 147.143C255.435 147.143 254.692 146.178 254.692 144.585V144.572C254.692 142.979 255.435 142.014 256.685 142.014C257.929 142.014 258.691 142.992 258.691 144.572V144.585C258.691 146.166 257.929 147.143 256.685 147.143ZM262.396 139.837C262.815 139.837 263.158 139.494 263.158 139.075C263.158 138.656 262.815 138.313 262.396 138.313C261.977 138.313 261.635 138.656 261.635 139.075C261.635 139.494 261.977 139.837 262.396 139.837ZM261.838 148H262.942V141.157H261.838V148ZM267.295 148.121C268.85 148.121 270.037 147.276 270.037 146.058V146.045C270.037 145.067 269.415 144.509 268.127 144.198L267.073 143.944C266.267 143.747 265.924 143.455 265.924 142.992V142.979C265.924 142.376 266.521 141.957 267.333 141.957C268.158 141.957 268.691 142.332 268.837 142.871H269.923C269.771 141.754 268.774 141.037 267.339 141.037C265.886 141.037 264.794 141.894 264.794 143.03V143.036C264.794 144.02 265.372 144.579 266.654 144.883L267.714 145.137C268.558 145.34 268.907 145.664 268.907 146.127V146.14C268.907 146.762 268.253 147.2 267.333 147.2C266.457 147.2 265.911 146.826 265.727 146.254H264.597C264.724 147.384 265.772 148.121 267.295 148.121ZM273.552 148.121C274.472 148.121 275.19 147.721 275.621 146.991H275.723V148H276.827V143.315C276.827 141.894 275.894 141.037 274.225 141.037C272.765 141.037 271.724 141.76 271.546 142.833L271.54 142.871H272.644L272.651 142.852C272.828 142.319 273.368 142.014 274.187 142.014C275.209 142.014 275.723 142.471 275.723 143.315V143.938L273.761 144.058C272.168 144.153 271.267 144.858 271.267 146.077V146.089C271.267 147.333 272.251 148.121 273.552 148.121ZM272.397 146.064V146.051C272.397 145.372 272.854 145.004 273.895 144.94L275.723 144.826V145.448C275.723 146.426 274.904 147.162 273.78 147.162C272.987 147.162 272.397 146.756 272.397 146.064ZM282.17 148.121C283.903 148.121 285.039 146.718 285.039 144.585V144.572C285.039 142.427 283.909 141.037 282.17 141.037C281.231 141.037 280.412 141.506 280.037 142.236H279.936V138.44H278.831V148H279.936V146.908H280.037C280.456 147.67 281.218 148.121 282.17 148.121ZM281.916 147.143C280.672 147.143 279.91 146.166 279.91 144.585V144.572C279.91 142.992 280.672 142.014 281.916 142.014C283.167 142.014 283.909 142.979 283.909 144.572V144.585C283.909 146.178 283.167 147.143 281.916 147.143ZM286.739 148H287.843V138.44H286.739V148ZM292.678 148.121C294.291 148.121 295.268 147.207 295.503 146.28L295.516 146.229H294.411L294.386 146.286C294.202 146.699 293.63 147.137 292.704 147.137C291.485 147.137 290.704 146.312 290.672 144.896H295.598V144.464C295.598 142.42 294.468 141.037 292.608 141.037C290.749 141.037 289.543 142.484 289.543 144.598V144.604C289.543 146.75 290.723 148.121 292.678 148.121ZM292.602 142.021C293.611 142.021 294.36 142.662 294.475 144.014H290.691C290.812 142.712 291.586 142.021 292.602 142.021ZM299.76 148.121C300.713 148.121 301.474 147.67 301.893 146.908H301.995V148H303.099V138.44H301.995V142.236H301.893C301.519 141.506 300.7 141.037 299.76 141.037C298.021 141.037 296.891 142.427 296.891 144.572V144.585C296.891 146.718 298.028 148.121 299.76 148.121ZM300.014 147.143C298.764 147.143 298.021 146.178 298.021 144.585V144.572C298.021 142.979 298.764 142.014 300.014 142.014C301.258 142.014 302.02 142.992 302.02 144.572V144.585C302.02 146.166 301.258 147.143 300.014 147.143ZM306.043 148.063C306.5 148.063 306.868 147.689 306.868 147.238C306.868 146.781 306.5 146.413 306.043 146.413C305.592 146.413 305.218 146.781 305.218 147.238C305.218 147.689 305.592 148.063 306.043 148.063Z" fill="black" fill-opacity="0.5"/>
<rect width="343" height="44" transform="translate(0 160)" fill="white"/>
<path d="M47.74 177.593C48.0867 177.246 48.0867 176.669 47.74 176.34L45.6603 174.26C45.3315 173.913 44.7538 173.913 44.4072 174.26L42.7718 175.886L46.1047 179.219L47.74 177.593ZM32 186.667V190H35.3329L45.1626 180.161L41.8297 176.828L32 186.667Z" fill="black"/>
<path d="M64.5728 188H66.1416L67.3452 184.572H72.1099L73.3135 188H74.8823L70.4663 176.022H68.9888L64.5728 188ZM69.6611 177.956H69.7939L71.6699 183.302H67.7852L69.6611 177.956ZM76.4528 188H77.8971V175.499H76.4528V188ZM80.3226 188H81.767V175.499H80.3226V188ZM87.7867 188.158C90.335 188.158 91.9121 186.398 91.9121 183.534V183.518C91.9121 180.646 90.335 178.894 87.7867 178.894C85.2383 178.894 83.6612 180.646 83.6612 183.518V183.534C83.6612 186.398 85.2383 188.158 87.7867 188.158ZM87.7867 186.879C86.0933 186.879 85.1387 185.643 85.1387 183.534V183.518C85.1387 181.401 86.0933 180.172 87.7867 180.172C89.48 180.172 90.4346 181.401 90.4346 183.518V183.534C90.4346 185.643 89.48 186.879 87.7867 186.879ZM95.1179 188H96.5622L98.5544 181.077H98.6872L100.688 188H102.14L104.647 179.052H103.211L101.451 186.207H101.319L99.3181 179.052H97.9485L95.948 186.207H95.8152L94.0554 179.052H92.6111L95.1179 188ZM112.935 188.158C114.138 188.158 115.076 187.635 115.641 186.68H115.774V188H117.218V181.874C117.218 180.015 115.998 178.894 113.815 178.894C111.905 178.894 110.544 179.84 110.312 181.243L110.303 181.293H111.748L111.756 181.268C111.988 180.571 112.694 180.172 113.765 180.172C115.101 180.172 115.774 180.77 115.774 181.874V182.688L113.209 182.845C111.125 182.97 109.946 183.891 109.946 185.485V185.501C109.946 187.128 111.233 188.158 112.935 188.158ZM111.424 185.468V185.452C111.424 184.563 112.022 184.082 113.383 183.999L115.774 183.85V184.663C115.774 185.941 114.703 186.904 113.233 186.904C112.196 186.904 111.424 186.373 111.424 185.468ZM119.511 188H120.955V175.499H119.511V188ZM123.38 188H124.825V175.499H123.38V188ZM133.975 188.158C135.179 188.158 136.117 187.635 136.681 186.68H136.814V188H138.259V181.874C138.259 180.015 137.038 178.894 134.855 178.894C132.946 178.894 131.585 179.84 131.352 181.243L131.344 181.293H132.788L132.797 181.268C133.029 180.571 133.735 180.172 134.805 180.172C136.142 180.172 136.814 180.77 136.814 181.874V182.688L134.249 182.845C132.166 182.97 130.987 183.891 130.987 185.485V185.501C130.987 187.128 132.274 188.158 133.975 188.158ZM132.465 185.468V185.452C132.465 184.563 133.062 184.082 134.424 183.999L136.814 183.85V184.663C136.814 185.941 135.743 186.904 134.274 186.904C133.237 186.904 132.465 186.373 132.465 185.468ZM140.468 190.988H141.913V186.589H142.045C142.535 187.543 143.606 188.158 144.834 188.158C147.109 188.158 148.586 186.34 148.586 183.534V183.518C148.586 180.729 147.101 178.894 144.834 178.894C143.589 178.894 142.593 179.483 142.045 180.479H141.913V179.052H140.468V190.988ZM144.502 186.879C142.875 186.879 141.879 185.601 141.879 183.534V183.518C141.879 181.451 142.875 180.172 144.502 180.172C146.138 180.172 147.109 181.434 147.109 183.518V183.534C147.109 185.618 146.138 186.879 144.502 186.879ZM150.414 190.988H151.859V186.589H151.991C152.481 187.543 153.552 188.158 154.78 188.158C157.055 188.158 158.532 186.34 158.532 183.534V183.518C158.532 180.729 157.047 178.894 154.78 178.894C153.535 178.894 152.539 179.483 151.991 180.479H151.859V179.052H150.414V190.988ZM154.448 186.879C152.821 186.879 151.825 185.601 151.825 183.534V183.518C151.825 181.451 152.821 180.172 154.448 180.172C156.084 180.172 157.055 181.434 157.055 183.518V183.534C157.055 185.618 156.084 186.879 154.448 186.879ZM163.431 188.158C165.465 188.158 167.017 187.054 167.017 185.46V185.443C167.017 184.165 166.204 183.435 164.519 183.028L163.141 182.696C162.087 182.438 161.639 182.057 161.639 181.451V181.434C161.639 180.646 162.419 180.098 163.481 180.098C164.56 180.098 165.258 180.587 165.449 181.293H166.868C166.669 179.832 165.366 178.894 163.49 178.894C161.589 178.894 160.161 180.015 160.161 181.5V181.509C160.161 182.795 160.916 183.526 162.593 183.924L163.979 184.256C165.083 184.522 165.54 184.945 165.54 185.551V185.568C165.54 186.381 164.685 186.954 163.481 186.954C162.336 186.954 161.622 186.464 161.381 185.717H159.904C160.07 187.195 161.439 188.158 163.431 188.158Z" fill="black"/>
<path d="M343 215.5H0V216.5H343V215.5Z" fill="black" fill-opacity="0.15" mask="url(#path-1-inside-1_8628_279889)"/>
<defs>
<filter id="filter0_d_8628_279889" x="301" y="12" width="36" height="36" filterUnits="userSpaceOnUse" color-interpolation-filters="sRGB">
<feFlood flood-opacity="0" result="BackgroundImageFix"/>
<feColorMatrix in="SourceAlpha" type="matrix" values="0 0 0 0 0 0 0 0 0 0 0 0 0 0 0 0 0 0 127 0" result="hardAlpha"/>
<feOffset dy="2"/>
<feGaussianBlur stdDeviation="2"/>
<feComposite in2="hardAlpha" operator="out"/>
<feColorMatrix type="matrix" values="0 0 0 0 0 0 0 0 0 0 0 0 0 0 0 0 0 0 0.15 0"/>
<feBlend mode="normal" in2="BackgroundImageFix" result="effect1_dropShadow_8628_279889"/>
<feBlend mode="normal" in="SourceGraphic" in2="effect1_dropShadow_8628_279889" result="shape"/>
</filter>
<clipPath id="clip0_8628_279889">
<rect x="285" y="12" width="50" height="32" rx="16" fill="white"/>
</clipPath>
</defs>
</svg>
