<svg width="186" height="100" viewBox="0 0 186 100" fill="none" xmlns="http://www.w3.org/2000/svg">
<g clip-path="url(#clip0_16053_345187)">
<g clip-path="url(#clip1_16053_345187)">
<path d="M13.0001 34.0058C23.4935 23.5097 40.5065 23.5097 50.9999 34.0058C61.4932 44.5019 61.4932 61.5195 50.9999 72.0156C40.5065 82.5117 23.4935 82.5117 13.0001 72.0156C2.50679 61.5195 2.50679 44.5019 13.0001 34.0058Z" fill="#7DBF00"/>
<path d="M46.2812 59.3365L33.8136 66.6325L31.9375 47.4434L30.0318 66.6325L17.47 59.3365L29.1149 72.8815L29.0538 100.001L34.482 99.9969L34.4209 72.8815L46.2812 59.3365Z" fill="#C56D27"/>
<path opacity="0.2" d="M32.0001 99.9993H34.481V79.7667C47.9833 78.3457 58.9922 66.8851 58.9922 53.0017C58.9922 38.1553 47.3396 25.8142 32.1223 26.1239" fill="white"/>
</g>
<g clip-path="url(#clip2_16053_345187)">
<path d="M58.7501 27.794C70.21 16.3101 88.79 16.3101 100.25 27.794C111.71 39.278 111.71 57.8972 100.25 69.3812C88.79 80.8652 70.21 80.8652 58.7501 69.3812C47.2903 57.8972 47.2903 39.278 58.7501 27.794Z" fill="#7DBF00"/>
<path d="M95.0977 55.5086L81.4817 63.4913L79.4328 42.4961L77.3515 63.4913L63.6327 55.5086L76.3502 70.3284L76.2835 100.001L82.2116 99.9959L82.1449 70.3284L95.0977 55.5086Z" fill="#C56D27"/>
<path opacity="0.2" d="M79.4984 99.9987H82.2077V77.8618C96.9537 76.3071 108.977 63.7679 108.977 48.5778C108.977 32.3341 96.2507 18.8315 79.6318 19.1703" fill="white"/>
</g>
<g clip-path="url(#clip3_16053_345187)">
<path d="M123.835 35.4607L125.627 26.5527C126.518 26.6266 127.414 26.6734 128.327 26.6734C129.08 26.6734 129.825 26.6387 130.565 26.5873L132.053 35.4607L145.974 31.6944C146.208 32.3346 146.488 32.9571 146.812 33.557C146.812 33.557 139.413 36.8773 138.337 39.1672C142.946 45.1205 145.109 99.9944 145.109 99.9944H113.07C113.07 99.9944 114.198 43.4683 117.611 38.6641C116.613 36.7885 108.969 33.9133 108.969 33.9133C109.333 33.2984 109.651 32.657 109.919 31.9946L123.835 35.4607Z" fill="#BA9175"/>
<path d="M96.4826 27.3176C98.5222 27.3131 100.56 27.4547 102.579 27.7412C98.7476 26.1049 96.4826 24.0946 96.4826 21.9113C96.4826 16.4376 110.739 12 128.325 12C145.912 12 160.168 16.4376 160.168 21.9113C160.168 24.0375 158.01 26.0048 154.349 27.615C156.066 27.4124 157.794 27.3115 159.523 27.3129C167.518 27.3129 173.996 29.3298 173.996 31.8179C173.996 34.306 167.518 36.3228 159.523 36.3228C154.038 36.3228 149.27 35.3729 146.811 33.9731C146.515 33.8045 146.234 33.6092 145.973 33.3897C145.712 33.2113 145.494 32.978 145.335 32.7063C145.175 32.4346 145.077 32.1313 145.049 31.8179C145.083 31.4739 145.197 31.1424 145.381 30.8494C145.565 30.5563 145.815 30.3095 146.111 30.1283C140.99 31.1537 135.784 31.7102 130.56 31.7908C129.82 31.8067 129.076 31.8179 128.322 31.8179C127.412 31.8179 126.513 31.8029 125.622 31.7805C120.231 31.6782 114.862 31.0553 109.592 29.9207C109.957 30.1028 110.272 30.371 110.51 30.7018C110.747 31.0326 110.899 31.4161 110.953 31.8188C110.92 32.157 110.809 32.4831 110.63 32.7723C110.451 33.0616 110.207 33.3063 109.918 33.4879C109.62 33.7154 109.302 33.9169 108.968 34.09C106.456 35.4252 101.812 36.3238 96.4835 36.3238C88.4882 36.3238 82.0074 34.3069 82.0074 31.8188C82.0074 29.3307 88.4864 27.3176 96.4826 27.3176Z" fill="#5F9904"/>
<path opacity="0.2" d="M96.4763 27.3156C98.516 27.3112 100.553 27.4528 102.572 27.7392C98.7413 26.1029 96.4781 24.0926 96.4781 21.9093C96.4781 16.4684 110.539 12.0523 128.004 11.998V99.998H113.063C113.063 99.998 114.192 43.471 117.604 38.6668C116.7 36.966 110.329 34.4433 109.149 33.9917C109.087 34.0263 109.026 34.0609 108.961 34.0955C106.449 35.4307 101.805 36.3293 96.4763 36.3293C88.4811 36.3293 82.0002 34.3124 82.0002 31.8243C82.0002 29.3362 88.4811 27.3156 96.4763 27.3156ZM110.95 31.8206C110.949 31.9626 110.928 32.1037 110.886 32.2395L123.827 35.4588L124.573 31.7495C119.532 31.5998 114.516 30.9881 109.588 29.9225C109.954 30.1047 110.269 30.373 110.506 30.704C110.743 31.035 110.896 31.4187 110.95 31.8215V31.8206Z" fill="white"/>
</g>
<path d="M176 0L173.48 5.5L168 8L173.48 10.52L176 16L178.5 10.52L184 8L178.5 5.5M156 6L151 17L140 22L151 27L156 38L161 27L172 22L161 17M176 28L173.48 33.48L168 36L173.48 38.5L176 44L178.5 38.5L184 36L178.5 33.48" fill="#FFA726"/>
</g>
<defs>
<clipPath id="clip0_16053_345187">
<rect width="186" height="100" fill="white"/>
</clipPath>
<clipPath id="clip1_16053_345187">
<rect width="76" height="85" fill="white" transform="matrix(-1 0 0 1 70 15)"/>
</clipPath>
<clipPath id="clip2_16053_345187">
<rect width="83" height="93" fill="white" transform="matrix(-1 0 0 1 121 7)"/>
</clipPath>
<clipPath id="clip3_16053_345187">
<rect width="92" height="88" fill="white" transform="matrix(-1 0 0 1 174 12)"/>
</clipPath>
</defs>
</svg>
