<svg width="424" height="100" viewBox="0 0 424 100" fill="none" xmlns="http://www.w3.org/2000/svg">
<g clip-path="url(#clip0_16053_341092)">
<path d="M132.05 70.4305H127.004L154.382 8.97051L157.64 0.00585938L160.869 8.96757L188 70.4305H182.995L188 84.2797H161.099L160.783 80.5738L173.913 69.3913L159.688 73.5294L157.5 57.6342L155.313 73.5372L141.088 69.4119L154.218 80.5738L153.901 84.2806H127.004L132.05 70.4305Z" fill="#5F9904"/>
<path d="M141.086 69.4075L155.312 73.5329L157.499 57.6328L159.687 73.5329L173.914 69.4075L160.781 80.6048L161.098 84.3529L162.422 99.9966H152.575L153.898 84.3529L154.215 80.6048L141.086 69.4075Z" fill="#C56D27"/>
<path opacity="0.2" d="M132.057 70.4305H127L154.411 8.88114L157.637 0.00488281L157.362 99.9027L152.577 99.9125L153.896 84.3484H127.002L132.057 70.4305Z" fill="white"/>
<path opacity="0.2" d="M163.326 44.8773C163.326 45.4261 163.489 45.9626 163.794 46.419C164.1 46.8753 164.534 47.2309 165.042 47.4409C165.551 47.6509 166.11 47.7058 166.649 47.5986C167.188 47.4915 167.684 47.2271 168.073 46.839C168.462 46.4508 168.726 45.9563 168.833 45.418C168.941 44.8797 168.885 44.3218 168.675 43.8148C168.464 43.3078 168.108 42.8744 167.65 42.5697C167.193 42.2649 166.655 42.1023 166.105 42.1025C165.368 42.1028 164.661 42.3952 164.14 42.9156C163.618 43.4359 163.326 44.1416 163.326 44.8773V44.8773Z" fill="white"/>
<path opacity="0.2" d="M146.778 54.6693C146.425 53.1783 147.349 51.6838 148.844 51.3313C150.338 50.9788 151.835 51.9019 152.189 53.3929C152.542 54.884 151.617 56.3785 150.123 56.731C148.629 57.0834 147.131 56.1604 146.778 54.6693Z" fill="white"/>
<path opacity="0.2" d="M145.289 38.5521C144.936 37.0611 145.861 35.5666 147.355 35.2141C148.85 34.8617 150.347 35.7847 150.7 37.2758C151.054 38.7668 150.129 40.2613 148.634 40.6138C147.14 40.9662 145.643 40.0432 145.289 38.5521Z" fill="white"/>
<path opacity="0.2" d="M156.032 24.3129C155.678 22.8218 156.603 21.3273 158.098 20.9749C159.592 20.6224 161.089 21.5454 161.443 23.0365C161.796 24.5276 160.871 26.0221 159.377 26.3745C157.882 26.727 156.385 25.804 156.032 24.3129Z" fill="white"/>
<path opacity="0.2" d="M168.983 61.0688C168.595 59.586 169.485 58.0702 170.971 57.683C172.457 57.2959 173.976 58.1841 174.364 59.6668C174.752 61.1496 173.862 62.6654 172.376 63.0525C170.89 63.4397 169.371 62.5515 168.983 61.0688Z" fill="white"/>
<path opacity="0.2" d="M134.864 78.768C134.51 77.2769 135.435 75.7824 136.93 75.4299C138.424 75.0775 139.921 76.0005 140.275 77.4916C140.628 78.9827 139.703 80.4771 138.209 80.8296C136.714 81.1821 135.217 80.259 134.864 78.768Z" fill="white"/>
</g>
<g clip-path="url(#clip1_16053_341092)">
<path d="M332.05 70.4305H327.004L354.382 8.97051L357.64 0.00585938L360.869 8.96757L388 70.4305H382.995L388 84.2797H361.099L360.783 80.5738L373.913 69.3913L359.688 73.5294L357.5 57.6342L355.313 73.5372L341.088 69.4119L354.218 80.5738L353.901 84.2806H327.004L332.05 70.4305Z" fill="#5F9904"/>
<path d="M341.086 69.4075L355.312 73.5329L357.499 57.6328L359.687 73.5329L373.914 69.4075L360.781 80.6048L361.098 84.3529L362.422 99.9966H352.575L353.898 84.3529L354.215 80.6048L341.086 69.4075Z" fill="#C56D27"/>
<path opacity="0.2" d="M332.057 70.4305H327L354.411 8.88114L357.637 0.00488281L357.362 99.9027L352.577 99.9125L353.896 84.3484H327.002L332.057 70.4305Z" fill="white"/>
<path opacity="0.2" d="M363.326 44.8773C363.326 45.4261 363.489 45.9626 363.794 46.419C364.1 46.8753 364.534 47.2309 365.042 47.4409C365.551 47.6509 366.11 47.7058 366.649 47.5986C367.188 47.4915 367.684 47.2271 368.073 46.839C368.462 46.4508 368.726 45.9563 368.833 45.418C368.941 44.8797 368.885 44.3218 368.675 43.8148C368.464 43.3078 368.108 42.8744 367.65 42.5697C367.193 42.2649 366.655 42.1023 366.105 42.1025C365.368 42.1028 364.661 42.3952 364.14 42.9156C363.618 43.4359 363.326 44.1416 363.326 44.8773V44.8773Z" fill="white"/>
<path opacity="0.2" d="M346.778 54.6693C346.425 53.1783 347.349 51.6838 348.844 51.3313C350.338 50.9788 351.835 51.9019 352.189 53.3929C352.542 54.884 351.617 56.3785 350.123 56.731C348.629 57.0834 347.131 56.1604 346.778 54.6693Z" fill="white"/>
<path opacity="0.2" d="M345.289 38.5521C344.936 37.0611 345.861 35.5666 347.355 35.2141C348.85 34.8617 350.347 35.7847 350.7 37.2758C351.054 38.7668 350.129 40.2613 348.634 40.6138C347.14 40.9662 345.643 40.0432 345.289 38.5521Z" fill="white"/>
<path opacity="0.2" d="M356.032 24.3129C355.678 22.8218 356.603 21.3273 358.098 20.9749C359.592 20.6224 361.089 21.5454 361.443 23.0365C361.796 24.5276 360.871 26.0221 359.377 26.3745C357.882 26.727 356.385 25.804 356.032 24.3129Z" fill="white"/>
<path opacity="0.2" d="M368.983 61.0688C368.595 59.586 369.485 58.0702 370.971 57.683C372.457 57.2959 373.976 58.1841 374.364 59.6668C374.752 61.1496 373.862 62.6654 372.376 63.0525C370.89 63.4397 369.371 62.5515 368.983 61.0688Z" fill="white"/>
<path opacity="0.2" d="M334.864 78.768C334.51 77.2769 335.435 75.7824 336.93 75.4299C338.424 75.0775 339.921 76.0005 340.275 77.4916C340.628 78.9827 339.703 80.4771 338.209 80.8296C336.714 81.1821 335.217 80.259 334.864 78.768Z" fill="white"/>
</g>
<g clip-path="url(#clip2_16053_341092)">
<path d="M131.5 22.3595C119.074 10.0111 98.9265 10.0111 86.5002 22.3595C74.0738 34.7078 74.0738 54.7285 86.5002 67.0769C98.9265 79.4252 119.074 79.4252 131.5 67.0769C143.926 54.7285 143.926 34.7078 131.5 22.3595Z" fill="#7DBF00"/>
<path d="M92.0859 52.1599L106.85 60.7434L109.072 38.168L111.329 60.7434L126.205 52.1599L112.414 68.0952L112.487 100.001L106.059 99.9957L106.131 68.0952L92.0859 52.1599Z" fill="#C56D27"/>
<path opacity="0.2" d="M108.999 99.999H106.062V76.196C90.072 74.5242 77.0352 61.0412 77.0352 44.7077C77.0352 27.2414 90.8343 12.7225 108.855 13.0868" fill="white"/>
</g>
<g clip-path="url(#clip3_16053_341092)">
<path d="M331.5 22.3595C319.074 10.0111 298.926 10.0111 286.5 22.3595C274.074 34.7078 274.074 54.7285 286.5 67.0769C298.926 79.4252 319.074 79.4252 331.5 67.0769C343.926 54.7285 343.926 34.7078 331.5 22.3595Z" fill="#7DBF00"/>
<path d="M292.086 52.1599L306.85 60.7434L309.072 38.168L311.329 60.7434L326.205 52.1599L312.414 68.0952L312.487 100.001L306.059 99.9957L306.131 68.0952L292.086 52.1599Z" fill="#C56D27"/>
<path opacity="0.2" d="M308.999 99.999H306.062V76.196C290.072 74.5242 277.035 61.0412 277.035 44.7077C277.035 27.2414 290.834 12.7225 308.855 13.0868" fill="white"/>
</g>
<g clip-path="url(#clip4_16053_341092)">
<path d="M286.805 78.3228C286.805 78.3228 289.603 73.434 282.161 69.7535C282.161 69.7565 278.716 75.2601 286.805 78.3228Z" fill="#98C83C"/>
<path d="M286.805 78.3228L282.161 69.7535C282.161 69.7535 278.716 75.2601 286.805 78.3228Z" fill="#87B335"/>
<path d="M285.612 81.1371L286.226 81.2222C286.672 78.3448 289.642 75.9573 291.528 75.8734C291.623 75.6612 291.652 75.4233 291.612 75.1927C291.571 74.9622 291.463 74.7502 291.302 74.5864C288.597 74.8332 285.921 77.9595 285.612 81.1371Z" fill="#4F190B"/>
<path d="M294.429 84.8505C293.984 82.1335 291.8 79.9557 287.831 80.1148C286.807 80.1552 285.791 79.8978 284.898 79.3713C281.438 77.3294 278.544 78.221 276.961 80.4234C275.52 82.4247 273.061 97.4742 280.622 97.7C281.665 97.7304 282.69 97.9904 283.63 98.4628C290.452 101.885 294.834 87.3232 294.429 84.8505Z" fill="#CE2027"/>
<path d="M294.429 84.8504C294.23 83.634 293.65 82.5195 292.78 81.6809C291.91 80.8423 290.799 80.3268 289.62 80.2148C294.553 82.9273 288.421 101.539 275.71 92.4136C276.277 95.3158 277.701 97.6136 280.622 97.6998C281.664 97.7303 282.689 97.9902 283.629 98.4626C290.452 101.885 294.834 87.3211 294.429 84.8504Z" fill="#BD2025"/>
<path opacity="0.3" d="M282.534 83.8298C282.092 85.741 280.652 87.0191 279.318 86.678C277.983 86.3369 277.259 84.516 277.701 82.6048C278.142 80.6936 279.582 79.4156 280.916 79.7566C282.251 80.0977 282.975 81.9186 282.534 83.8298Z" fill="#FFF18D"/>
</g>
<g clip-path="url(#clip5_16053_341092)">
<path d="M329.846 100.001H327.854C327.898 99.8579 334.19 85.1189 325.547 70.5009L326.247 70.0898C328.852 74.5677 330.515 79.5304 331.134 84.6738C331.753 89.8172 331.314 95.0329 329.846 100.001V100.001Z" fill="#6BA543"/>
<path d="M326.137 70.7162C326.137 70.7162 323.37 72.1032 321.267 67.9222C319.688 64.7832 319.043 63.4223 315.867 63.7603C315.867 63.7603 317.055 61.6103 319.167 62.0153C319.013 61.4875 318.718 61.0115 318.315 60.6382C317.911 60.265 317.413 60.0085 316.875 59.8962C317.506 59.6079 318.202 59.4952 318.892 59.57C319.581 59.6448 320.237 59.9044 320.791 60.3212C320.791 60.3212 320.957 57.1932 322.779 56.9072C322.779 56.9072 322.415 59.2773 323.1 60.0433C323.512 59.5044 324.063 59.0875 324.693 58.8369C325.324 58.5863 326.011 58.5114 326.68 58.6202C326.68 58.6202 324.622 60.0973 325.103 62.0833C325.866 65.2383 329.684 68.3682 326.137 70.7162Z" fill="#F1BEFC"/>
<path d="M321.325 65.9582C321.279 66.3962 322.658 68.4062 323.072 69.1032C323.572 69.9472 325.015 70.8302 326.072 70.1272C327.155 69.4082 327.016 68.3272 326.367 66.9052C325.718 65.4832 325.011 63.7422 324.922 63.4752C324.833 63.2082 324.702 64.3622 325.21 65.7522C325.21 65.7522 324.302 64.0672 323.919 63.9782C323.536 63.8892 324.893 66.5352 324.893 66.5352C324.3 65.7135 323.623 64.9555 322.873 64.2732C322.592 64.2732 324.083 66.9282 324.083 66.9282C324.083 66.9282 322.683 64.9532 322.356 64.9532C322.029 64.9532 323.156 67.2002 323.156 67.2002C322.793 66.5731 322.368 65.9835 321.888 65.4402C321.682 65.3972 322.699 67.3782 322.699 67.3782C322.699 67.3782 321.379 65.4322 321.325 65.9582Z" fill="#664123"/>
<path d="M331.014 89.2384C331.014 89.2384 326.5 86.9464 326.765 83.7754C327.818 84.3361 328.74 85.1125 329.472 86.0538C330.204 86.9952 330.73 88.0803 331.014 89.2384Z" fill="#6BA543"/>
<path d="M328.102 75.4351C328.102 75.4351 333.086 72.7781 332.095 68.8721C330.84 69.4297 329.786 70.3568 329.073 71.5295C328.359 72.7023 328.02 74.0648 328.102 75.4351V75.4351Z" fill="#59C950"/>
<path d="M330.713 83C330.713 83 329.623 74.13 335.679 70.75C335.68 70.75 338.263 77.388 330.713 83Z" fill="#6BA543"/>
<path d="M329.976 96.0627C330.01 94.228 329.411 92.4377 328.278 90.9937C327.146 89.5496 325.55 88.5403 323.76 88.1357C323.76 88.1357 321.675 92.8967 329.976 96.0627Z" fill="#59C950"/>
<path d="M334.842 100H336.834C336.79 99.857 331.808 95.9 340.45 81.285L339.75 80.874C330.902 95.838 334.796 99.855 334.842 100Z" fill="#6BA543"/>
<path d="M339.861 81.5014C339.861 81.5014 342.628 82.8884 344.731 78.7074C346.31 75.5684 346.955 74.2074 350.131 74.5454C350.131 74.5454 348.944 72.3954 346.831 72.8004C346.985 72.2726 347.28 71.7966 347.683 71.4234C348.087 71.0502 348.585 70.7937 349.123 70.6814C348.492 70.3931 347.796 70.2804 347.106 70.3552C346.417 70.43 345.761 70.6895 345.207 71.1064C345.207 71.1064 345.041 67.9784 343.219 67.6924C343.219 67.6924 343.583 70.0624 342.898 70.8284C342.486 70.2895 341.935 69.8726 341.304 69.622C340.674 69.3714 339.987 69.2966 339.318 69.4054C339.318 69.4054 341.376 70.8824 340.895 72.8684C340.132 76.0244 336.314 79.1554 339.861 81.5014Z" fill="#F1BEFC"/>
<path d="M344.618 77.0856C344.689 77.4376 343.352 79.1656 342.955 79.7596C342.608 80.2287 342.126 80.58 341.573 80.7656C341.021 80.9513 340.424 80.9625 339.865 80.7976C338.692 80.2886 338.779 79.3976 339.384 78.1976C339.989 76.9976 340.637 75.5356 340.715 75.3126C340.793 75.0896 340.993 76.0176 340.534 77.1816C340.534 77.1816 341.395 75.7506 341.793 75.6516C342.191 75.5526 340.909 77.7946 340.909 77.7946C340.909 77.7946 342.609 75.8386 342.909 75.8196C343.209 75.8006 341.782 78.0586 341.782 78.0586C341.782 78.0586 343.147 76.3586 343.482 76.3356C343.817 76.3126 342.768 78.2156 342.768 78.2156C343.125 77.6683 343.539 77.1598 344.003 76.6986C344.217 76.6496 343.257 78.3286 343.257 78.3286C343.257 78.3286 344.533 76.6616 344.618 77.0856Z" fill="#BE3D95"/>
<path d="M337.897 86.2231C337.897 86.2231 332.913 83.5662 333.904 79.6602C335.158 80.2178 336.212 81.1449 336.926 82.3176C337.639 83.4903 337.978 84.8528 337.897 86.2231V86.2231Z" fill="#59C950"/>
<path d="M335.246 91.5431C336 89.8701 337.308 88.5083 338.948 87.6871C340.589 86.8659 342.463 86.6356 344.254 87.035C344.254 87.035 344.104 92.2301 335.246 91.5431Z" fill="#6BA543"/>
</g>
<path d="M63 12.82L60.18 10L49 21.18L37.82 10L35 12.82L46.18 24L35 35.18L37.82 38L49 26.82L60.18 38L63 35.18L51.82 24L63 12.82Z" fill="#D32F2F"/>
<path d="M267 13.9997L243 37.9997L232 26.9997L234.82 24.1797L243 32.3397L264.18 11.1797L267 13.9997Z" fill="#2E7D32"/>
<defs>
<clipPath id="clip0_16053_341092">
<rect width="61" height="100" fill="white" transform="matrix(-1 0 0 1 188 0)"/>
</clipPath>
<clipPath id="clip1_16053_341092">
<rect width="61" height="100" fill="white" transform="matrix(-1 0 0 1 388 0)"/>
</clipPath>
<clipPath id="clip2_16053_341092">
<rect width="90" height="100" fill="white" transform="translate(64)"/>
</clipPath>
<clipPath id="clip3_16053_341092">
<rect width="90" height="100" fill="white" transform="translate(264)"/>
</clipPath>
<clipPath id="clip4_16053_341092">
<rect width="19.17" height="29.3189" fill="white" transform="translate(274.812 69.9805) rotate(-1.74466)"/>
</clipPath>
<clipPath id="clip5_16053_341092">
<rect width="34.266" height="43.094" fill="white" transform="translate(315.867 56.9062)"/>
</clipPath>
</defs>
</svg>
