<svg width="120" height="100" viewBox="0 0 120 100" fill="none" xmlns="http://www.w3.org/2000/svg">
<g clip-path="url(#clip0_16053_341092)">
<path d="M89.3621 47.4897L63.4236 64.9782L61.3487 26.1641L59.2739 64.9782L45.7852 57.1437L58.2365 71.5187L58.1165 73.5329L56.6792 97.6003H66.0175L64.5751 73.4376L64.461 71.5162L89.3621 47.4897Z" fill="#543C12"/>
<path d="M90.9262 33.108C88.4889 32.1682 82.4469 31.3603 80.1721 32.2951C80.692 29.6687 80.6669 26.9632 80.0984 24.347C79.53 21.7307 78.4303 19.2599 76.8679 17.0883C75.3056 14.9167 73.3139 13.0909 71.0171 11.7246C68.7203 10.3583 66.1675 9.4807 63.5177 9.14659C60.8679 8.81247 58.1779 9.02894 55.6151 9.7825C53.0524 10.5361 50.6719 11.8106 48.6218 13.5267C46.5718 15.2428 44.8961 17.3637 43.6992 19.7574C42.5023 22.151 41.8098 24.7661 41.6648 27.4397C39.5521 26.804 37.3049 26.769 35.1736 27.3387C33.0423 27.9084 31.1107 29.0603 29.5941 30.666C28.0775 32.2718 27.0355 34.2683 26.5843 36.433C26.1331 38.5977 26.2903 40.8455 27.0386 42.9258C14.0039 48.2783 14.0039 54.2506 14.0039 59.1904C14.0039 69.9631 29.8542 77.3574 41.6373 75.314C45.6886 74.6114 49.5591 74.0324 52.7013 71.8503C54.4145 72.6734 56.2396 73.2384 58.1175 73.527L58.2375 71.5161L45.7869 57.1429L59.2757 64.9774L61.3505 26.1632L63.4253 64.9774L89.3638 47.4888L64.4627 71.5178L64.5777 73.4393C69.2461 72.5872 73.4424 70.0526 76.3758 66.3132C79.538 68.5429 84.8667 72.3115 89.0272 72.3115C97.0581 72.3115 107.004 68.7894 107.004 58.0175C107.004 47.2457 101.916 37.3494 90.9262 33.108Z" fill="#FCC3C3"/>
<path d="M66.8493 17.1521C68.6066 17.1521 68.8191 14.417 67.0551 14.417C65.291 14.417 65.0861 17.1521 66.8493 17.1521Z" fill="#F46C93"/>
<path d="M60.1105 22.307C61.8087 22.307 62.0145 19.6621 60.3088 19.6621C58.6032 19.6621 58.404 22.307 60.1105 22.307Z" fill="#F46C93"/>
<path d="M68.9235 27.0666C70.7191 27.0666 70.9374 24.2705 69.1342 24.2705C67.3311 24.2705 67.1203 27.0666 68.9235 27.0666Z" fill="#F46C93"/>
<path d="M25.2445 56.2939C23.723 56.2939 23.538 58.6649 25.0671 58.6649C26.5961 58.6649 26.7736 56.2939 25.2445 56.2939Z" fill="#F46C93"/>
<path d="M19.5326 61.0352C18.0886 61.0352 17.9136 63.2841 19.366 63.2841C20.8183 63.2841 20.9867 61.0352 19.5326 61.0352Z" fill="#F46C93"/>
<path d="M91.148 51.6168C89.6698 51.7362 89.6756 54.0528 91.1597 53.9334C92.6437 53.8139 92.6337 51.4973 91.148 51.6168Z" fill="#F46C93"/>
<path d="M36.0319 67.5293C34.6662 67.5293 34.5005 69.6571 35.872 69.6571C37.2435 69.6571 37.4043 67.5293 36.0319 67.5293Z" fill="#F46C93"/>
<path d="M100.428 52.5445C101.751 52.4375 101.746 50.3648 100.417 50.4718C99.0878 50.5787 99.0995 52.6489 100.428 52.5445Z" fill="#F46C93"/>
<path d="M38.9955 56.9758L38.5114 56.8747C38.3398 56.8158 38.157 56.7971 37.977 56.8201C37.797 56.8431 37.6247 56.9073 37.4734 57.0076C37.322 57.1078 37.1956 57.2416 37.1039 57.3986C37.0122 57.5556 36.9577 57.7315 36.9445 57.9129C36.9314 58.0943 36.9599 58.2764 37.0279 58.445C37.0959 58.6136 37.2016 58.7644 37.3369 58.8856C37.4721 59.0068 37.6334 59.0953 37.8081 59.1443C37.9829 59.1932 38.1664 59.2013 38.3448 59.1679L38.8448 59.0626C39.0775 59.0165 39.289 58.8957 39.4473 58.7185C39.6056 58.5413 39.7021 58.3173 39.7222 58.0802C39.7415 57.8412 39.6804 57.6026 39.5487 57.4024C39.417 57.2023 39.2223 57.0521 38.9955 56.9758V56.9758Z" fill="#F46C93"/>
<path d="M51.3586 52.2344C49.4463 52.2344 49.2147 55.2134 51.1362 55.2134C53.0577 55.2134 53.2801 52.2344 51.3586 52.2344Z" fill="#F46C93"/>
<path d="M44.3573 39.7109C42.8575 39.7109 42.6717 42.0501 44.1815 42.0501C45.6914 42.0501 45.8664 39.7109 44.3573 39.7109Z" fill="#F46C93"/>
<path d="M40.5506 36.2986C42.0138 36.2986 42.1921 34.0195 40.7214 34.0195C39.2507 34.0195 39.0849 36.2986 40.5506 36.2986Z" fill="#F46C93"/>
<path d="M65.7037 43.6379C67.1877 43.6379 67.3702 41.3271 65.877 41.3271C64.3838 41.3271 64.2138 43.6379 65.7037 43.6379Z" fill="#F46C93"/>
<path d="M72.972 49.2367C74.3002 49.2367 74.4602 47.1699 73.1278 47.1699C71.7954 47.1699 71.6388 49.2367 72.972 49.2367Z" fill="#F46C93"/>
<path d="M76.2627 35.4844C74.6229 35.4844 74.4237 38.0374 76.0702 38.0374C77.7167 38.0374 77.9092 35.4844 76.2627 35.4844Z" fill="#F46C93"/>
<path d="M81.1348 46.0652C81.1981 45.8539 81.2598 45.6425 81.3231 45.4312C81.5297 44.7353 80.9357 43.7904 80.1224 44.0344L79.5391 44.2098C79.296 44.2621 79.07 44.3749 78.8819 44.5378C78.6937 44.7008 78.5495 44.9086 78.4625 45.1421C78.3856 45.3218 78.3465 45.5154 78.3477 45.7109C78.3488 45.9063 78.3902 46.0995 78.4692 46.2782C78.5483 46.4569 78.6633 46.6173 78.807 46.7494C78.9508 46.8815 79.1202 46.9824 79.3046 47.0458C79.4891 47.1092 79.6846 47.1338 79.8789 47.118C80.0733 47.1021 80.2622 47.0463 80.434 46.9538C80.6058 46.8614 80.7568 46.7344 80.8774 46.5807C80.9979 46.4271 81.0856 46.2502 81.1348 46.0611V46.0652Z" fill="#F46C93"/>
<path d="M87.5018 40.8703C88.7709 40.8703 88.9242 38.8945 87.6501 38.8945C86.3761 38.8945 86.2278 40.8703 87.5018 40.8703Z" fill="#F46C93"/>
<path d="M52.4457 27.1601C48.8101 25.3965 49.5293 29.6388 52.4374 27.2486Z" fill="white"/>
<path d="M52.6992 27.3193C53.0525 28.1413 56.0256 30.133 55.239 27.9492C54.9951 27.5715 54.6291 27.2892 54.2025 27.1496C53.7758 27.01 53.3143 27.0216 52.8951 27.1823C52.8309 27.1923 54.7374 26.9893 52.8951 27.1823" fill="white"/>
<path d="M52.7323 27.1152C53.2935 27.101 53.8405 26.935 54.3155 26.6348C54.7396 26.3759 54.3155 26.6348 54.3155 26.6348C55.1088 26.0779 55.1715 25.5098 54.5038 24.9306C53.2881 24.2623 52.8007 26.2564 52.6523 27.0709" fill="white"/>
<path d="M52.5023 27.3141C52.069 27.6901 50.4191 31.2765 52.5347 29.9875C53.4372 29.4369 52.8855 27.9975 52.5956 27.3066" fill="white"/>
<path d="M52.5604 27.0655C52.6787 26.2225 52.6179 23.6745 51.178 24.5542C49.8031 25.3896 51.788 26.6118 52.4204 27.0178C51.6055 25.7998 51.8196 26.0546 52.5604 27.0655Z" fill="white"/>
<path d="M36.9718 46.988C35.8494 43.0991 33.1813 46.4684 36.9001 47.0415Z" fill="white"/>
<path d="M37.0198 47.2832C36.6465 48.0961 37.1564 51.6449 38.2505 49.5981C38.3675 49.1635 38.3319 48.7017 38.1499 48.2902C37.9679 47.8787 37.6504 47.5424 37.2505 47.3375C37.1997 47.2957 38.6254 48.5814 37.2505 47.3375" fill="white"/>
<path d="M37.1941 47.1712C37.5805 47.5803 38.0699 47.877 38.6106 48.03C39.0864 48.1729 38.6106 48.03 38.6106 48.03C39.555 48.2528 40.0183 47.9186 40.0005 47.0275C39.6814 45.6758 37.8782 46.6441 37.1758 47.0777" fill="white"/>
<path d="M36.893 47.133C36.3247 47.0612 32.5601 48.2291 34.934 48.9426C35.9456 49.2467 36.6448 47.8741 36.9631 47.1957" fill="white"/>
<path d="M37.1184 47.0087C37.8225 46.5342 39.6723 44.7848 38.0574 44.2986C36.5159 43.835 36.9384 46.129 37.0575 46.8725C37.4183 45.4507 37.3725 45.7807 37.1184 47.0087Z" fill="white"/>
<path d="M90.7292 61.3296C91.1 57.2979 87.3895 59.4582 90.6459 61.353Z" fill="white"/>
<path d="M90.6711 61.623C90.0279 62.2429 89.2104 65.7333 90.9745 64.2287C91.2416 63.8672 91.3769 63.4247 91.3576 62.9752C91.3384 62.5257 91.1658 62.0964 90.8687 61.7592C90.837 61.7024 91.6961 63.4209 90.8687 61.7592" fill="white"/>
<path d="M90.875 61.5833C91.084 62.1044 91.4294 62.5593 91.8749 62.9V62.9C92.6726 63.4497 93.225 63.3104 93.5322 62.4823C93.7272 61.1072 91.6991 61.3486 90.8842 61.4956" fill="white"/>
<path d="M90.607 61.4375C90.107 61.1626 86.1749 60.8719 88.1247 62.4057C88.9579 63.059 90.1062 62.0365 90.6495 61.5227" fill="white"/>
<path d="M90.8596 61.403C91.6887 61.2183 94.0468 60.2668 92.7202 59.2234C91.4537 58.2276 91.0121 60.5183 90.8555 61.2551C91.7062 60.0621 91.5437 60.3529 90.8596 61.403Z" fill="white"/>
<path d="M42.9797 97.926C40.2299 96.525 39.4967 99.4448 42.943 97.9862Z" fill="#FCD9E7"/>
<path d="M43.1602 98.0492C43.2143 98.6273 45.2816 100.146 45.2774 98.6198C45.0608 98.0629 44.4297 97.8455 43.3843 97.9674C43.3226 97.9674 45.1341 97.939 43.3843 97.9674" fill="#FCD9E7"/>
<path d="M43.2584 97.9115C43.8035 97.9301 44.3475 97.8497 44.8641 97.6742C45.3365 97.5221 44.8641 97.6742 44.8641 97.6742C45.7718 97.34 46.0151 96.958 45.594 96.528C44.6999 96.0076 43.6017 97.3325 43.1992 97.8772" fill="#FCD9E7"/>
<path d="M42.9811 98.0338C42.4612 98.2644 39.7764 100.608 42.1362 99.8483C42.4842 99.7092 42.7704 99.4487 42.942 99.1148C43.1136 98.7809 43.1592 98.3961 43.0703 98.0312" fill="#FCD9E7"/>
<path d="M43.1167 97.8687C43.5017 97.3031 44.2833 95.5688 42.6751 96.085C41.1427 96.5779 42.5584 97.517 43.0084 97.8278C42.6576 96.9556 42.7692 97.141 43.1167 97.8687Z" fill="#FCD9E7"/>
<path d="M69.0552 96.1868C70.0459 92.5828 66.6288 94.9263 68.9802 96.2178Z" fill="#FCFCFC"/>
<path d="M68.9565 96.4521C68.3215 97.0754 67.0558 100.253 68.7623 98.7177C69.0351 98.4347 69.2137 98.0739 69.2734 97.6849C69.3331 97.2958 69.271 96.8978 69.0956 96.5457C69.0789 96.4997 69.4931 97.9166 69.0956 96.5457" fill="#FCFCFC"/>
<path d="M69.1289 96.3934C69.1999 96.8021 69.4131 97.1725 69.7306 97.4386C69.9989 97.6642 69.7306 97.4386 69.7306 97.4386C70.2922 97.8285 70.7701 97.6393 71.1646 96.8713C71.5587 95.634 69.848 96.086 69.1556 96.3107" fill="#FCFCFC"/>
<path d="M68.9357 96.2958C68.5691 96.112 65.3885 96.3167 66.7309 97.442C67.3025 97.9215 68.4224 96.8839 68.9565 96.3652" fill="#FCFCFC"/>
<path d="M69.1523 96.2362C69.8656 95.9764 71.9663 94.8594 71.053 94.0933C70.1814 93.3623 69.4282 95.4375 69.174 96.1058C70.0756 94.953 69.8923 95.2287 69.1523 96.2362Z" fill="#FCFCFC"/>
<path d="M28.858 97.5725C25.4549 97.509 28.3905 99.9259 28.9046 97.6293Z" fill="white"/>
<path d="M29.1172 97.5992C29.8263 98.0077 32.9302 98.3987 31.1445 97.2725C30.8343 97.0998 30.4793 97.0252 30.1261 97.0586C29.7728 97.092 29.438 97.2318 29.1655 97.4596C29.1288 97.4839 30.2579 96.8206 29.1655 97.4596" fill="white"/>
<path d="M29.0176 97.4627C29.3522 97.3169 29.6213 97.0524 29.7734 96.72C29.9 96.4401 29.7734 96.72 29.7734 96.72C29.9689 96.153 29.6795 95.7846 28.9051 95.6147C27.7227 95.5471 28.5627 96.9138 28.9393 97.4577" fill="white"/>
<path d="M28.9835 97.651C28.9185 98.0061 29.9267 100.686 30.5583 99.2909C30.8275 98.6961 29.6301 97.9635 29.0385 97.6201" fill="white"/>
<path d="M28.8776 97.4814C28.4609 96.9275 26.9419 95.3711 26.512 96.321C26.1012 97.2274 28.1084 97.4196 28.7617 97.4906C27.5143 96.9693 27.8052 97.0662 28.8776 97.4814Z" fill="white"/>
</g>
<g clip-path="url(#clip1_16053_341092)">
<path d="M90.3981 66.2787C90.4211 66.6197 90.369 66.9615 90.2454 67.2801C90.0539 67.6637 89.7986 68.0119 89.4905 68.31C88.7622 68.977 87.9344 69.5266 87.0369 69.9388C86.1181 70.3747 85.1559 70.7123 84.1663 70.946C83.7213 71.0372 83.2658 71.0663 82.8129 71.0323C82.548 71.0444 82.2888 70.9528 82.0902 70.7771C82.2148 70.9418 82.1521 70.8574 82.0173 70.7733C81.9579 70.7256 81.9027 70.6727 81.8524 70.6154C81.7945 70.5502 81.7646 70.4648 81.7692 70.3777C81.7738 70.2907 81.8124 70.2089 81.8768 70.1501C81.9505 70.0673 82.0362 69.9962 82.1312 69.9391C81.9984 70.0656 81.9989 70.0556 82.1327 69.9091C82.2423 69.8234 82.3687 69.7618 82.5037 69.7283C82.855 69.6165 83.2035 69.4645 83.5587 69.355C84.3783 69.0975 85.2068 68.8806 86.0034 68.5648C86.8237 68.2672 87.606 67.8736 88.334 67.3922C88.6472 67.1743 88.9471 66.9379 89.2322 66.6843C89.4627 66.5127 89.6755 66.3185 89.8674 66.1047C89.9031 66.0529 89.9545 66.014 90.0141 65.9939C90.0737 65.9738 90.1381 65.9735 90.1979 65.9931C90.2576 66.0127 90.3094 66.0511 90.3455 66.1026C90.3816 66.1541 90.4 66.2159 90.3981 66.2787V66.2787Z" fill="#D0D07F"/>
<path d="M89.8298 73.8371C89.5785 73.496 89.3602 73.1318 89.1778 72.7494C88.8914 72.2923 88.578 71.8526 88.2395 71.4325C87.9296 71.042 87.5959 70.6711 87.2402 70.3217C86.8188 70.016 86.5348 69.5564 86.4501 69.0426C86.4553 68.9123 86.5039 68.7874 86.5882 68.6878C86.6726 68.5883 86.7877 68.5198 86.9155 68.4932C87.9793 68.3707 88.9227 69.784 89.4819 70.5403C90.0572 71.3135 90.8982 72.6914 90.5213 73.6931C90.4976 73.76 90.4571 73.8197 90.4036 73.8664C90.3502 73.9131 90.2856 73.9453 90.2161 73.9598C90.1466 73.9742 90.0745 73.9705 90.0069 73.9491C89.9392 73.9276 89.8782 73.889 89.8298 73.8371V73.8371Z" fill="#D0D07F"/>
<path d="M77.5418 90.3594C77.6832 90.6545 77.835 90.9432 77.9971 91.2254C78.1592 91.5076 78.3308 91.7759 78.5117 92.0304C78.7257 92.3421 78.9564 92.6405 79.1976 92.9296C80.074 93.9681 81.1007 94.8698 82.2438 95.6047C82.6073 95.84 82.9819 96.0599 83.3678 96.2644C83.5772 96.3755 83.79 96.4818 84.005 96.5822C84.2375 96.6945 84.4745 96.796 84.7136 96.8947C88.0494 98.2779 91.7686 98.4292 95.2057 97.3214C95.5243 97.2159 95.8399 97.0989 96.1523 96.9704C96.701 96.7438 97.2343 96.4814 97.7486 96.1849C98.6544 95.667 99.4966 95.045 100.258 94.3317C100.337 94.2587 100.413 94.1846 100.488 94.1094C101.519 93.0943 102.355 91.8995 102.956 90.5838C103.04 90.3999 103.12 90.2135 103.194 90.0244C103.503 89.2425 103.73 88.4305 103.871 87.6016V87.6016C103.966 87.0668 104.027 86.5264 104.053 85.9839V85.9839C104.117 84.4511 103.942 82.9177 103.535 81.4386V81.4386C103.469 81.1948 103.397 80.9513 103.318 80.7082C103.261 80.5236 103.199 80.3391 103.131 80.1546C103.088 80.0352 103.043 79.9177 102.998 79.8012C102.781 79.2479 102.52 78.7124 102.22 78.1993C102.118 78.023 102.011 77.8505 101.901 77.6819C100.223 75.2063 97.7212 73.4061 94.8409 72.6014V72.6014C94.4052 72.4704 93.9627 72.3598 93.5135 72.2695C93.3048 72.2258 93.0948 72.1878 92.8836 72.1554C92.7366 72.1316 92.5855 72.1107 92.4393 72.091C90.7105 71.8667 88.9565 71.9284 87.2477 72.2736C86.9981 72.3232 86.7504 72.3797 86.5048 72.4429C85.4735 72.7032 84.4736 73.0749 83.5227 73.5514C83.0492 73.7885 82.5911 74.0551 82.151 74.3497L82.0566 74.4128C81.824 74.5709 81.5981 74.7356 81.3788 74.907C81.2743 74.9897 81.1699 75.0713 81.0652 75.158C80.8036 75.3739 80.5524 75.6004 80.3116 75.8374C78.7446 77.3783 77.5957 79.2927 76.9729 81.4003C76.8833 81.696 76.8067 81.9924 76.7378 82.2953C76.6405 82.7241 76.5636 83.16 76.507 83.603C76.1871 85.9078 76.5468 88.2559 77.5418 90.3594V90.3594Z" fill="#AFD367"/>
<path d="M93.5113 72.2708C93.9738 72.7316 94.4661 73.16 94.9263 73.6267C95.6406 74.3565 96.3147 75.1246 96.9456 75.9275C97.7598 76.9586 98.5187 78.0317 99.236 79.1328C99.3557 79.3133 99.4714 79.4946 99.587 79.6779C99.9872 80.3084 100.375 80.9462 100.751 81.5915C100.996 82.0115 101.238 82.4341 101.475 82.8591C101.604 83.0882 101.729 83.318 101.854 83.5489C102.15 84.0938 102.437 84.6429 102.717 85.1963C103.121 85.9885 103.507 86.7888 103.877 87.5973C103.97 87.0639 104.029 86.5252 104.054 85.9843V85.9843C103.707 85.2699 103.348 84.5641 102.978 83.8671C102.802 83.5335 102.623 83.2013 102.44 82.8706C102.318 82.6486 102.194 82.4274 102.067 82.2072C101.85 81.8253 101.629 81.4465 101.403 81.0708C101.042 80.4678 100.67 79.8712 100.289 79.2811C100.174 79.1028 100.056 78.9244 99.9391 78.7481C99.1515 77.5611 98.3031 76.4157 97.3972 75.3163C96.7251 74.4936 96.0047 73.7116 95.2399 72.9742C95.1076 72.8485 94.9749 72.7247 94.8417 72.6029C94.404 72.4718 93.9605 72.3611 93.5113 72.2708Z" fill="#609D43"/>
<path d="M92.4399 72.0916C92.5169 74.4438 92.5065 76.8015 92.5705 79.1531C92.5887 79.901 92.6183 80.649 92.6592 81.3968C92.6748 81.711 92.6944 82.0245 92.71 82.3377C92.7177 82.4583 92.7265 82.5779 92.7342 82.6975C92.7543 82.9769 92.7761 83.2564 92.7995 83.5361C92.9261 85.0675 93.1076 86.5917 93.3439 88.1088C93.4157 88.5599 93.4922 89.0105 93.5734 89.4607C93.6129 89.6831 93.6503 89.9053 93.6947 90.1269C93.7096 90.2118 93.7259 90.2971 93.7434 90.3828C93.7775 90.5729 93.8147 90.7611 93.8509 90.9502C94.074 92.0995 94.3173 93.2468 94.5717 94.3927C94.7655 95.28 94.9633 96.1676 95.1602 97.0541L95.2202 97.3226C95.5389 97.2172 95.8544 97.1002 96.1669 96.9717L96.0919 96.6453C95.8901 95.7756 95.6823 94.9065 95.4876 94.0361C95.2979 93.2041 95.1112 92.3722 94.9357 91.5368C94.8825 91.2777 94.8293 91.0182 94.7762 90.7584C94.7108 90.4385 94.6478 90.1191 94.5871 89.8002C94.5279 89.4967 94.4727 89.1934 94.4185 88.8901C94.3594 88.5646 94.3037 88.2386 94.2514 87.912C93.9876 86.296 93.8052 84.6763 93.667 83.0518C93.6683 83.0268 93.6617 83.0004 93.661 82.9754C93.6393 82.7272 93.6189 82.4785 93.5999 82.2292C93.5942 82.1668 93.5904 82.1055 93.5857 82.0432C93.5054 80.9575 93.4422 79.8697 93.3852 78.7802C93.2706 76.5712 93.1696 74.3528 92.8911 72.1563C92.7362 72.1321 92.5881 72.1113 92.4399 72.0916Z" fill="#609D43"/>
<path d="M82.2479 95.605C82.6114 95.8404 82.9861 96.0603 83.3719 96.2647C83.5916 96.1621 83.8113 96.0585 84.0301 95.9538C84.3663 95.7938 84.7016 95.6305 85.0361 95.4637C85.594 95.1879 86.1479 94.9048 86.6978 94.6146C88.9744 93.4222 91.183 92.1045 93.3135 90.6674V90.6674L93.729 90.3827L93.9077 90.2589C94.1293 90.1056 94.3494 89.9503 94.568 89.7928C94.6721 89.7162 94.7853 89.639 94.8926 89.5605C96.1612 88.6456 97.4324 87.6809 98.6504 86.6432C98.8139 86.5045 98.9747 86.3598 99.1361 86.223C100.096 85.3871 101.004 84.4937 101.856 83.5477C102.055 83.3251 102.249 83.0993 102.439 82.8703C102.684 82.5747 102.921 82.273 103.15 81.9653C103.283 81.794 103.412 81.6178 103.537 81.4368C103.471 81.1923 103.398 80.9485 103.32 80.7054C103.256 80.7852 103.194 80.8641 103.129 80.9437C102.787 81.3744 102.431 81.7944 102.066 82.2069C101.872 82.4277 101.675 82.6446 101.475 82.8578C100.541 83.8619 99.5529 84.8149 98.5159 85.7129C98.3649 85.8431 98.2129 85.9724 98.061 86.1006L98.017 86.1373C96.8564 87.1129 95.6499 88.026 94.407 88.8892C94.1299 89.0823 93.8502 89.2726 93.568 89.46C93.4082 89.5668 93.2485 89.6716 93.0878 89.7773C92.8735 89.9177 92.6579 90.0562 92.4411 90.1931C90.1785 91.6161 87.8423 92.9186 85.4423 94.0951L85.1637 94.2337C84.9314 94.3477 84.6971 94.4616 84.4639 94.5746L84.1558 94.7207C83.5245 95.022 82.8885 95.3168 82.2479 95.605Z" fill="#609D43"/>
<path d="M81.3813 74.9081C81.4309 74.9357 81.4785 74.9633 81.5281 74.9919C82.8605 75.7457 84.1606 76.5608 85.4421 77.4071L86.1379 77.8681C88.1599 79.2208 90.1448 80.6306 92.1525 81.9685L92.7059 82.339C92.8085 82.4074 92.91 82.4768 93.0125 82.5453C93.2254 82.6876 93.4361 82.8319 93.6477 82.9791L93.7105 83.0225C95.1737 84.0134 96.6216 85.0466 98.0174 86.1372C98.2329 86.3047 98.4455 86.472 98.6577 86.6454C99.5629 87.3717 100.444 88.1269 101.289 88.9172C101.862 89.4539 102.42 90.0079 102.963 90.5791C103.044 90.3951 103.123 90.2089 103.199 90.0207C102.675 89.4538 102.134 88.9061 101.576 88.3775C100.791 87.6304 99.9774 86.9148 99.1424 86.2242C98.9351 86.0521 98.7247 85.8818 98.5153 85.7126C97.1815 84.6414 95.7999 83.6237 94.4011 82.6281C94.1781 82.4692 93.9541 82.3103 93.725 82.1531L93.5705 82.0448L92.6462 81.3956C91.9629 80.9178 91.2796 80.4414 90.5962 79.9663C89.1589 78.9607 87.7191 77.943 86.247 76.9716C86.0231 76.8223 85.7972 76.6746 85.5692 76.5285C84.5591 75.8747 83.5338 75.2422 82.487 74.6566C82.3469 74.5782 82.2058 74.4997 82.0646 74.4232L82.0591 74.4139C81.8265 74.5719 81.6006 74.7367 81.3813 74.9081Z" fill="#609D43"/>
<path d="M84.0094 96.5811C84.2418 96.6935 84.4788 96.795 84.718 96.8937C84.8716 96.4285 84.9773 95.9489 85.0334 95.4622C85.0901 95.0476 85.125 94.6299 85.161 94.2312C85.1658 94.1393 85.1738 94.049 85.1852 93.9601C85.1867 93.9311 85.1882 93.9032 85.1897 93.8742C85.3179 92.6122 85.3844 91.3439 85.4417 90.0772C85.4799 89.222 85.515 88.3667 85.5472 87.5112C85.5643 87.1846 85.5714 86.8586 85.5855 86.5309L85.5874 86.4949C85.5984 86.1964 85.61 85.8986 85.6222 85.6015C85.6688 84.4073 85.7206 83.2084 85.7884 82.0103C85.8665 80.6345 85.9722 79.2481 86.1398 77.866C86.1748 77.5668 86.2138 77.2684 86.2568 76.9709C86.4698 75.3824 86.8018 73.8122 87.25 72.2734C87.0004 72.3231 86.7528 72.3796 86.5071 72.4428C86.1169 73.7853 85.8082 75.1502 85.5829 76.53C85.5326 76.8218 85.4873 77.1138 85.4439 77.4059C85.2349 78.8139 85.0868 80.2261 84.9687 81.6209C84.8693 82.7913 84.7988 83.9642 84.7403 85.1367C84.7241 85.4476 84.7078 85.7585 84.6915 86.0694C84.6757 86.3697 84.662 86.6694 84.6504 86.9685C84.6323 87.313 84.6193 87.6568 84.6042 88.0015C84.5768 88.6209 84.5494 89.2393 84.5169 89.8585C84.455 91.0409 84.3773 92.2228 84.284 93.4042C84.2767 93.545 84.2624 93.6834 84.251 93.824C84.2268 94.1151 84.191 94.4147 84.155 94.7202C84.1046 95.1281 84.0548 95.5421 84.0273 95.9532C84.0163 96.1629 84.0073 96.3728 84.0094 96.5811Z" fill="#609D43"/>
<path d="M77.5426 90.3597C77.684 90.6549 77.8358 90.9435 77.9979 91.2257C78.244 91.1151 78.4895 91.0038 78.7344 90.8918C79.0483 90.748 79.3617 90.6029 79.6745 90.4564C80.1275 90.2438 80.5794 90.0285 81.0301 89.8105C81.3959 89.6334 81.7598 89.4542 82.1217 89.2729C82.9526 88.8571 83.7796 88.4332 84.6027 88.001C84.9163 87.8385 85.23 87.6744 85.5438 87.5086C85.8575 87.3427 86.1734 87.1751 86.4914 87.0055C86.7812 86.8517 87.0707 86.6967 87.3599 86.5403C88.3451 86.0084 89.3273 85.4704 90.3064 84.9263C91.1371 84.4651 91.9658 84.0009 92.7927 83.5335C93.0814 83.375 93.3685 83.2159 93.6539 83.0559L93.7109 83.0188L94.4003 82.6284C96.1302 81.6449 97.859 80.661 99.5869 79.6768L100.288 79.2799C100.931 78.9178 101.576 78.557 102.22 78.1976C102.118 78.0206 102.011 77.8482 101.901 77.6801C101.245 78.0343 100.591 78.3902 99.938 78.7479L99.2359 79.1327C97.4015 80.1374 95.5658 81.146 93.729 82.1586L93.5888 82.2344L93.0125 82.5496L92.7301 82.7031C91.8003 83.2111 90.8693 83.7151 89.9372 84.215C88.7798 84.8353 87.6184 85.4483 86.4531 86.0542C86.1649 86.2046 85.8753 86.3537 85.5845 86.5013C85.5738 86.5081 85.5624 86.5139 85.5506 86.5186C85.2514 86.6731 84.9518 86.8243 84.6516 86.9721C83.6696 87.4694 82.6824 87.9561 81.6902 88.4321C81.3182 88.6129 80.9461 88.79 80.5738 88.9634C80.3397 89.0747 80.1052 89.1856 79.8704 89.2961C79.5624 89.4412 79.2545 89.5842 78.9406 89.727C78.4761 89.941 78.0101 90.1519 77.5426 90.3597Z" fill="#609D43"/>
<path d="M76.7447 82.2962C77.1105 82.4489 77.4744 82.6068 77.8364 82.77C78.1626 82.9139 78.4868 83.0598 78.8088 83.2075C79.1133 83.3456 79.4171 83.4854 79.7201 83.6267C79.9938 83.7539 80.2665 83.882 80.5381 84.0111C81.9348 84.6718 83.3198 85.3582 84.6931 86.0704C84.9797 86.2189 85.2656 86.3674 85.5509 86.5159C85.5616 86.5214 85.5734 86.5271 85.583 86.5336C85.701 86.5938 85.8189 86.6561 85.9369 86.7173C86.122 86.8152 86.3083 86.911 86.4924 87.0098C88.4834 88.0554 90.4601 89.1254 92.4388 90.1944L93.3153 90.6679C93.4905 90.7632 93.6658 90.8585 93.8412 90.9508C94.2015 91.1453 94.5615 91.3387 94.9213 91.5311C95.7843 91.9923 96.6475 92.4501 97.5109 92.9046C98.425 93.3857 99.3428 93.8601 100.264 94.3276C100.343 94.2546 100.419 94.1805 100.494 94.1053C99.6391 93.6079 98.785 93.1089 97.932 92.6082C96.8763 91.9901 95.8195 91.3716 94.7618 90.7527C94.4794 90.5877 94.1963 90.4227 93.9125 90.2576L93.6931 90.1259L93.0926 89.777C91.1966 88.6763 89.2917 87.5931 87.369 86.5431C87.0673 86.377 86.7641 86.2126 86.4596 86.0498L86.2287 85.9255L85.6268 85.6036C85.3332 85.4473 85.0392 85.2924 84.7449 85.1388C83.3784 84.4243 82.005 83.7341 80.6246 83.0683C80.3541 82.937 80.0814 82.8085 79.8098 82.6801C79.454 82.5133 79.0988 82.3491 78.7441 82.1877C78.5378 82.0928 78.3314 81.9988 78.124 81.9059C77.7431 81.7357 77.3617 81.5675 76.9798 81.4013C76.8912 81.6971 76.8136 81.9934 76.7447 82.2962Z" fill="#609D43"/>
<path d="M78.516 92.031C78.73 92.3426 78.9607 92.6411 79.2019 92.9301C79.2772 92.5816 79.3477 92.2308 79.4162 91.8799C79.5078 91.406 79.595 90.9313 79.6781 90.4556C79.7457 90.0693 79.81 89.6825 79.8711 89.2951C79.9441 88.8316 80.0134 88.368 80.0791 87.9041C80.2388 86.7682 80.3758 85.6312 80.4902 84.493C80.5056 84.3325 80.5221 84.1712 80.5385 84.0108C80.569 83.696 80.5975 83.383 80.625 83.0681C80.7948 81.0311 80.9128 78.9905 80.9968 76.9471C81.0162 76.4755 81.0359 76.0035 81.056 75.5313C81.0625 75.4075 81.0691 75.2826 81.0755 75.1588C80.8112 75.3746 80.5587 75.601 80.318 75.8381C80.3043 76.0977 80.2907 76.3574 80.2681 76.6165C80.2629 76.7164 80.2579 76.8113 80.2529 76.9081C80.122 78.8319 79.983 80.7583 79.8072 82.6797C79.7786 82.9953 79.7487 83.3112 79.7175 83.6273C79.6911 83.9013 79.6637 84.1753 79.6354 84.4492C79.5755 85.0308 79.5117 85.6119 79.4438 86.1925C79.3018 87.3737 79.1369 88.5527 78.9422 89.7271C78.8784 90.1156 78.8103 90.5039 78.7379 90.892C78.6683 91.2649 78.5957 91.6376 78.5201 92.0101L78.516 92.031Z" fill="#609D43"/>
<path d="M77.5419 90.3585C77.6836 90.6543 77.8357 90.9437 77.9972 91.2245C78.1587 91.5054 78.3291 91.7696 78.5118 92.0296C78.7258 92.3412 78.9565 92.6397 79.1977 92.9287C80.0741 93.9672 81.1008 94.8689 82.2438 95.6038C82.6074 95.8391 82.982 96.059 83.3679 96.2635C83.5773 96.3746 83.7901 96.4809 84.0051 96.5813C84.2375 96.6936 84.4745 96.7951 84.7137 96.8938C88.0495 98.2771 91.7687 98.4283 95.2058 97.3205C95.5244 97.215 95.8399 97.098 96.1524 96.9696C96.7011 96.7429 97.2344 96.4805 97.7487 96.184C98.6563 95.6646 99.5 95.0407 100.262 94.325C100.341 94.2521 100.417 94.1779 100.492 94.1028C101.523 93.0883 102.36 91.8942 102.961 90.5791C103.046 90.3953 103.125 90.2089 103.199 90.0198C103.508 89.2379 103.735 88.4259 103.877 87.597V87.597C103.97 87.0633 104.029 86.5242 104.053 85.983V85.983C104.117 84.4499 103.942 82.9162 103.535 81.4367V81.4367C103.469 81.1929 103.397 80.9494 103.318 80.7063C103.261 80.5217 103.199 80.3372 103.131 80.1528C103.088 80.0333 103.043 79.9158 102.998 79.7993C103.06 80.1901 103.104 80.5749 103.129 80.9437C103.15 81.2452 103.159 81.5271 103.154 81.8002C103.151 81.8551 103.148 81.9101 103.145 81.965C103.129 82.6015 103.072 83.2364 102.974 83.8656C102.907 84.3067 102.821 84.7518 102.715 85.1949C102.457 86.2953 102.073 87.3625 101.572 88.3754C101.481 88.5589 101.385 88.7391 101.285 88.9161C100.891 89.6263 100.413 90.2864 99.8611 90.8823C99.2706 91.5147 98.6237 92.0918 97.9282 92.6065C97.7897 92.7084 97.6493 92.8082 97.5121 92.9031C96.8711 93.3408 96.1909 93.7181 95.4803 94.0304C95.1797 94.1628 94.8729 94.2829 94.5602 94.3907C92.8347 94.979 91.0089 95.2159 89.1904 95.0876C88.3425 95.0394 87.5045 94.8807 86.6977 94.6155C86.2671 94.4732 85.8474 94.2996 85.4421 94.0961C85.3563 94.0525 85.2715 94.008 85.1868 93.9625C84.8762 93.7949 84.5753 93.61 84.2855 93.4086C82.9527 92.4605 81.8425 91.2333 81.0323 89.8124C80.9042 89.5934 80.7825 89.3694 80.667 89.1404L80.576 88.9654C80.401 88.6224 80.236 88.268 80.081 87.902C79.8427 87.3468 79.6272 86.7767 79.4435 86.1933C79.1313 85.2226 78.9187 84.2227 78.8088 83.209C78.7726 82.8686 78.7504 82.528 78.7441 82.1892C78.6889 80.633 79.0105 79.0864 79.6813 77.6811C80.0544 76.9129 80.5178 76.1919 81.0616 75.5334C81.2146 75.3471 81.3712 75.1671 81.5335 74.9933C81.7088 74.8023 81.894 74.6117 82.083 74.4263C82.103 74.4 82.1264 74.3745 82.1531 74.3499L82.0586 74.413C81.826 74.5711 81.6001 74.7358 81.3808 74.9072C81.2764 74.9899 81.1719 75.0715 81.0673 75.1582C80.8056 75.3741 80.5544 75.6006 80.3137 75.8377C78.7467 77.3785 77.5977 79.2929 76.975 81.4006C76.8854 81.6963 76.8087 81.9927 76.7398 82.2955C76.6426 82.7243 76.5656 83.1602 76.509 83.6032C76.1888 85.9075 76.5477 88.2552 77.5419 90.3585V90.3585Z" fill="#AFD367"/>
<path d="M63.9732 86.6524C63.9556 86.7406 64.2701 86.8341 64.8009 86.9291C65.9915 87.1387 68.2545 87.3514 70.3106 87.5182C70.6529 88.5498 71.2293 89.488 71.9948 90.2596C72.7603 91.0311 73.6941 91.6149 74.7229 91.9652C78.2252 93.064 82.6153 91.8201 84.0274 88.3012C84.8575 88.3467 85.6874 88.3955 86.5171 88.4477C87.2081 88.4433 87.8986 88.4795 88.5853 88.5561C88.8696 88.605 89.1447 88.6971 89.4011 88.8291C90.5128 89.4191 89.821 90.7537 89.3816 91.7621C86.4213 98.5685 79.186 100.641 72.3135 98.5782C67.2358 97.0634 62.8785 92.1406 63.9732 86.6524Z" fill="#D0D07F"/>
<path d="M71.2115 87.5879C71.7283 88.8039 72.6541 89.8007 73.8286 90.4058C76.8455 91.9588 81.2691 91.2804 82.9376 88.2385C84.1311 88.3044 85.3237 88.3743 86.5155 88.4481C87.2064 88.4436 87.897 88.4798 88.5837 88.5564C88.6446 89.0408 88.6616 89.5297 88.6343 90.0171C88.2756 91.5246 87.45 92.8804 86.2753 93.8909C81.9843 98.1352 75.794 99.5261 70.3663 96.4548C68.1507 95.0107 66.4903 92.8578 65.6565 90.348C65.165 89.2698 64.8745 88.111 64.7993 86.9284C66.1635 87.1692 68.9545 87.4156 71.2115 87.5879Z" fill="#FAAF40"/>
<path d="M80.0291 91.9166C78.2607 92.6146 76.3028 92.6666 74.4999 92.0634C73.5717 91.7127 72.7625 91.1049 72.1671 90.3112C71.5717 89.5174 71.2147 88.5705 71.1378 87.5813L71.2117 87.5852C71.7279 88.7997 72.6522 89.7956 73.825 90.4008C76.8476 91.9581 81.2701 91.2806 82.9376 88.2377L83.1504 88.2489C83.0303 89.0929 82.6733 89.8855 82.1208 90.5347C81.5684 91.1839 80.843 91.6631 80.0291 91.9166V91.9166Z" fill="#F05A28"/>
</g>
<g clip-path="url(#clip2_16053_341092)">
<path d="M37.1878 86.7551C37.0295 83.7506 36.6306 80.7654 36.1965 77.7787C35.6277 74.3614 35.2765 70.9122 35.1449 67.4515C35.14 67.1566 34.6162 67.2097 34.6211 67.5023C34.7239 73.5266 36.1557 79.4719 36.5792 85.4817C36.9218 90.3172 36.806 95.16 36.9014 100H37.4203C37.3852 98.5651 37.3673 97.1305 37.3567 95.6968C37.3387 92.7173 37.3452 89.7362 37.1878 86.7551Z" fill="#29663D"/>
<path d="M40.7851 92.5295C41.4144 90.1724 41.9107 87.7827 42.2716 85.3713C42.6552 82.5897 43.2552 79.8414 44.0664 77.1508C44.1423 76.9203 43.6201 76.8575 43.5443 77.088C42.0015 81.7825 41.7698 86.6744 40.5436 91.4197C39.7971 94.3106 38.7961 97.1507 37.8203 99.9964H38.3425C38.3969 99.8298 38.4534 99.663 38.5122 99.4959C39.306 97.1845 40.1251 94.8731 40.7851 92.5295Z" fill="#7FA970"/>
<path d="M29.6918 78.2031C29.6012 77.9766 29.0847 78.0628 29.1745 78.2893C30.1527 80.9351 30.9246 83.6509 31.4833 86.413C31.9954 88.8061 32.6409 91.1695 33.4169 93.4923C34.1821 95.6844 35.0877 97.8442 35.9786 100.001H36.5081C35.4655 97.4767 34.4236 94.9526 33.5874 92.3777C32.065 87.6936 31.5266 82.8202 29.6918 78.2031Z" fill="#29663D"/>
<path d="M43.2072 90.5763C42.9625 90.5586 43.1526 92.027 42.0488 93.4599C40.7818 95.1032 39.2521 94.8252 38.0675 96.5112C37.5104 97.2143 37.2408 98.0984 37.312 98.9886C37.6173 98.338 38.0338 97.7442 38.5431 97.2333C38.9206 96.9082 39.3407 96.635 39.7921 96.421C40.4293 96.076 42.5611 94.9211 43.288 93.3092C43.8819 91.9972 43.452 90.5933 43.2072 90.5763Z" fill="#29663D"/>
<path d="M35.1172 98.5673C34.5864 98.2901 34.0777 97.9733 33.5956 97.6197C32.9426 97.1553 32.341 96.6242 31.8008 96.0352C32.021 96.4752 32.3233 96.8704 32.6917 97.1998C33.5527 98.1173 34.6504 98.7859 35.8669 99.1339C35.8849 99.1138 35.8441 99.0639 35.7854 98.9881C35.6074 98.7883 35.3757 98.6424 35.1172 98.5673V98.5673Z" fill="#29663D"/>
<path d="M30.9754 94.7771C29.4579 94.213 28.7081 93.1823 28.5678 93.2766C28.4275 93.3709 28.997 94.4387 30.131 95.0987C31.3665 95.6896 32.7261 95.9832 34.0985 95.9554C34.5147 95.9439 34.9309 95.9807 35.3385 96.065C35.9632 96.2336 36.5634 96.4806 37.1244 96.8C36.6244 96.1764 35.959 95.7021 35.2023 95.43C33.4857 94.724 32.7172 95.4267 30.9754 94.7771Z" fill="#ACC99F"/>
<path d="M46.6368 89.6906C46.3162 89.6648 46.6833 92.1317 44.7408 93.7678C43.2837 94.9952 42.3063 94.2561 40.2374 95.7261C38.9881 96.6545 38.1318 98.0076 37.8339 99.5237C37.8225 99.618 37.8021 99.8243 37.9041 99.8654C38.2222 99.9952 38.9321 98.21 40.7742 97.0761C42.1351 96.2387 42.6808 96.6377 44.222 95.6649C45.0355 95.1864 45.7299 94.5337 46.2542 93.7549C47.429 91.8916 46.937 89.7156 46.6368 89.6906Z" fill="#ACC99F"/>
<path d="M38.0747 73.7683C38.3741 77.9857 39.2846 84.857 38.3912 87.1531C37.6986 88.9334 36.5588 88.7327 35.5358 87.4577C34.7428 86.4697 34.0616 81.6664 33.6234 74.0617C33.3909 70.032 32.8354 66.1563 33.6904 63.8538C34.343 62.0993 36.0604 63.5186 36.4373 63.9771C37.0631 64.7428 37.8144 70.0884 38.0747 73.7683Z" fill="#AE9FD6"/>
<path d="M41.5296 81.2333C40.9047 83.8566 39.4834 88.1643 40.1508 89.5094C40.668 90.5571 41.771 90.3435 42.8504 89.4795C43.6866 88.8098 44.7219 85.7965 45.7523 81.0745C46.2989 78.5705 47.1393 76.1407 46.5103 74.7883C46.0306 73.756 44.2765 74.7626 43.8808 75.0736C43.2184 75.5919 42.0721 78.9445 41.5296 81.2333Z" fill="#B1A7DB"/>
<path d="M30.6316 78.4387C31.6539 82.0355 33.6845 87.839 33.3304 89.9368C33.0555 91.5632 32.0373 91.5414 30.9229 90.5767C30.0597 89.8296 28.6026 85.7783 26.8437 79.2793C25.912 75.8323 24.7315 72.5675 25.0488 70.4697C25.2936 68.8707 27.0313 69.8669 27.4392 70.2134C28.1229 70.7905 29.7391 75.3004 30.6316 78.4387Z" fill="#8877BC"/>
<path opacity="0.2" d="M42.85 89.4142C43.6862 88.7445 44.7215 85.7311 45.7527 81.0092C46.2993 78.5052 47.1397 76.0754 46.5107 74.723C46.4466 74.576 46.3357 74.4534 46.1949 74.374L41.4688 90.1242C41.9809 90.0024 42.4551 89.7586 42.85 89.4142V89.4142Z" fill="white"/>
<path opacity="0.2" d="M36.6183 88.2951C37.2963 88.5707 37.9392 88.2532 38.392 87.0862C39.2894 84.7901 38.3748 77.9188 38.0754 73.7014C37.8143 70.0216 37.0638 64.6751 36.4364 63.9102C36.0804 63.5033 35.6269 63.191 35.1172 63.002L36.6183 88.2951Z" fill="white"/>
<path opacity="0.2" d="M27.4446 70.149C27.193 69.9501 26.9128 69.7893 26.6133 69.6719L32.3331 91.1755C32.8153 91.1497 33.1824 90.7532 33.3317 89.8723C33.6858 87.7769 31.6552 81.9743 30.6329 78.3742C29.7404 75.2352 28.1242 70.7252 27.4446 70.149Z" fill="white"/>
</g>
<defs>
<clipPath id="clip0_16053_341092">
<rect width="93" height="91" fill="white" transform="translate(14 9)"/>
</clipPath>
<clipPath id="clip1_16053_341092">
<rect width="41.499" height="34.446" fill="white" transform="matrix(-1 0 0 1 104.75 65.5537)"/>
</clipPath>
<clipPath id="clip2_16053_341092">
<rect width="22" height="37" fill="white" transform="translate(25 63)"/>
</clipPath>
</defs>
</svg>
