<svg xmlns="http://www.w3.org/2000/svg" viewBox="0 0 744.27 486.03"><defs><style>.cls-1,.cls-2{fill:#ca952b;}.cls-1,.cls-3,.cls-4{fill-rule:evenodd;}.cls-3,.cls-6{fill:#f8ca36;}.cls-4,.cls-5{fill:#e7af2c;}.cls-7{fill:#fff;}.cls-8{opacity:0.6;}</style></defs><title>Asset 1</title><g id="Layer_2" data-name="Layer 2"><g id="ui"><polygon class="cls-1" points="271.23 137.04 283.4 139.84 224.09 397.23 211.28 397.23 271.23 137.04"/><polygon class="cls-1" points="283.4 139.84 271.23 142.64 329.9 397.23 342.71 397.23 283.4 139.84"/><rect class="cls-2" x="271.23" y="137.04" width="12.16" height="260.19"/><rect class="cls-2" x="216.4" y="282.98" width="116.24" height="8.58"/><rect class="cls-2" x="217.57" y="304.04" width="116.24" height="8.58"/><path class="cls-3" d="M278.6,141.32c-9.17-29.06-35-106.94-35-106.94l35-.65Z"/><path class="cls-3" d="M278.6,141.32c-22.47-20.58-83.75-75.14-83.75-75.14l30-18Z"/><path class="cls-3" d="M278.6,141.32c-29.75-6.59-110.11-23.21-110.11-23.21L185.4,87.53Z"/><path class="cls-3" d="M278.6,141.32c-29.06,9.16-107,34.94-107,34.94L171,141.32Z"/><path class="cls-3" d="M278.6,141.32c-20.58,22.46-75.16,83.73-75.16,83.73l-18-29.94Z"/><path class="cls-3" d="M278.6,141.32C272,171.06,255.39,251.4,255.39,251.4L224.8,234.49Z"/><path class="cls-3" d="M278.6,141.32c9.17,29.05,35,106.94,35,106.94l-35,.64Z"/><path class="cls-3" d="M278.6,141.32c22.47,20.58,83.77,75.14,83.77,75.14l-29.95,18Z"/><path class="cls-3" d="M278.6,141.32c29.76,6.59,110.12,23.2,110.12,23.2L371.8,195.11Z"/><path class="cls-3" d="M278.6,141.32c29.06-9.17,107-34.95,107-34.95l.65,34.95Z"/><path class="cls-3" d="M278.6,141.32c20.59-22.46,75.17-83.73,75.17-83.73l18,29.94Z"/><path class="cls-3" d="M278.6,141.32c6.59-29.74,23.21-110.09,23.21-110.09l30.61,16.92Z"/><path class="cls-4" d="M278.6,161.08a20.15,20.15,0,1,0-20.15-20.15A20.18,20.18,0,0,0,278.6,161.08Z"/><path class="cls-3" d="M278.6,151.48a10.55,10.55,0,1,0-10.55-10.55A10.56,10.56,0,0,0,278.6,151.48Z"/><rect class="cls-5" x="487.65" y="174.23" width="33.16" height="66.22"/><rect class="cls-6" x="487.65" y="174.24" width="22.71" height="66.22"/><path class="cls-3" d="M447.68,198.21c-27.43,19-85.76,60.08-96.3,67.5V396.84H544V265.71C533.43,258.29,475.1,217.23,447.68,198.21Z"/><path class="cls-3" d="M321.07,289.56c2.37-2.37,109.8-77,126.61-88.72,16.8,11.68,124.24,86.35,126.6,88.72l.47-12.29-127.07-89-127.08,89Z"/><rect class="cls-5" x="412.23" y="311.01" width="70.29" height="86.22"/><rect class="cls-2" x="420.01" y="318.91" width="54.74" height="75.24"/><path class="cls-7" d="M288.56,459.28c0-16.56,9.32-26.72,24.54-26.72,12.76,0,22.43,8.51,22.82,20H323.51a10.15,10.15,0,0,0-10.41-9.24c-7.07,0-11.39,6-11.39,15.92s4.32,16,11.43,16a10.1,10.1,0,0,0,10.44-9H336c-.42,11.6-9.84,19.79-22.85,19.79C297.91,486,288.56,475.83,288.56,459.28Z"/><path class="cls-7" d="M342.14,473.41c0-7.14,5.55-11.29,15.64-11.88l8.55-.5v-3c0-2.64-2-4.22-5.42-4.22-3.27,0-5.38,1.09-6.18,3.16H343.55c.56-7.59,7.48-12.3,18.07-12.3,10.79,0,16.94,4.92,16.94,13.36v26.68H366.47v-4.85h-.67c-1.76,3.34-6.05,5.45-11,5.45C347.27,485.26,342.14,480.58,342.14,473.41Zm24.19-2.81V468l-6.58.42c-3.69.28-5.62,1.72-5.62,4.08s2.07,4,5.2,4C363.27,476.57,366.33,474,366.33,470.6Z"/><path class="cls-7" d="M388,445.53h12.09V452h.67a9.64,9.64,0,0,1,9.63-7,14.05,14.05,0,0,1,4.5.6v10.58a19.13,19.13,0,0,0-5.34-.7c-5.48,0-9.14,3.09-9.14,8.54v20.71H388Z"/><path class="cls-7" d="M457,473.13c-1.37,7.63-8.54,12.44-18.67,12.44-12.48,0-19.65-7.38-19.65-20.21s7.35-20.74,19.48-20.74,19.09,7.31,19.09,19.79v3.44H430.94v.64c.11,5.09,3,8.26,7.77,8.26,3.63,0,6.12-1.34,7-3.62Zm-26-12.41h14.21c-.21-4.57-2.81-7.28-7-7.28S431.33,456.29,431,460.72Z"/><circle class="cls-7" cx="541.55" cy="85.23" r="24"/><circle class="cls-7" cx="508.05" cy="140.73" r="16.5"/><g class="cls-8"><path class="cls-7" d="M125.56,9.29l-1.55.4a13,13,0,0,0-1.85.55l-2.25,1c-.84.45-1.77,1.06-2.81,1.63s-2.06,1.45-3.21,2.25a82,82,0,0,0-7.3,6.57A147.24,147.24,0,0,0,89.84,42.5c-1.43,2.14-2.89,4.36-4.28,6.67-.36.58-.7,1.17-1,1.76l-.51.88-.25.45-.13.22c0,.06.09-.14,0,0l-.06.12-2,3.93-2,4-1.76,4C77.25,66,76.6,67.31,76,68.74l-1.72,4.39C69.72,85,65.91,98.3,62.15,112.63q-.69,2.69-1.41,5.42t-1.25,5.41c-.86,3.73-1.8,7.53-2.35,11.22-1.42,7.39-2.42,15.2-3.21,23.14A295.48,295.48,0,0,0,53.51,207a333.83,333.83,0,0,0,7.43,50.4A316,316,0,0,0,76.15,306c1.46,3.95,3.3,7.7,5,11.51l1.28,2.85c.37.86.91,1.86,1.35,2.79.93,1.89,1.85,3.78,2.78,5.66C90.25,336.33,94,343.54,98,350.59c7.86,14.07,16.14,27.27,25.17,38.83,2.31,2.84,4.42,5.81,6.88,8.35l3.56,3.91c.58.65,1.17,1.29,1.75,1.93l.22.24.11.13,0,0,.47.46,1,.91q3.83,3.61,7.52,7.1c1.2,1.22,2.52,2.15,3.76,3.2l3.74,3,3.67,3c1.25.94,2.55,1.81,3.79,2.7l7.38,5.2,7.29,4.52c2.35,1.48,4.64,2.94,7,4.16,9.11,5.23,17.36,9.28,24.18,12.54l9.17,4.29,6.85,3,5.71,2.49-.65,1.64L220.63,460l-7-2.64-9.44-3.8c-7-2.92-15.52-6.67-25-11.54-2.41-1.14-4.8-2.5-7.27-3.91l-7.61-4.32-7.75-5c-1.32-.87-2.67-1.71-4-2.63l-4-3-4-3c-1.33-1-2.8-2-4-3.17l-7.78-6.83-1-.87-.49-.44-.57-.57-1.89-2-3.82-4c-2.66-2.6-4.92-5.57-7.4-8.45a300.15,300.15,0,0,1-26.93-39.11c-4.15-7.07-8.2-14.46-12.1-21.9l-2.89-5.6c-.48-1-1-1.81-1.46-2.87l-1.38-2.91C71,317.6,69,313.74,67.4,309.7A307.29,307.29,0,0,1,51,259.77a336.26,336.26,0,0,1-8.29-51.93,306.72,306.72,0,0,1,.23-51c.79-8.27,1.78-16.35,3.28-24.35.62-4.06,1.53-7.79,2.37-11.52.44-1.92.87-3.82,1.3-5.72s1-3.66,1.46-5.47A275.61,275.61,0,0,1,64.89,69.27l2-4.54c.67-1.5,1.46-3,2.17-4.43L71.25,56q1.16-2,2.29-3.9l2.23-3.79L76,48l.16-.24.31-.47.62-.94c.41-.63.82-1.25,1.24-1.84,1.68-2.39,3.33-4.67,5.07-6.76a128.76,128.76,0,0,1,19.71-20c6.08-4.92,11.68-7.87,15.79-9.15l2.85-.71a11.24,11.24,0,0,1,2-.23l1.6-.1Z"/><path class="cls-7" d="M128.05,397.4c-19.25-11.82-5.62-80.92,29.41-63.4C205,357.78,147.64,409.43,128.05,397.4Z"/><path class="cls-7" d="M128.22,403c-1.63-22.53-69.26-42.23-69.82-3.08C57.63,453.07,129.88,425.92,128.22,403Z"/><path class="cls-7" d="M88.91,338.37c-17.39-10.68-5.07-73.09,26.56-57.27C158.39,302.58,106.6,349.22,88.91,338.37Z"/><path class="cls-7" d="M89.06,343.42c-1.47-20.35-62.54-38.14-63-2.78C25.31,388.63,90.56,364.12,89.06,343.42Z"/><path class="cls-7" d="M61.24,271C48,258.29,70.7,205.85,95.46,225.76,129.06,252.79,74.7,283.88,61.24,271Z"/><path class="cls-7" d="M60.41,275.45C63,257.3,12.76,230.05,5.58,261-4.17,303,57.78,293.91,60.41,275.45Z"/><path class="cls-7" d="M50.74,208.15C40.41,195.23,67,151,86.73,171.79,113.56,200,61.24,221.29,50.74,208.15Z"/><path class="cls-7" d="M49.46,212.05c4.48-15.93-37.2-46.29-47.32-19.46C-11.58,229,44.91,228.24,49.46,212.05Z"/><path class="cls-7" d="M48.4,147.38C41.51,134.74,71,100.84,84.78,121.65,103.53,149.88,55.42,160.25,48.4,147.38Z"/><path class="cls-7" d="M46.72,150.53c6.25-13-24.9-45.33-37.64-23.86C-8.21,155.82,40.36,163.73,46.72,150.53Z"/><path class="cls-7" d="M62.84,92.71C58.5,79,93.94,51.38,103.49,74.46,116.45,105.77,67.25,106.69,62.84,92.71Z"/><path class="cls-7" d="M60.58,95.48C69.21,83.94,44.86,46.2,28.23,64.83,5.66,90.11,51.8,107.22,60.58,95.48Z"/><path class="cls-7" d="M83.87,50c-1.08-10.79,29.28-25.69,32.78-7.22C121.4,67.81,85,60.94,83.87,50Z"/><path class="cls-7" d="M81.78,51.65c8.14-7.18-4-38.75-19.14-27.57C42.12,39.25,73.51,59,81.78,51.65Z"/></g><g class="cls-8"><path class="cls-7" d="M612.59,0l1.6.05a12.16,12.16,0,0,1,2,.16L619,.83c4.15,1.15,9.85,3.91,16.09,8.63a128.57,128.57,0,0,1,20.35,19.3c1.81,2,3.53,4.26,5.29,6.59.44.58.87,1.18,1.3,1.8l.65.92.33.47.16.23.22.34,2.35,3.71,2.41,3.82,2.35,4.22c.76,1.43,1.59,2.88,2.31,4.36s1.42,3,2.14,4.46a276.48,276.48,0,0,1,14.92,40q.81,2.7,1.63,5.43T693,110.8c1,3.7,2,7.4,2.76,11.43,1.76,8,3,16,4.07,24.23a305,305,0,0,1,1.91,51,337,337,0,0,1-6.56,52.17,308.24,308.24,0,0,1-14.8,50.44c-1.47,4.09-3.32,8-5,12l-1.3,3c-.45,1.08-.91,1.94-1.36,2.92l-2.7,5.69c-3.65,7.56-7.45,15.08-11.37,22.28a300.87,300.87,0,0,1-25.63,40c-2.38,3-4.54,6-7.12,8.69-1.24,1.37-2.46,2.74-3.69,4.09-.6.68-1.21,1.35-1.82,2l-.54.6-.49.45-1,.9q-3.85,3.6-7.55,7.08c-1.19,1.19-2.62,2.22-3.92,3.3L603,416.17l-3.86,3.1c-1.3,1-2.62,1.85-3.91,2.76l-7.58,5.29-7.46,4.58c-2.42,1.48-4.76,2.93-7.14,4.15-9.32,5.17-17.67,9.2-24.62,12.35l-9.3,4.11-6.94,2.87-5.78,2.39-.7-1.62,5.62-2.68,6.75-3.24,9-4.58c6.72-3.49,14.83-7.81,23.76-13.33,2.28-1.31,4.52-2.84,6.83-4.39l7.14-4.77,7.19-5.43c1.22-.94,2.49-1.85,3.71-2.83l3.57-3.1c1.2-1,2.41-2.09,3.63-3.15s2.5-2.06,3.66-3.32L613.9,398l.93-.94.47-.47c-.15.15,0,0,0,0l.11-.13.21-.25,1.69-2,3.42-4c2.38-2.62,4.39-5.66,6.61-8.57A307.08,307.08,0,0,0,651.22,342c3.71-7.18,7.23-14.51,10.69-22.11q1.3-2.86,2.59-5.74c.42-1,.92-2,1.26-2.84l1.18-2.89c1.56-3.86,3.27-7.68,4.61-11.67a317.73,317.73,0,0,0,13.6-49.07A335.39,335.39,0,0,0,690.91,197a295.59,295.59,0,0,0-2-49.19c-1.05-7.9-2.3-15.67-4-23-.68-3.68-1.74-7.44-2.73-11.14q-.72-2.7-1.43-5.37l-1.58-5.36c-4.23-14.2-8.48-27.4-13.45-39.08l-1.87-4.33c-.62-1.42-1.31-2.73-2-4.08s-1.26-2.67-1.89-4-1.43-2.65-2.14-4-1.41-2.6-2.11-3.86l-.06-.12c-.09-.14,0,0,0,0l-.13-.22-.27-.44-.53-.87c-.34-.58-.7-1.15-1.08-1.72-1.46-2.26-3-4.43-4.5-6.52A147.32,147.32,0,0,0,631.75,13.5a86.52,86.52,0,0,0-7.51-6.33C623.06,6.41,622,5.63,621,5s-2-1.11-2.86-1.53l-2.29-.92a11.78,11.78,0,0,0-1.86-.49c-1-.22-1.56-.35-1.56-.35Z"/><path class="cls-7" d="M622.68,389.73c18.85-12.46,3-81.07-31.48-62.41C544.48,352.66,603.5,402.39,622.68,389.73Z"/><path class="cls-7" d="M622.7,395.33c.88-22.58,67.82-44.5,69.68-5.38C694.9,443,621.79,418.29,622.7,395.33Z"/><path class="cls-7" d="M659.85,329.43c17-11.24,2.67-73.21-28.42-56.36C589.23,296,642.53,340.86,659.85,329.43Z"/><path class="cls-7" d="M659.86,334.49c.81-20.39,61.26-40.18,62.94-4.86C725.08,377.57,659.05,355.23,659.86,334.49Z"/><path class="cls-7" d="M685.29,261.16c12.81-13.11-11.6-64.78-35.69-44.06C616.91,245.22,672.26,274.5,685.29,261.16Z"/><path class="cls-7" d="M686.27,265.61c-3.18-18.05,46.12-47,54.32-16.25C751.72,291,689.5,284,686.27,265.61Z"/><path class="cls-7" d="M693.71,198c9.9-13.26-18.1-56.56-37.17-35.16C630.66,191.92,683.65,211.51,693.71,198Z"/><path class="cls-7" d="M695.12,201.88c-5-15.77,35.66-47.49,46.65-21C756.69,216.8,700.2,217.92,695.12,201.88Z"/><path class="cls-7" d="M694.05,137.22c6.47-12.87-24.1-45.77-37.21-24.53C639,141.53,687.45,150.3,694.05,137.22Z"/><path class="cls-7" d="M695.83,140.31c-6.67-12.77,23.4-46.13,36.84-25.09C750.91,143.78,702.62,153.29,695.83,140.31Z"/><path class="cls-7" d="M677.82,83.05c3.88-13.87-32.45-40.28-41.23-16.91C624.66,97.86,673.87,97.16,677.82,83.05Z"/><path class="cls-7" d="M680.17,85.74C671.16,74.5,694.25,36,711.49,54,734.88,78.56,689.33,97.18,680.17,85.74Z"/><path class="cls-7" d="M655.38,41c.73-10.83-30.11-24.72-33-6.14C618.47,60.09,654.64,52,655.38,41Z"/><path class="cls-7" d="M657.53,42.63c-8.37-6.9,2.74-38.86,18.22-28.18C696.77,28.93,666,49.66,657.53,42.63Z"/></g></g></g></svg>