<svg xmlns="http://www.w3.org/2000/svg" width="931.45" height="577.704" viewBox="0 0 931.45 577.704"><defs><style>.a{fill:#6f6f6f;}.b{fill:#a2a2a2;}.c{fill:#848484;}.d{fill:#959595;}.e{fill:silver;}.f{fill:#a8a8a8;}.g{fill:#666;}.h{fill:#a6a6a6;}.i{fill:#878787;}.j{fill:#5d5d5d;}.k{fill:#969696;}.l{fill:#818181;}</style></defs><g transform="translate(-3651 -1414.092)"><g transform="translate(3592.757 1599.222) rotate(-31)"><path class="a" d="M137.1,155.9a79.8,79.8,0,1,0,79.8,79.8A79.8,79.8,0,0,0,137.1,155.9Zm.719,116.9a37.939,37.939,0,1,1,37.95-37.939A37.935,37.935,0,0,1,137.817,272.8Z" transform="translate(66.739 66.953)"/><g transform="translate(30.482 128.99)"><path class="b" d="M377.184,292.368l-.192-3.1a1.817,1.817,0,0,0-1.866-1.762l-15.119.3c-.206-2.177-.447-4.346-.757-6.513-.276-2.17-.642-4.326-1.012-6.478l14.644-3.76a1.8,1.8,0,0,0,1.312-2.194l-.631-3.049a1.8,1.8,0,0,0-2.076-1.493l-14.923,2.355q-.769-3.192-1.636-6.349c-.607-2.1-1.217-4.2-1.9-6.276l14-5.738a1.788,1.788,0,0,0,1-2.351l-1.039-2.937a1.811,1.811,0,0,0-2.267-1.2l-14.477,4.388c-.788-2.041-1.6-4.067-2.484-6.066-.862-2.013-1.8-3.991-2.742-5.958l13.078-7.6a1.8,1.8,0,0,0,.67-2.47l-1.444-2.759a1.777,1.777,0,0,0-2.393-.876L341.181,226.8c-1.057-1.919-2.173-3.8-3.293-5.672-1.155-1.863-2.316-3.708-3.527-5.526l11.92-9.31a1.793,1.793,0,0,0,.317-2.533l-1.8-2.539a1.8,1.8,0,0,0-2.5-.541l-12.743,8.131c-1.319-1.741-2.644-3.474-4.036-5.163s-2.791-3.37-4.245-5l10.549-10.838a1.8,1.8,0,0,0-.017-2.553l-2.124-2.281a1.806,1.806,0,0,0-2.553-.181l-11.536,9.781c-1.535-1.556-3.08-3.094-4.688-4.573-1.594-1.5-3.23-2.944-4.884-4.378L315,171.465a1.806,1.806,0,0,0-.352-2.533l-2.424-1.964a1.791,1.791,0,0,0-2.547.147l-10.1,11.267c-1.723-1.347-3.5-2.63-5.271-3.9-1.79-1.256-3.593-2.48-5.428-3.67l7.242-13.277a1.8,1.8,0,0,0-.7-2.449l-2.662-1.619a1.8,1.8,0,0,0-2.508.5l-8.47,12.52c-1.9-1.074-3.813-2.138-5.756-3.136s-3.9-1.985-5.881-2.9l5.365-14.142a1.789,1.789,0,0,0-1.033-2.337l-2.86-1.252a1.813,1.813,0,0,0-2.417.848l-6.68,13.566c-2.023-.82-4.067-1.6-6.139-2.323-2.044-.743-4.13-1.416-6.213-2.076L253.536,138a1.819,1.819,0,0,0-1.34-2.18l-3-.834a1.8,1.8,0,0,0-2.285,1.155L242.147,150.5c-2.117-.537-4.252-1.015-6.387-1.465-2.142-.429-4.291-.848-6.45-1.189l1.329-15.066a1.788,1.788,0,0,0-1.629-1.967l-3.087-.433a1.828,1.828,0,0,0-2.1,1.476l-2.749,14.871c-2.18-.241-4.35-.44-6.53-.579-2.18-.157-4.367-.234-6.548-.314l-.736-15.1a1.791,1.791,0,0,0-1.877-1.73c-1.029-.021-2.065-.021-3.1,0a1.8,1.8,0,0,0-1.88,1.73l-.729,15.1c-2.184.08-4.36.157-6.548.314-2.173.139-4.357.342-6.527.579l-2.752-14.871a1.826,1.826,0,0,0-2.1-1.476l-3.087.433a1.793,1.793,0,0,0-1.633,1.967l1.326,15.073c-2.152.335-4.3.754-6.446,1.183-2.135.45-4.266.928-6.387,1.465l-4.762-14.358a1.788,1.788,0,0,0-2.274-1.155l-3,.834a1.813,1.813,0,0,0-1.353,2.18l3.38,14.735c-2.093.663-4.176,1.329-6.223,2.072-2.069.722-4.1,1.5-6.129,2.323l-6.687-13.563a1.813,1.813,0,0,0-2.421-.851L133.2,143.97a1.8,1.8,0,0,0-1.033,2.341l5.369,14.138c-1.988.91-3.938,1.894-5.881,2.9s-3.848,2.062-5.756,3.136l-8.47-12.52a1.806,1.806,0,0,0-2.515-.5l-2.655,1.619a1.793,1.793,0,0,0-.7,2.456l7.238,13.273q-2.742,1.779-5.431,3.67c-1.776,1.273-3.548,2.557-5.264,3.9L98,167.122a1.789,1.789,0,0,0-2.55-.154l-2.417,1.964a1.814,1.814,0,0,0-.356,2.536l8.979,12.164c-1.657,1.43-3.3,2.874-4.884,4.378-1.6,1.479-3.16,3.017-4.7,4.573L80.546,182.8a1.81,1.81,0,0,0-2.553.185l-2.124,2.281a1.787,1.787,0,0,0-.014,2.553L86.4,198.657c-1.465,1.629-2.867,3.307-4.252,5s-2.717,3.422-4.036,5.159l-12.746-8.128a1.8,1.8,0,0,0-2.5.537l-1.8,2.543A1.8,1.8,0,0,0,61.4,206.3l11.92,9.314c-1.217,1.814-2.39,3.659-3.53,5.519-1.123,1.873-2.24,3.753-3.293,5.672l-13.741-6.321a1.789,1.789,0,0,0-2.4.872l-1.441,2.763a1.824,1.824,0,0,0,.677,2.473l13.074,7.594c-.945,1.971-1.877,3.942-2.735,5.958-.886,2-1.706,4.026-2.494,6.066l-14.466-4.388a1.82,1.82,0,0,0-2.274,1.2l-1.04,2.937a1.788,1.788,0,0,0,1,2.351l14,5.735c-.687,2.076-1.3,4.176-1.9,6.276s-1.134,4.228-1.636,6.352l-14.941-2.355a1.79,1.79,0,0,0-2.069,1.49l-.638,3.052a1.81,1.81,0,0,0,1.322,2.194l14.644,3.76c-.366,2.156-.733,4.308-1.022,6.478s-.544,4.336-.736,6.509l-15.129-.293a1.818,1.818,0,0,0-1.863,1.758l-.2,3.1a1.781,1.781,0,0,0,1.591,1.992L47.113,296.1c-.108,2.18-.126,4.367-.147,6.555.021,2.18.038,4.371.147,6.548L32.079,310.94a1.781,1.781,0,0,0-1.591,1.988l.2,3.108a1.813,1.813,0,0,0,1.863,1.758l15.129-.3q.293,3.265.747,6.513c.279,2.17.645,4.326,1.012,6.478l-14.644,3.764a1.813,1.813,0,0,0-1.322,2.191l.638,3.049a1.8,1.8,0,0,0,2.072,1.5l14.941-2.358q.748,3.2,1.633,6.352c.6,2.1,1.21,4.2,1.912,6.272L40.657,357a1.8,1.8,0,0,0-1,2.348l1.04,2.941a1.817,1.817,0,0,0,2.274,1.19l14.466-4.385c.8,2.041,1.608,4.067,2.494,6.066.858,2.013,1.793,3.987,2.735,5.955l-13.074,7.6a1.818,1.818,0,0,0-.673,2.47l1.441,2.763a1.789,1.789,0,0,0,2.4.876l13.755-6.328c1.043,1.922,2.156,3.8,3.279,5.672,1.148,1.859,2.313,3.708,3.53,5.526L61.4,399a1.8,1.8,0,0,0-.324,2.533l1.8,2.543a1.81,1.81,0,0,0,2.5.537l12.739-8.131c1.329,1.741,2.655,3.474,4.036,5.163s2.791,3.37,4.252,5L75.854,417.477a1.807,1.807,0,0,0,.014,2.56l2.124,2.278a1.807,1.807,0,0,0,2.553.185l11.532-9.785c1.535,1.556,3.087,3.091,4.692,4.573,1.594,1.5,3.234,2.944,4.884,4.378l-8.972,12.16a1.817,1.817,0,0,0,.349,2.54l2.417,1.957a1.785,1.785,0,0,0,2.55-.147L108.1,426.913c1.73,1.35,3.492,2.627,5.271,3.9,1.783,1.256,3.6,2.484,5.428,3.666l-7.242,13.28a1.8,1.8,0,0,0,.7,2.452l2.662,1.619a1.79,1.79,0,0,0,2.5-.5l8.47-12.516c1.908,1.078,3.816,2.135,5.759,3.139s3.89,1.985,5.888,2.892L132.17,459a1.793,1.793,0,0,0,1.033,2.33l2.857,1.259a1.815,1.815,0,0,0,2.421-.851l6.687-13.57c2.027.82,4.071,1.608,6.129,2.323,2.058.743,4.13,1.416,6.223,2.072l-3.38,14.738a1.815,1.815,0,0,0,1.353,2.177l3,.837a1.789,1.789,0,0,0,2.274-1.158l4.765-14.358c2.117.537,4.249,1.019,6.384,1.469,2.149.422,4.294.841,6.446,1.186l-1.319,15.077a1.787,1.787,0,0,0,1.633,1.96l3.084.429a1.813,1.813,0,0,0,2.093-1.479l2.756-14.871c2.166.248,4.35.447,6.534.583,2.177.157,4.364.237,6.548.314l.719,15.108a1.8,1.8,0,0,0,1.88,1.723c1.033.014,2.072.014,3.112,0a1.809,1.809,0,0,0,1.88-1.723L208,459.463c2.18-.077,4.371-.157,6.548-.314,2.18-.136,4.35-.335,6.53-.583l2.763,14.871a1.8,1.8,0,0,0,2.086,1.479l3.087-.429a1.793,1.793,0,0,0,1.629-1.96l-1.329-15.084c2.166-.338,4.308-.757,6.45-1.179,2.135-.45,4.27-.931,6.387-1.469l4.762,14.358a1.807,1.807,0,0,0,2.285,1.158l3-.837a1.808,1.808,0,0,0,1.34-2.177l-3.37-14.738c2.076-.656,4.162-1.329,6.223-2.072,2.055-.715,4.1-1.5,6.122-2.323l6.68,13.566a1.812,1.812,0,0,0,2.417.848l2.86-1.252a1.794,1.794,0,0,0,1.036-2.337l-5.369-14.142c1.981-.907,3.935-1.894,5.881-2.892s3.858-2.062,5.756-3.139l8.48,12.516a1.786,1.786,0,0,0,2.5.5l2.662-1.619a1.8,1.8,0,0,0,.7-2.459l-7.242-13.273c1.835-1.183,3.638-2.41,5.428-3.673s3.548-2.553,5.271-3.9l10.106,11.267a1.773,1.773,0,0,0,2.54.147l2.424-1.957a1.813,1.813,0,0,0,.359-2.54l-8.982-12.16c1.657-1.434,3.293-2.878,4.884-4.381,1.608-1.479,3.164-3.017,4.7-4.57L327.13,422.5a1.807,1.807,0,0,0,2.553-.185l2.124-2.278a1.8,1.8,0,0,0,.017-2.557l-10.549-10.838c1.455-1.629,2.86-3.3,4.245-5s2.717-3.426,4.036-5.163l12.75,8.128a1.8,1.8,0,0,0,2.494-.537l1.8-2.546a1.79,1.79,0,0,0-.317-2.529l-11.92-9.31q1.816-2.726,3.527-5.522c1.12-1.877,2.236-3.753,3.293-5.672l13.737,6.328a1.794,1.794,0,0,0,2.4-.879l1.437-2.759a1.8,1.8,0,0,0-.67-2.473l-13.074-7.6c.949-1.971,1.877-3.942,2.738-5.955.883-2,1.7-4.029,2.484-6.066l14.477,4.381a1.805,1.805,0,0,0,2.267-1.186l1.039-2.944a1.78,1.78,0,0,0-1-2.351l-14-5.735c.687-2.072,1.3-4.176,1.9-6.276q.869-3.155,1.636-6.349l14.923,2.351a1.79,1.79,0,0,0,2.076-1.493l.631-3.045a1.8,1.8,0,0,0-1.312-2.2l-14.644-3.76c.37-2.156.736-4.308,1.019-6.478.3-2.163.544-4.336.75-6.509l15.119.293a1.817,1.817,0,0,0,1.866-1.762l.192-3.1a1.78,1.78,0,0,0-1.591-1.988L360.566,309.2c.108-2.18.126-4.367.143-6.548-.017-2.191-.035-4.374-.143-6.558l15.028-1.737A1.782,1.782,0,0,0,377.184,292.368ZM276.207,190.219A133.6,133.6,0,0,1,316.6,230.826l-27.474,15.862a102.663,102.663,0,0,0-28.793-28.981Zm-66.146-20.944a131.828,131.828,0,0,1,55.37,14.7l-15.865,27.488a101.43,101.43,0,0,0-39.506-10.626Zm-12.443.045v31.517a101.322,101.322,0,0,0-39.505,10.626L142.575,184.55A131.745,131.745,0,0,1,197.618,169.32ZM131.866,190.9l15.474,26.808a102.5,102.5,0,0,0-28.786,28.981L92.141,231.437A133.8,133.8,0,0,1,131.866,190.9ZM86.022,242.275l26.344,15.209A101.284,101.284,0,0,0,102,296.892H71.964A131.634,131.634,0,0,1,86.022,242.275Zm.984,121.108a131.788,131.788,0,0,1-14.951-54.048h30.007a101.554,101.554,0,0,0,10.667,39.192Zm45.914,50.128A133.606,133.606,0,0,1,93.3,374.11l25.685-14.825a102.625,102.625,0,0,0,28.751,28.559Zm64.7,20.906a131.761,131.761,0,0,1-53.937-14.665l14.839-25.706a101.458,101.458,0,0,0,39.1,10.413Zm6.22-52.147a79.621,79.621,0,1,1,79.621-79.618A79.713,79.713,0,0,1,203.838,382.269Zm6.223,52.189v-30a101.491,101.491,0,0,0,39.1-10.413l15.167,26.285A131.741,131.741,0,0,1,210.061,434.459Zm65.1-20.267-15.22-26.354a102.506,102.506,0,0,0,28.747-28.556l26.745,15.446A133.7,133.7,0,0,1,275.157,414.191Zm46.629-50.159-26.839-15.506a101.31,101.31,0,0,0,10.667-39.192h31.461A131.6,131.6,0,0,1,321.786,364.032Zm-16.1-67.137a101.5,101.5,0,0,0-10.371-39.411l27.467-15.858A131.707,131.707,0,0,1,337.169,296.9Z" transform="translate(-30.482 -128.99)"/><path class="b" d="M115.443,164.462A49.14,49.14,0,1,0,164.587,213.6,49.143,49.143,0,0,0,115.443,164.462Zm0,87.083A37.944,37.944,0,1,1,153.385,213.6,37.99,37.99,0,0,1,115.443,251.545Z" transform="translate(58.642 -40.722)"/></g><path class="b" d="M80.907,164.462c-.248,0-.485.031-.729.035v11.2c.244,0,.481-.038.729-.038a37.944,37.944,0,0,1,0,75.889c-.248,0-.485-.031-.729-.035v11.2c.244,0,.481.035.729.035a49.14,49.14,0,1,0,0-98.281Z" transform="translate(123.66 88.268)"/><path class="c" d="M66.3,213.6a49.146,49.146,0,0,0,49.144,49.144c.248,0,.481-.031.729-.035v-11.2c-.248,0-.481.035-.729.035a37.944,37.944,0,1,1,0-75.889c.248,0,.481.035.729.038V164.5c-.248,0-.481-.035-.729-.035A49.143,49.143,0,0,0,66.3,213.6Z" transform="translate(89.124 88.268)"/><path class="c" d="M253.524,292.36l-.192-3.1a1.817,1.817,0,0,0-1.866-1.762l-15.119.3c-.206-2.177-.447-4.346-.757-6.513-.276-2.17-.642-4.326-1.012-6.478l14.644-3.76a1.8,1.8,0,0,0,1.312-2.194L249.9,265.8a1.8,1.8,0,0,0-2.076-1.493L232.9,266.658q-.769-3.192-1.636-6.349c-.607-2.1-1.217-4.2-1.9-6.276l14-5.738a1.788,1.788,0,0,0,1-2.351l-1.04-2.937a1.811,1.811,0,0,0-2.267-1.2L226.573,246.2c-.788-2.041-1.6-4.067-2.484-6.066-.862-2.013-1.8-3.991-2.742-5.958l13.078-7.6a1.8,1.8,0,0,0,.67-2.47l-1.444-2.759a1.777,1.777,0,0,0-2.393-.876L217.521,226.8c-1.057-1.919-2.173-3.8-3.293-5.672-1.155-1.863-2.316-3.708-3.527-5.526l11.92-9.31a1.793,1.793,0,0,0,.317-2.533l-1.8-2.539a1.8,1.8,0,0,0-2.5-.541L205.9,208.807c-1.319-1.741-2.644-3.474-4.036-5.163s-2.791-3.37-4.245-5l10.549-10.838a1.8,1.8,0,0,0-.017-2.553l-2.124-2.281a1.806,1.806,0,0,0-2.553-.181l-11.536,9.781c-1.535-1.556-3.08-3.094-4.688-4.573-1.594-1.5-3.23-2.944-4.884-4.378l8.975-12.164a1.806,1.806,0,0,0-.352-2.533l-2.424-1.964a1.791,1.791,0,0,0-2.547.147l-10.1,11.267c-1.723-1.347-3.5-2.63-5.271-3.9-1.79-1.256-3.593-2.48-5.428-3.67l7.242-13.277a1.8,1.8,0,0,0-.7-2.449l-2.662-1.619a1.8,1.8,0,0,0-2.508.5l-8.47,12.52c-1.9-1.074-3.813-2.138-5.756-3.136s-3.9-1.985-5.881-2.9l5.365-14.142a1.789,1.789,0,0,0-1.033-2.337l-2.86-1.252a1.813,1.813,0,0,0-2.417.848l-6.68,13.566c-2.023-.82-4.067-1.6-6.139-2.323-2.044-.743-4.13-1.416-6.213-2.076l3.377-14.731a1.819,1.819,0,0,0-1.34-2.18l-3-.834a1.8,1.8,0,0,0-2.285,1.155l-4.762,14.358c-2.117-.537-4.252-1.015-6.387-1.465-2.142-.429-4.291-.848-6.45-1.189l1.329-15.066a1.788,1.788,0,0,0-1.629-1.967l-3.087-.433a1.828,1.828,0,0,0-2.1,1.476l-2.749,14.871c-2.18-.241-4.35-.44-6.53-.579-2.18-.157-4.367-.234-6.548-.314l-.736-15.1A1.791,1.791,0,0,0,81.723,129c-.513-.01-1.029,0-1.545,0v27.945c3.314,0,6.645.115,9.949.345a144.912,144.912,0,0,1,57.087,15.956A147.193,147.193,0,0,1,164.2,183.59a148.221,148.221,0,0,1,15.422,12.568A145.132,145.132,0,0,1,193.2,210.7a148.451,148.451,0,0,1,11.491,16.235,145.842,145.842,0,0,1,9.153,17.651,144.18,144.18,0,0,1,10.685,38.2,146.321,146.321,0,0,1,0,39.711,144.108,144.108,0,0,1-10.685,38.2,145.327,145.327,0,0,1-9.153,17.651A148.2,148.2,0,0,1,193.2,394.586a144.218,144.218,0,0,1-13.584,14.532A148.7,148.7,0,0,1,164.2,421.69a147.176,147.176,0,0,1-16.985,10.346A144.435,144.435,0,0,1,90.137,448c-3.314.227-6.645.342-9.959.342v27.949c.516,0,1.043.014,1.559,0a1.809,1.809,0,0,0,1.88-1.723l.719-15.108c2.18-.077,4.371-.157,6.548-.314,2.18-.136,4.35-.335,6.53-.583l2.763,14.871a1.8,1.8,0,0,0,2.086,1.479l3.087-.429a1.793,1.793,0,0,0,1.629-1.96l-1.329-15.084c2.166-.338,4.308-.757,6.45-1.179,2.135-.45,4.27-.931,6.387-1.469l4.762,14.358a1.807,1.807,0,0,0,2.285,1.158l3-.837a1.808,1.808,0,0,0,1.34-2.177l-3.37-14.738c2.076-.656,4.162-1.329,6.223-2.072,2.055-.715,4.1-1.5,6.122-2.323l6.68,13.566a1.812,1.812,0,0,0,2.417.848l2.86-1.252a1.794,1.794,0,0,0,1.036-2.337l-5.369-14.142c1.981-.907,3.935-1.894,5.881-2.892s3.858-2.062,5.756-3.139l8.48,12.516a1.786,1.786,0,0,0,2.5.5l2.662-1.619a1.8,1.8,0,0,0,.7-2.459l-7.242-13.273c1.835-1.183,3.638-2.41,5.428-3.673s3.548-2.553,5.271-3.9l10.106,11.267a1.773,1.773,0,0,0,2.54.147l2.424-1.957a1.813,1.813,0,0,0,.359-2.54l-8.982-12.16c1.657-1.434,3.293-2.878,4.884-4.381,1.608-1.479,3.164-3.017,4.7-4.57l11.529,9.781a1.807,1.807,0,0,0,2.553-.185l2.124-2.278a1.8,1.8,0,0,0,.017-2.557l-10.549-10.838c1.455-1.629,2.86-3.3,4.245-5s2.717-3.426,4.036-5.163l12.75,8.128a1.8,1.8,0,0,0,2.494-.537l1.8-2.546a1.79,1.79,0,0,0-.317-2.529l-11.92-9.31q1.816-2.726,3.527-5.522c1.12-1.877,2.236-3.753,3.293-5.672l13.737,6.328a1.794,1.794,0,0,0,2.4-.879l1.437-2.759a1.8,1.8,0,0,0-.67-2.473l-13.074-7.6c.949-1.971,1.877-3.942,2.738-5.955.883-2,1.7-4.029,2.484-6.066l14.477,4.381a1.805,1.805,0,0,0,2.267-1.186l1.04-2.944a1.78,1.78,0,0,0-1-2.351l-14-5.735c.687-2.072,1.3-4.176,1.9-6.276q.869-3.155,1.636-6.349l14.923,2.351a1.79,1.79,0,0,0,2.076-1.493l.631-3.045a1.8,1.8,0,0,0-1.312-2.2l-14.644-3.76c.37-2.156.736-4.308,1.019-6.478.3-2.163.544-4.336.75-6.509l15.119.293a1.817,1.817,0,0,0,1.866-1.762l.192-3.1a1.78,1.78,0,0,0-1.591-1.988l-15.028-1.741c.108-2.18.126-4.367.143-6.548-.017-2.191-.035-4.374-.143-6.558l15.028-1.737A1.782,1.782,0,0,0,253.524,292.36Z" transform="translate(123.66 0.008)"/><path class="c" d="M80.907,134.477c-.248,0-.485.017-.729.017v74.877a79.621,79.621,0,0,1,0,159.243v73.315c.244,0,.481.017.729.017a153.735,153.735,0,0,0,0-307.47Zm45,63.331A101.43,101.43,0,0,0,86.4,187.182V155.62a131.828,131.828,0,0,1,55.371,14.7ZM86.4,420.8v-30a101.491,101.491,0,0,0,39.1-10.413l15.167,26.285A131.741,131.741,0,0,1,86.4,420.8Zm65.1-20.267-15.22-26.354a102.507,102.507,0,0,0,28.747-28.556l26.745,15.446A133.7,133.7,0,0,1,151.5,400.536Zm46.629-50.159-26.839-15.506a101.309,101.309,0,0,0,10.667-39.192h31.461A131.6,131.6,0,0,1,198.126,350.378Zm15.384-67.137H182.024a101.5,101.5,0,0,0-10.371-39.411l27.467-15.858A131.707,131.707,0,0,1,213.509,283.241Zm-48.048-50.208a102.663,102.663,0,0,0-28.793-28.981l15.879-27.488a133.6,133.6,0,0,1,40.388,40.608Z" transform="translate(123.66 13.655)"/></g><g transform="translate(3940.435 1656.536)"><path class="d" d="M299.951,191.678q-5.413.95-10.792,2.017a74.664,74.664,0,0,0-7-16.885q4.565-3.052,9.056-6.205a85.71,85.71,0,0,0-6.067-9.058q-4.629,2.953-9.188,6a75.232,75.232,0,0,0-12.925-12.925q3.049-4.557,6-9.184a85.319,85.319,0,0,0-9.056-6.067q-3.153,4.487-6.209,9.053a74.8,74.8,0,0,0-16.885-7q1.07-5.378,2.02-10.79a85.462,85.462,0,0,0-10.7-2.118q-1.182,5.354-2.246,10.746a75.547,75.547,0,0,0-18.28,0q-1.064-5.389-2.245-10.746a85.463,85.463,0,0,0-10.7,2.118q.952,5.41,2.015,10.79a74.742,74.742,0,0,0-16.882,7q-3.055-4.559-6.207-9.055a85.619,85.619,0,0,0-9.058,6.067q2.956,4.629,6,9.186a75.068,75.068,0,0,0-12.925,12.925q-4.557-3.047-9.186-6a85.561,85.561,0,0,0-6.068,9.06q4.49,3.148,9.056,6.207a74.608,74.608,0,0,0-7,16.884q-5.378-1.064-10.789-2.017a85.314,85.314,0,0,0-2.122,10.7q5.36,1.182,10.748,2.246a75.309,75.309,0,0,0,0,18.28q-5.392,1.064-10.748,2.244a85.627,85.627,0,0,0,2.12,10.7q5.41-.95,10.79-2.015a74.576,74.576,0,0,0,7,16.885q-4.565,3.052-9.056,6.205a85.734,85.734,0,0,0,6.067,9.06q4.629-2.956,9.188-6A75.239,75.239,0,0,0,170.6,272.912q-3.049,4.556-6,9.186a86.061,86.061,0,0,0,9.056,6.067q3.153-4.49,6.209-9.055a74.7,74.7,0,0,0,16.885,7q-1.067,5.378-2.019,10.789a85.056,85.056,0,0,0,10.7,2.118q1.182-5.354,2.248-10.744a75.771,75.771,0,0,0,18.278,0q1.067,5.386,2.244,10.744a85.056,85.056,0,0,0,10.7-2.118q-.95-5.41-2.015-10.789a74.731,74.731,0,0,0,16.884-7q3.055,4.562,6.207,9.055a85.335,85.335,0,0,0,9.058-6.067q-2.953-4.629-6-9.188a75.475,75.475,0,0,0,12.925-12.923q4.557,3.047,9.186,6a86.264,86.264,0,0,0,6.067-9.058q-4.493-3.151-9.056-6.207a74.572,74.572,0,0,0,7-16.885q5.381,1.067,10.792,2.017a85.7,85.7,0,0,0,2.116-10.7q-5.352-1.182-10.744-2.246a75.789,75.789,0,0,0,0-18.28q5.386-1.064,10.744-2.245A85.793,85.793,0,0,0,299.951,191.678Zm-83.136-16.9a4.467,4.467,0,1,1-4.464,4.466A4.466,4.466,0,0,1,216.815,174.78Zm-34.272,43.453a4.467,4.467,0,1,1,4.468-4.468A4.467,4.467,0,0,1,182.543,218.233Zm9.864,23.172a4.467,4.467,0,1,1,4.468-4.466A4.466,4.466,0,0,1,192.407,241.405Zm0-47.673a4.466,4.466,0,1,1,4.468-4.466A4.465,4.465,0,0,1,192.407,193.732ZM216.815,252a4.467,4.467,0,1,1,4.468-4.468A4.465,4.465,0,0,1,216.815,252Zm0-20.01a18.223,18.223,0,1,1,18.226-18.223A18.244,18.244,0,0,1,216.817,231.99Zm24.409,9.416a4.467,4.467,0,1,1,4.468-4.466A4.466,4.466,0,0,1,241.225,241.405Zm0-47.673a4.466,4.466,0,1,1,4.468-4.466A4.465,4.465,0,0,1,241.225,193.732Zm9.346,24.5a4.467,4.467,0,1,1,4.469-4.468A4.467,4.467,0,0,1,250.572,218.233Z" transform="translate(0 0.041)"/><g transform="translate(131.569 128.464)"><path class="e" d="M207.677,139.21q-1.067-5.389-2.244-10.746a85.308,85.308,0,0,0-10.7,2.118q.947,5.413,2.015,10.79a74.571,74.571,0,0,0-16.885,7q-3.052-4.562-6.205-9.056a85.9,85.9,0,0,0-9.058,6.067q2.953,4.629,6,9.188A75.407,75.407,0,0,0,157.672,167.5q-4.557-3.049-9.186-6a85.274,85.274,0,0,0-6.067,9.06q4.487,3.151,9.054,6.207a74.713,74.713,0,0,0-7,16.884q-5.381-1.064-10.79-2.017a85.433,85.433,0,0,0-2.118,10.7q5.354,1.184,10.744,2.248a75.789,75.789,0,0,0,0,18.28q-5.386,1.062-10.744,2.243a85.243,85.243,0,0,0,2.118,10.7q5.41-.947,10.79-2.013a74.392,74.392,0,0,0,7,16.884q-4.565,3.055-9.056,6.207a85.436,85.436,0,0,0,6.067,9.058q4.629-2.956,9.186-6A75.408,75.408,0,0,0,170.6,272.859q-3.047,4.557-6,9.186a85.346,85.346,0,0,0,9.058,6.067q3.151-4.49,6.209-9.054a74.732,74.732,0,0,0,16.884,7q-1.067,5.378-2.019,10.79a85.452,85.452,0,0,0,10.7,2.118q1.179-5.357,2.246-10.746a77.733,77.733,0,0,0,9.14.555c.117,0,.235-.011.356-.011v-11.1c-.121,0-.237.009-.356.009a63.957,63.957,0,1,1,0-127.913c.119,0,.235.007.356.009v-11.1c-.121,0-.238-.011-.356-.011A77.726,77.726,0,0,0,207.677,139.21Z" transform="translate(-131.567 -128.464)"/><path class="f" d="M203.553,156.535c.119,0,.233.016.356.018l-.037-11.043c-.107,0-.212-.009-.318-.009a54.949,54.949,0,1,0,0,109.9c.107,0,.212-.005.318-.007l.037-11.043c-.123,0-.237.018-.356.018a43.916,43.916,0,1,1,0-87.833Z" transform="translate(-118.303 -115.2)"/><path class="e" d="M165.775,187.083a24.436,24.436,0,0,0,24.41,24.407c.119,0,.235-.016.356-.018v-6.184c-.121,0-.237.018-.356.018a18.224,18.224,0,1,1,0-36.447c.119,0,.235.016.356.018v-6.184c-.121,0-.237-.018-.356-.018A24.438,24.438,0,0,0,165.775,187.083Z" transform="translate(-104.935 -101.831)"/></g><g transform="translate(216.819 128.464)"><path class="f" d="M262.634,191.627q-5.413.95-10.792,2.015a73.652,73.652,0,0,0-2.981-8.656,74.515,74.515,0,0,0-4.019-8.227q4.565-3.055,9.056-6.207a86.256,86.256,0,0,0-6.067-9.058q-4.631,2.956-9.188,6a75.066,75.066,0,0,0-12.925-12.925q3.047-4.557,6-9.186a85.352,85.352,0,0,0-9.058-6.067q-3.151,4.49-6.207,9.054a74.792,74.792,0,0,0-16.885-7q1.067-5.378,2.019-10.789a85.018,85.018,0,0,0-10.7-2.12q-1.182,5.357-2.246,10.746a77.7,77.7,0,0,0-9.138-.555v11.1a63.957,63.957,0,1,1,0,127.913v11.1a77.756,77.756,0,0,0,9.14-.555q1.064,5.389,2.244,10.746a85.271,85.271,0,0,0,10.7-2.118q-.947-5.413-2.015-10.79a74.791,74.791,0,0,0,16.885-7q3.052,4.562,6.207,9.054a85.046,85.046,0,0,0,9.056-6.067q-2.953-4.629-6-9.186a78.433,78.433,0,0,0,6.858-6.068,77.342,77.342,0,0,0,6.067-6.856q4.557,3.047,9.186,6a85.53,85.53,0,0,0,6.067-9.058q-4.487-3.151-9.054-6.207a74.61,74.61,0,0,0,7-16.884q5.378,1.064,10.79,2.017a85.441,85.441,0,0,0,2.118-10.7Q259.4,223.92,254,222.854a75.313,75.313,0,0,0,0-18.28q5.392-1.064,10.746-2.243A85.649,85.649,0,0,0,262.634,191.627Z" transform="translate(-179.5 -128.464)"/><path class="e" d="M179.5,145.5v11.034a43.916,43.916,0,1,1,0,87.833V255.4a54.949,54.949,0,0,0,0-109.9Z" transform="translate(-179.5 -115.2)"/><path class="f" d="M179.5,162.674v6.184a18.224,18.224,0,1,1,0,36.447v6.184a24.408,24.408,0,1,0,0-48.815Z" transform="translate(-179.5 -101.831)"/></g></g><g transform="matrix(0.921, 0.391, -0.391, 0.921, 4078.252, 1197.139)"><path class="g" d="M395.706,147.067A158.263,158.263,0,1,0,553.967,305.332,158.271,158.271,0,0,0,395.706,147.067Zm0,200.63a42.365,42.365,0,1,1,42.365-42.366A42.415,42.415,0,0,1,395.706,347.7Z" transform="translate(22.04 22.282)"/><g transform="translate(228.965 138.498)"><path class="h" d="M606.523,316.424l-.22-3.388a1.986,1.986,0,0,0-2.056-1.912l-16.684.346c-.22-2.362-.479-4.727-.81-7.082-.31-2.362-.709-4.706-1.1-7.042l16.155-4.14a1.972,1.972,0,0,0,1.462-2.387l-.691-3.327a1.962,1.962,0,0,0-2.283-1.62l-16.483,2.617c-.544-2.319-1.13-4.616-1.775-6.909s-1.314-4.562-2.067-6.816l15.449-6.322a1.962,1.962,0,0,0,1.116-2.571l-1.127-3.2a1.982,1.982,0,0,0-2.5-1.285l-15.971,4.846c-.853-2.211-1.739-4.421-2.7-6.592-.94-2.182-1.951-4.339-2.981-6.484l14.434-8.367a1.98,1.98,0,0,0,.763-2.7l-1.573-3.006a1.952,1.952,0,0,0-2.628-.943l-15.161,6.992c-1.145-2.081-2.355-4.13-3.572-6.167-1.253-2.016-2.52-4.029-3.849-6l13.17-10.268a1.958,1.958,0,0,0,.367-2.769l-1.955-2.772a1.97,1.97,0,0,0-2.744-.562l-14.052,8.983c-1.437-1.894-2.884-3.777-4.392-5.613s-3.028-3.669-4.616-5.433L557.1,202.58a1.957,1.957,0,0,0,0-2.8L554.79,197.3a1.985,1.985,0,0,0-2.8-.191l-12.716,10.812c-1.663-1.685-3.356-3.359-5.105-4.972-1.724-1.627-3.507-3.2-5.3-4.76l9.923-13.411a1.981,1.981,0,0,0-.375-2.779l-2.635-2.139a1.96,1.96,0,0,0-2.79.184l-11.14,12.439c-1.872-1.458-3.795-2.862-5.721-4.245q-2.922-2.052-5.912-3.993l8.014-14.643a1.969,1.969,0,0,0-.76-2.689l-2.895-1.764a1.974,1.974,0,0,0-2.743.562l-9.336,13.825c-2.07-1.17-4.148-2.319-6.261-3.406s-4.238-2.164-6.394-3.15l5.937-15.6a1.958,1.958,0,0,0-1.113-2.571l-3.111-1.361a1.98,1.98,0,0,0-2.643.943l-7.363,14.978c-2.2-.889-4.421-1.739-6.668-2.527-2.232-.806-4.5-1.53-6.761-2.254l3.737-16.256a1.978,1.978,0,0,0-1.458-2.4l-3.269-.9a1.957,1.957,0,0,0-2.484,1.275l-5.239,15.856c-2.3-.59-4.623-1.105-6.949-1.595-2.329-.461-4.662-.922-7.013-1.293l1.487-16.626a1.954,1.954,0,0,0-1.775-2.164l-3.359-.472a1.994,1.994,0,0,0-2.29,1.631l-3.024,16.418q-3.537-.4-7.1-.637c-2.373-.169-4.745-.252-7.121-.342l-.785-16.659a1.973,1.973,0,0,0-2.045-1.912q-1.69-.027-3.381,0A1.974,1.974,0,0,0,414,140.424l-.781,16.659c-2.38.09-4.749.173-7.122.342s-4.738.371-7.1.626l-3.024-16.407a1.987,1.987,0,0,0-2.283-1.631l-3.363.472a1.943,1.943,0,0,0-1.768,2.164l1.48,16.626c-2.347.371-4.684.832-7.013,1.293-2.326.49-4.644,1-6.949,1.595l-5.239-15.856a1.956,1.956,0,0,0-2.484-1.275l-3.269.9a1.98,1.98,0,0,0-1.458,2.4l3.737,16.256c-2.261.724-4.526,1.447-6.762,2.254-2.247.789-4.464,1.638-6.668,2.527l-7.363-14.978a1.983,1.983,0,0,0-2.643-.943l-3.111,1.361a1.961,1.961,0,0,0-1.112,2.571l5.941,15.6c-2.164.987-4.284,2.063-6.4,3.143s-4.191,2.243-6.265,3.413l-9.332-13.825a1.974,1.974,0,0,0-2.744-.562l-2.895,1.764a1.966,1.966,0,0,0-.76,2.689l8.014,14.643q-3,1.939-5.9,3.993c-1.933,1.383-3.856,2.776-5.732,4.245L302.5,180.046a1.961,1.961,0,0,0-2.79-.184L297.079,182a1.982,1.982,0,0,0-.378,2.779l9.923,13.411c-1.8,1.555-3.579,3.132-5.307,4.76-1.746,1.613-3.438,3.287-5.1,4.972L283.5,197.111a1.986,1.986,0,0,0-2.8.191l-2.311,2.481a1.967,1.967,0,0,0,0,2.8l11.658,11.953c-1.591,1.764-3.118,3.593-4.623,5.433s-2.952,3.719-4.392,5.613L266.973,216.6a1.972,1.972,0,0,0-2.74.572l-1.955,2.769a1.957,1.957,0,0,0,.367,2.761l13.167,10.268c-1.321,1.973-2.589,3.986-3.838,6-1.224,2.038-2.434,4.086-3.575,6.178l-15.158-7a1.96,1.96,0,0,0-2.635.943l-1.566,3.006a1.987,1.987,0,0,0,.756,2.707l14.434,8.367c-1.023,2.135-2.041,4.292-2.974,6.473-.965,2.171-1.851,4.382-2.707,6.6l-15.964-4.853a1.988,1.988,0,0,0-2.5,1.285l-1.134,3.2a1.962,1.962,0,0,0,1.116,2.571l15.456,6.322c-.753,2.254-1.419,4.533-2.07,6.816s-1.231,4.59-1.775,6.909l-16.49-2.617a1.976,1.976,0,0,0-2.279,1.62l-.684,3.327a1.964,1.964,0,0,0,1.455,2.387l16.162,4.14c-.4,2.344-.8,4.68-1.1,7.042-.331,2.355-.594,4.72-.817,7.082l-16.68-.346a1.993,1.993,0,0,0-2.056,1.912l-.216,3.388a1.948,1.948,0,0,0,1.761,2.164l16.587,1.9c-.115,2.38-.133,4.752-.158,7.125.025,2.38.043,4.753.158,7.136l-16.587,1.89a1.96,1.96,0,0,0-1.761,2.175l.216,3.384a1.986,1.986,0,0,0,2.056,1.912l16.68-.346c.223,2.365.486,4.727.817,7.082.306,2.355.706,4.7,1.1,7.046l-16.162,4.137a1.968,1.968,0,0,0-1.455,2.391l.684,3.323a1.969,1.969,0,0,0,2.283,1.62l16.486-2.617c.544,2.311,1.13,4.619,1.775,6.9s1.318,4.576,2.07,6.83l-15.453,6.308a1.968,1.968,0,0,0-1.12,2.574l1.134,3.2a1.988,1.988,0,0,0,2.5,1.285l15.964-4.853c.857,2.221,1.743,4.428,2.707,6.6.932,2.182,1.951,4.328,2.974,6.474L249.8,410.433a1.988,1.988,0,0,0-.756,2.708l1.566,3.006a1.966,1.966,0,0,0,2.635.943l15.161-7c1.138,2.081,2.347,4.13,3.572,6.164,1.249,2.031,2.517,4.04,3.842,6.013l-13.17,10.261a1.967,1.967,0,0,0-.367,2.769l1.955,2.772a1.975,1.975,0,0,0,2.74.569l14.056-8.979c1.44,1.89,2.888,3.773,4.392,5.609s3.032,3.662,4.623,5.437l-11.658,11.95a1.971,1.971,0,0,0,0,2.8l2.311,2.477a1.981,1.981,0,0,0,2.8.184L296.215,447.3c1.667,1.7,3.356,3.37,5.1,4.979,1.732,1.631,3.514,3.208,5.307,4.763L296.7,470.454a1.982,1.982,0,0,0,.378,2.779l2.628,2.139a1.963,1.963,0,0,0,2.79-.176l11.136-12.446c1.876,1.462,3.8,2.855,5.732,4.238,1.941,1.365,3.91,2.708,5.9,4l-8.011,14.639a1.982,1.982,0,0,0,.756,2.7l2.9,1.764a1.972,1.972,0,0,0,2.74-.569L333,475.686c2.07,1.181,4.148,2.329,6.258,3.42s4.234,2.164,6.4,3.15l-5.941,15.6a1.97,1.97,0,0,0,1.116,2.571l3.111,1.357a1.984,1.984,0,0,0,2.646-.947l7.359-14.977c2.2.9,4.421,1.75,6.664,2.531,2.236.814,4.5,1.537,6.762,2.25L363.632,506.9a1.976,1.976,0,0,0,1.458,2.391l3.269.915a1.966,1.966,0,0,0,2.484-1.278l5.239-15.852c2.3.58,4.626,1.091,6.949,1.591,2.329.464,4.666.929,7.013,1.285l-1.48,16.63a1.956,1.956,0,0,0,1.775,2.167l3.359.472a1.988,1.988,0,0,0,2.283-1.631L399,497.176c2.365.259,4.734.479,7.1.626,2.373.169,4.749.259,7.122.346l.785,16.659a1.978,1.978,0,0,0,2.045,1.912c1.131.022,2.261.014,3.384,0a1.973,1.973,0,0,0,2.045-1.912l.785-16.659c2.373-.086,4.753-.176,7.118-.346,2.373-.148,4.738-.367,7.1-.626l3.021,16.407a2,2,0,0,0,2.293,1.638l3.359-.472a1.962,1.962,0,0,0,1.771-2.167l-1.48-16.63c2.348-.371,4.681-.821,7.01-1.285,2.322-.5,4.645-1.012,6.952-1.591l5.235,15.852a1.972,1.972,0,0,0,2.484,1.278l3.269-.915a1.979,1.979,0,0,0,1.462-2.391l-3.741-16.263c2.261-.713,4.526-1.436,6.762-2.25,2.243-.781,4.461-1.638,6.664-2.531l7.363,14.977a1.984,1.984,0,0,0,2.643.947l3.111-1.361a1.962,1.962,0,0,0,1.116-2.567l-5.937-15.6c2.157-1,4.281-2.07,6.391-3.15,2.113-1.1,4.191-2.25,6.261-3.42l9.339,13.833a1.969,1.969,0,0,0,2.74.554l2.9-1.764a1.959,1.959,0,0,0,.756-2.686l-8.014-14.639c2-1.289,3.968-2.632,5.912-4,1.93-1.383,3.856-2.776,5.728-4.238l11.136,12.432a1.964,1.964,0,0,0,2.79.191l2.632-2.139a1.982,1.982,0,0,0,.375-2.779l-9.919-13.415c1.793-1.563,3.575-3.125,5.3-4.763,1.75-1.6,3.438-3.276,5.109-4.972l12.709,10.812a1.985,1.985,0,0,0,2.8-.184l2.308-2.477a1.978,1.978,0,0,0,0-2.812l-11.651-11.95c1.588-1.764,3.114-3.586,4.616-5.426s2.959-3.726,4.4-5.62l14.052,8.99a1.978,1.978,0,0,0,2.743-.569l1.959-2.772a1.962,1.962,0,0,0-.375-2.769l-13.17-10.261c1.328-1.973,2.6-3.982,3.849-6.013,1.217-2.034,2.427-4.083,3.572-6.164l15.161,7a1.968,1.968,0,0,0,2.632-.943l1.57-3.013a1.985,1.985,0,0,0-.756-2.7l-14.434-8.364c1.023-2.146,2.034-4.292,2.974-6.484.965-2.175,1.847-4.371,2.708-6.592l15.964,4.853a1.989,1.989,0,0,0,2.5-1.285l1.13-3.2a1.971,1.971,0,0,0-1.12-2.574l-15.449-6.308c.752-2.254,1.419-4.536,2.067-6.83s1.231-4.587,1.775-6.9l16.483,2.617a1.973,1.973,0,0,0,2.283-1.62l.691-3.323a1.978,1.978,0,0,0-1.462-2.4l-16.155-4.13c.392-2.347.792-4.691,1.1-7.046.331-2.355.59-4.716.81-7.082l16.684.338a1.981,1.981,0,0,0,2.056-1.912l.22-3.377a1.958,1.958,0,0,0-1.761-2.175l-16.59-1.9c.115-2.373.13-4.745.158-7.125-.029-2.373-.043-4.752-.158-7.125l16.59-1.9A1.95,1.95,0,0,0,606.523,316.424ZM574.541,349.18a157.013,157.013,0,0,1-11.6,41.5,157.765,157.765,0,0,1-22.427,36.807,158.272,158.272,0,0,1-175.777,49.293,154.2,154.2,0,0,1-19.8-8.612,159.2,159.2,0,0,1-49.959-40.68A159.927,159.927,0,0,1,282.5,409.846a156.661,156.661,0,0,1-21.545-60.666,158.466,158.466,0,0,1,0-43.132A157.228,157.228,0,0,1,282.5,245.392a158.909,158.909,0,0,1,62.434-58.329,155.134,155.134,0,0,1,19.8-8.6,157.062,157.062,0,0,1,20.789-5.833,159.87,159.87,0,0,1,64.436.007,156.623,156.623,0,0,1,20.792,5.825,154.385,154.385,0,0,1,19.8,8.608,158.4,158.4,0,0,1,72.378,77.487,156.525,156.525,0,0,1,11.6,41.491,159.237,159.237,0,0,1,0,43.132Z" transform="translate(-228.965 -138.498)"/><path class="i" d="M518.062,254.54a140.633,140.633,0,0,0-39.41-64.713,140.205,140.205,0,0,0-31.23-22.085,137.04,137.04,0,0,0-17.57-7.64,140.45,140.45,0,0,0-94.074,0,136.466,136.466,0,0,0-17.559,7.64,139.267,139.267,0,0,0-16.378,9.969A140.587,140.587,0,0,0,254,236.491,138.781,138.781,0,0,0,243.7,273.309a140.752,140.752,0,0,0,0,38.272A138.833,138.833,0,0,0,254,348.391a139.13,139.13,0,0,0,19.892,32.655,139.356,139.356,0,0,0,13.091,14.016,140.9,140.9,0,0,0,124.425,34.891,142.485,142.485,0,0,0,18.448-5.163,140.433,140.433,0,0,0,17.57-7.64,140.373,140.373,0,0,0,31.23-22.088,138.558,138.558,0,0,0,13.094-14.016,139.308,139.308,0,0,0,19.9-32.655,138.833,138.833,0,0,0,10.293-36.81,141.131,141.131,0,0,0,0-38.272A138.88,138.88,0,0,0,518.062,254.54Zm-31.4,52.2a103.63,103.63,0,0,1-7.683,27.471,104.582,104.582,0,0,1-89,62.812,105.841,105.841,0,0,1-14.337,0,103.893,103.893,0,0,1-27.942-5.786,102.4,102.4,0,0,1-13.113-5.7A105.681,105.681,0,0,1,293.234,346.9a105.7,105.7,0,0,1-6.585-12.695,102.924,102.924,0,0,1-4.789-13.473,104.051,104.051,0,0,1-2.891-14,105.156,105.156,0,0,1,0-28.583,103.575,103.575,0,0,1,7.68-27.474,106.071,106.071,0,0,1,6.585-12.7,107.275,107.275,0,0,1,8.27-11.68A104.715,104.715,0,0,1,334.6,199.35a102.444,102.444,0,0,1,13.113-5.7,103.333,103.333,0,0,1,27.942-5.775,102.434,102.434,0,0,1,14.337,0,103.27,103.27,0,0,1,27.939,5.775,102.444,102.444,0,0,1,13.113,5.7A105.483,105.483,0,0,1,464.133,226.3a107.284,107.284,0,0,1,8.27,11.68,105.015,105.015,0,0,1,6.581,12.7,103.4,103.4,0,0,1,7.683,27.474,105.156,105.156,0,0,1,0,28.583Z" transform="translate(-194.038 -103.326)"/><path class="h" d="M413.371,213.176c-7.582-1.771-15.4.49-21.692,4.918a65.324,65.324,0,0,0-5.642-6.517,60.5,60.5,0,0,0-13.89-10.34,63.717,63.717,0,0,1,3.161-7.165c2.254-4.328,9.123-15.762,12.871-18.823a23.879,23.879,0,0,0-23.716.706c-6.635,4.13-10.553,11.219-11.878,18.823a67.3,67.3,0,0,0-8.594-.623,60.259,60.259,0,0,0-17.13,2.517,64.2,64.2,0,0,1-2.841-7.316c-1.469-4.662-4.684-17.555-4.205-22.4a23.811,23.811,0,0,0-16.259,17.285c-1.779,7.579.49,15.4,4.907,21.7a67.01,67.01,0,0,0-6.52,5.642,60.4,60.4,0,0,0-10.333,13.887,64.089,64.089,0,0,1-7.168-3.168c-4.328-2.247-15.755-9.12-18.819-12.868a23.9,23.9,0,0,0,.7,23.716c4.133,6.635,11.222,10.549,18.834,11.878a64.138,64.138,0,0,0-.627,8.594,60.258,60.258,0,0,0,2.517,17.131,63.173,63.173,0,0,1-7.319,2.844c-4.659,1.465-17.552,4.68-22.4,4.209a23.8,23.8,0,0,0,17.282,16.252c7.582,1.786,15.4-.486,21.692-4.907a66.153,66.153,0,0,0,5.642,6.52,60.564,60.564,0,0,0,13.89,10.329,63.722,63.722,0,0,1-3.161,7.172c-2.254,4.328-9.127,15.755-12.871,18.823a23.905,23.905,0,0,0,23.716-.7c6.635-4.13,10.553-11.229,11.881-18.833a63.5,63.5,0,0,0,8.594.623,60.232,60.232,0,0,0,17.127-2.517,64.178,64.178,0,0,1,2.837,7.327c1.473,4.652,4.688,17.544,4.213,22.391A23.792,23.792,0,0,0,384.424,323c1.779-7.586-.49-15.4-4.9-21.692a67.39,67.39,0,0,0,6.517-5.642,60.474,60.474,0,0,0,10.333-13.89,64.056,64.056,0,0,1,7.168,3.161c4.331,2.254,15.755,9.127,18.819,12.875a23.9,23.9,0,0,0-.7-23.723c-4.133-6.628-11.226-10.549-18.83-11.87a65.456,65.456,0,0,0,.623-8.6,60.055,60.055,0,0,0-2.517-17.12,62.547,62.547,0,0,1,7.319-2.844c4.659-1.476,17.552-4.691,22.4-4.212A23.844,23.844,0,0,0,413.371,213.176Zm-48.947,60.875a28.879,28.879,0,1,1,8.468-20.436A28.881,28.881,0,0,1,364.424,274.051Z" transform="translate(-155.212 -64.5)"/></g><g transform="translate(417.745 138.507)"><path class="i" d="M350.778,209.213c-7.582-1.771-15.4.49-21.692,4.918a65.324,65.324,0,0,0-5.642-6.517,60.5,60.5,0,0,0-13.89-10.34,63.717,63.717,0,0,1,3.161-7.165c2.254-4.328,9.123-15.762,12.871-18.823a23.879,23.879,0,0,0-23.716.706c-6.635,4.13-10.553,11.219-11.878,18.823a67.3,67.3,0,0,0-8.594-.623V220.76a28.9,28.9,0,0,1,0,57.793v30.56a60.232,60.232,0,0,0,17.127-2.517,64.178,64.178,0,0,1,2.837,7.327c1.473,4.652,4.688,17.544,4.213,22.391a23.792,23.792,0,0,0,16.255-17.278c1.779-7.586-.49-15.4-4.9-21.692a67.39,67.39,0,0,0,6.517-5.642,60.474,60.474,0,0,0,10.333-13.89,64.056,64.056,0,0,1,7.168,3.161c4.331,2.254,15.755,9.127,18.819,12.875a23.9,23.9,0,0,0-.7-23.723c-4.133-6.628-11.226-10.549-18.83-11.87a65.456,65.456,0,0,0,.623-8.6,60.055,60.055,0,0,0-2.517-17.12,62.547,62.547,0,0,1,7.319-2.844c4.659-1.476,17.552-4.691,22.4-4.212A23.844,23.844,0,0,0,350.778,209.213Z" transform="translate(-281.399 -60.546)"/><path class="h" d="M416.643,254.541a140.633,140.633,0,0,0-39.41-64.713A140.205,140.205,0,0,0,346,167.743a137.04,137.04,0,0,0-17.57-7.64,138.824,138.824,0,0,0-37.44-7.752c-3.186-.209-6.394-.328-9.595-.328v35.593q3.586,0,7.168.256a103.27,103.27,0,0,1,27.939,5.775,102.444,102.444,0,0,1,13.113,5.7A105.483,105.483,0,0,1,362.713,226.3a107.284,107.284,0,0,1,8.27,11.68,105.015,105.015,0,0,1,6.581,12.7,103.4,103.4,0,0,1,7.683,27.474,105.156,105.156,0,0,1,0,28.583,103.63,103.63,0,0,1-7.683,27.471,104.582,104.582,0,0,1-89,62.812c-2.383.162-4.778.245-7.168.245v35.59c3.2,0,6.409-.1,9.595-.324a140.372,140.372,0,0,0,18.992-2.578,142.485,142.485,0,0,0,18.448-5.163,140.433,140.433,0,0,0,17.57-7.64,140.373,140.373,0,0,0,31.23-22.088,138.558,138.558,0,0,0,13.094-14.016,139.308,139.308,0,0,0,19.9-32.655,138.833,138.833,0,0,0,10.293-36.81,141.131,141.131,0,0,0,0-38.272A138.88,138.88,0,0,0,416.643,254.541Z" transform="translate(-281.399 -103.335)"/><path class="i" d="M470.177,316.417l-.22-3.388a1.986,1.986,0,0,0-2.056-1.912l-16.684.346c-.22-2.362-.479-4.727-.81-7.082-.31-2.362-.709-4.706-1.1-7.042l16.155-4.14a1.972,1.972,0,0,0,1.462-2.387l-.691-3.327a1.962,1.962,0,0,0-2.283-1.62l-16.483,2.617c-.544-2.319-1.13-4.616-1.775-6.909s-1.314-4.562-2.067-6.816l15.449-6.322a1.962,1.962,0,0,0,1.116-2.571l-1.127-3.2a1.982,1.982,0,0,0-2.5-1.285l-15.971,4.846c-.853-2.211-1.739-4.421-2.7-6.592-.94-2.182-1.951-4.339-2.981-6.484l14.434-8.367a1.98,1.98,0,0,0,.763-2.7l-1.573-3.006a1.952,1.952,0,0,0-2.628-.943l-15.161,6.992c-1.145-2.081-2.355-4.13-3.572-6.167-1.253-2.016-2.52-4.029-3.849-6l13.17-10.268a1.958,1.958,0,0,0,.367-2.769l-1.955-2.772a1.97,1.97,0,0,0-2.744-.562l-14.052,8.983c-1.437-1.894-2.884-3.777-4.392-5.613s-3.028-3.669-4.616-5.433l11.647-11.953a1.957,1.957,0,0,0,0-2.8l-2.308-2.481a1.985,1.985,0,0,0-2.8-.191l-12.716,10.812c-1.663-1.685-3.356-3.359-5.105-4.972-1.724-1.627-3.507-3.2-5.3-4.76l9.923-13.411a1.981,1.981,0,0,0-.375-2.779l-2.635-2.139a1.96,1.96,0,0,0-2.79.184L385.5,192.479c-1.872-1.458-3.795-2.862-5.721-4.245q-2.922-2.052-5.912-3.993l8.014-14.643a1.969,1.969,0,0,0-.76-2.689l-2.895-1.764a1.974,1.974,0,0,0-2.743.562l-9.336,13.825c-2.07-1.17-4.148-2.319-6.261-3.406s-4.238-2.164-6.394-3.15l5.937-15.6a1.958,1.958,0,0,0-1.113-2.571l-3.111-1.361a1.98,1.98,0,0,0-2.643.943L345.2,169.364c-2.2-.889-4.421-1.739-6.668-2.527-2.232-.806-4.5-1.53-6.761-2.254l3.737-16.256a1.978,1.978,0,0,0-1.458-2.4l-3.269-.9A1.957,1.957,0,0,0,328.3,146.3l-5.239,15.856c-2.3-.59-4.623-1.105-6.949-1.595-2.329-.461-4.662-.922-7.013-1.293l1.487-16.626a1.954,1.954,0,0,0-1.775-2.164l-3.359-.472a1.994,1.994,0,0,0-2.29,1.631l-3.024,16.418q-3.537-.4-7.1-.637c-2.373-.169-4.745-.252-7.121-.342l-.785-16.659a1.973,1.973,0,0,0-2.045-1.912c-.562-.011-1.127,0-1.689,0v30.837q5.411,0,10.812.371a159.711,159.711,0,0,1,21.4,2.916,156.623,156.623,0,0,1,20.792,5.825,154.385,154.385,0,0,1,19.8,8.608,158.4,158.4,0,0,1,72.378,77.487,156.525,156.525,0,0,1,11.6,41.491,159.237,159.237,0,0,1,0,43.132,157.013,157.013,0,0,1-11.6,41.5,157.765,157.765,0,0,1-22.427,36.807A157.508,157.508,0,0,1,292.211,485.5q-5.4.378-10.812.371v30.844c.569,0,1.134.007,1.692,0a1.973,1.973,0,0,0,2.045-1.912l.785-16.659c2.373-.086,4.753-.176,7.118-.346,2.373-.148,4.738-.367,7.1-.626l3.021,16.407a2,2,0,0,0,2.293,1.638l3.359-.472a1.962,1.962,0,0,0,1.771-2.167l-1.48-16.63c2.348-.371,4.681-.821,7.01-1.285,2.322-.5,4.645-1.012,6.952-1.591l5.235,15.852a1.972,1.972,0,0,0,2.484,1.278l3.269-.915a1.979,1.979,0,0,0,1.462-2.391l-3.741-16.263c2.261-.713,4.526-1.436,6.762-2.25,2.243-.781,4.461-1.638,6.664-2.531l7.363,14.977a1.984,1.984,0,0,0,2.643.947l3.111-1.361a1.962,1.962,0,0,0,1.116-2.567l-5.937-15.6c2.157-1,4.281-2.07,6.391-3.15,2.113-1.1,4.191-2.25,6.261-3.42l9.339,13.833a1.969,1.969,0,0,0,2.74.554l2.9-1.764a1.959,1.959,0,0,0,.756-2.686l-8.014-14.639c2-1.289,3.968-2.632,5.912-4,1.93-1.383,3.856-2.776,5.728-4.238l11.136,12.432a1.964,1.964,0,0,0,2.79.191l2.632-2.139a1.982,1.982,0,0,0,.375-2.779l-9.919-13.415c1.793-1.563,3.575-3.125,5.3-4.763,1.75-1.6,3.438-3.276,5.109-4.972l12.709,10.812a1.985,1.985,0,0,0,2.8-.184l2.308-2.477a1.978,1.978,0,0,0,0-2.812L409.1,440.688c1.588-1.764,3.114-3.586,4.616-5.426s2.959-3.726,4.4-5.62l14.052,8.99a1.978,1.978,0,0,0,2.743-.569l1.959-2.772a1.962,1.962,0,0,0-.375-2.769l-13.17-10.261c1.328-1.973,2.6-3.982,3.849-6.013,1.217-2.034,2.427-4.083,3.572-6.164l15.161,7a1.968,1.968,0,0,0,2.632-.943l1.57-3.013a1.985,1.985,0,0,0-.756-2.7l-14.434-8.364c1.023-2.146,2.034-4.292,2.974-6.484.965-2.175,1.847-4.371,2.708-6.592l15.964,4.853a1.989,1.989,0,0,0,2.5-1.285l1.13-3.2a1.971,1.971,0,0,0-1.12-2.574l-15.449-6.308c.752-2.254,1.419-4.536,2.067-6.83s1.231-4.587,1.775-6.9l16.483,2.617a1.973,1.973,0,0,0,2.283-1.62l.691-3.323a1.978,1.978,0,0,0-1.462-2.4l-16.155-4.13c.392-2.347.792-4.691,1.1-7.046.331-2.355.59-4.716.81-7.082l16.684.338a1.981,1.981,0,0,0,2.056-1.912l.22-3.377a1.958,1.958,0,0,0-1.761-2.175l-16.59-1.9c.115-2.373.13-4.745.158-7.125-.029-2.373-.043-4.752-.158-7.125l16.59-1.9A1.95,1.95,0,0,0,470.177,316.417Z" transform="translate(-281.399 -138.501)"/></g></g><g transform="translate(3444.678 1517.486)"><path class="j" d="M329.731,120.491a61.61,61.61,0,0,0-1.813-7.983,1.834,1.834,0,0,0-2.2-1.425q-3.591.887-7.164,1.849a52.66,52.66,0,0,0-5.4-11.185q2.98-2.2,5.9-4.453a1.834,1.834,0,0,0,.266-2.607,62.575,62.575,0,0,0-5.1-6.388,1.832,1.832,0,0,0-2.6-.319q-2.847,2.362-5.647,4.773a53.681,53.681,0,0,0-4.628-4.153,52.04,52.04,0,0,0-5.075-3.592q1.733-3.267,3.4-6.571a1.831,1.831,0,0,0-.893-2.464,61.6,61.6,0,0,0-7.37-3.555,1.835,1.835,0,0,0-2.488.833q-1.546,3.366-3.021,6.755a52.84,52.84,0,0,0-5.974-1.735,54.5,54.5,0,0,0-6.135-1.021q.138-3.7.2-7.394a1.828,1.828,0,0,0-1.874-1.828,62.044,62.044,0,0,0-8.157,0,1.828,1.828,0,0,0-1.874,1.828q.064,3.694.2,7.4a54.5,54.5,0,0,0-6.135,1.019,52.987,52.987,0,0,0-5.974,1.735q-1.48-3.389-3.021-6.755a1.835,1.835,0,0,0-2.488-.833,61.752,61.752,0,0,0-7.372,3.556,1.833,1.833,0,0,0-.893,2.464q1.672,3.3,3.4,6.569a52.342,52.342,0,0,0-5.075,3.592,52.937,52.937,0,0,0-4.628,4.153q-2.8-2.413-5.649-4.773a1.834,1.834,0,0,0-2.6.319,63.193,63.193,0,0,0-5.1,6.388,1.829,1.829,0,0,0,.261,2.607q2.932,2.254,5.908,4.453a52.884,52.884,0,0,0-5.395,11.185q-3.571-.959-7.164-1.849a1.83,1.83,0,0,0-2.2,1.425,61.981,61.981,0,0,0-1.818,7.983,1.833,1.833,0,0,0,1.372,2.234q3.627.751,7.259,1.435a53.706,53.706,0,0,0,0,12.409q-3.635.68-7.259,1.433a1.834,1.834,0,0,0-1.372,2.234,61.916,61.916,0,0,0,1.818,7.983,1.829,1.829,0,0,0,2.2,1.425q3.589-.89,7.164-1.847a52.767,52.767,0,0,0,5.395,11.185q-2.98,2.2-5.908,4.451a1.829,1.829,0,0,0-.261,2.607,63.236,63.236,0,0,0,5.1,6.388,1.835,1.835,0,0,0,2.6.32q2.85-2.364,5.651-4.775a53.785,53.785,0,0,0,9.7,7.745q-1.736,3.267-3.4,6.571a1.83,1.83,0,0,0,.891,2.462,61.389,61.389,0,0,0,7.373,3.556,1.834,1.834,0,0,0,2.486-.833q1.546-3.366,3.023-6.755a52.149,52.149,0,0,0,5.973,1.733,54.5,54.5,0,0,0,6.135,1.022q-.138,3.7-.2,7.394a1.83,1.83,0,0,0,1.874,1.828,62.055,62.055,0,0,0,8.157,0,1.828,1.828,0,0,0,1.874-1.828q-.061-3.694-.2-7.394a54.5,54.5,0,0,0,6.135-1.021,52.84,52.84,0,0,0,5.974-1.735q1.477,3.389,3.025,6.755a1.83,1.83,0,0,0,2.484.833,61.346,61.346,0,0,0,7.37-3.556,1.829,1.829,0,0,0,.893-2.462q-1.672-3.3-3.4-6.571a52.315,52.315,0,0,0,5.075-3.59,53.991,53.991,0,0,0,4.628-4.154q2.8,2.413,5.647,4.773a1.832,1.832,0,0,0,2.6-.319,62.763,62.763,0,0,0,5.1-6.388,1.836,1.836,0,0,0-.262-2.607q-2.934-2.254-5.9-4.453a55.426,55.426,0,0,0,3.025-5.432,54.686,54.686,0,0,0,2.367-5.753q3.573.959,7.164,1.849a1.833,1.833,0,0,0,2.2-1.425,61.118,61.118,0,0,0,1.813-7.983A1.83,1.83,0,0,0,328.362,138q-3.627-.752-7.259-1.435a53.444,53.444,0,0,0,0-12.407q3.632-.685,7.259-1.435A1.834,1.834,0,0,0,329.731,120.491Zm-24.16,27.94A41.857,41.857,0,0,1,294,162.923a41.441,41.441,0,0,1-16.679,8.045,42.084,42.084,0,0,1-18.554,0,41.657,41.657,0,0,1,0-81.21,42.084,42.084,0,0,1,18.554,0,41.671,41.671,0,0,1,28.251,58.672Z" transform="translate(0 0)"/><g transform="translate(206.322 67.894)"><path class="k" d="M329.731,120.491a61.617,61.617,0,0,0-1.817-7.983,1.833,1.833,0,0,0-2.2-1.425q-3.586.887-7.164,1.849a53.806,53.806,0,0,0-2.367-5.753,55.217,55.217,0,0,0-3.025-5.432q2.975-2.2,5.9-4.453a1.832,1.832,0,0,0,.262-2.607,62.556,62.556,0,0,0-5.1-6.388,1.832,1.832,0,0,0-2.6-.319q-2.847,2.362-5.647,4.773a54.191,54.191,0,0,0-4.628-4.153,52.5,52.5,0,0,0-5.078-3.592q1.733-3.267,3.406-6.571a1.834,1.834,0,0,0-.893-2.464,61.769,61.769,0,0,0-7.373-3.555,1.83,1.83,0,0,0-2.484.833q-1.546,3.366-3.025,6.755a52.682,52.682,0,0,0-5.971-1.735,54.69,54.69,0,0,0-6.138-1.021q.138-3.7.2-7.394a1.83,1.83,0,0,0-1.874-1.828,62.019,62.019,0,0,0-8.156,0,1.829,1.829,0,0,0-1.876,1.828q.061,3.694.2,7.4a54.371,54.371,0,0,0-6.135,1.019,52.987,52.987,0,0,0-5.974,1.735q-1.48-3.389-3.025-6.755a1.832,1.832,0,0,0-2.486-.833,61.88,61.88,0,0,0-7.372,3.556,1.833,1.833,0,0,0-.893,2.464q1.674,3.3,3.4,6.569a52.334,52.334,0,0,0-5.075,3.592,52.933,52.933,0,0,0-4.628,4.153q-2.8-2.413-5.649-4.773a1.834,1.834,0,0,0-2.6.319,63.184,63.184,0,0,0-5.1,6.388,1.829,1.829,0,0,0,.261,2.607q2.932,2.254,5.908,4.453a52.878,52.878,0,0,0-5.4,11.185q-3.571-.959-7.164-1.849a1.83,1.83,0,0,0-2.2,1.425,61.686,61.686,0,0,0-1.817,7.983,1.83,1.83,0,0,0,1.37,2.234q3.627.751,7.259,1.435a53.711,53.711,0,0,0,0,12.409q-3.635.68-7.259,1.433a1.832,1.832,0,0,0-1.37,2.234,61.622,61.622,0,0,0,1.817,7.983,1.829,1.829,0,0,0,2.2,1.425q3.589-.89,7.164-1.847a52.765,52.765,0,0,0,5.4,11.185q-2.98,2.2-5.908,4.451a1.829,1.829,0,0,0-.261,2.607,63.235,63.235,0,0,0,5.1,6.388,1.835,1.835,0,0,0,2.6.32q2.85-2.364,5.651-4.775a53.786,53.786,0,0,0,9.7,7.745q-1.736,3.267-3.4,6.571a1.83,1.83,0,0,0,.891,2.462,61.643,61.643,0,0,0,7.373,3.556,1.83,1.83,0,0,0,2.484-.833q1.546-3.366,3.025-6.755a52.422,52.422,0,0,0,5.971,1.733,54.563,54.563,0,0,0,6.138,1.022q-.138,3.7-.2,7.394a1.828,1.828,0,0,0,1.874,1.828,62.029,62.029,0,0,0,8.156,0,1.826,1.826,0,0,0,1.874-1.828q-.064-3.694-.2-7.394a54.686,54.686,0,0,0,6.138-1.021,52.682,52.682,0,0,0,5.971-1.735q1.48,3.389,3.025,6.755a1.83,1.83,0,0,0,2.484.833,61.519,61.519,0,0,0,7.373-3.556,1.829,1.829,0,0,0,.893-2.462q-1.672-3.3-3.406-6.571a52.784,52.784,0,0,0,5.078-3.59,54.507,54.507,0,0,0,4.628-4.154q2.8,2.413,5.647,4.773a1.832,1.832,0,0,0,2.6-.319,62.743,62.743,0,0,0,5.1-6.388,1.831,1.831,0,0,0-.262-2.607q-2.929-2.254-5.9-4.453a54.713,54.713,0,0,0,3.025-5.432,53.952,53.952,0,0,0,2.367-5.753q3.578.959,7.167,1.849a1.835,1.835,0,0,0,2.2-1.425,62.235,62.235,0,0,0,1.813-7.983A1.832,1.832,0,0,0,328.359,138q-3.627-.752-7.256-1.435a55.508,55.508,0,0,0,.358-6.2,54.745,54.745,0,0,0-.361-6.2q3.637-.685,7.259-1.435A1.833,1.833,0,0,0,329.731,120.491ZM311.322,151.2a48.305,48.305,0,0,1-13.346,16.712,47.785,47.785,0,0,1-19.242,9.279,48.49,48.49,0,0,1-21.386,0,47.8,47.8,0,0,1-19.244-9.279,47.991,47.991,0,0,1,0-75.1,47.763,47.763,0,0,1,19.242-9.279,48.505,48.505,0,0,1,21.389,0,47.771,47.771,0,0,1,19.239,9.279A48.05,48.05,0,0,1,311.322,151.2Z" transform="translate(-206.322 -67.894)"/><path class="l" d="M285.7,89.2a41.484,41.484,0,0,0-16.679-8.045,42.084,42.084,0,0,0-18.554,0A41.459,41.459,0,0,0,233.79,89.2a41.61,41.61,0,0,0,0,65.12,41.459,41.459,0,0,0,16.681,8.045,42.069,42.069,0,0,0,18.55,0A41.634,41.634,0,0,0,285.7,89.2ZM283.06,90.31c.366.271.738.54,1.1.825a39.42,39.42,0,0,1,10.623,13.119c-2.261.872-4.505,1.776-6.734,2.728a31.781,31.781,0,0,0-3.844-5.743,32.118,32.118,0,0,0-4.993-4.785C280.527,94.434,281.808,92.377,283.06,90.31Zm-14.59-6.74a38.51,38.51,0,0,1,6.864,2.265c-1.169,2.12-2.312,4.25-3.406,6.409a31.6,31.6,0,0,0-6.637-1.927,32.383,32.383,0,0,0-6.9-.452c-.286-2.4-.629-4.8-1-7.194A39.464,39.464,0,0,1,268.47,83.571Zm-33.133,7.564A39,39,0,0,1,248.6,84.211c.464,2.379.956,4.746,1.51,7.108a31.833,31.833,0,0,0-6.325,2.79,32.289,32.289,0,0,0-5.576,4.088c-1.762-1.65-3.565-3.262-5.388-4.855C233.631,92.573,234.463,91.83,235.337,91.135Zm-8.251,52.21a38.322,38.322,0,0,1-6.249-17.134c2.423-.044,4.841-.119,7.263-.249a31.788,31.788,0,0,0,4.7,12.917C230.866,140.329,228.967,141.824,227.086,143.345Zm2.657-32.508a31.85,31.85,0,0,0-1.643,6.716c-2.421-.131-4.839-.2-7.263-.25a38.342,38.342,0,0,1,6.25-17.134c1.881,1.522,3.778,3.018,5.71,4.47A31.944,31.944,0,0,0,229.743,110.837ZM248.6,159.3a39.009,39.009,0,0,1-13.261-6.925c-.874-.694-1.706-1.438-2.517-2.205,1.825-1.593,3.626-3.205,5.39-4.855a32.225,32.225,0,0,0,5.576,4.088,31.833,31.833,0,0,0,6.325,2.79C249.556,154.558,249.06,156.923,248.6,159.3Zm19.874.641a39.487,39.487,0,0,1-11.083.9c.375-2.392.717-4.79,1-7.194a32.337,32.337,0,0,0,6.9-.452,31.571,31.571,0,0,0,6.641-1.927c1.094,2.159,2.237,4.291,3.406,6.411A38.505,38.505,0,0,1,268.47,159.944Zm-4.574-14.7a23.861,23.861,0,1,1,14.115-8.162A23.891,23.891,0,0,1,263.9,145.242Zm20.259,7.138c-.358.286-.729.554-1.1.826-1.252-2.069-2.534-4.126-3.853-6.147a32.091,32.091,0,0,0,4.989-4.783,31.694,31.694,0,0,0,3.848-5.744c2.229.953,4.473,1.856,6.731,2.73A39.362,39.362,0,0,1,284.156,152.38Zm14.75-30.622a39.327,39.327,0,0,1-1.074,9.106c-2.292-.78-4.6-1.535-6.91-2.234a32.094,32.094,0,0,0,0-13.747c2.314-.7,4.618-1.454,6.91-2.234A39.352,39.352,0,0,1,298.906,121.758Z" transform="translate(-198.026 -59.289)"/></g><g transform="translate(268.041 67.894)"><path class="k" d="M268.5,89.2a41.42,41.42,0,0,0-25.958-9.079v2.5a39.157,39.157,0,0,1,8.725.956,38.509,38.509,0,0,1,6.864,2.265c-1.169,2.12-2.312,4.25-3.406,6.409a31.6,31.6,0,0,0-6.637-1.927,32.168,32.168,0,0,0-5.545-.47v8.065a23.845,23.845,0,1,1,0,47.689v8.067a32.1,32.1,0,0,0,5.542-.47,31.573,31.573,0,0,0,6.641-1.927c1.094,2.159,2.237,4.291,3.406,6.411a38.5,38.5,0,0,1-6.864,2.263,39.156,39.156,0,0,1-8.725.956v2.5A41.63,41.63,0,0,0,268.5,89.2ZM262,96.455c1.319-2.021,2.6-4.078,3.853-6.145.366.271.738.54,1.1.825a39.42,39.42,0,0,1,10.623,13.119c-2.261.872-4.505,1.776-6.734,2.728A31.781,31.781,0,0,0,267,101.24,32.118,32.118,0,0,0,262,96.455Zm4.949,55.925c-.358.286-.729.554-1.1.826-1.252-2.069-2.534-4.126-3.853-6.146a32.092,32.092,0,0,0,4.989-4.783,31.692,31.692,0,0,0,3.848-5.744c2.229.953,4.473,1.856,6.731,2.73A39.362,39.362,0,0,1,266.951,152.38Zm14.75-30.622a39.325,39.325,0,0,1-1.074,9.106c-2.292-.78-4.6-1.535-6.91-2.234a32.094,32.094,0,0,0,0-13.747c2.314-.7,4.618-1.454,6.91-2.234A39.351,39.351,0,0,1,281.7,121.758Z" transform="translate(-242.541 -59.288)"/><path class="l" d="M304.231,120.491a61.617,61.617,0,0,0-1.817-7.983,1.833,1.833,0,0,0-2.2-1.425q-3.586.887-7.164,1.849a53.812,53.812,0,0,0-2.367-5.753,55.217,55.217,0,0,0-3.025-5.432q2.975-2.2,5.9-4.453a1.832,1.832,0,0,0,.262-2.607,62.552,62.552,0,0,0-5.1-6.388,1.832,1.832,0,0,0-2.6-.319q-2.847,2.362-5.647,4.773a54.191,54.191,0,0,0-4.628-4.153,52.5,52.5,0,0,0-5.078-3.592q1.733-3.267,3.406-6.571a1.834,1.834,0,0,0-.893-2.464,61.766,61.766,0,0,0-7.373-3.555,1.83,1.83,0,0,0-2.484.833q-1.546,3.366-3.025,6.755a52.683,52.683,0,0,0-5.971-1.735,54.69,54.69,0,0,0-6.138-1.021q.138-3.7.2-7.394a1.83,1.83,0,0,0-1.874-1.828q-2.037-.135-4.078-.135V82.343a48.02,48.02,0,1,1,0,96.04v14.45q2.042,0,4.078-.135a1.826,1.826,0,0,0,1.874-1.828q-.064-3.694-.2-7.394a54.69,54.69,0,0,0,6.138-1.021,52.68,52.68,0,0,0,5.971-1.735q1.48,3.389,3.025,6.755a1.83,1.83,0,0,0,2.484.833,61.517,61.517,0,0,0,7.373-3.556,1.829,1.829,0,0,0,.893-2.462q-1.672-3.3-3.406-6.571a52.778,52.778,0,0,0,5.078-3.59,54.51,54.51,0,0,0,4.628-4.154q2.8,2.413,5.647,4.773a1.832,1.832,0,0,0,2.6-.319,62.741,62.741,0,0,0,5.1-6.388,1.831,1.831,0,0,0-.262-2.607q-2.929-2.254-5.9-4.453a54.717,54.717,0,0,0,3.025-5.432,53.96,53.96,0,0,0,2.367-5.753q3.579.959,7.167,1.849a1.835,1.835,0,0,0,2.2-1.425,62.231,62.231,0,0,0,1.813-7.983A1.832,1.832,0,0,0,302.859,138q-3.627-.752-7.256-1.435a55.508,55.508,0,0,0,.358-6.2,54.752,54.752,0,0,0-.361-6.2q3.637-.685,7.259-1.435A1.833,1.833,0,0,0,304.231,120.491Z" transform="translate(-242.541 -67.894)"/></g></g><path class="c" d="M174.384,316.166a15.032,15.032,0,0,0-11.984,2.715,35.8,35.8,0,0,0-3.117-3.6,33.575,33.575,0,0,0-7.671-5.709,36.022,36.022,0,0,1,1.744-3.956c1.247-2.393,5.042-8.712,7.117-10.4a13.18,13.18,0,0,0-13.1.388,15.01,15.01,0,0,0-6.562,10.4,37,37,0,0,0-4.744-.348,33.383,33.383,0,0,0-9.467,1.394,34.256,34.256,0,0,1-1.569-4.037c-.81-2.58-2.589-9.7-2.327-12.378a13.163,13.163,0,0,0-8.979,9.548,15.038,15.038,0,0,0,2.712,11.984,36.8,36.8,0,0,0-3.6,3.115,33.351,33.351,0,0,0-5.712,7.674,34.565,34.565,0,0,1-3.956-1.75c-2.39-1.238-8.7-5.037-10.4-7.105a13.192,13.192,0,0,0,.391,13.1,15.052,15.052,0,0,0,10.4,6.565,37.973,37.973,0,0,0-.342,4.746,33.309,33.309,0,0,0,1.391,9.461,34.121,34.121,0,0,1-4.04,1.569c-2.577.813-9.7,2.586-12.375,2.327a13.144,13.144,0,0,0,9.548,8.976,15.033,15.033,0,0,0,11.984-2.709,37.166,37.166,0,0,0,3.115,3.6,33.446,33.446,0,0,0,7.674,5.709,36.358,36.358,0,0,1-1.744,3.962c-1.247,2.391-5.045,8.7-7.117,10.4a13.209,13.209,0,0,0,13.1-.388A15.035,15.035,0,0,0,131.306,371a35.032,35.032,0,0,0,4.758.345,33.271,33.271,0,0,0,9.456-1.391,35.894,35.894,0,0,1,1.569,4.048c.81,2.569,2.586,9.691,2.324,12.369a13.157,13.157,0,0,0,8.984-9.545,15.07,15.07,0,0,0-2.715-11.984,36.44,36.44,0,0,0,3.6-3.117,33.378,33.378,0,0,0,5.712-7.672,34.574,34.574,0,0,1,3.954,1.747c2.393,1.244,8.709,5.037,10.4,7.111a13.215,13.215,0,0,0-.391-13.1,15.043,15.043,0,0,0-10.4-6.557,37.034,37.034,0,0,0,.342-4.749,33.13,33.13,0,0,0-1.391-9.459,34.568,34.568,0,0,1,4.043-1.575c2.577-.81,9.7-2.589,12.378-2.327A13.192,13.192,0,0,0,174.384,316.166Zm-27.04,33.625a15.954,15.954,0,1,1,4.678-11.286A15.948,15.948,0,0,1,147.344,349.791Z" transform="translate(4388.815 1463.368)"/></g></svg>