<svg id="fg" xmlns="http://www.w3.org/2000/svg" xmlns:xlink="http://www.w3.org/1999/xlink" viewBox="0 0 1024 1024"><defs><style>.cls-1{fill:none;}.cls-2{clip-path:url(#clip-path);}.cls-3{fill:url(#linear-gradient);}.cls-4{fill:#7dbf00;}.cls-5{fill:#689e00;}.cls-6{fill:#74a520;}.cls-7{fill:#5f9904;}.cls-8{fill:#4c870e;}.cls-9{fill:#3288ad;}.cls-10{opacity:0.1;}.cls-11{fill:#57adc1;}</style><clipPath id="clip-path"><path class="cls-1" d="M230,0C103,0,0,103.1,0,230.28V794.93C0,914.11,90.42,1012.14,206.33,1024H817.67C933.57,1012.14,1024,914.11,1024,794.93V230.28C1024,103.1,921,0,794,0Z"/></clipPath><linearGradient id="linear-gradient" y1="1024" x2="1" y2="1024" gradientTransform="matrix(0, -1022.75, -1022.75, 0, 1047808.04, 1025.51)" gradientUnits="userSpaceOnUse"><stop offset="0" stop-color="#cbffb0"/><stop offset="0.01" stop-color="#ccffb1"/><stop offset="0.21" stop-color="#e3ffbd"/><stop offset="0.43" stop-color="#f3ffc5"/><stop offset="0.67" stop-color="#fcffca"/><stop offset="1" stop-color="#ffc"/></linearGradient></defs><title>flora_icon</title><g class="cls-2"><rect class="cls-3" width="1024" height="1024"/><path class="cls-4" d="M519.86,515.29c-10.17-31.39-2.09-121,87.67-135.58,41.73-6.75,67.54,16.09,71.76,37,4.72,23.47-7.35,46.23-26.88,53.93-48.62,19.16-83.07-19.43-132.55,44.63"/><path class="cls-4" d="M521.77,514.21c14.4-29.69,18.76-119.6-68.13-146.37-40.41-12.45-69.12,6.62-76.18,26.76-7.92,22.6.9,46.8,19.18,57.12,45.51,25.69,84.95-7.78,125.13,62.49"/><polygon class="cls-4" points="499.1 643.39 519.59 644.52 526.37 504.62 517.46 504.29 499.1 643.39"/><path class="cls-5" d="M521.39,504.47s-.69-1.74-1.91-4.63c-.6-1.45-1.35-3.18-2.21-5.13s-1.84-4.11-3-6.41-2.32-4.77-3.7-7.29-2.84-5.12-4.42-7.75c-.83-1.29-1.61-2.63-2.51-3.91s-1.75-2.61-2.66-3.9-1.91-2.54-2.83-3.84l-1.5-1.87c-.5-.62-1-1.26-1.53-1.84-1-1.21-2.06-2.44-3.17-3.59l-1.61-1.75-1.68-1.67c-1.08-1.15-2.25-2.19-3.39-3.26s-2.31-2.05-3.45-3.07-2.34-1.91-3.47-2.87c-.59-.45-1.13-1-1.72-1.38s-1.17-.85-1.74-1.29l-1.68-1.29c-.56-.42-1.15-.77-1.69-1.18-1.12-.78-2.19-1.57-3.25-2.29s-2.1-1.36-3.08-2c-.49-.33-1-.69-1.44-1s-.95-.57-1.4-.86c-1.81-1.12-3.38-2.23-4.73-3-2.68-1.63-4.23-2.75-4.23-2.75s1.84-.17,5.08-.14a48.42,48.42,0,0,1,5.82.44,64.74,64.74,0,0,1,7.48,1.37c1.36.33,2.73.81,4.19,1.23.73.22,1.46.46,2.2.73l2.22.88a43.39,43.39,0,0,1,4.55,2.05,52.08,52.08,0,0,1,4.61,2.51c1.51.94,3.09,1.87,4.55,3l2.24,1.66c.76.55,1.44,1.19,2.17,1.79l2.15,1.86c.69.66,1.36,1.33,2,2,1.39,1.32,2.63,2.78,3.89,4.23s2.38,3,3.53,4.53c.55.79,1.07,1.58,1.59,2.38s1,1.57,1.5,2.4l1.4,2.43c.45.81.84,1.65,1.26,2.47.83,1.64,1.52,3.31,2.21,4.95a68.09,68.09,0,0,1,3,9.72,65.76,65.76,0,0,1,1.51,8.92,57.41,57.41,0,0,1-.2,13.44,28.06,28.06,0,0,1-1.07,5"/><path class="cls-5" d="M521.06,505.61a28.35,28.35,0,0,1-.14-5.11,56.78,56.78,0,0,1,2.23-13.26,68.18,68.18,0,0,1,3.09-8.5,69,69,0,0,1,4.77-9c1-1.48,2-3,3.06-4.46.56-.73,1.1-1.49,1.69-2.2l1.81-2.15c.6-.73,1.26-1.4,1.92-2.08s1.31-1.38,2-2c1.42-1.29,2.79-2.63,4.3-3.82s3-2.42,4.59-3.46c.79-.54,1.57-1.09,2.37-1.6l2.45-1.45c.82-.46,1.61-1,2.46-1.37l2.5-1.22c1.65-.83,3.36-1.46,5-2.11s3.35-1.15,5-1.64a42.71,42.71,0,0,1,4.85-1.18l2.35-.47c.77-.14,1.53-.23,2.29-.32,1.51-.16,3-.38,4.35-.45a64.05,64.05,0,0,1,7.6,0,49.42,49.42,0,0,1,5.8.62c3.19.56,5,1.06,5,1.06s-1.72.82-4.65,1.94c-1.47.52-3.22,1.33-5.2,2.1-.5.21-1,.4-1.53.6s-1.05.46-1.6.69c-1.08.49-2.22,1-3.4,1.45s-2.37,1.09-3.6,1.66c-.61.3-1.25.54-1.88.85l-1.89,1c-.64.33-1.29.64-1.94,1s-1.28.7-1.94,1c-1.29.73-2.65,1.37-3.94,2.19s-2.66,1.51-3.95,2.4-2.64,1.65-3.91,2.58l-2,1.34-1.9,1.44c-1.3.92-2.52,1.95-3.77,2.95-.63.48-1.23,1-1.83,1.54l-1.82,1.56c-1.14,1.11-2.36,2.13-3.48,3.26s-2.26,2.21-3.32,3.36-2.12,2.28-3.17,3.4c-2,2.29-4,4.56-5.75,6.81s-3.45,4.44-5,6.5-2.87,4-4.08,5.78-2.25,3.33-3.1,4.64c-1.73,2.62-2.72,4.21-2.72,4.21"/><path class="cls-6" d="M510.84,690.53c14.06-42.31,4-163.49-117.07-184-56.31-9.54-91.39,21.06-97.3,49.29-6.62,31.66,9.47,62.51,35.77,73.11,65.48,26.37,112.39-25.41,178.6,61.61"/><path class="cls-6" d="M507.53,693.53c-11.52-43.07,5.71-163.44,127.8-176.72,56.78-6.18,90,26.45,94.19,55,4.73,32-13.16,61.85-40,70.86-66.93,22.43-110.68-32-181.94,50.88"/><polygon class="cls-7" points="527.16 846.86 499.44 847.48 500.5 659.08 518.25 659.82 527.16 846.86"/><path class="cls-8" d="M509.63,676.78s0-.62,0-1.78a49.85,49.85,0,0,1,.38-5,82,82,0,0,1,4.21-17.43A91.69,91.69,0,0,1,519,641.47a94.82,94.82,0,0,1,6.95-11.68c1.38-1.92,2.78-3.89,4.35-5.76.79-.94,1.54-1.91,2.37-2.83l2.53-2.76c.82-.94,1.74-1.8,2.65-2.68s1.81-1.76,2.75-2.62c1.94-1.64,3.83-3.36,5.88-4.88s4.08-3.08,6.26-4.4c1.07-.69,2.13-1.38,3.21-2l3.32-1.83c1.11-.58,2.18-1.23,3.32-1.74l3.37-1.54c2.22-1.06,4.52-1.84,6.75-2.66s4.48-1.44,6.67-2.06a64.14,64.14,0,0,1,6.49-1.48l3.13-.58c1-.18,2.06-.29,3.07-.4,2-.19,3.94-.47,5.8-.56A92.26,92.26,0,0,1,608,589a69.85,69.85,0,0,1,7.73.77c4.27.7,6.65,1.29,6.65,1.29s-2.36.88-6.4,2.05c-2,.53-4.43,1.44-7.17,2.28l-2.12.65c-.73.22-1.46.51-2.21.78-1.51.55-3.09,1.07-4.73,1.64s-3.29,1.26-5,1.93c-.86.35-1.75.62-2.62,1l-2.65,1.15-2.72,1.16c-.92.37-1.8.85-2.72,1.27-1.82.9-3.72,1.69-5.54,2.72s-3.75,1.88-5.57,3-3.73,2.11-5.53,3.32l-2.76,1.73c-.9.62-1.8,1.24-2.69,1.87-1.83,1.2-3.56,2.55-5.32,3.87-.9.63-1.74,1.33-2.59,2l-2.56,2.06c-1.61,1.48-3.33,2.84-4.9,4.35s-3.18,3-4.66,4.5-3,3.06-4.42,4.57c-2.83,3.09-5.53,6.16-8,9.21s-4.71,6-6.77,8.8-3.86,5.44-5.48,7.81-3,4.5-4.11,6.28-2,3.19-2.6,4.17l-.91,1.51"/><path class="cls-8" d="M510,676.91s-.25-.56-.71-1.62-1.15-2.56-2-4.47-2-4.18-3.25-6.76-2.74-5.43-4.41-8.47-3.5-6.29-5.56-9.6-4.3-6.74-6.7-10.18c-1.25-1.69-2.44-3.44-3.78-5.11s-2.66-3.39-4-5.07-2.88-3.27-4.29-5L473,618.29c-.74-.8-1.48-1.61-2.29-2.36-1.57-1.53-3.11-3.1-4.77-4.53l-2.42-2.21c-.84-.69-1.67-1.39-2.51-2.07-1.63-1.44-3.36-2.71-5.05-4s-3.43-2.49-5.12-3.72-3.45-2.29-5.14-3.42c-.86-.54-1.67-1.14-2.53-1.62l-2.54-1.5-2.48-1.49c-.82-.49-1.66-.88-2.47-1.34-1.62-.88-3.19-1.78-4.73-2.57s-3-1.51-4.47-2.25c-.71-.36-1.39-.75-2.08-1.06s-1.37-.61-2-.93c-2.61-1.18-4.87-2.4-6.81-3.19-3.85-1.7-6.07-2.87-6.07-2.87s2.43-.28,6.75-.41A70.8,70.8,0,0,1,424,577a92.62,92.62,0,0,1,10.06,1.31c1.84.34,3.71.86,5.68,1.32,1,.24,2,.49,3,.79l3,1a60.92,60.92,0,0,1,6.24,2.32c2.09.9,4.26,1.77,6.35,2.92s4.28,2.18,6.34,3.52l3.14,2c1.06.65,2,1.43,3.06,2.15l3,2.25c1,.8,1.94,1.62,2.91,2.44,2,1.6,3.79,3.41,5.63,5.19s3.49,3.73,5.2,5.61c.81,1,1.59,2,2.38,3s1.58,2,2.27,3l2.15,3.06c.7,1,1.32,2.09,2,3.12,1.31,2.07,2.44,4.2,3.55,6.29a97.18,97.18,0,0,1,5.37,12.48,94,94,0,0,1,3.27,11.63,81.89,81.89,0,0,1,1.88,17.82,50,50,0,0,1-.27,5c-.12,1.15-.24,1.76-.24,1.76"/><path class="cls-9" d="M889.05,1072.81c0,209.48-169.82,379.3-379.3,379.3s-379.3-169.82-379.3-379.3,169.82-379.3,379.3-379.3,379.3,169.81,379.3,379.3"/><path class="cls-10" d="M809.37,839.68c.1,2.08.17,4.17.17,6.26,0,107.1-134.88,193.92-301.27,193.92S207,953,207,845.94c0-.74,0-1.48,0-2.23a377.63,377.63,0,0,0-76.59,228.57c0,209.48,169.82,379.3,379.3,379.3s379.3-169.82,379.3-379.3A377.62,377.62,0,0,0,809.37,839.68Z"/><path class="cls-11" d="M566.61,845l6.2-9.55,27.46-31,23.87-21.24,37-22.21,32.23-12.65,7.75-3A379.49,379.49,0,0,0,290.88,763l53.83,111.5,28.89,38.08,29,18.65,20.73,5.18,38.34,7.26,18.8,5.17,13.19,7.63,6.6,12.5,5.9,26,2.43,14.23,8.25,7.77,6.33,3.68,3.46,7.64,2.09,6.59-2.09,9.38-5.2,16.31-2.08,17,1,16.66,4.16,21.17,8.33,19.44,9,13.88L552,1161.25,562.4,1172l9.72,9,7.63,13.88,1.74,16.66L578,1232.41l-4.86,18-8.33,17.35-8,18.74-9.72,17.61-3.47,8.08,4.17,13.53,7.64,6.6,8.32,1.73,11.81-1.73,19.09-8.68,19.09-11.8,21.86-14.23,13.54-12.15,17.13-16.66,16.19-20.48L694.64,1231,711,1210.19,723.79,1197l11.46-9.71,14.57-41,7.2-23.6.65-14-1.8-15.2-3.59-7.32-10.78-7.6-10.4-8.24-8.36-10-10.26-16.23-13.85-22.21-10.51-15.51-11.93-15.28L664,988l-14.08-3.82-22.92-10-15.76-6.45-9.07,1.43-9.31,4.54-11.22,5.73-9.79,1.43-9.07-2.86-6.21-5-4.77-8.35-4.06-11.22-5.26-6.69-8.59-4.06L526.26,939l-4.15-5.73-2.3-6.92.72-5.49,1.58-6-3.25-3.82-7.57-1.91-8.43-.48-8.12.72-8.59,1,6.92-11.7-6.92,2.39h-9.31L469,897l-5.73-4.77-4.77-8.12-1.91-11,2.15-11.22,2.62-4.3,4.06-2.15,28.89-4.29,11.46-4.54,14.32-2.15,7.39,1.19,7.17,4.06,6,8.6,3.11,13.13.24,15,7.88,1.43,9.54-1.19,7.17-8.6L569,866.2l-3.11-11,.72-7.41Z"/></g></svg>