<svg xmlns="http://www.w3.org/2000/svg" viewBox="0 0 744.27 528.49"><defs><style>.cls-1{fill:#e7af2c;}.cls-2{fill:#f8ca36;}.cls-3{fill:#ca952b;}.cls-4{fill:#e7ae2b;}.cls-5{fill:#fff;}.cls-6{opacity:0.6;}</style></defs><title>Asset 2</title><g id="Layer_2" data-name="Layer 2"><g id="ui"><path class="cls-1" d="M542.54,364.39C462.71,455.57,324.12,464.69,233,384.72S132.88,166,212.74,74.82,431.16-25.46,522.22,54.48,622.37,273.18,542.54,364.39Z"/><path class="cls-2" d="M512.72,338.24c-65.41,74.69-179,82.17-253.56,16.66S177.11,175.69,242.52,101A179.54,179.54,0,0,1,496.11,84.32C570.7,149.8,578.15,263.52,512.72,338.24Z"/><g id="ground"><path class="cls-3" d="M377.78,400.48c65.8,0,123.31-34.58,154.46-88.33H223.32C254.47,365.9,312,400.48,377.78,400.48Z"/></g><path id="ground-up" class="cls-1" d="M532.24,311.48c0,7.24-69.15,13.1-154.46,13.1s-154.46-5.86-154.46-13.1,69.15-13.1,154.46-13.1S532.24,304.24,532.24,311.48Z"/><path class="cls-3" d="M386.78,211.12c-4.27-13.19-.87-50.85,36.83-57,17.53-2.84,28.37,6.75,30.15,15.55,2,9.86-3.09,19.41-11.3,22.65-20.42,8-34.89-8.16-55.68,18.75"/><path class="cls-3" d="M387.58,210.67c6.06-12.48,7.88-50.25-28.62-61.49-17-5.23-29,2.78-32,11.24-3.33,9.49.38,19.66,8.06,24,19.12,10.79,35.69-3.27,52.56,26.25"/><polygon class="cls-3" points="378.06 264.93 386.67 265.41 389.52 206.64 385.78 206.5 378.06 264.93"/><path class="cls-4" d="M387.43,206.57s-.29-.73-.81-1.94c-.25-.61-.57-1.34-.92-2.15s-.78-1.73-1.25-2.7-1-2-1.56-3.06-1.19-2.15-1.86-3.26c-.34-.54-.67-1.1-1-1.64s-.73-1.09-1.12-1.64-.8-1.07-1.19-1.61l-.63-.78c-.21-.27-.41-.53-.64-.78-.44-.51-.86-1-1.33-1.51l-.67-.73-.71-.71c-.46-.48-.95-.92-1.43-1.36s-1-.86-1.44-1.29-1-.81-1.46-1.21c-.25-.19-.48-.4-.73-.58l-.72-.54-.71-.54c-.24-.18-.48-.33-.71-.5-.47-.33-.92-.66-1.37-1l-1.29-.85c-.21-.14-.41-.29-.61-.41s-.4-.24-.58-.37c-.77-.47-1.42-.93-2-1.26-1.13-.68-1.78-1.16-1.78-1.16s.78-.07,2.14-.05a19.73,19.73,0,0,1,2.44.18,25.93,25.93,0,0,1,3.14.58c.57.13,1.15.33,1.76.51.31.1.62.19.93.31l.93.37a17.83,17.83,0,0,1,1.91.86c.64.33,1.31.65,1.94,1.05s1.29.79,1.91,1.26l.94.69c.32.23.61.5.91.76l.91.78c.29.27.57.56.85.84a23,23,0,0,1,1.64,1.78c.53.61,1,1.26,1.48,1.9.23.33.45.67.67,1s.44.66.63,1l.58,1c.19.34.36.7.53,1,.35.68.64,1.39.93,2.08a29,29,0,0,1,1.29,4.08,28,28,0,0,1,.63,3.75,24,24,0,0,1-.09,5.64,11.84,11.84,0,0,1-.44,2.1"/><path class="cls-4" d="M387.29,207.05a11,11,0,0,1-.06-2.15,23.67,23.67,0,0,1,.94-5.56,28.44,28.44,0,0,1,1.29-3.58,29.58,29.58,0,0,1,2-3.78c.4-.62.81-1.26,1.28-1.87.24-.31.46-.63.71-.93l.76-.9c.25-.31.53-.59.81-.88l.83-.86c.6-.54,1.17-1.1,1.8-1.6s1.26-1,1.93-1.45l1-.68,1-.6c.34-.2.68-.41,1-.58l1.05-.51c.7-.35,1.41-.62,2.11-.89s1.41-.48,2.09-.69a20.85,20.85,0,0,1,2-.5l1-.19c.32-.06.64-.1,1-.14.64-.06,1.24-.16,1.83-.19a28.21,28.21,0,0,1,3.19,0,22.36,22.36,0,0,1,2.44.27c1.34.23,2.09.44,2.09.44s-.73.35-2,.82c-.62.21-1.35.55-2.18.88l-.65.25c-.22.08-.44.19-.67.29l-1.42.61c-.5.21-1,.46-1.52.7-.25.12-.53.22-.79.36l-.79.4-.82.4c-.27.13-.54.3-.81.44-.54.31-1.11.58-1.66.93s-1.11.63-1.65,1-1.12.7-1.65,1.09l-.82.56-.8.6c-.55.39-1.06.82-1.58,1.24-.27.21-.52.43-.77.65l-.77.66c-.48.46-1,.89-1.46,1.37s-.95.92-1.39,1.41-.9,1-1.34,1.42c-.85,1-1.67,1.92-2.41,2.87s-1.45,1.86-2.09,2.73-1.2,1.69-1.71,2.42-.94,1.4-1.3,1.95c-.73,1.1-1.14,1.77-1.14,1.77"/><path class="cls-3" d="M383,284.73c5.91-17.77,1.69-68.68-49.18-77.29-23.65-4-38.39,8.84-40.87,20.7-2.78,13.3,4,26.26,15,30.71,27.5,11.08,47.21-10.67,75,25.88"/><path class="cls-3" d="M381.6,286c-4.84-18.09,2.4-68.65,53.69-74.23,23.85-2.6,37.8,11.11,39.57,23.1,2,13.44-5.53,26-16.83,29.76C429.92,274,411.54,251.16,381.6,286"/><polygon class="cls-3" points="388.7 312.79 377.05 313.05 378.65 271.52 386.1 271.84 388.7 312.79"/><path class="cls-4" d="M382.48,279s0-.26,0-.75,0-1.2.16-2.1a34,34,0,0,1,1.77-7.32,39.93,39.93,0,0,1,2-4.67,41,41,0,0,1,2.92-4.9c.58-.81,1.17-1.63,1.83-2.42.33-.39.65-.8,1-1.19s.71-.77,1.07-1.16.73-.75,1.11-1.12l1.15-1.11c.82-.68,1.61-1.41,2.48-2.05s1.71-1.29,2.63-1.84c.45-.29.89-.58,1.35-.86l1.39-.77c.47-.24.92-.52,1.39-.73l1.42-.65c.93-.44,1.9-.77,2.83-1.11a28.26,28.26,0,0,1,2.81-.87,27.89,27.89,0,0,1,2.72-.62l1.32-.25c.43-.07.86-.12,1.29-.16.84-.08,1.65-.2,2.44-.24a40.06,40.06,0,0,1,4.26,0,30.76,30.76,0,0,1,3.25.32c1.79.3,2.79.55,2.79.55s-1,.36-2.69.86c-.85.22-1.86.6-3,.95l-.89.28c-.31.09-.61.21-.93.32-.63.23-1.3.45-2,.69s-1.38.54-2.11.81c-.36.15-.73.27-1.1.42l-1.11.49-1.14.48c-.39.16-.76.36-1.15.54-.76.38-1.56.71-2.32,1.14s-1.58.79-2.34,1.27-1.57.88-2.33,1.39l-1.16.73-1.13.78c-.76.51-1.49,1.07-2.23,1.63-.38.26-.73.56-1.09.85l-1.07.87c-.68.62-1.4,1.2-2.06,1.83s-1.34,1.24-2,1.89-1.25,1.28-1.86,1.92c-1.19,1.3-2.32,2.59-3.35,3.87s-2,2.52-2.84,3.69-1.62,2.29-2.31,3.29-1.25,1.89-1.72,2.63l-1.09,1.75-.39.64"/><path class="cls-4" d="M382.66,279s-.11-.23-.3-.67l-.86-1.88c-.36-.8-.83-1.76-1.36-2.84s-1.15-2.28-1.85-3.56-1.47-2.64-2.34-4-1.8-2.83-2.81-4.27c-.53-.71-1-1.45-1.59-2.15s-1.12-1.42-1.7-2.13-1.21-1.37-1.8-2.08l-.95-1c-.31-.34-.63-.68-1-1-.66-.65-1.3-1.31-2-1.91l-1-.92-1.06-.88c-.68-.6-1.41-1.13-2.12-1.68s-1.44-1-2.15-1.56-1.45-1-2.16-1.44c-.36-.22-.7-.48-1.07-.68l-1.06-.63-1-.63c-.35-.2-.7-.36-1-.56-.68-.37-1.34-.75-2-1.08s-1.28-.63-1.87-.94c-.3-.15-.59-.32-.88-.45s-.57-.25-.85-.39c-1.09-.5-2.05-1-2.86-1.34-1.61-.71-2.55-1.2-2.55-1.2s1-.12,2.84-.18a32.6,32.6,0,0,1,3.26.11,39.74,39.74,0,0,1,4.23.55c.77.14,1.56.36,2.39.55.41.1.83.21,1.25.34l1.27.41a24,24,0,0,1,2.62,1c.88.38,1.8.74,2.67,1.22s1.8.92,2.66,1.48l1.32.83c.45.27.86.6,1.29.9l1.28.95c.41.33.82.68,1.22,1,.84.68,1.6,1.44,2.37,2.18s1.46,1.57,2.18,2.36c.34.41.67.83,1,1.24s.66.83,1,1.26l.9,1.29c.29.43.55.88.83,1.31.55.87,1,1.76,1.49,2.64a40.63,40.63,0,0,1,3.63,10.13,34.2,34.2,0,0,1,.79,7.49,19.9,19.9,0,0,1-.11,2.1c-.05.49-.1.74-.1.74"/><path class="cls-5" d="M464.11,165.36c9.05-19.65,31.47-45.55,40.92-49,9.28-3.42,43.28,1.62,62.87,10.66-19.59-9-44.9-30-48.91-41-4.23-11.44,1.6-43.34,10.64-63-9.26,20.12-29.86,44.9-42.33,49.5-12.88,4.77-42.35-2.34-61.47-11.16,19.6,9,45,30.19,48.93,41C478.78,113.27,473.16,145.71,464.11,165.36Z"/><path class="cls-5" d="M308.14,476.84c10.89,0,18.28,7.11,18.28,18s-7.77,17.86-19.06,17.86h-8.54v14.88h-12.9V476.84ZM298.82,503h5.83c5.49,0,8.72-2.82,8.72-8.09s-3.2-8.12-8.64-8.12h-5.91Z"/><path class="cls-5" d="M334.75,488.45h12.09v6.43h.67a9.63,9.63,0,0,1,9.63-7,14.05,14.05,0,0,1,4.5.6V499a18.76,18.76,0,0,0-5.34-.7c-5.48,0-9.14,3.09-9.14,8.54v20.71H334.75Z"/><path class="cls-5" d="M367.76,476.74a6.61,6.61,0,1,1,6.61,6.47A6.56,6.56,0,0,1,367.76,476.74Zm.39,11.71h12.44v39.13H368.15Z"/><path class="cls-5" d="M414.76,502.93c-.52-3.66-2.77-5.84-6.57-5.84-4.85,0-7.31,3.63-7.31,10.87s2.49,11,7.31,11c3.73,0,6-1.9,6.57-5.56h11.43c-.74,9.35-7.38,15.12-18,15.12-12.9,0-19.79-7.17-19.79-20.53s6.89-20.43,19.79-20.43c10.79,0,17.23,5.8,18,15.4Z"/><path class="cls-5" d="M470.07,516c-1.38,7.63-8.55,12.45-18.67,12.45-12.48,0-19.65-7.38-19.65-20.22s7.34-20.74,19.47-20.74,19.09,7.31,19.09,19.8v3.44H444v.63c.11,5.1,3,8.27,7.77,8.27,3.62,0,6.12-1.34,7-3.63Zm-26-12.41h14.2c-.21-4.57-2.81-7.27-7-7.27S444.37,499.2,444.05,503.63Z"/><g class="cls-6"><path class="cls-5" d="M125.56,57.21l-1.55.4a11.63,11.63,0,0,0-1.85.54l-2.25,1c-.84.45-1.77,1.05-2.81,1.62S115,62.22,113.89,63a83.82,83.82,0,0,0-7.3,6.58A147.24,147.24,0,0,0,89.84,90.42c-1.43,2.14-2.89,4.36-4.28,6.67-.36.58-.7,1.16-1,1.75l-.51.89-.25.44-.13.22c0,.07.09-.14,0,0l-.06.12-2,3.92-2,4-1.76,4c-.6,1.37-1.25,2.7-1.82,4.14l-1.72,4.39c-4.59,11.84-8.4,25.17-12.16,39.5-.46,1.79-.93,3.6-1.41,5.41s-.83,3.6-1.25,5.41c-.86,3.73-1.8,7.53-2.35,11.23-1.42,7.38-2.42,15.2-3.21,23.13A295.62,295.62,0,0,0,53.51,255a333.83,333.83,0,0,0,7.43,50.4A316.33,316.33,0,0,0,76.15,354c1.46,3.94,3.3,7.7,5,11.51l1.28,2.84c.37.87.91,1.87,1.35,2.8.93,1.89,1.85,3.78,2.78,5.65C90.25,384.25,94,391.45,98,398.51a305.8,305.8,0,0,0,25.17,38.83c2.31,2.84,4.42,5.81,6.88,8.35l3.56,3.91c.58.65,1.17,1.29,1.75,1.93l.22.24.11.12s.17.17,0,0l.47.46,1,.9,7.52,7.11c1.2,1.22,2.52,2.14,3.76,3.19l3.74,3,3.67,3c1.25.94,2.55,1.81,3.79,2.71l7.38,5.19,7.29,4.53c2.35,1.48,4.64,2.93,7,4.16,9.11,5.22,17.36,9.27,24.18,12.54l9.17,4.29,6.85,3,5.71,2.5-.65,1.64L220.63,508l-7-2.64-9.44-3.81c-7-2.91-15.52-6.67-25-11.53-2.41-1.14-4.8-2.51-7.27-3.91l-7.61-4.33c-2.52-1.64-5.11-3.31-7.75-5-1.32-.86-2.67-1.7-4-2.63s-2.62-2-4-3l-4-3c-1.33-1.05-2.8-2-4-3.18l-7.78-6.82-1-.87-.49-.44-.57-.58-1.89-1.95-3.82-4c-2.66-2.6-4.92-5.57-7.4-8.45a299.6,299.6,0,0,1-26.93-39.12c-4.15-7.06-8.2-14.45-12.1-21.89l-2.89-5.6c-.48-1-1-1.81-1.46-2.87l-1.38-2.91c-1.83-3.9-3.81-7.76-5.41-11.8A307.61,307.61,0,0,1,51,307.69a336.64,336.64,0,0,1-8.29-51.93,306.84,306.84,0,0,1,.23-51c.79-8.26,1.78-16.34,3.28-24.35.62-4.06,1.53-7.78,2.37-11.52q.66-2.88,1.3-5.71l1.46-5.48a276,276,0,0,1,13.59-40.49q1-2.3,2-4.53c.67-1.5,1.46-3,2.17-4.43s1.48-2.88,2.2-4.3,1.53-2.61,2.29-3.89l2.23-3.79.2-.35.16-.24.31-.47.62-1c.41-.63.82-1.24,1.24-1.84C80,90,81.63,87.73,83.37,85.63a128.65,128.65,0,0,1,19.71-20c6.08-4.92,11.68-7.87,15.79-9.15l2.85-.71a11.24,11.24,0,0,1,2-.23l1.6-.11Z"/><path class="cls-5" d="M128.05,445.32c-19.25-11.82-5.62-80.93,29.41-63.41C205,405.69,147.64,457.34,128.05,445.32Z"/><path class="cls-5" d="M128.22,450.92c-1.63-22.53-69.26-42.24-69.82-3.08C57.63,501,129.88,473.84,128.22,450.92Z"/><path class="cls-5" d="M88.91,386.29C71.52,375.61,83.84,313.2,115.47,329,158.39,350.49,106.6,397.14,88.91,386.29Z"/><path class="cls-5" d="M89.06,391.34C87.59,371,26.52,353.2,26,388.55,25.31,436.55,90.56,412,89.06,391.34Z"/><path class="cls-5" d="M61.24,318.89C48,306.21,70.7,253.76,95.46,273.68,129.06,300.71,74.7,331.79,61.24,318.89Z"/><path class="cls-5" d="M60.41,323.36C63,305.22,12.76,278,5.58,308.92-4.17,350.92,57.78,341.82,60.41,323.36Z"/><path class="cls-5" d="M50.74,256.06c-10.33-12.92,16.23-57.12,36-36.36C113.56,247.88,61.24,269.21,50.74,256.06Z"/><path class="cls-5" d="M49.46,260C53.94,244,12.26,213.68,2.14,240.5-11.58,276.91,44.91,276.16,49.46,260Z"/><path class="cls-5" d="M48.4,195.3C41.51,182.65,71,148.76,84.78,169.56,103.53,197.8,55.42,208.16,48.4,195.3Z"/><path class="cls-5" d="M46.72,198.45c6.25-13-24.9-45.34-37.64-23.86C-8.21,203.74,40.36,211.65,46.72,198.45Z"/><path class="cls-5" d="M62.84,140.63c-4.34-13.74,31.1-41.33,40.65-18.26C116.45,153.68,67.25,154.6,62.84,140.63Z"/><path class="cls-5" d="M60.58,143.4c8.63-11.54-15.72-49.28-32.35-30.65C5.66,138,51.8,155.13,60.58,143.4Z"/><path class="cls-5" d="M83.87,97.87c-1.08-10.79,29.28-25.7,32.78-7.22C121.4,115.73,85,108.85,83.87,97.87Z"/><path class="cls-5" d="M81.78,99.56c8.14-7.17-4-38.75-19.14-27.57C42.12,87.17,73.51,106.87,81.78,99.56Z"/></g><g class="cls-6"><path class="cls-5" d="M612.59,47.92l1.6,0a11.13,11.13,0,0,1,2,.16l2.87.62c4.15,1.14,9.85,3.91,16.09,8.62a128.23,128.23,0,0,1,20.35,19.31c1.81,2,3.53,4.25,5.29,6.59.44.58.87,1.18,1.3,1.8l.65.92.33.46.16.23.22.35,2.35,3.71,2.41,3.82c.78,1.39,1.56,2.79,2.35,4.22s1.59,2.88,2.31,4.35,1.42,3,2.14,4.47a276.48,276.48,0,0,1,14.92,40q.81,2.7,1.63,5.43c.5,1.88,1,3.76,1.49,5.66,1,3.71,2,7.4,2.76,11.44,1.76,7.95,3,16,4.07,24.23a304.91,304.91,0,0,1,1.91,51,336.88,336.88,0,0,1-6.56,52.17A308.35,308.35,0,0,1,680.41,348c-1.47,4.09-3.32,8-5,12l-1.3,3c-.45,1.07-.91,1.94-1.36,2.91-.9,1.91-1.8,3.8-2.7,5.69-3.65,7.57-7.45,15.09-11.37,22.29a300.87,300.87,0,0,1-25.63,40c-2.38,3-4.54,6-7.12,8.69-1.24,1.37-2.46,2.74-3.69,4.09l-1.82,2-.54.59-.49.46-1,.9-7.55,7.07c-1.19,1.2-2.62,2.22-3.92,3.31L603,464.09l-3.86,3.1c-1.3,1-2.62,1.85-3.91,2.76l-7.58,5.29-7.46,4.57c-2.42,1.49-4.76,2.93-7.14,4.15-9.32,5.18-17.67,9.21-24.62,12.36l-9.3,4.11-6.94,2.87-5.78,2.38-.7-1.62,5.62-2.68,6.75-3.23,9-4.59c6.72-3.49,14.83-7.81,23.76-13.33,2.28-1.3,4.52-2.83,6.83-4.38l7.14-4.77,7.19-5.43c1.22-.94,2.49-1.85,3.71-2.83s2.36-2.06,3.57-3.1l3.63-3.15c1.21-1.09,2.5-2.06,3.66-3.32l7.28-7.35.93-.94.47-.47c-.15.14,0,0,0,0l.11-.12.21-.25,1.69-2,3.42-4c2.38-2.63,4.39-5.66,6.61-8.58a306.27,306.27,0,0,0,23.87-39.63c3.71-7.19,7.23-14.51,10.69-22.11q1.3-2.86,2.59-5.75c.42-.94.92-2,1.26-2.84l1.18-2.88c1.56-3.87,3.27-7.68,4.61-11.67a317.55,317.55,0,0,0,13.6-49.08,335.11,335.11,0,0,0,5.76-50.61,295.59,295.59,0,0,0-2-49.19c-1.05-7.9-2.3-15.68-4-23-.68-3.67-1.74-7.44-2.73-11.13-.48-1.81-1-3.59-1.43-5.37s-1.06-3.59-1.58-5.37c-4.23-14.2-8.48-27.39-13.45-39.08-.63-1.45-1.25-2.9-1.87-4.32s-1.31-2.73-2-4.08-1.26-2.68-1.89-4-1.43-2.66-2.14-4-1.41-2.59-2.11-3.86l-.06-.12h0l-.13-.22-.27-.43-.53-.87c-.34-.58-.7-1.15-1.08-1.72-1.46-2.27-3-4.43-4.5-6.53a147.77,147.77,0,0,0-17.42-20.25,83.09,83.09,0,0,0-7.51-6.33c-1.18-.77-2.26-1.54-3.29-2.15s-2-1.1-2.86-1.53l-2.29-.92a11.64,11.64,0,0,0-1.86-.48l-1.56-.35Z"/><path class="cls-5" d="M622.68,437.64c18.85-12.45,3-81.07-31.48-62.4C544.48,400.57,603.5,450.3,622.68,437.64Z"/><path class="cls-5" d="M622.7,443.24c.88-22.57,67.82-44.49,69.68-5.38C694.9,491,621.79,466.21,622.7,443.24Z"/><path class="cls-5" d="M659.85,377.35c17-11.24,2.67-73.22-28.42-56.36C589.23,343.87,642.53,388.78,659.85,377.35Z"/><path class="cls-5" d="M659.86,382.4c.81-20.38,61.26-40.18,62.94-4.86C725.08,425.49,659.05,403.15,659.86,382.4Z"/><path class="cls-5" d="M685.29,309.08C698.1,296,673.69,244.3,649.6,265,616.91,293.14,672.26,322.42,685.29,309.08Z"/><path class="cls-5" d="M686.27,313.52c-3.18-18,46.12-46.94,54.32-16.25C751.72,338.93,689.5,331.89,686.27,313.52Z"/><path class="cls-5" d="M693.71,245.94c9.9-13.25-18.1-56.56-37.17-35.16C630.66,239.83,683.65,259.42,693.71,245.94Z"/><path class="cls-5" d="M695.12,249.8c-5-15.77,35.66-47.49,46.65-21C756.69,264.72,700.2,265.83,695.12,249.8Z"/><path class="cls-5" d="M694.05,185.13c6.47-12.87-24.1-45.77-37.21-24.52C639,189.44,687.45,198.22,694.05,185.13Z"/><path class="cls-5" d="M695.83,188.22c-6.67-12.76,23.4-46.13,36.84-25.08C750.91,191.7,702.62,201.21,695.83,188.22Z"/><path class="cls-5" d="M677.82,131c3.88-13.87-32.45-40.28-41.23-16.91C624.66,145.78,673.87,145.08,677.82,131Z"/><path class="cls-5" d="M680.17,133.66c-9-11.25,14.08-49.77,31.32-31.7C734.88,126.48,689.33,145.1,680.17,133.66Z"/><path class="cls-5" d="M655.38,88.93c.73-10.83-30.11-24.72-33-6.14C618.47,108,654.64,99.94,655.38,88.93Z"/><path class="cls-5" d="M657.53,90.55c-8.37-6.91,2.74-38.86,18.22-28.19C696.77,76.85,666,97.57,657.53,90.55Z"/></g></g></g></svg>