<?xml version="1.0" encoding="utf-8"?>
<!-- Generator: Adobe Illustrator 16.0.4, SVG Export Plug-In . SVG Version: 6.00 Build 0)  -->
<!DOCTYPE svg PUBLIC "-//W3C//DTD SVG 1.1//EN" "http://www.w3.org/Graphics/SVG/1.1/DTD/svg11.dtd">
<svg version="1.1" xmlns="http://www.w3.org/2000/svg" xmlns:xlink="http://www.w3.org/1999/xlink" x="0px" y="0px" width="2000px"
	 height="2000px" viewBox="0 0 2000 2000" enable-background="new 0 0 2000 2000" xml:space="preserve">
<g id="coin">
	<g>
		<g>
			<path fill="#E8AF2E" d="M1750.896,1659.842c-363.481,415.111-994.417,456.625-1409.135,92.533
				c-414.64-364.025-455.943-995.713-92.376-1410.868C612.874-73.7,1243.809-115.065,1658.361,248.898
				C2073,612.93,2114.324,1244.593,1750.896,1659.842z"/>
			<path fill="#F9CA35" d="M1615.142,1540.773c-297.823,340.031-814.834,374.103-1154.415,75.846
				C120.894,1318.258,87.156,800.748,384.954,460.61c297.875-340.172,814.739-374.146,1154.563-75.845
				C1879.106,682.872,1913.002,1200.604,1615.142,1540.773z"/>
		</g>
		<g>
			<path fill="#FFFFFF" d="M1345.584,885.233c41.211-89.484,143.299-207.367,186.326-223.255
				c42.224-15.576,197.034,7.343,286.225,48.52c-89.19-41.177-204.415-136.79-222.691-186.465
				c-19.268-52.09,7.311-197.324,48.471-286.697c-42.167,91.578-135.944,204.407-192.712,225.347
				c-58.677,21.729-192.838-10.628-279.883-50.8c89.241,41.187,204.718,137.456,222.748,186.464
				C1412.403,648.089,1386.795,795.749,1345.584,885.233z"/>
		</g>
	</g>
</g>
<g id="bg">
	<g>
		<circle id="circle" display="none" fill="#DFF0D8" cx="1008" cy="1001" r="1000"/>
		<g id="ground">
			<path fill="#CC9629" d="M1000.773,1821.139c299.559,0,561.396-161.139,703.229-402.139H297.543
				C439.376,1660,701.214,1821.139,1000.773,1821.139z"/>
		</g>
		<ellipse id="ground-up" fill="#E8AF2E" cx="1000.773" cy="1418.947" rx="703.23" ry="59.662"/>
	</g>
</g>
<g id="seed">
	<g>
		<path fill="#CC9629" d="M970.979,635.259c37.804-30.777,102.468-18.146,164.779,26.109
			c-10.104-47.983-27.246-96.341-56.088-131.773c-82.846-101.761-169.909-107.928-230.78-58.376
			c-60.868,49.551-72.489,136.058,10.354,237.82c24.041,29.53,58.52,52.917,95.353,71.253
			C932.994,718.626,937.097,662.84,970.979,635.259z"/>
		<path fill="#E8AF2E" d="M1135.758,661.369c-62.311-44.256-126.975-56.886-164.779-26.109
			c-33.882,27.581-37.985,83.367-16.383,145.034c90.105,44.86,194.303,59.451,194.303,59.451S1154.676,751.204,1135.758,661.369z"/>
	</g>
</g>
<g id="bud" display="none">
	<g display="inline">
		<path fill="#7DBF00" d="M994.467,1462.259c-19.244-59.366-3.951-228.905,165.773-256.383
			c78.92-12.775,127.719,30.418,135.695,69.997c8.943,44.391-13.895,87.415-50.82,101.977
			C1153.174,1414.094,1088.035,1341.119,994.467,1462.259"/>
		<path fill="#7DBF00" d="M998.062,1460.216c27.248-56.145,35.479-226.171-128.833-276.792
			c-76.399-23.54-130.694,12.513-144.049,50.61c-14.984,42.736,1.699,88.5,36.271,108.012
			C847.508,1390.627,922.091,1327.332,998.062,1460.216"/>
		<polygon fill="#7DBF00" points="977,1518.195 1015.752,1520.343 1006.771,1442.076 989.93,1441.45 		"/>
		<path fill="#689E00" d="M997.359,1441.788c0,0-1.305-3.292-3.609-8.757c-1.139-2.729-2.57-6.003-4.182-9.688
			c-1.664-3.679-3.49-7.773-5.615-12.134c-2.111-4.361-4.4-9.015-6.996-13.781c-2.537-4.796-5.389-9.687-8.369-14.652
			c-1.568-2.439-3.039-4.975-4.734-7.404c-1.572-2.5-3.32-4.919-5.039-7.372c-1.684-2.481-3.607-4.802-5.354-7.26l-2.841-3.524
			c-0.938-1.184-1.863-2.382-2.887-3.487c-1.972-2.289-3.9-4.618-5.988-6.781c-1.018-1.107-2.031-2.214-3.043-3.321
			c-1.066-1.052-2.127-2.104-3.184-3.156c-2.045-2.173-4.258-4.144-6.406-6.152c-2.08-2.089-4.377-3.879-6.521-5.805
			c-2.12-1.97-4.423-3.63-6.576-5.43c-1.101-0.863-2.135-1.813-3.25-2.611c-1.111-0.813-2.212-1.613-3.279-2.448
			c-1.075-0.822-2.135-1.638-3.184-2.439c-1.056-0.796-2.172-1.456-3.202-2.229c-2.109-1.48-4.131-2.967-6.136-4.322
			c-2.019-1.336-3.98-2.581-5.831-3.852c-0.93-0.627-1.818-1.29-2.726-1.842c-0.907-0.548-1.794-1.08-2.644-1.633
			c-3.427-2.113-6.39-4.216-8.947-5.69c-5.069-3.082-7.995-5.2-7.995-5.2s3.485-0.317,9.618-0.261
			c3.095-0.071,6.736,0.376,10.995,0.821c4.285,0.373,8.938,1.496,14.138,2.604c2.578,0.611,5.171,1.518,7.93,2.322
			c1.376,0.419,2.767,0.86,4.155,1.381c1.379,0.551,2.777,1.106,4.196,1.67c2.849,1.132,5.775,2.339,8.62,3.861
			c2.874,1.476,5.872,2.916,8.704,4.751c2.864,1.775,5.841,3.532,8.615,5.643c1.404,1.038,2.818,2.079,4.24,3.126
			c1.434,1.039,2.724,2.258,4.104,3.394c1.352,1.168,2.706,2.342,4.063,3.52c1.304,1.238,2.574,2.52,3.859,3.795
			c2.629,2.491,4.967,5.269,7.357,8.003c2.389,2.733,4.49,5.694,6.676,8.57c1.025,1.482,2.018,2.986,2.996,4.486
			c0.988,1.5,1.992,2.979,2.846,4.54c0.881,1.539,1.76,3.077,2.635,4.606c0.857,1.536,1.594,3.127,2.387,4.669
			c1.578,3.09,2.883,6.26,4.174,9.358c2.439,6.26,4.437,12.411,5.779,18.373c1.443,5.926,2.301,11.625,2.844,16.872
			c1.021,10.533,0.5,19.336-0.375,25.415C998.545,1438.415,997.359,1441.788,997.359,1441.788"/>
		<path fill="#689E00" d="M996.729,1443.94c0,0-0.555-3.53-0.273-9.664c0.242-6.138,1.32-14.886,4.234-25.06
			c1.482-5.068,3.354-10.517,5.844-16.083c2.393-5.619,5.479-11.31,9.006-17.027c1.836-2.812,3.689-5.693,5.801-8.447
			c1.059-1.373,2.068-2.805,3.191-4.162c1.139-1.343,2.279-2.695,3.426-4.049c1.121-1.382,2.375-2.653,3.615-3.95
			c1.236-1.3,2.482-2.602,3.76-3.87c2.67-2.432,5.271-4.965,8.115-7.225c2.848-2.255,5.654-4.565,8.688-6.537
			c1.488-1.026,2.975-2.056,4.479-3.036c1.549-0.913,3.094-1.823,4.635-2.729c1.555-0.867,3.049-1.828,4.65-2.593
			c1.586-0.774,3.164-1.544,4.73-2.307c3.115-1.577,6.354-2.763,9.494-3.993c3.119-1.291,6.326-2.167,9.418-3.099
			c3.08-0.983,6.172-1.641,9.18-2.24c1.498-0.297,2.977-0.592,4.428-0.883c1.457-0.259,2.908-0.441,4.338-0.605
			c2.861-0.294,5.572-0.715,8.217-0.853c5.314-0.147,10.096-0.414,14.375-0.002c4.271,0.333,7.932,0.551,10.965,1.18
			c6.041,1.05,9.408,1.999,9.408,1.999s-3.252,1.551-8.797,3.67c-2.785,0.982-6.078,2.516-9.832,3.975
			c-0.936,0.39-1.902,0.752-2.898,1.126c-0.986,0.382-1.982,0.872-3.012,1.317c-2.049,0.917-4.207,1.787-6.432,2.738
			c-2.211,0.968-4.479,2.062-6.812,3.141c-1.156,0.569-2.373,1.018-3.557,1.61c-1.176,0.602-2.365,1.21-3.57,1.827
			c-1.207,0.629-2.434,1.213-3.666,1.816c-1.242,0.583-2.436,1.328-3.674,1.977c-2.441,1.381-5.004,2.6-7.445,4.151
			c-2.461,1.504-5.039,2.852-7.467,4.527c-2.473,1.591-5.002,3.126-7.412,4.896c-1.232,0.842-2.461,1.683-3.701,2.53
			c-1.195,0.902-2.395,1.81-3.598,2.715c-2.447,1.75-4.76,3.689-7.113,5.582c-1.205,0.906-2.338,1.914-3.465,2.917l-3.438,2.942
			c-2.162,2.107-4.479,4.038-6.58,6.172c-2.133,2.104-4.289,4.167-6.287,6.344c-2.105,2.082-4.01,4.308-5.992,6.428
			c-3.832,4.337-7.523,8.637-10.883,12.893c-3.418,4.222-6.512,8.38-9.375,12.286c-2.877,3.905-5.416,7.605-7.719,10.925
			c-2.248,3.329-4.25,6.291-5.863,8.771C998.609,1440.939,996.729,1443.94,996.729,1443.94"/>
	</g>
</g>
<g id="growing" display="none">
	<g display="inline">
		<g>
			<path fill="#7DBF00" d="M1016.91,1051.346c-19.327-59.617-3.967-229.874,166.477-257.468
				c79.255-12.83,128.262,30.546,136.271,70.293c8.979,44.579-13.955,87.786-51.038,102.408
				C1176.291,1002.979,1110.875,929.694,1016.91,1051.346"/>
			<path fill="#7DBF00" d="M1020.523,1049.294c27.363-56.38,35.627-227.128-129.381-277.963
				c-76.723-23.64-131.249,12.565-144.659,50.825c-15.048,42.917,1.707,88.874,36.424,108.47
				C869.331,979.411,944.229,915.848,1020.523,1049.294"/>
			<polygon fill="#7DBF00" points="977.481,1294.601 1016.398,1296.757 1029.269,1031.078 1012.354,1030.449 			"/>
			<path fill="#689E00" d="M1019.816,1030.789c0,0-1.312-3.306-3.625-8.793c-1.143-2.743-2.58-6.029-4.199-9.73
				c-1.671-3.695-3.505-7.807-5.64-12.186c-2.12-4.378-4.419-9.053-7.026-13.839c-2.548-4.815-5.409-9.728-8.404-14.714
				c-1.574-2.45-3.051-4.996-4.755-7.436c-1.58-2.512-3.333-4.94-5.06-7.404c-1.689-2.492-3.622-4.822-5.377-7.291l-2.853-3.538
				c-0.942-1.19-1.871-2.393-2.899-3.503c-1.979-2.298-3.916-4.637-6.014-6.81c-1.022-1.112-2.04-2.224-3.057-3.335
				c-1.07-1.056-2.136-2.114-3.197-3.17c-2.052-2.182-4.276-4.161-6.433-6.179c-2.089-2.096-4.396-3.895-6.548-5.828
				c-2.129-1.978-4.443-3.646-6.603-5.452c-1.106-0.868-2.144-1.822-3.266-2.623c-1.115-0.817-2.221-1.621-3.292-2.459
				c-1.081-0.826-2.146-1.644-3.198-2.449c-1.062-0.799-2.18-1.463-3.216-2.239c-2.119-1.487-4.148-2.979-6.163-4.341
				c-2.026-1.341-3.995-2.592-5.854-3.869c-0.935-0.628-1.827-1.294-2.737-1.849c-0.911-0.55-1.803-1.084-2.655-1.639
				c-3.442-2.123-6.417-4.234-8.986-5.714c-5.091-3.096-8.027-5.222-8.027-5.222s3.499-0.321,9.657-0.263
				c3.108-0.073,6.765,0.377,11.042,0.824c4.303,0.375,8.977,1.503,14.199,2.615c2.589,0.615,5.193,1.523,7.963,2.332
				c1.381,0.421,2.779,0.864,4.171,1.386c1.386,0.555,2.791,1.112,4.214,1.678c2.862,1.137,5.799,2.349,8.656,3.877
				c2.886,1.482,5.898,2.929,8.741,4.771c2.878,1.783,5.866,3.548,8.651,5.667c1.411,1.042,2.831,2.086,4.258,3.139
				c1.44,1.043,2.736,2.267,4.122,3.408c1.357,1.171,2.717,2.351,4.08,3.534c1.31,1.244,2.586,2.53,3.876,3.811
				c2.64,2.502,4.988,5.292,7.388,8.037c2.4,2.747,4.511,5.719,6.704,8.607c1.029,1.489,2.026,2.999,3.009,4.506
				c0.992,1.506,2,2.99,2.857,4.56c0.885,1.545,1.768,3.089,2.646,4.625c0.861,1.542,1.6,3.139,2.396,4.688
				c1.585,3.104,2.896,6.287,4.19,9.398c2.452,6.287,4.458,12.464,5.805,18.45c1.45,5.951,2.312,11.674,2.856,16.945
				c1.025,10.577,0.502,19.417-0.375,25.521C1021.008,1027.401,1019.816,1030.789,1019.816,1030.789"/>
			<path fill="#689E00" d="M1019.184,1032.951c0,0-0.558-3.545-0.275-9.705c0.242-6.165,1.324-14.95,4.252-25.165
				c1.489-5.091,3.367-10.562,5.867-16.153c2.406-5.642,5.503-11.356,9.047-17.098c1.842-2.825,3.701-5.717,5.822-8.483
				c1.065-1.379,2.08-2.816,3.205-4.178c1.145-1.35,2.291-2.708,3.442-4.067c1.126-1.388,2.385-2.665,3.629-3.968
				c1.243-1.304,2.493-2.612,3.776-3.886c2.682-2.442,5.294-4.986,8.15-7.255c2.859-2.266,5.677-4.584,8.724-6.565
				c1.495-1.031,2.987-2.064,4.497-3.049c1.557-0.917,3.108-1.832,4.655-2.741c1.562-0.871,3.062-1.836,4.669-2.604
				c1.594-0.777,3.18-1.551,4.752-2.317c3.127-1.583,6.379-2.773,9.533-4.01c3.133-1.297,6.354-2.175,9.459-3.11
				c3.093-0.989,6.197-1.649,9.217-2.251c1.506-0.298,2.991-0.594,4.447-0.886c1.465-0.26,2.92-0.443,4.355-0.607
				c2.873-0.296,5.598-0.72,8.253-0.856c5.335-0.149,10.139-0.416,14.436-0.002c4.29,0.333,7.966,0.553,11.011,1.184
				c6.067,1.055,9.446,2.006,9.446,2.006s-3.264,1.56-8.833,3.686c-2.797,0.987-6.104,2.527-9.873,3.992
				c-0.94,0.393-1.91,0.756-2.91,1.132c-0.99,0.382-1.99,0.875-3.024,1.321c-2.057,0.921-4.225,1.794-6.46,2.75
				c-2.221,0.973-4.496,2.073-6.841,3.154c-1.161,0.572-2.383,1.023-3.571,1.618c-1.18,0.604-2.376,1.215-3.585,1.834
				c-1.212,0.631-2.444,1.217-3.681,1.824c-1.25,0.586-2.447,1.334-3.691,1.986c-2.451,1.385-5.023,2.61-7.476,4.168
				c-2.472,1.511-5.061,2.863-7.499,4.547c-2.484,1.596-5.024,3.139-7.442,4.916c-1.237,0.847-2.474,1.69-3.717,2.542
				c-1.202,0.906-2.407,1.817-3.612,2.727c-2.459,1.757-4.781,3.705-7.146,5.606c-1.211,0.909-2.348,1.921-3.479,2.929l-3.453,2.956
				c-2.172,2.116-4.495,4.055-6.605,6.197c-2.144,2.113-4.307,4.184-6.314,6.37c-2.114,2.091-4.026,4.326-6.018,6.455
				c-3.849,4.355-7.556,8.674-10.93,12.947c-3.432,4.24-6.539,8.416-9.415,12.338c-2.89,3.923-5.439,7.638-7.749,10.972
				c-2.26,3.344-4.27,6.318-5.889,8.809C1021.072,1029.936,1019.184,1032.951,1019.184,1032.951"/>
		</g>
		<g>
			<path fill="#5F9904" d="M999.778,1384.119c26.696-80.337,7.63-310.469-222.325-349.43
				c-106.923-18.115-173.554,39.992-184.764,93.598c-12.573,60.131,17.973,118.721,67.922,138.837
				C784.965,1317.207,874.05,1218.866,999.778,1384.119"/>
			<path fill="#5F9904" d="M993.48,1389.817c-21.873-81.782,10.844-310.373,242.71-335.593
				c107.812-11.725,170.867,50.24,178.87,104.418c8.978,60.773-25,117.444-76.056,134.554
				C1211.891,1335.795,1128.812,1232.334,993.48,1389.817"/>
			<polygon fill="#5F9904" points="1025.561,1510.967 972.922,1512.143 980.138,1324.4 1013.839,1325.814 			"/>
			<path fill="#3F8002" d="M997.471,1358.01c0,0-0.072-1.182-0.015-3.381c0.053-2.205,0.219-5.434,0.73-9.506
				c0.962-8.156,3.241-19.732,7.984-33.098c2.399-6.659,5.328-13.799,9.062-21.07c3.614-7.343,8.119-14.748,13.2-22.166
				c2.622-3.65,5.276-7.391,8.26-10.951c1.493-1.775,2.925-3.631,4.499-5.379c1.592-1.732,3.189-3.478,4.8-5.228
				c1.571-1.787,3.31-3.425,5.034-5.091c1.72-1.671,3.45-3.344,5.219-4.983c3.686-3.11,7.275-6.38,11.178-9.264
				c3.9-2.885,7.746-5.847,11.882-8.361c2.034-1.306,4.056-2.617,6.102-3.874c2.104-1.162,4.204-2.318,6.292-3.473
				c2.118-1.097,4.148-2.335,6.308-3.295c2.144-0.981,4.284-1.957,6.407-2.926c4.207-2.01,8.577-3.494,12.809-5.053
				c4.207-1.643,8.52-2.73,12.678-3.906c4.138-1.25,8.29-2.062,12.325-2.812c2.013-0.375,3.995-0.747,5.949-1.111
				c1.956-0.33,3.902-0.543,5.813-0.75c3.832-0.365,7.482-0.893,11.023-1.062c7.114-0.159,13.537-0.517,19.268,0.022
				c5.719,0.424,10.635,0.675,14.692,1.472c8.097,1.318,12.616,2.452,12.616,2.452s-4.482,1.657-12.146,3.891
				c-3.841,1.015-8.416,2.729-13.623,4.321c-1.303,0.425-2.643,0.822-4.023,1.233c-1.375,0.418-2.763,0.982-4.196,1.487
				c-2.858,1.038-5.864,2.028-8.972,3.106c-3.096,1.111-6.264,2.412-9.54,3.668c-1.626,0.672-3.323,1.191-4.985,1.9
				c-1.648,0.722-3.326,1.457-5.027,2.196c-1.695,0.722-3.416,1.452-5.155,2.19c-1.745,0.699-3.429,1.629-5.178,2.424
				c-3.451,1.704-7.059,3.195-10.517,5.154c-3.482,1.894-7.121,3.578-10.569,5.728c-3.507,2.028-7.092,3.995-10.512,6.292
				c-1.741,1.088-3.489,2.184-5.244,3.282c-1.699,1.181-3.403,2.365-5.109,3.552c-3.468,2.286-6.758,4.852-10.091,7.354
				c-1.709,1.197-3.311,2.536-4.916,3.869l-4.864,3.92c-3.065,2.812-6.329,5.398-9.301,8.265c-3.012,2.825-6.042,5.599-8.86,8.535
				c-2.951,2.808-5.633,5.818-8.399,8.685c-5.368,5.875-10.496,11.708-15.14,17.49c-4.711,5.73-8.958,11.393-12.854,16.701
				c-3.912,5.309-7.345,10.344-10.423,14.848c-3.018,4.533-5.669,8.55-7.789,11.92c-2.135,3.365-3.806,6.057-4.939,7.912
				C998.077,1357.012,997.471,1358.01,997.471,1358.01"/>
			<path fill="#3F8002" d="M998.251,1358.266c0,0-0.469-1.066-1.348-3.071c-0.879-1.987-2.185-4.875-3.859-8.491
				c-1.662-3.618-3.766-7.948-6.159-12.837c-2.466-4.87-5.206-10.308-8.388-16.083c-3.167-5.778-6.633-11.946-10.556-18.244
				c-3.844-6.343-8.164-12.797-12.717-19.324c-2.366-3.205-4.63-6.541-7.188-9.71c-2.41-3.28-5.048-6.431-7.666-9.625
				c-2.571-3.232-5.465-6.22-8.139-9.41l-4.309-4.524c-1.417-1.53-2.827-3.069-4.364-4.48c-2.979-2.916-5.901-5.893-9.042-8.611
				c-1.534-1.401-3.069-2.798-4.597-4.192c-1.595-1.317-3.188-2.632-4.767-3.94c-3.094-2.728-6.388-5.145-9.598-7.615
				c-3.136-2.584-6.522-4.73-9.731-7.062c-3.17-2.396-6.553-4.349-9.749-6.486c-1.629-1.021-3.174-2.162-4.813-3.086
				c-1.63-0.96-3.237-1.908-4.828-2.846c-1.585-0.959-3.152-1.902-4.694-2.834c-1.556-0.923-3.167-1.659-4.691-2.54
				c-3.085-1.671-6.057-3.376-8.98-4.885c-2.937-1.478-5.789-2.853-8.487-4.256c-1.353-0.688-2.657-1.428-3.964-2.024
				c-1.313-0.589-2.593-1.156-3.825-1.752c-4.955-2.262-9.263-4.561-12.941-6.068c-7.304-3.219-11.533-5.451-11.533-5.451
				s4.632-0.527,12.829-0.775c4.126-0.259,9.033,0.139,14.759,0.465c5.757,0.22,12.073,1.414,19.106,2.506
				c3.49,0.63,7.037,1.631,10.787,2.494c1.868,0.457,3.769,0.925,5.667,1.508c1.89,0.617,3.807,1.246,5.751,1.88
				c3.899,1.274,7.911,2.623,11.852,4.405c3.97,1.709,8.103,3.354,12.055,5.533c3.993,2.1,8.131,4.144,12.039,6.688
				c1.977,1.241,3.968,2.488,5.967,3.74c2.014,1.237,3.865,2.727,5.818,4.096c1.922,1.416,3.85,2.839,5.784,4.264
				c1.862,1.518,3.697,3.08,5.54,4.644c3.77,3.034,7.196,6.474,10.684,9.845c3.491,3.371,6.621,7.082,9.869,10.649
				c1.538,1.855,3.031,3.745,4.521,5.625c1.489,1.877,3,3.728,4.324,5.705c1.363,1.947,2.721,3.886,4.072,5.812
				c1.334,1.938,2.509,3.967,3.756,5.926c2.493,3.92,4.632,7.974,6.757,11.938c4.061,8.02,7.556,15.95,10.18,23.705
				c2.747,7.695,4.714,15.157,6.221,22.076c2.951,13.868,3.69,25.645,3.575,33.856c-0.024,4.103-0.284,7.329-0.521,9.521
				C998.48,1357.106,998.251,1358.266,998.251,1358.266"/>
		</g>
	</g>
</g>
</svg>
