<?xml version="1.0" encoding="utf-8"?>
<!-- Generator: Adobe Illustrator 16.0.4, SVG Export Plug-In . SVG Version: 6.00 Build 0)  -->
<!DOCTYPE svg PUBLIC "-//W3C//DTD SVG 1.1//EN" "http://www.w3.org/Graphics/SVG/1.1/DTD/svg11.dtd">
<svg version="1.1" id="Layer_1" xmlns="http://www.w3.org/2000/svg" xmlns:xlink="http://www.w3.org/1999/xlink" x="0px" y="0px"
	 width="2000px" height="2000px" viewBox="0 0 2000 2000" enable-background="new 0 0 2000 2000" xml:space="preserve">
<g id="Layer_bg">
	<polyline fill="#50AA8D" points="0,0 2000,0 2000,2003 0,2003 	"/>
	<g>
		<circle id="circle" fill="#F2DEDE" cx="748.359" cy="748.358" r="748.084"/>
		<circle id="circle_1_" display="none" fill="#DFF0D9" cx="750.359" cy="749.358" r="748.084"/>
		<circle id="circle_2_" display="none" fill="#FFF8B3" cx="750.359" cy="748.358" r="748.084"/>
		<g id="ground">
			<path fill="#754C24" d="M748.358,1497.806c274.729,0,514.862-147.806,644.94-368.806H103.418
				C233.495,1350,473.63,1497.806,748.358,1497.806z"/>
		</g>
		<ellipse id="ground-up" fill="#8C6239" cx="748.359" cy="1128.745" rx="644.94" ry="54.716"/>
	</g>
	<g display="none">
		<path display="inline" fill="#663300" d="M1223.664,474.754c28.281-23.023,76.654-13.575,123.27,19.532
			c-7.559-35.896-20.384-72.071-41.958-98.577c-61.977-76.125-127.107-80.738-172.644-43.67
			c-45.535,37.07-54.229,101.783,7.744,177.91c17.983,22.091,43.776,39.587,71.332,53.303
			C1195.248,537.12,1198.316,495.386,1223.664,474.754z"/>
		<path display="inline" fill="#C56D27" d="M1346.934,494.286c-46.614-33.107-94.987-42.556-123.27-19.532
			c-25.348,20.632-28.416,62.366-12.256,108.497c67.406,33.56,145.354,44.474,145.354,44.474S1361.085,561.49,1346.934,494.286z"/>
	</g>
	<g display="none">
		<g display="inline">
			<path fill="#7DBF00" d="M1264.966,742.085c-15.951-49.206-3.274-189.727,137.401-212.502
				c65.414-10.589,105.861,25.212,112.473,58.018c7.411,36.794-11.518,72.454-42.125,84.522
				C1396.512,702.166,1342.52,641.68,1264.966,742.085"/>
			<path fill="#7DBF00" d="M1267.948,740.392c22.584-46.533,29.405-187.46-106.785-229.418
				c-63.323-19.512-108.326,10.371-119.396,41.948c-12.42,35.422,1.409,73.354,30.063,89.526
				C1143.161,682.713,1204.979,630.252,1267.948,740.392"/>
			<polygon fill="#7DBF00" points="1232.424,942.856 1264.543,944.636 1275.166,725.357 1261.205,724.838 			"/>
			<path fill="#689E00" d="M1267.365,725.119c0,0-1.083-2.729-2.992-7.257c-0.943-2.265-2.13-4.977-3.467-8.031
				c-1.379-3.05-2.894-6.443-4.654-10.057c-1.75-3.614-3.646-7.473-5.799-11.423c-2.104-3.974-4.465-8.028-6.938-12.145
				c-1.3-2.022-2.519-4.123-3.925-6.137c-1.304-2.074-2.751-4.078-4.176-6.111c-1.396-2.057-2.989-3.979-4.438-6.018l-2.354-2.921
				c-0.777-0.981-1.544-1.975-2.393-2.892c-1.635-1.896-3.231-3.827-4.965-5.62c-0.844-0.918-1.684-1.835-2.521-2.753
				c-0.884-0.872-1.764-1.745-2.639-2.617c-1.694-1.8-3.529-3.434-5.312-5.1c-1.724-1.73-3.627-3.214-5.404-4.811
				c-1.758-1.633-3.666-3.01-5.448-4.5c-0.913-0.717-1.771-1.503-2.695-2.164c-0.92-0.675-1.833-1.339-2.717-2.03
				c-0.894-0.682-1.771-1.356-2.642-2.021c-0.876-0.66-1.799-1.208-2.653-1.848c-1.748-1.229-3.424-2.459-5.087-3.583
				c-1.672-1.107-3.297-2.139-4.832-3.193c-0.771-0.519-1.508-1.067-2.26-1.525c-0.75-0.455-1.487-0.896-2.189-1.354
				c-2.841-1.752-5.296-3.495-7.417-4.716c-4.202-2.555-6.625-4.31-6.625-4.31s2.888-0.267,7.971-0.218
				c2.563-0.06,5.584,0.312,9.113,0.682c3.552,0.309,7.41,1.239,11.719,2.157c2.137,0.509,4.287,1.259,6.572,1.926
				c1.141,0.348,2.294,0.713,3.442,1.144c1.146,0.458,2.304,0.917,3.479,1.384c2.36,0.938,4.786,1.939,7.145,3.2
				c2.382,1.224,4.867,2.417,7.214,3.938c2.375,1.471,4.843,2.928,7.141,4.677c1.165,0.86,2.337,1.722,3.515,2.591
				c1.188,0.861,2.259,1.871,3.401,2.813c1.121,0.967,2.243,1.939,3.368,2.917c1.081,1.025,2.134,2.088,3.197,3.145
				c2.181,2.065,4.117,4.367,6.1,6.633c1.979,2.268,3.724,4.722,5.533,7.104c0.849,1.229,1.672,2.475,2.482,3.719
				c0.818,1.243,1.65,2.468,2.357,3.763c0.729,1.276,1.459,2.551,2.186,3.817c0.711,1.272,1.32,2.591,1.978,3.87
				c1.309,2.562,2.391,5.188,3.459,7.757c2.023,5.189,3.68,10.287,4.791,15.228c1.196,4.912,1.909,9.636,2.356,13.985
				c0.848,8.729,0.414,16.025-0.309,21.064C1268.348,722.323,1267.365,725.119,1267.365,725.119"/>
			<path fill="#689E00" d="M1266.842,726.903c0,0-0.46-2.927-0.227-8.011c0.199-5.088,1.093-12.339,3.51-20.77
				c1.229-4.202,2.779-8.718,4.842-13.333c1.986-4.657,4.542-9.373,7.467-14.112c1.521-2.332,3.056-4.718,4.807-7.001
				c0.88-1.138,1.716-2.325,2.646-3.448c0.944-1.113,1.892-2.234,2.841-3.356c0.931-1.146,1.969-2.199,2.995-3.274
				c1.026-1.076,2.059-2.155,3.117-3.207c2.213-2.016,4.369-4.115,6.728-5.987c2.359-1.87,4.686-3.784,7.199-5.419
				c1.233-0.852,2.467-1.703,3.713-2.517c1.283-0.756,2.563-1.512,3.842-2.262c1.289-0.719,2.526-1.516,3.854-2.149
				c1.315-0.642,2.625-1.279,3.922-1.912c2.581-1.307,5.267-2.289,7.869-3.311c2.585-1.07,5.243-1.795,7.808-2.567
				c2.553-0.815,5.114-1.36,7.606-1.856c1.242-0.247,2.469-0.491,3.67-0.731c1.209-0.215,2.41-0.366,3.596-0.501
				c2.371-0.244,4.619-0.594,6.812-0.707c4.403-0.123,8.368-0.343,11.915-0.001c3.54,0.275,6.574,0.456,9.087,0.979
				c5.009,0.871,7.797,1.655,7.797,1.655s-2.692,1.288-7.29,3.042c-2.309,0.814-5.037,2.085-8.148,3.294
				c-0.775,0.323-1.576,0.624-2.402,0.935c-0.816,0.315-1.642,0.722-2.495,1.091c-1.698,0.761-3.487,1.481-5.332,2.27
				c-1.833,0.803-3.711,1.711-5.646,2.604c-0.959,0.473-1.967,0.844-2.948,1.335c-0.974,0.499-1.961,1.003-2.958,1.515
				c-1.001,0.521-2.018,1.005-3.039,1.506c-1.031,0.482-2.02,1.101-3.046,1.639c-2.022,1.143-4.146,2.154-6.171,3.44
				c-2.039,1.247-4.176,2.362-6.188,3.753c-2.051,1.315-4.146,2.59-6.144,4.057c-1.021,0.699-2.041,1.396-3.066,2.098
				c-0.992,0.748-1.986,1.5-2.981,2.25c-2.029,1.45-3.945,3.059-5.898,4.626c-0.999,0.751-1.938,1.587-2.871,2.417l-2.85,2.44
				c-1.792,1.746-3.71,3.346-5.451,5.115c-1.771,1.744-3.555,3.453-5.212,5.258c-1.745,1.726-3.323,3.571-4.967,5.327
				c-3.178,3.595-6.235,7.159-9.021,10.687c-2.832,3.5-5.396,6.946-7.771,10.184c-2.386,3.237-4.488,6.304-6.396,9.055
				c-1.864,2.76-3.522,5.215-4.86,7.271C1268.401,724.414,1266.842,726.903,1266.842,726.903"/>
		</g>
		<g display="inline">
			<path fill="#5F9904" d="M1250.826,1016.741c22.033-66.308,6.297-256.247-183.497-288.403
				c-88.249-14.951-143.243,33.008-152.495,77.251c-10.377,49.63,14.834,97.987,56.06,114.59
				C1073.529,961.515,1147.056,880.349,1250.826,1016.741"/>
			<path fill="#5F9904" d="M1245.629,1021.444c-18.054-67.5,8.949-256.167,200.32-276.982
				c88.982-9.678,141.024,41.465,147.632,86.181c7.409,50.16-20.635,96.934-62.773,111.056
				C1425.895,976.856,1357.324,891.465,1245.629,1021.444"/>
			<polygon fill="#5F9904" points="1272.105,1121.436 1228.66,1122.405 1234.616,967.452 1262.432,968.619 			"/>
			<path fill="#3F8002" d="M1248.922,995.191c0,0-0.059-0.977-0.012-2.79c0.043-1.82,0.18-4.485,0.602-7.847
				c0.795-6.73,2.677-16.286,6.59-27.316c1.98-5.496,4.398-11.39,7.479-17.391c2.983-6.061,6.701-12.172,10.896-18.295
				c2.164-3.013,4.354-6.1,6.816-9.039c1.232-1.465,2.414-2.997,3.713-4.438c1.314-1.431,2.633-2.87,3.962-4.314
				c1.298-1.475,2.731-2.827,4.155-4.202c1.419-1.379,2.848-2.76,4.307-4.112c3.043-2.567,6.006-5.266,9.228-7.646
				c3.219-2.381,6.393-4.826,9.807-6.901c1.679-1.077,3.349-2.16,5.035-3.197c1.737-0.959,3.472-1.914,5.193-2.866
				c1.748-0.905,3.424-1.927,5.206-2.72c1.77-0.811,3.536-1.615,5.288-2.415c3.473-1.659,7.08-2.884,10.571-4.17
				c3.473-1.355,7.031-2.253,10.464-3.225c3.416-1.03,6.843-1.7,10.173-2.32c1.661-0.311,3.298-0.616,4.911-0.917
				c1.612-0.272,3.22-0.448,4.797-0.619c3.163-0.303,6.176-0.737,9.099-0.876c5.872-0.131,11.173-0.427,15.902,0.019
				c4.72,0.351,8.777,0.558,12.126,1.215c6.684,1.088,10.414,2.023,10.414,2.023s-3.7,1.368-10.025,3.211
				c-3.17,0.837-6.946,2.252-11.244,3.566c-1.075,0.351-2.181,0.679-3.319,1.018c-1.136,0.345-2.28,0.811-3.465,1.229
				c-2.358,0.855-4.84,1.673-7.404,2.562c-2.556,0.917-5.17,1.991-7.873,3.027c-1.343,0.555-2.743,0.982-4.115,1.567
				c-1.36,0.597-2.745,1.203-4.148,1.812c-1.399,0.596-2.819,1.198-4.256,1.808c-1.439,0.577-2.83,1.344-4.272,2
				c-2.849,1.407-5.825,2.638-8.681,4.254c-2.874,1.562-5.877,2.953-8.723,4.728c-2.896,1.674-5.854,3.297-8.677,5.192
				c-1.438,0.897-2.88,1.803-4.328,2.708c-1.402,0.976-2.811,1.953-4.217,2.933c-2.862,1.887-5.578,4.004-8.329,6.068
				c-1.41,0.988-2.732,2.094-4.058,3.193l-4.016,3.235c-2.529,2.32-5.223,4.456-7.676,6.82c-2.486,2.332-4.987,4.621-7.312,7.044
				c-2.436,2.317-4.648,4.803-6.934,7.168c-4.431,4.85-8.662,9.663-12.495,14.437c-3.888,4.729-7.395,9.403-10.608,13.784
				c-3.229,4.382-6.062,8.538-8.603,12.255c-2.491,3.741-4.679,7.057-6.429,9.838c-1.763,2.776-3.142,4.999-4.077,6.53
				C1249.422,994.368,1248.922,995.191,1248.922,995.191"/>
			<path fill="#3F8002" d="M1249.566,995.403c0,0-0.389-0.88-1.113-2.535c-0.725-1.64-1.803-4.024-3.186-7.008
				c-1.371-2.986-3.107-6.561-5.083-10.596c-2.034-4.019-4.297-8.507-6.924-13.273c-2.612-4.77-5.475-9.86-8.712-15.058
				c-3.173-5.235-6.737-10.562-10.496-15.949c-1.952-2.646-3.82-5.399-5.932-8.015c-1.989-2.708-4.167-5.308-6.327-7.943
				c-2.122-2.667-4.51-5.133-6.718-7.768l-3.557-3.733c-1.17-1.264-2.334-2.534-3.602-3.698c-2.459-2.407-4.871-4.863-7.463-7.107
				c-1.268-1.156-2.533-2.31-3.795-3.46c-1.316-1.088-2.631-2.172-3.935-3.253c-2.555-2.25-5.272-4.246-7.922-6.284
				c-2.588-2.134-5.383-3.904-8.031-5.829c-2.616-1.979-5.409-3.589-8.047-5.354c-1.345-0.843-2.619-1.785-3.973-2.547
				c-1.346-0.792-2.672-1.575-3.984-2.349c-1.309-0.791-2.602-1.57-3.875-2.339c-1.284-0.763-2.612-1.37-3.872-2.098
				c-2.546-1.379-4.999-2.786-7.41-4.031c-2.426-1.22-4.778-2.354-7.006-3.513c-1.116-0.567-2.192-1.179-3.271-1.671
				c-1.085-0.486-2.142-0.954-3.157-1.446c-4.09-1.866-7.646-3.764-10.682-5.008c-6.028-2.656-9.52-4.499-9.52-4.499
				s3.823-0.435,10.589-0.64c3.404-0.213,7.455,0.114,12.182,0.384c4.752,0.181,9.965,1.167,15.77,2.068
				c2.88,0.52,5.809,1.346,8.903,2.059c1.541,0.377,3.109,0.763,4.677,1.245c1.561,0.509,3.142,1.028,4.747,1.551
				c3.217,1.052,6.529,2.165,9.781,3.636c3.276,1.41,6.688,2.768,9.949,4.566c3.297,1.732,6.712,3.42,9.938,5.52
				c1.631,1.024,3.273,2.055,4.925,3.088c1.661,1.021,3.189,2.25,4.802,3.381c1.587,1.168,3.179,2.343,4.773,3.519
				c1.537,1.253,3.052,2.542,4.572,3.833c3.111,2.504,5.939,5.343,8.817,8.125c2.884,2.783,5.466,5.845,8.146,8.79
				c1.269,1.531,2.501,3.091,3.729,4.643c1.229,1.55,2.477,3.077,3.568,4.709c1.125,1.607,2.246,3.207,3.361,4.798
				c1.102,1.6,2.069,3.272,3.1,4.89c2.058,3.236,3.823,6.581,5.576,9.853c3.352,6.62,6.237,13.165,8.402,19.565
				c2.268,6.352,3.891,12.511,5.135,18.221c2.435,11.446,3.046,21.166,2.949,27.944c-0.021,3.386-0.234,6.049-0.43,7.858
				C1249.755,994.446,1249.566,995.403,1249.566,995.403"/>
		</g>
	</g>
	<g>
		<g>
			<path fill="#84B03B" d="M729.706,554.02l0.984-17.065c-0.618,5.215-1.038,10.498-1.038,15.945
				C729.652,553.284,729.706,553.645,729.706,554.02z"/>
			<polygon fill="#C56D27" points="906.752,574.688 783.509,635.689 744.157,304.07 733.221,493.179 730.69,536.954 729.706,554.02 
				726.318,612.619 717.172,770.749 593.027,718.448 691.75,851.498 706.391,871.234 695.568,1129 792.738,1129 789.552,851.498 
				788.909,736.163 			"/>
		</g>
		<polygon opacity="0.2" fill="#FFFFFF" enable-background="new    " points="746.185,304.07 744.297,1129 794.765,1129 
			788.909,736.163 906.752,574.688 783.509,635.689 		"/>
	</g>
	<path fill="#FFFFFF" d="M1246,1614"/>
</g>
<g id="Layer_1_1_">
	<g>
		<path fill="#FFFFFF" d="M1844.528,1281.704c0,74.712-60.563,135.274-135.27,135.274c-74.711,0-135.278-60.562-135.278-135.274
			c0-74.705,60.567-135.27,135.278-135.27C1783.965,1146.436,1844.528,1206.999,1844.528,1281.704z"/>
		<path fill="#FFFFFF" d="M1779.176,1416.979c0,0-93.313,48.484-177.793-1.36l6.83,323.714h191.076l-12.072-322.354H1779.176z"/>
		<path fill="#FFFFFF" d="M1673.248,1967.778c0,17.802-14.418,32.222-32.22,32.222l0,0c-17.799,0-32.224-14.42-32.224-32.222
			v-240.731c0-17.788,14.424-32.21,32.224-32.21l0,0c17.802,0,32.22,14.422,32.22,32.21V1967.778z"/>
		<path fill="#FFFFFF" d="M1894.105,1946.826c6.687,16.486-1.253,35.282-17.738,41.969l0,0
			c-16.495,6.694-35.279-1.244-41.978-17.738L1743.855,1748c-6.694-16.495,1.25-35.28,17.739-41.967l0,0
			c16.491-6.707,35.281,1.244,41.978,17.729L1894.105,1946.826z"/>
		<path fill="#FFFFFF" d="M1803.671,1480.459c-13.655,11.406-33.972,9.582-45.378-4.083l0,0
			c-11.41-13.646-9.582-33.972,4.066-45.384l184.767-154.315c13.66-11.423,33.972-9.594,45.376,4.071l0,0
			c11.412,13.65,9.594,33.977-4.067,45.389L1803.671,1480.459z"/>
		<path fill="#FFFFFF" d="M1621.309,1442.383c0,16.682-16.358,30.213-36.54,30.213h-62.46c-20.18,0-36.535-13.531-36.535-30.213l0,0
			c0-16.679,16.355-30.199,36.535-30.199h62.46C1604.949,1412.183,1621.309,1425.704,1621.309,1442.383L1621.309,1442.383z"/>
		<g>
			<g>
				<path fill="#004059" d="M1711.199,1486.241c6.502,0,10.827-4.54,11.781-10.907l3.276-26.141c0-6.019-5.28-10.901-11.787-10.901
					h-28.26c-6.513,0-11.786,4.884-11.786,10.901l3.271,26.141c0.821,7.117,5.279,10.907,11.785,10.907
					c4.997,0,6.093-1.521,11.546-1.521C1706.892,1484.722,1707.862,1486.241,1711.199,1486.241"/>
				<polygon fill="#004059" points="1725.523,1558.087 1670.312,1587.3 1668.771,1596.554 1726.819,1565.842 				"/>
				<polygon fill="#004059" points="1720.034,1525.123 1676.864,1547.96 1671.148,1582.268 1724.818,1553.871 				"/>
				<polygon fill="#004059" points="1677.707,1542.927 1719.325,1520.906 1718.154,1513.891 1679.104,1534.551 				"/>
				<path fill="#004059" d="M1665.104,1634.835l6.287,7.478l62.647-33.146l-5.819-34.893l-61.133,32.347l-1.982,11.925
					C1664.611,1620.979,1660.955,1630.335,1665.104,1634.835"/>
				<path fill="#004059" d="M1683.85,1657.123l11.944,14.203c4.147,4.49,4.971,4.49,9.121,0l30.688-36.491
					c1.516-1.645,1.974-3.842,1.928-6.112L1683.85,1657.123z"/>
				<path fill="#004059" d="M1716.752,1505.458l-2.162-12.982c-4.148-4.499-24.328-4.499-28.477,0l-5.336,32.017L1716.752,1505.458z
					"/>
				<path fill="#004059" d="M1735.604,1618.546l-0.164-0.946l-58.709,31.061l4.441,5.288l55.809-29.526
					C1736.467,1622.007,1735.759,1619.84,1735.604,1618.546"/>
			</g>
		</g>
	</g>
	<g display="none">
		<path display="inline" fill="#FFFFFF" stroke="#666666" stroke-width="12" stroke-miterlimit="10" d="M891.608,1240.472
			c-12.197-12.944-11.591-33.334,1.352-45.527l59.891-56.427c12.95-12.202,33.335-11.594,45.533,1.354l131.877,139.967
			c12.198,12.948,11.597,33.331-1.357,45.531l-59.892,56.428c-12.94,12.195-33.33,11.592-45.524-1.354L891.608,1240.472z"/>
		<path display="inline" fill="#004059" d="M1033.131,1366.362c-5.367-5.698-5.1-14.669,0.59-20.028
			c5.693-5.365,14.665-5.097,20.03,0.6c5.367,5.693,5.098,14.663-0.595,20.029
			C1047.467,1372.321,1038.494,1372.055,1033.131,1366.362z"/>
	</g>
	<g>
		<path fill="#FFFFFF" d="M1491.99,1424.464c0,0-81.126,48.004-160.375,0v310.479h179.247l-11.327-310.479H1491.99z"/>
		<path fill="#FFFFFF" d="M1395.764,1962.341c0,17.718-14.354,32.071-32.071,32.071l0,0c-17.719,0-32.076-14.354-32.076-32.071
			v-239.624c0-17.714,14.357-32.072,32.076-32.072l0,0c17.719,0,32.071,14.358,32.071,32.072V1962.341z"/>
		<path fill="#FFFFFF" d="M1510.862,1962.341c0,17.718-14.364,32.071-32.078,32.071l0,0c-17.715,0-32.075-14.354-32.075-32.071
			v-239.624c0-17.714,14.36-32.072,32.075-32.072l0,0c17.714,0,32.078,14.358,32.078,32.072V1962.341z"/>
		<path fill="#FFFFFF" d="M1527.324,1301.682c0,72.659-58.9,131.56-131.558,131.56c-72.661,0-131.56-58.899-131.56-131.56
			c0-72.657,58.896-131.559,131.561-131.559C1468.424,1170.123,1527.324,1229.023,1527.324,1301.682z"/>
		<path fill="#FFFFFF" d="M1492.614,1424.262c0,0,26.12-23.926,33.462,45.096l27.424,182.66c0,0,3.374,59.883-52.001,57.029
			L1492.614,1424.262z"/>
		<g>
			<path fill="#FF7B70" d="M1476.045,1493.987c-0.137,9.032-0.312,18.219-1.717,27.147c-5.24,33.229-46.738-11.008-59.641-15.769
				c-16.413-6.057-29.267,1.606-41.795,11.054c-8.436,6.371-21.591,18.323-33.103,17.334c-6.411-0.557-8.974-6.911-9.869-12.619
				c-1.416-8.93-1.589-18.115-1.729-27.147c-0.11-7.017-2.729-47.412,9.567-47.741c19.953-0.539,31.016,26.928,51.076,28.422
				c1.252,0.1,2.54,0.105,3.839,0.084c7.476-0.099,15.325,0.455,22.738-0.084c20.049-1.494,31.12-28.961,51.063-28.422
				C1478.78,1446.575,1476.158,1486.972,1476.045,1493.987"/>
			<g>
				<path fill="#FFFFFF" d="M1471.153,1529.675c0.839-1.114,1.546-2.515,2.115-4.212
					C1472.104,1526.537,1471.338,1528.016,1471.153,1529.675z"/>
				<path fill="#FFFFFF" d="M1471.082,1485.323c0,3.13,2.139,5.739,5.026,6.51c0.097-2.964,0.27-7.731,0.237-13.098
					C1473.33,1479.416,1471.082,1482.104,1471.082,1485.323z"/>
				<path fill="#FFFFFF" d="M1439.511,1485.323c0-3.738-3.024-6.768-6.764-6.768c-3.735,0-6.762,3.028-6.762,6.768
					c0,3.732,3.025,6.764,6.762,6.764C1436.485,1492.087,1439.511,1489.057,1439.511,1485.323z"/>
				<path fill="#FFFFFF" d="M1410.198,1501.105c-1.973,0-3.727,0.854-4.963,2.197c3.03,0.211,6.17,0.849,9.452,2.063
					c0.623,0.229,1.341,0.576,2.086,0.98C1416.084,1503.347,1413.408,1501.105,1410.198,1501.105z"/>
				<path fill="#FFFFFF" d="M1455.297,1514.633c3.73,0,6.762-3.026,6.762-6.762c0-3.736-3.03-6.766-6.762-6.766
					c-3.74,0-6.769,3.028-6.769,6.766C1448.528,1511.605,1451.557,1514.633,1455.297,1514.633z"/>
				<path fill="#FFFFFF" d="M1448.672,1461.409c-0.093,0.442-0.144,0.896-0.144,1.364c0,0.469,0.051,0.923,0.144,1.365
					c0.622,3.082,3.353,5.4,6.625,5.4c3.261,0,5.991-2.318,6.625-5.4c0.092-0.442,0.137-0.896,0.137-1.365
					c0-0.468-0.045-0.922-0.137-1.364c-0.634-3.083-3.364-5.401-6.625-5.401C1452.023,1456.008,1449.294,1458.326,1448.672,1461.409
					z"/>
				<path fill="#FFFFFF" d="M1380.888,1485.323c0,3.732,3.026,6.764,6.767,6.764c3.732,0,6.76-3.03,6.76-6.764
					c0-3.738-3.026-6.768-6.76-6.768C1383.914,1478.557,1380.888,1481.585,1380.888,1485.323z"/>
				<path fill="#FFFFFF" d="M1342.555,1478.557c-3.737,0-6.764,3.028-6.764,6.768c0,3.732,3.025,6.764,6.764,6.764
					c3.734,0,6.767-3.03,6.767-6.764C1349.32,1481.585,1346.289,1478.557,1342.555,1478.557z"/>
				<path fill="#FFFFFF" d="M1339.745,1446.362c0.858,0.396,1.805,0.628,2.81,0.628c0.276,0,0.539-0.049,0.808-0.083
					C1342.189,1446.625,1340.982,1446.448,1339.745,1446.362z"/>
				<path fill="#FFFFFF" d="M1358.341,1507.871c0,3.734,3.026,6.762,6.762,6.762c3.731,0,6.77-3.027,6.77-6.762
					c0-3.736-3.037-6.766-6.77-6.766C1361.367,1501.105,1358.341,1504.135,1358.341,1507.871z"/>
				<path fill="#FFFFFF" d="M1358.479,1461.409c-0.094,0.442-0.138,0.896-0.138,1.364c0,0.469,0.044,0.923,0.138,1.365
					c0.631,3.082,3.356,5.4,6.625,5.4c2.443,0,4.567-1.312,5.757-3.254c-3.41-2.746-6.694-5.812-10.011-8.732
					C1359.663,1458.521,1358.794,1459.854,1358.479,1461.409z"/>
				<path fill="#FFFFFF" d="M1339.791,1533.755c3.014,0.262,6.139-0.382,9.266-1.567c0.153-0.565,0.265-1.154,0.265-1.773
					c0-3.73-3.031-6.76-6.767-6.76c-3.737,0-6.764,3.028-6.764,6.76c0,0.772,0.156,1.503,0.395,2.191
					C1337.233,1533.203,1338.406,1533.635,1339.791,1533.755z"/>
			</g>
		</g>
		<g>
			<path fill="#FF7B70" d="M1309.369,1301.684c3.497,0.022,23.945,1.307,34.246,8.814c1.303,0.949,3.694,0.474,5.593,0.513
				c9.635,0.188,19.271,0.376,28.909,0.458c2.105,0.016,4.581,0.238,6.268-0.717c17.083-9.633,35.242-6.387,53.112-4.229
				c11.687,1.408,23.126,4.691,34.771,6.631c5.472,0.911,9.355,3.136,9.908,8.724c0.51,5.188-2.454,8.614-7.424,10.219
				c-5.897,1.908-8.086,6.358-8.474,12.153c-0.393,5.775-0.605,11.587-1.442,17.302c-2.2,15.057-10.338,25.704-25.375,29.032
				c-8.56,1.893-17.853,2.642-26.501,1.513c-21.214-2.778-31.55-14.908-35.188-38.897c-0.646-4.297-0.91-8.661-1.729-12.924
				c-1.276-6.77-5.365-10.689-12.439-10.903c-7.104-0.214-11.409,3.565-13.051,10.193c-1.282,5.143-1.768,10.479-2.919,15.661
				c-6.805,30.574-23.948,37.911-52.253,34.469c-25.612-3.114-35.753-16.265-35.066-42.424c0.233-9.095-0.743-16.658-10.869-20.455
				c-2.335-0.873-4.759-6.149-4.224-8.809c0.613-2.994,4.161-6.994,7.062-7.623c9.41-2.04,18.632-4.633,28.187-6.036
				C1289.961,1302.956,1305.874,1301.666,1309.369,1301.684 M1308.163,1312.078c-6.204,0.058-12.084,0.287-17.736,1.3
				c-15.715,2.815-23.015,11.265-23.786,27.084c-0.152,3.105,0.635,6.243,0.598,9.364c-0.291,25.384,29.145,39.783,51.299,28.738
				c16.184-8.075,27.445-32.103,23.136-49.764c-1.891-7.755-6.957-12.749-14.619-14.411
				C1320.729,1313.025,1314.23,1312.498,1308.163,1312.078 M1417.887,1314.284L1417.887,1314.284
				c-3.863-0.062-7.738-0.349-11.582-0.151c-13.526,0.699-22.186,7.309-23.179,19.28c-1.266,15.241,2.69,29.411,13.67,40.575
				c7.873,8.008,18.086,10.967,29.209,9.607c25.376-3.098,35.631-19.896,30.886-49.533c-1.328-8.262-6.922-14.052-14.812-16.325
				C1434.286,1315.493,1426.036,1315.055,1417.887,1314.284"/>
		</g>
		<g>
			<path fill="#FFFFFF" stroke="#50AA8D" stroke-width="12" stroke-miterlimit="10" d="M1384.908,1602.852
				c5.455,16.932-3.856,35.082-20.779,40.531l-78.326,25.224c-16.938,5.457-35.082-3.854-40.534-20.784l-58.951-183.051
				c-5.452-16.93,3.851-35.075,20.786-40.529l78.324-25.225c16.925-5.451,35.08,3.854,40.529,20.785L1384.908,1602.852z"/>
			<path fill="#FF7A70" d="M1311.199,1428.369c2.398,7.453-1.695,15.438-9.139,17.833c-7.443,2.396-15.432-1.698-17.832-9.146
				c-2.397-7.446,1.699-15.433,9.143-17.833C1300.814,1416.83,1308.801,1420.925,1311.199,1428.369z"/>
		</g>
		<path fill="#FFFFFF" stroke="#50AA8D" stroke-width="12" stroke-miterlimit="10" d="M1362.53,1655.863
			c0,34.883-24.403,63.162-54.513,63.162c-30.105,0-54.507-28.279-54.507-63.162c0-34.885,24.4-63.164,54.507-63.164
			C1338.127,1592.699,1362.53,1620.979,1362.53,1655.863z"/>
		<path fill="#FFFFFF" d="M1663.796,1548.438c-5.877,15.611-32.326,20.114-59.072,10.047l-82.778-31.162
			c-26.744-10.068-43.654-30.894-37.777-46.504l0,0c5.876-15.609,32.318-20.104,59.062-10.036l82.778,31.162
			C1652.754,1512.013,1669.672,1532.829,1663.796,1548.438L1663.796,1548.438z"/>
	</g>
</g>
<g id="Layer_3">
</g>
</svg>
