<?xml version="1.0" encoding="utf-8"?>
<!-- Generator: Adobe Illustrator 16.0.4, SVG Export Plug-In . SVG Version: 6.00 Build 0)  -->
<!DOCTYPE svg PUBLIC "-//W3C//DTD SVG 1.1//EN" "http://www.w3.org/Graphics/SVG/1.1/DTD/svg11.dtd">
<svg version="1.1" id="Layer_1" xmlns="http://www.w3.org/2000/svg" xmlns:xlink="http://www.w3.org/1999/xlink" x="0px" y="0px"
	 width="2000px" height="2000px" viewBox="0 0 2000 2000" enable-background="new 0 0 2000 2000" xml:space="preserve">
<g id="Layer_bg">
	<rect fill="#50AA8D" width="2000" height="2003"/>
	<g>
		<circle id="circle" fill="#DFF0D9" cx="1251.359" cy="748.358" r="748.084"/>
		<g id="ground">
			<path fill="#754C24" d="M1251.358,1497.806c274.729,0,514.862-147.806,644.94-368.806H606.418
				C736.495,1350,976.63,1497.806,1251.358,1497.806z"/>
		</g>
		<ellipse id="ground-up" fill="#8C6239" cx="1251.359" cy="1128.745" rx="644.94" ry="54.716"/>
	</g>
	<g display="none">
		<path display="inline" fill="#663300" d="M1223.664,474.754c28.281-23.023,76.654-13.575,123.27,19.532
			c-7.559-35.896-20.384-72.071-41.958-98.577c-61.977-76.125-127.107-80.738-172.644-43.67
			c-45.535,37.07-54.229,101.783,7.744,177.91c17.983,22.091,43.776,39.587,71.332,53.303
			C1195.248,537.12,1198.316,495.386,1223.664,474.754z"/>
		<path display="inline" fill="#C56D27" d="M1346.934,494.286c-46.614-33.107-94.987-42.556-123.27-19.532
			c-25.348,20.632-28.416,62.366-12.256,108.497c67.406,33.56,145.354,44.474,145.354,44.474S1361.085,561.49,1346.934,494.286z"/>
	</g>
	<g>
		<g>
			<path fill="#7DBF00" d="M1264.966,742.085c-15.951-49.206-3.274-189.727,137.401-212.502
				c65.414-10.589,105.861,25.212,112.473,58.018c7.411,36.794-11.518,72.454-42.125,84.522
				C1396.512,702.166,1342.52,641.68,1264.966,742.085"/>
			<path fill="#7DBF00" d="M1267.948,740.392c22.584-46.533,29.405-187.46-106.785-229.418
				c-63.323-19.512-108.326,10.371-119.396,41.948c-12.42,35.422,1.409,73.354,30.063,89.526
				C1143.161,682.713,1204.979,630.252,1267.948,740.392"/>
			<polygon fill="#7DBF00" points="1232.424,942.856 1264.543,944.636 1275.166,725.357 1261.205,724.838 			"/>
			<path fill="#689E00" d="M1267.365,725.119c0,0-1.083-2.729-2.992-7.257c-0.943-2.265-2.13-4.977-3.467-8.031
				c-1.379-3.05-2.894-6.443-4.654-10.057c-1.75-3.614-3.646-7.473-5.799-11.423c-2.104-3.974-4.465-8.028-6.938-12.145
				c-1.3-2.022-2.519-4.123-3.925-6.137c-1.304-2.074-2.751-4.078-4.176-6.111c-1.396-2.057-2.989-3.979-4.438-6.018l-2.354-2.921
				c-0.777-0.981-1.544-1.975-2.393-2.892c-1.635-1.896-3.231-3.827-4.965-5.62c-0.844-0.918-1.684-1.835-2.521-2.753
				c-0.884-0.872-1.764-1.745-2.639-2.617c-1.694-1.8-3.529-3.434-5.312-5.1c-1.724-1.73-3.627-3.214-5.404-4.811
				c-1.758-1.633-3.666-3.01-5.448-4.5c-0.913-0.717-1.771-1.503-2.695-2.164c-0.92-0.675-1.833-1.339-2.717-2.03
				c-0.894-0.682-1.771-1.356-2.642-2.021c-0.876-0.66-1.799-1.208-2.653-1.848c-1.748-1.229-3.424-2.459-5.087-3.583
				c-1.672-1.107-3.297-2.139-4.832-3.193c-0.771-0.519-1.508-1.067-2.26-1.525c-0.75-0.455-1.487-0.896-2.189-1.354
				c-2.841-1.752-5.296-3.495-7.417-4.716c-4.202-2.555-6.625-4.31-6.625-4.31s2.888-0.267,7.971-0.218
				c2.563-0.06,5.584,0.312,9.113,0.682c3.552,0.309,7.41,1.239,11.719,2.157c2.137,0.509,4.287,1.259,6.572,1.926
				c1.141,0.348,2.294,0.713,3.442,1.144c1.146,0.458,2.304,0.917,3.479,1.384c2.36,0.938,4.786,1.939,7.145,3.2
				c2.382,1.224,4.867,2.417,7.214,3.938c2.375,1.471,4.843,2.928,7.141,4.677c1.165,0.86,2.337,1.722,3.515,2.591
				c1.188,0.861,2.259,1.871,3.401,2.813c1.121,0.967,2.243,1.939,3.368,2.917c1.081,1.025,2.134,2.088,3.197,3.145
				c2.181,2.065,4.117,4.367,6.1,6.633c1.979,2.268,3.724,4.722,5.533,7.104c0.849,1.229,1.672,2.475,2.482,3.719
				c0.818,1.243,1.65,2.468,2.357,3.763c0.729,1.276,1.459,2.551,2.186,3.817c0.711,1.272,1.32,2.591,1.978,3.87
				c1.309,2.562,2.391,5.188,3.459,7.757c2.023,5.189,3.68,10.287,4.791,15.228c1.196,4.912,1.909,9.636,2.356,13.985
				c0.848,8.729,0.414,16.025-0.309,21.064C1268.348,722.323,1267.365,725.119,1267.365,725.119"/>
			<path fill="#689E00" d="M1266.842,726.903c0,0-0.46-2.927-0.227-8.011c0.199-5.088,1.093-12.339,3.51-20.77
				c1.229-4.202,2.779-8.718,4.842-13.333c1.986-4.657,4.542-9.373,7.467-14.112c1.521-2.332,3.056-4.718,4.807-7.001
				c0.88-1.138,1.716-2.325,2.646-3.448c0.944-1.113,1.892-2.234,2.841-3.356c0.931-1.146,1.969-2.199,2.995-3.274
				c1.026-1.076,2.059-2.155,3.117-3.207c2.213-2.016,4.369-4.115,6.728-5.987c2.359-1.87,4.686-3.784,7.199-5.419
				c1.233-0.852,2.467-1.703,3.713-2.517c1.283-0.756,2.563-1.512,3.842-2.262c1.289-0.719,2.526-1.516,3.854-2.149
				c1.315-0.642,2.625-1.279,3.922-1.912c2.581-1.307,5.267-2.289,7.869-3.311c2.585-1.07,5.243-1.795,7.808-2.567
				c2.553-0.815,5.114-1.36,7.606-1.856c1.242-0.247,2.469-0.491,3.67-0.731c1.209-0.215,2.41-0.366,3.596-0.501
				c2.371-0.244,4.619-0.594,6.812-0.707c4.403-0.123,8.368-0.343,11.915-0.001c3.54,0.275,6.574,0.456,9.087,0.979
				c5.009,0.871,7.797,1.655,7.797,1.655s-2.692,1.288-7.29,3.042c-2.309,0.814-5.037,2.085-8.148,3.294
				c-0.775,0.323-1.576,0.624-2.402,0.935c-0.816,0.315-1.642,0.722-2.495,1.091c-1.698,0.761-3.487,1.481-5.332,2.27
				c-1.833,0.803-3.711,1.711-5.646,2.604c-0.959,0.473-1.967,0.844-2.948,1.335c-0.974,0.499-1.961,1.003-2.958,1.515
				c-1.001,0.521-2.018,1.005-3.039,1.506c-1.031,0.482-2.02,1.101-3.046,1.639c-2.022,1.143-4.146,2.154-6.171,3.44
				c-2.039,1.247-4.176,2.362-6.188,3.753c-2.051,1.315-4.146,2.59-6.144,4.057c-1.021,0.699-2.041,1.396-3.066,2.098
				c-0.992,0.748-1.986,1.5-2.981,2.25c-2.029,1.45-3.945,3.059-5.898,4.626c-0.999,0.751-1.938,1.587-2.871,2.417l-2.85,2.44
				c-1.792,1.746-3.71,3.346-5.451,5.115c-1.771,1.744-3.555,3.453-5.212,5.258c-1.745,1.726-3.323,3.571-4.967,5.327
				c-3.178,3.595-6.235,7.159-9.021,10.687c-2.832,3.5-5.396,6.946-7.771,10.184c-2.386,3.237-4.488,6.304-6.396,9.055
				c-1.864,2.76-3.522,5.215-4.86,7.271C1268.401,724.414,1266.842,726.903,1266.842,726.903"/>
		</g>
		<g>
			<path fill="#5F9904" d="M1250.826,1016.741c22.033-66.308,6.297-256.247-183.497-288.403
				c-88.249-14.951-143.243,33.008-152.495,77.251c-10.377,49.63,14.834,97.987,56.06,114.59
				C1073.529,961.515,1147.056,880.349,1250.826,1016.741"/>
			<path fill="#5F9904" d="M1245.629,1021.444c-18.054-67.5,8.949-256.167,200.32-276.982
				c88.982-9.678,141.024,41.465,147.632,86.181c7.409,50.16-20.635,96.934-62.773,111.056
				C1425.895,976.856,1357.324,891.465,1245.629,1021.444"/>
			<polygon fill="#5F9904" points="1272.105,1121.436 1228.66,1122.405 1234.616,967.452 1262.432,968.619 			"/>
			<path fill="#3F8002" d="M1248.922,995.191c0,0-0.059-0.977-0.012-2.79c0.043-1.82,0.18-4.485,0.602-7.847
				c0.795-6.73,2.677-16.286,6.59-27.316c1.98-5.496,4.398-11.39,7.479-17.391c2.983-6.061,6.701-12.172,10.896-18.295
				c2.164-3.013,4.354-6.1,6.816-9.039c1.232-1.465,2.414-2.997,3.713-4.438c1.314-1.431,2.633-2.87,3.962-4.314
				c1.298-1.475,2.731-2.827,4.155-4.202c1.419-1.379,2.848-2.76,4.307-4.112c3.043-2.567,6.006-5.266,9.228-7.646
				c3.219-2.381,6.393-4.826,9.807-6.901c1.679-1.077,3.349-2.16,5.035-3.197c1.737-0.959,3.472-1.914,5.193-2.866
				c1.748-0.905,3.424-1.927,5.206-2.72c1.77-0.811,3.536-1.615,5.288-2.415c3.473-1.659,7.08-2.884,10.571-4.17
				c3.473-1.355,7.031-2.253,10.464-3.225c3.416-1.03,6.843-1.7,10.173-2.32c1.661-0.311,3.298-0.616,4.911-0.917
				c1.612-0.272,3.22-0.448,4.797-0.619c3.163-0.303,6.176-0.737,9.099-0.876c5.872-0.131,11.173-0.427,15.902,0.019
				c4.72,0.351,8.777,0.558,12.126,1.215c6.684,1.088,10.414,2.023,10.414,2.023s-3.7,1.368-10.025,3.211
				c-3.17,0.837-6.946,2.252-11.244,3.566c-1.075,0.351-2.181,0.679-3.319,1.018c-1.136,0.345-2.28,0.811-3.465,1.229
				c-2.358,0.855-4.84,1.673-7.404,2.562c-2.556,0.917-5.17,1.991-7.873,3.027c-1.343,0.555-2.743,0.982-4.115,1.567
				c-1.36,0.597-2.745,1.203-4.148,1.812c-1.399,0.596-2.819,1.198-4.256,1.808c-1.439,0.577-2.83,1.344-4.272,2
				c-2.849,1.407-5.825,2.638-8.681,4.254c-2.874,1.562-5.877,2.953-8.723,4.728c-2.896,1.674-5.854,3.297-8.677,5.192
				c-1.438,0.897-2.88,1.803-4.328,2.708c-1.402,0.976-2.811,1.953-4.217,2.933c-2.862,1.887-5.578,4.004-8.329,6.068
				c-1.41,0.988-2.732,2.094-4.058,3.193l-4.016,3.235c-2.529,2.32-5.223,4.456-7.676,6.82c-2.486,2.332-4.987,4.621-7.312,7.044
				c-2.436,2.317-4.648,4.803-6.934,7.168c-4.431,4.85-8.662,9.663-12.495,14.437c-3.888,4.729-7.395,9.403-10.608,13.784
				c-3.229,4.382-6.062,8.538-8.603,12.255c-2.491,3.741-4.679,7.057-6.429,9.838c-1.763,2.776-3.142,4.999-4.077,6.53
				C1249.422,994.368,1248.922,995.191,1248.922,995.191"/>
			<path fill="#3F8002" d="M1249.566,995.403c0,0-0.389-0.88-1.113-2.535c-0.725-1.64-1.803-4.024-3.186-7.008
				c-1.371-2.986-3.107-6.561-5.083-10.596c-2.034-4.019-4.297-8.507-6.924-13.273c-2.612-4.77-5.475-9.86-8.712-15.058
				c-3.173-5.235-6.737-10.562-10.496-15.949c-1.952-2.646-3.82-5.399-5.932-8.015c-1.989-2.708-4.167-5.308-6.327-7.943
				c-2.122-2.667-4.51-5.133-6.718-7.768l-3.557-3.733c-1.17-1.264-2.334-2.534-3.602-3.698c-2.459-2.407-4.871-4.863-7.463-7.107
				c-1.268-1.156-2.533-2.31-3.795-3.46c-1.316-1.088-2.631-2.172-3.935-3.253c-2.555-2.25-5.272-4.246-7.922-6.284
				c-2.588-2.134-5.383-3.904-8.031-5.829c-2.616-1.979-5.409-3.589-8.047-5.354c-1.345-0.843-2.619-1.785-3.973-2.547
				c-1.346-0.792-2.672-1.575-3.984-2.349c-1.309-0.791-2.602-1.57-3.875-2.339c-1.284-0.763-2.612-1.37-3.872-2.098
				c-2.546-1.379-4.999-2.786-7.41-4.031c-2.426-1.22-4.778-2.354-7.006-3.513c-1.116-0.567-2.192-1.179-3.271-1.671
				c-1.085-0.486-2.142-0.954-3.157-1.446c-4.09-1.866-7.646-3.764-10.682-5.008c-6.028-2.656-9.52-4.499-9.52-4.499
				s3.823-0.435,10.589-0.64c3.404-0.213,7.455,0.114,12.182,0.384c4.752,0.181,9.965,1.167,15.77,2.068
				c2.88,0.52,5.809,1.346,8.903,2.059c1.541,0.377,3.109,0.763,4.677,1.245c1.561,0.509,3.142,1.028,4.747,1.551
				c3.217,1.052,6.529,2.165,9.781,3.636c3.276,1.41,6.688,2.768,9.949,4.566c3.297,1.732,6.712,3.42,9.938,5.52
				c1.631,1.024,3.273,2.055,4.925,3.088c1.661,1.021,3.189,2.25,4.802,3.381c1.587,1.168,3.179,2.343,4.773,3.519
				c1.537,1.253,3.052,2.542,4.572,3.833c3.111,2.504,5.939,5.343,8.817,8.125c2.884,2.783,5.466,5.845,8.146,8.79
				c1.269,1.531,2.501,3.091,3.729,4.643c1.229,1.55,2.477,3.077,3.568,4.709c1.125,1.607,2.246,3.207,3.361,4.798
				c1.102,1.6,2.069,3.272,3.1,4.89c2.058,3.236,3.823,6.581,5.576,9.853c3.352,6.62,6.237,13.165,8.402,19.565
				c2.268,6.352,3.891,12.511,5.135,18.221c2.435,11.446,3.046,21.166,2.949,27.944c-0.021,3.386-0.234,6.049-0.43,7.858
				C1249.755,994.446,1249.566,995.403,1249.566,995.403"/>
		</g>
	</g>
</g>
<g id="Layer_1_1_">
	<g>
		<path fill="#FFFFFF" d="M399.02,1291.608c0,73.682-59.729,133.409-133.409,133.409c-73.679,0-133.407-59.729-133.407-133.409
			c0-73.675,59.729-133.403,133.407-133.403C339.291,1158.205,399.02,1217.934,399.02,1291.608z"/>
		<path fill="#FFFFFF" d="M687.081,1291.608c0,73.682-59.729,133.409-133.403,133.409c-73.681,0-133.413-59.729-133.413-133.409
			c0-73.675,59.731-133.403,133.413-133.403C627.354,1158.205,687.081,1217.934,687.081,1291.608z"/>
		<path fill="#FFFFFF" d="M622.629,1425.018c0,0-92.025,47.816-175.342-1.343l6.737,319.251h188.441l-11.907-317.908H622.629z"/>
		<path fill="#FFFFFF" d="M518.164,1968.223c0,17.558-14.22,31.777-31.775,31.777l0,0c-17.554,0-31.778-14.221-31.778-31.777
			v-237.412c0-17.543,14.225-31.766,31.778-31.766l0,0c17.556,0,31.775,14.223,31.775,31.766V1968.223z"/>
		<path fill="#FFFFFF" d="M735.976,1947.561c6.595,16.26-1.235,34.796-17.493,41.39l0,0c-16.269,6.603-34.795-1.228-41.399-17.493
			l-89.285-219.98c-6.604-16.269,1.231-34.795,17.494-41.389l0,0c16.263-6.615,34.794,1.228,41.399,17.483L735.976,1947.561z"/>
		<path fill="#FFFFFF" d="M180.002,1425.018c0,0,86.361,49.158,169.678,0v317.908H161.235l11.908-317.908H180.002z"/>
		<path fill="#FFFFFF" d="M285.536,1968.223c0,17.558,14.223,31.777,31.778,31.777l0,0c17.552,0,31.777-14.221,31.777-31.777
			v-237.412c0-17.543-14.226-31.766-31.777-31.766l0,0c-17.556,0-31.778,14.223-31.778,31.766V1968.223z"/>
		<path fill="#FFFFFF" d="M67.727,1947.561c-6.598,16.26,1.235,34.796,17.494,41.39l0,0c16.266,6.603,34.798-1.228,41.399-17.493
			l89.283-219.98c6.604-16.269-1.226-34.795-17.49-41.389l0,0c-16.266-6.615-34.798,1.228-41.402,17.483L67.727,1947.561z"/>
		<path fill="#FFFFFF" d="M646.787,1487.623c-13.467,11.249-33.502,9.45-44.752-4.026l0,0c-11.253-13.458-9.451-33.504,4.011-44.759
			l182.218-152.188c13.473-11.266,33.503-9.461,44.751,4.016l0,0c11.254,13.462,9.46,33.508-4.012,44.763L646.787,1487.623z"/>
		<path fill="#FFFFFF" d="M296.547,1629.173c-4.524,15.561-20.8,24.502-36.358,19.976l-173.653-50.524
			c-15.555-4.508-24.498-20.794-19.976-36.347l0,0c4.531-15.564,20.801-24.505,36.36-19.977l173.661,50.518
			C292.134,1597.347,301.078,1613.614,296.547,1629.173L296.547,1629.173z"/>
		<path fill="#FFFFFF" d="M78.703,1596.98c-13.577-8.853-18.569-25.214-11.161-36.568l82.648-126.703
			c7.402-11.346,24.4-13.371,37.963-4.52l0,0c13.576,8.859,18.574,25.225,11.16,36.567l-82.644,126.718
			C109.268,1603.819,92.272,1605.845,78.703,1596.98L78.703,1596.98z"/>
		<path fill="#FFFFFF" d="M466.939,1450.072c0,16.449-16.135,29.796-36.036,29.796h-61.6c-19.901,0-36.032-13.346-36.032-29.796l0,0
			c0-16.449,16.131-29.784,36.032-29.784h61.6C450.806,1420.288,466.939,1433.623,466.939,1450.072L466.939,1450.072z"/>
		<path fill="#FFFFFF" d="M515.459,1554.335c-6.442,14.657-20.532,22.649-31.461,17.843l-150.816-60.033
			c-10.93-4.806-14.562-20.592-8.118-35.25l0,0c6.449-14.666,20.536-22.653,31.468-17.848l150.814,60.032
			C518.275,1523.886,521.912,1539.668,515.459,1554.335L515.459,1554.335z"/>
		<g>
			<g>
				<path fill="#004059" d="M555.591,1493.325c6.412,0,10.677-4.479,11.619-10.757l3.231-25.78c0-5.936-5.207-10.751-11.624-10.751
					h-27.871c-6.422,0-11.624,4.816-11.624,10.751l3.227,25.78c0.812,7.02,5.206,10.757,11.624,10.757
					c4.928,0,6.006-1.498,11.385-1.498C551.342,1491.827,552.3,1493.325,555.591,1493.325"/>
				<polygon fill="#004059" points="569.717,1564.181 515.267,1592.99 513.749,1602.117 570.995,1571.828 				"/>
				<polygon fill="#004059" points="564.303,1531.671 521.729,1554.193 516.092,1588.027 569.021,1560.021 				"/>
				<polygon fill="#004059" points="522.561,1549.229 563.604,1527.513 562.45,1520.594 523.938,1540.969 				"/>
				<path fill="#004059" d="M510.131,1639.87l6.2,7.374l61.783-32.688l-5.738-34.411l-60.29,31.899l-1.955,11.761
					C509.645,1626.206,506.039,1635.433,510.131,1639.87"/>
				<path fill="#004059" d="M528.618,1661.851l11.78,14.009c4.092,4.428,4.901,4.428,8.994,0l30.267-35.988
					c1.495-1.622,1.944-3.789,1.899-6.028L528.618,1661.851z"/>
				<path fill="#004059" d="M561.067,1512.277l-2.134-12.805c-4.092-4.437-23.99-4.437-28.083,0l-5.263,31.574L561.067,1512.277z"/>
				<path fill="#004059" d="M579.659,1623.806l-0.162-0.934l-57.899,30.632l4.381,5.215l55.038-29.119
					C580.51,1627.219,579.812,1625.082,579.659,1623.806"/>
			</g>
		</g>
		<g>
			<path fill="#FF7B70" d="M333.667,1495.158c-0.134,8.943-0.309,18.051-1.702,26.895c-5.19,32.92-46.307-10.904-59.088-15.62
				c-16.264-6.001-28.998,1.591-41.411,10.95c-8.356,6.312-21.39,18.152-32.796,17.174c-6.352-0.552-8.892-6.848-9.778-12.504
				c-1.402-8.844-1.575-17.95-1.713-26.895c-0.11-6.953-2.705-46.979,9.481-47.306c19.767-0.53,30.727,26.683,50.604,28.16
				c1.243,0.103,2.517,0.107,3.803,0.082c7.407-0.091,15.187,0.456,22.525-0.082c19.87-1.479,30.84-28.689,50.594-28.16
				C336.379,1448.18,333.778,1488.205,333.667,1495.158"/>
			<g>
				<path fill="#FFFFFF" d="M328.82,1530.515c0.831-1.104,1.529-2.49,2.095-4.177C329.762,1527.406,329.003,1528.87,328.82,1530.515
					z"/>
				<path fill="#FFFFFF" d="M328.746,1486.569c0,3.104,2.12,5.69,4.982,6.45c0.098-2.938,0.271-7.655,0.237-12.974
					C330.98,1480.72,328.746,1483.379,328.746,1486.569z"/>
				<path fill="#FFFFFF" d="M297.468,1486.569c0-3.698-3-6.701-6.698-6.701c-3.706,0-6.704,3.003-6.704,6.701
					c0,3.702,2.998,6.704,6.704,6.704C294.468,1493.273,297.468,1490.271,297.468,1486.569z"/>
				<path fill="#FFFFFF" d="M268.428,1502.208c-1.953,0-3.691,0.853-4.918,2.178c3.001,0.21,6.112,0.843,9.367,2.047
					c0.619,0.225,1.322,0.566,2.067,0.973C274.259,1504.427,271.607,1502.208,268.428,1502.208z"/>
				<path fill="#FFFFFF" d="M313.107,1515.61c3.697,0,6.702-3,6.702-6.696c0-3.708-3.005-6.706-6.702-6.706
					c-3.701,0-6.7,2.998-6.7,6.706C306.407,1512.61,309.406,1515.61,313.107,1515.61z"/>
				<path fill="#FFFFFF" d="M306.543,1462.875c-0.09,0.442-0.136,0.895-0.136,1.358c0,0.462,0.045,0.911,0.136,1.347
					c0.623,3.061,3.326,5.355,6.564,5.355c3.234,0,5.939-2.297,6.566-5.355c0.09-0.436,0.136-0.885,0.136-1.347
					c0-0.466-0.046-0.916-0.136-1.358c-0.626-3.048-3.332-5.348-6.566-5.348C309.869,1457.527,307.166,1459.827,306.543,1462.875z"
					/>
				<path fill="#FFFFFF" d="M239.389,1486.569c0,3.702,2.998,6.704,6.7,6.704c3.701,0,6.702-3.002,6.702-6.704
					c0-3.698-3.001-6.701-6.702-6.701C242.386,1479.868,239.389,1482.871,239.389,1486.569z"/>
				<path fill="#FFFFFF" d="M201.408,1479.868c-3.704,0-6.701,3.003-6.701,6.701c0,3.702,2.998,6.704,6.701,6.704
					c3.699,0,6.703-3.002,6.703-6.704C208.111,1482.871,205.106,1479.868,201.408,1479.868z"/>
				<path fill="#FFFFFF" d="M198.625,1447.971c0.852,0.391,1.789,0.623,2.783,0.623c0.272,0,0.534-0.051,0.801-0.08
					C201.046,1448.229,199.85,1448.058,198.625,1447.971z"/>
				<path fill="#FFFFFF" d="M217.047,1508.914c0,3.696,2.999,6.696,6.701,6.696c3.697,0,6.702-3,6.702-6.696
					c0-3.708-3.005-6.706-6.702-6.706C220.046,1502.208,217.047,1505.206,217.047,1508.914z"/>
				<path fill="#FFFFFF" d="M217.186,1462.875c-0.093,0.442-0.138,0.895-0.138,1.358c0,0.462,0.045,0.911,0.138,1.347
					c0.622,3.061,3.324,5.355,6.562,5.355c2.42,0,4.526-1.304,5.703-3.229c-3.378-2.713-6.631-5.752-9.916-8.649
					C218.36,1460.021,217.498,1461.336,217.186,1462.875z"/>
				<path fill="#FFFFFF" d="M198.67,1534.557c2.985,0.259,6.082-0.379,9.18-1.554c0.152-0.558,0.261-1.146,0.261-1.752
					c0-3.697-3.004-6.701-6.703-6.701c-3.704,0-6.701,3.004-6.701,6.701c0,0.758,0.155,1.483,0.391,2.166
					C196.135,1534.01,197.298,1534.439,198.67,1534.557z"/>
			</g>
		</g>
		<g>
			<path fill="#FF7B70" d="M243.957,1233.59c3.449-0.335,23.732-1.119,34.637,5.247c1.384,0.806,3.692,0.094,5.566-0.058
				c9.514-0.779,19.032-1.562,28.541-2.451c2.082-0.192,4.538-0.225,6.108-1.333c15.867-11.21,34.093-9.835,51.923-9.501
				c11.657,0.214,23.27,2.301,34.938,3.051c5.481,0.345,9.536,2.146,10.645,7.598c1.024,5.065-1.56,8.738-6.292,10.818
				c-5.621,2.473-7.335,7.083-7.137,12.828c0.201,5.732,0.573,11.484,0.322,17.198c-0.663,15.062-7.608,26.379-22.104,31.166
				c-8.244,2.721-17.327,4.399-25.964,4.151c-21.191-0.607-32.599-11.527-38.59-34.812c-1.073-4.17-1.771-8.445-2.999-12.563
				c-1.939-6.547-6.362-9.995-13.36-9.499c-7.025,0.506-10.886,4.664-11.839,11.356c-0.748,5.197-0.691,10.507-1.307,15.732
				c-3.636,30.817-19.799,39.771-48.044,39.218c-25.555-0.495-36.871-12.439-38.823-38.291c-0.681-8.99-2.404-16.35-12.766-19.075
				c-2.388-0.622-5.31-5.583-5.047-8.255c0.305-3.016,3.402-7.316,6.194-8.22c9.071-2.966,17.901-6.438,27.178-8.778
				C224.952,1236.785,240.507,1233.92,243.957,1233.59 M243.812,1243.952c-6.113,0.676-11.884,1.495-17.355,3.062
				c-15.206,4.354-21.553,13.411-20.725,29.086c0.159,3.071,1.251,6.093,1.529,9.166c2.262,25.053,32.719,36.291,53.447,23.177
				c15.142-9.581,23.832-34.39,17.81-51.37c-2.644-7.449-8.139-11.87-15.857-12.734
				C256.291,1243.622,249.835,1243.755,243.812,1243.952 M352.186,1235.107L352.186,1235.107c-3.82,0.328-7.668,0.435-11.437,1.018
				c-13.259,2.047-21.132,9.428-20.906,21.327c0.276,15.156,5.603,28.726,17.547,38.624c8.562,7.104,18.925,8.997,29.75,6.543
				c24.704-5.603,33.126-23.186,25.474-51.928c-2.143-8.009-8.236-13.151-16.244-14.604
				C368.466,1234.656,360.29,1235.052,352.186,1235.107"/>
		</g>
	</g>
	<g display="none">
		<path display="inline" fill="#FFFFFF" stroke="#666666" stroke-width="12" stroke-miterlimit="10" d="M906.892,1250.945
			c-12.027-12.769-11.43-32.875,1.333-44.901l59.065-55.647c12.771-12.034,32.875-11.434,44.905,1.334l130.059,138.037
			c12.029,12.771,11.437,32.871-1.34,44.903l-59.064,55.649c-12.764,12.026-32.87,11.432-44.897-1.338L906.892,1250.945z"/>
		<path display="inline" fill="#004059" d="M1046.463,1375.1c-5.293-5.619-5.029-14.467,0.582-19.752
			c5.615-5.291,14.463-5.025,19.754,0.59c5.293,5.616,5.027,14.463-0.586,19.755
			C1060.602,1380.977,1051.752,1380.714,1046.463,1375.1z"/>
	</g>
</g>
<g id="Layer_3">
</g>
</svg>
