<?xml version="1.0" encoding="utf-8"?>
<!-- Generator: Adobe Illustrator 16.0.4, SVG Export Plug-In . SVG Version: 6.00 Build 0)  -->
<!DOCTYPE svg PUBLIC "-//W3C//DTD SVG 1.1//EN" "http://www.w3.org/Graphics/SVG/1.1/DTD/svg11.dtd">
<svg version="1.1" id="Layer_1" xmlns="http://www.w3.org/2000/svg" xmlns:xlink="http://www.w3.org/1999/xlink" x="0px" y="0px"
	 width="2000px" height="2000px" viewBox="0 0 2000 2000" enable-background="new 0 0 2000 2000" xml:space="preserve">
<g id="Layer_bg">
	<rect fill="#50AA8D" width="2000" height="2003"/>
	<g>
		<circle id="circle" fill="#FFF8B3" cx="751.359" cy="748.358" r="748.084"/>
		<g id="ground">
			<path fill="#754C24" d="M751.358,1497.806c274.729,0,514.862-147.806,644.94-368.806H106.418
				C236.495,1350,476.63,1497.806,751.358,1497.806z"/>
		</g>
		<ellipse id="ground-up" fill="#8C6239" cx="751.359" cy="1128.745" rx="644.94" ry="54.716"/>
	</g>
	<path fill="#663300" d="M723.664,474.754c28.281-23.023,76.654-13.575,123.27,19.532c-7.559-35.896-20.384-72.071-41.958-98.577
		c-61.977-76.125-127.107-80.738-172.644-43.67c-45.535,37.07-54.229,101.783,7.745,177.91
		c17.982,22.091,43.776,39.587,71.331,53.303C695.248,537.12,698.317,495.386,723.664,474.754z"/>
	<path fill="#C56D27" d="M846.934,494.286c-46.614-33.107-94.988-42.556-123.27-19.532c-25.347,20.632-28.416,62.366-12.256,108.497
		c67.407,33.56,145.355,44.474,145.355,44.474S861.085,561.49,846.934,494.286z"/>
</g>
<g id="Layer_1_1_">
	<g>
		<g>
			<circle fill="#FFFFFF" cx="1244.011" cy="1282.039" r="137.205"/>
			<path fill="#FFFFFF" d="M1163.946,1419.245c0,0,82.664,48.915,163.416,0v316.367h-182.647l11.543-316.367H1163.946
				L1163.946,1419.245z"/>
			<path fill="#FFFFFF" d="M1261.996,1967.32c0,18.054,14.626,32.68,32.68,32.68l0,0c18.061,0,32.688-14.626,32.688-32.68v-244.168
				c0-18.049-14.627-32.682-32.688-32.682l0,0c-18.054,0-32.68,14.632-32.68,32.682V1967.32z"/>
			<path fill="#FFFFFF" d="M1144.715,1967.32c0,18.054,14.638,32.68,32.69,32.68l0,0c18.05,0,32.676-14.626,32.676-32.68v-244.168
				c0-18.049-14.626-32.682-32.676-32.682l0,0c-18.054,0-32.69,14.632-32.69,32.682V1967.32z"/>
		</g>
		<path fill="#FFFFFF" d="M1207.789,1625.8c4.654,16,21.392,25.199,37.394,20.543l178.596-51.962
			c15.995-4.636,25.193-21.389,20.543-37.382l0,0c-4.659-16.007-21.395-25.2-37.395-20.543l-178.603,51.954
			C1212.328,1593.067,1203.129,1609.798,1207.789,1625.8L1207.789,1625.8z"/>
		<path fill="#FFFFFF" d="M1431.831,1592.691c13.964-9.104,19.1-25.932,11.479-37.609l-85-130.309
			c-7.612-11.667-25.095-13.751-39.043-4.646l0,0c-13.962,9.11-19.104,25.94-11.478,37.608l84.994,130.319
			C1400.396,1599.724,1417.879,1601.807,1431.831,1592.691L1431.831,1592.691z"/>
		<path fill="#FFFFFF" d="M1028.562,1351.564c9.761-13.511,26.812-17.837,38.113-9.668l126.102,91.129
			c11.291,8.16,12.537,25.72,2.775,39.218l0,0c-9.768,13.511-26.822,17.843-38.113,9.668l-126.111-91.122
			C1020.036,1382.63,1018.789,1365.069,1028.562,1351.564L1028.562,1351.564z"/>
		<g>
			<path fill="#FF7B70" d="M1165.509,1488.094c0.14,9.204,0.317,18.564,1.75,27.664c5.339,33.857,47.624-11.217,60.77-16.068
				c16.729-6.17,29.821,1.64,42.59,11.265c8.594,6.492,21.999,18.671,33.729,17.663c6.532-0.568,9.146-7.043,10.057-12.858
				c1.441-9.1,1.62-18.46,1.764-27.664c0.111-7.146,2.782-48.311-9.752-48.644c-20.33-0.551-31.601,27.437-52.043,28.96
				c-1.279,0.1-2.589,0.105-3.911,0.083c-7.619-0.101-15.619,0.464-23.167-0.083c-20.435-1.523-31.716-29.511-52.034-28.96
				C1162.72,1439.783,1165.395,1480.946,1165.509,1488.094"/>
			<g>
				<path fill="#FFFFFF" d="M1170.494,1524.46c-0.854-1.137-1.573-2.563-2.153-4.295
					C1169.524,1521.261,1170.306,1522.767,1170.494,1524.46z"/>
				<path fill="#FFFFFF" d="M1170.568,1479.265c0,3.191-2.18,5.851-5.123,6.636c-0.102-3.022-0.277-7.879-0.245-13.347
					C1168.271,1473.246,1170.568,1475.983,1170.568,1479.265z"/>
				<path fill="#FFFFFF" d="M1202.736,1479.265c0-3.807,3.085-6.894,6.892-6.894c3.81,0,6.894,3.087,6.894,6.894
					s-3.084,6.896-6.894,6.896C1205.821,1486.16,1202.736,1483.07,1202.736,1479.265z"/>
				<path fill="#FFFFFF" d="M1232.604,1495.348c2.009,0,3.798,0.873,5.059,2.239c-3.086,0.214-6.284,0.864-9.634,2.103
					c-0.637,0.234-1.359,0.59-2.125,1C1226.608,1497.632,1229.334,1495.348,1232.604,1495.348z"/>
				<path fill="#FFFFFF" d="M1186.653,1509.131c-3.804,0-6.895-3.085-6.895-6.89c0-3.81,3.091-6.895,6.895-6.895
					c3.808,0,6.892,3.085,6.892,6.895C1193.545,1506.046,1190.461,1509.131,1186.653,1509.131z"/>
				<path fill="#FFFFFF" d="M1193.404,1454.899c0.095,0.448,0.141,0.913,0.141,1.389c0,0.478-0.046,0.941-0.141,1.393
					c-0.641,3.141-3.419,5.502-6.751,5.502c-3.328,0-6.11-2.361-6.753-5.502c-0.095-0.45-0.142-0.915-0.142-1.393
					c0-0.476,0.047-0.938,0.142-1.389c0.643-3.144,3.425-5.505,6.753-5.505C1189.985,1449.395,1192.765,1451.757,1193.404,1454.899z
					"/>
				<circle fill="#FFFFFF" cx="1255.58" cy="1479.265" r="6.891"/>
				<circle fill="#FFFFFF" cx="1301.531" cy="1479.266" r="6.895"/>
				<path fill="#FFFFFF" d="M1304.395,1439.566c-0.875,0.402-1.839,0.641-2.862,0.641c-0.281,0-0.549-0.05-0.823-0.086
					C1301.904,1439.835,1303.134,1439.655,1304.395,1439.566z"/>
				<path fill="#FFFFFF" d="M1285.447,1502.241c0,3.805-3.084,6.89-6.893,6.89c-3.803,0-6.894-3.085-6.894-6.89
					c0-3.81,3.091-6.895,6.894-6.895C1282.363,1495.348,1285.447,1498.433,1285.447,1502.241z"/>
				<path fill="#FFFFFF" d="M1285.307,1454.899c0.094,0.448,0.142,0.913,0.142,1.389c0,0.478-0.048,0.941-0.142,1.393
					c-0.642,3.141-3.421,5.502-6.751,5.502c-2.489,0-4.653-1.336-5.864-3.313c3.474-2.798,6.82-5.924,10.198-8.897
					C1284.098,1451.955,1284.982,1453.314,1285.307,1454.899z"/>
				<path fill="#FFFFFF" d="M1304.347,1528.616c-3.069,0.266-6.256-0.388-9.439-1.599c-0.156-0.578-0.27-1.176-0.27-1.807
					c0-3.802,3.091-6.889,6.895-6.889c3.809,0,6.892,3.087,6.892,6.889c0,0.787-0.159,1.529-0.4,2.232
					C1306.954,1528.054,1305.759,1528.493,1304.347,1528.616z"/>
			</g>
		</g>
		<g>
			<path fill="#FF7B70" d="M1299.234,1217.505c3.562-0.019,19.777,1.296,29.449,2.715c9.736,1.432,19.134,4.072,28.723,6.15
				c2.954,0.641,6.567,4.717,7.191,7.77c0.549,2.709-1.922,8.087-4.302,8.976c-10.317,3.869-11.312,11.577-11.074,20.842
				c0.698,26.656-9.636,40.057-35.73,43.229c-28.842,3.51-46.312-3.967-53.245-35.122c-1.172-5.278-1.666-10.718-2.975-15.957
				c-1.672-6.753-6.058-10.605-13.299-10.387c-7.209,0.216-11.375,4.212-12.678,11.11c-0.828,4.341-1.1,8.789-1.76,13.167
				c-3.704,24.445-14.236,36.806-35.858,39.636c-8.807,1.152-18.277,0.387-26.997-1.541c-15.327-3.392-23.615-14.24-25.859-29.583
				c-0.854-5.823-1.075-11.743-1.465-17.63c-0.396-5.902-2.631-10.438-8.643-12.384c-5.058-1.636-8.084-5.125-7.562-10.413
				c0.565-5.691,4.526-7.959,10.1-8.889c11.86-1.976,23.522-5.32,35.431-6.756c18.205-2.2,36.713-5.509,54.113,4.308
				c1.726,0.976,4.24,0.748,6.393,0.729c9.817-0.084,19.637-0.273,29.455-0.467c1.934-0.039,4.369,0.446,5.697-0.521
				C1274.836,1218.835,1295.671,1217.528,1299.234,1217.505 M1300.464,1228.097c-6.183,0.429-12.804,0.968-19.246,2.356
				c-7.808,1.693-12.971,6.782-14.896,14.685c-4.393,17.995,7.083,42.479,23.575,50.705c22.573,11.255,52.566-3.418,52.271-29.284
				c-0.036-3.177,0.765-6.376,0.609-9.539c-0.786-16.123-8.227-24.729-24.237-27.601
				C1312.777,1228.388,1306.787,1228.157,1300.464,1228.097 M1188.656,1230.345c-8.297,0.784-16.705,1.231-24.644,3.519
				c-8.042,2.317-13.74,8.218-15.095,16.635c-4.839,30.2,5.609,47.316,31.471,50.474c11.335,1.386,21.737-1.63,29.76-9.79
				c11.188-11.377,15.226-25.813,13.929-41.346c-1.011-12.198-9.835-18.931-23.612-19.645
				C1196.548,1229.991,1192.6,1230.282,1188.656,1230.345L1188.656,1230.345"/>
		</g>
	</g>
	<g>
		<path fill="#FFFFFF" d="M1734.035,1413.179c0,0-82.664,48.917-163.405,0v316.367h182.636l-11.543-316.367H1734.035z"/>
		<path fill="#FFFFFF" d="M1635.995,1961.255c0,18.054-14.638,32.681-32.69,32.681l0,0c-18.048,0-32.675-14.627-32.675-32.681
			v-244.164c0-18.052,14.627-32.684,32.675-32.684l0,0c18.054,0,32.69,14.632,32.69,32.684V1961.255z"/>
		<path fill="#FFFFFF" d="M1753.266,1961.255c0,18.054-14.636,32.681-32.681,32.681l0,0c-18.047,0-32.685-14.627-32.685-32.681
			v-244.164c0-18.052,14.638-32.684,32.685-32.684l0,0c18.045,0,32.681,14.632,32.681,32.684V1961.255z"/>
		<path fill="#FFFFFF" d="M1782.186,1288.591c0,74.04-60.006,134.056-134.049,134.056c-74.032,0-134.048-60.016-134.048-134.056
			c0-74.033,60.016-134.05,134.048-134.05C1722.18,1154.541,1782.186,1214.558,1782.186,1288.591z"/>
		<polygon fill="#FFFFFF" points="1570.63,1453.401 1438.346,1402.77 1495.148,1370.266 1558.014,1405.118 1570.63,1413.179 		"/>
		<path fill="#FFFFFF" d="M1514.089,1339.979c0,35.979-26.79,65.14-59.822,65.14c-33.045,0-59.84-29.16-59.84-65.14
			c0-35.974,26.795-65.144,59.84-65.144C1487.299,1274.836,1514.089,1304.006,1514.089,1339.979z"/>
		<polygon fill="#FFFFFF" points="1729.398,1453.401 1858.463,1403.635 1795.238,1367.54 1742.005,1405.118 1723.57,1418.427 		"/>
		<path fill="#FFFFFF" d="M1785.939,1339.979c0,35.979,26.779,65.14,59.823,65.14c33.04,0,59.828-29.16,59.828-65.14
			c0-35.974-26.788-65.144-59.828-65.144C1812.72,1274.836,1785.939,1304.006,1785.939,1339.979z"/>
		<g>
			<g>
				<path fill="#004059" d="M1664.777,1483.126c6.601,0,10.985-4.607,11.956-11.062l3.315-26.516
					c0-6.107-5.349-11.059-11.947-11.059h-28.663c-6.602,0-11.955,4.951-11.955,11.059l3.323,26.516
					c0.828,7.22,5.349,11.062,11.948,11.062c5.067,0,6.179-1.54,11.71-1.54C1660.414,1481.586,1661.396,1483.126,1664.777,1483.126"
					/>
				<polygon fill="#004059" points="1679.311,1555.995 1623.312,1585.628 1621.744,1595.013 1680.624,1563.865 				"/>
				<polygon fill="#004059" points="1673.738,1522.562 1629.963,1545.724 1624.16,1580.521 1678.604,1551.721 				"/>
				<polyline fill="#004059" points="1632.224,1532.125 1630.812,1540.618 1673.029,1518.284 1671.842,1511.167 				"/>
				<path fill="#004059" d="M1618.024,1633.84l6.381,7.584l63.543-33.617l-5.896-35.39l-62.007,32.807l-2.021,12.095
					C1617.523,1619.786,1613.82,1629.277,1618.024,1633.84"/>
				<path fill="#004059" d="M1637.036,1656.446l12.121,14.405c4.204,4.555,5.042,4.555,9.246,0l31.127-37.013
					c1.542-1.667,2.007-3.896,1.959-6.204L1637.036,1656.446z"/>
				<path fill="#004059" d="M1670.414,1502.618l-2.197-13.167c-4.198-4.565-24.669-4.565-28.879,0l-5.41,32.47L1670.414,1502.618z"
					/>
				<path fill="#004059" d="M1689.53,1617.317l-0.156-0.959l-59.552,31.503l4.506,5.359l56.599-29.943
					C1690.405,1620.823,1689.698,1618.63,1689.53,1617.317"/>
			</g>
		</g>
	</g>
	<g>
		<path fill="#FFFFFF" stroke="#754C24" stroke-width="12" stroke-miterlimit="10" d="M1070.497,1348.979
			c2.688,17.604-9.41,34.06-27.01,36.746l-81.443,12.436c-17.613,2.688-34.062-9.407-36.749-27.014l-29.061-190.34
			c-2.688-17.604,9.401-34.059,27.015-36.746l81.443-12.434c17.6-2.688,34.059,9.406,36.745,27.012L1070.497,1348.979z"/>
		<path fill="#FF7A70" d="M1025.48,1164.753c1.184,7.747-4.14,14.988-11.878,16.169c-7.74,1.184-14.98-4.141-16.165-11.887
			c-1.183-7.743,4.142-14.981,11.884-16.166C1017.059,1151.688,1024.299,1157.012,1025.48,1164.753z"/>
	</g>
	<g>
		<path fill="#FFFFFF" stroke="#50AA8D" stroke-width="12" stroke-miterlimit="10" d="M1922.903,1392.329
			c-6.784,16.467-25.639,24.317-42.1,17.537l-76.177-31.381c-16.474-6.786-24.321-25.637-17.538-42.104l73.336-178.032
			c6.785-16.466,25.631-24.319,42.104-17.532l76.177,31.381c16.462,6.78,24.318,25.633,17.534,42.099L1922.903,1392.329z"/>
		<path fill="#004059" d="M1979.418,1211.3c-2.986,7.246-11.28,10.701-18.518,7.72c-7.242-2.982-10.696-11.277-7.713-18.522
			c2.983-7.243,11.278-10.696,18.521-7.716C1978.945,1195.763,1982.4,1204.059,1979.418,1211.3z"/>
	</g>
</g>
<g id="Layer_3">
</g>
</svg>
