<?xml version="1.0" encoding="utf-8"?>
<!-- Generator: Adobe Illustrator 16.0.4, SVG Export Plug-In . SVG Version: 6.00 Build 0)  -->
<!DOCTYPE svg PUBLIC "-//W3C//DTD SVG 1.1//EN" "http://www.w3.org/Graphics/SVG/1.1/DTD/svg11.dtd">
<svg version="1.1" xmlns="http://www.w3.org/2000/svg" xmlns:xlink="http://www.w3.org/1999/xlink" x="0px" y="0px" width="1024px"
	 height="1024px" viewBox="0 0 1024 1024" enable-background="new 0 0 1024 1024" xml:space="preserve">
<g id="Layer_1">
	<g>
		<g>
			<defs>
				<path id="SVGID_1_" d="M230,1.251c-127.026,0-230,102.974-230,230v563.954C0,914.239,90.425,1012.151,206.329,1024h611.342
					C933.574,1012.151,1024,914.239,1024,795.205V231.251c0-127.026-102.974-230-230-230H230z"/>
			</defs>
			<linearGradient id="SVGID_2_" gradientUnits="userSpaceOnUse" x1="0" y1="512.625" x2="1024" y2="512.625">
				<stop  offset="0" style="stop-color:#CBFFB0"/>
				<stop  offset="0.0076" style="stop-color:#CCFFB1"/>
				<stop  offset="0.2085" style="stop-color:#E3FFBD"/>
				<stop  offset="0.4256" style="stop-color:#F3FFC5"/>
				<stop  offset="0.6707" style="stop-color:#FCFFCA"/>
				<stop  offset="1" style="stop-color:#FFFFCC"/>
			</linearGradient>
			<use xlink:href="#SVGID_1_"  overflow="visible" fill="url(#SVGID_2_)"/>
			<clipPath id="SVGID_3_">
				<use xlink:href="#SVGID_1_"  overflow="visible"/>
			</clipPath>
			
				<linearGradient id="SVGID_4_" gradientUnits="userSpaceOnUse" x1="0.002" y1="1024.001" x2="1.002" y2="1024.001" gradientTransform="matrix(0 -1022.749 -1022.749 0 1047807 1025.5)">
				<stop  offset="0" style="stop-color:#CBFFB0"/>
				<stop  offset="0.0076" style="stop-color:#CCFFB1"/>
				<stop  offset="0.2085" style="stop-color:#E3FFBD"/>
				<stop  offset="0.4256" style="stop-color:#F3FFC5"/>
				<stop  offset="0.6707" style="stop-color:#FCFFCA"/>
				<stop  offset="1" style="stop-color:#FFFFCC"/>
			</linearGradient>
			<rect y="1.251" clip-path="url(#SVGID_3_)" fill="url(#SVGID_4_)" width="1024" height="1022.749"/>
		</g>
	</g>
</g>
<g id="Layer_5">
	<g>
		<path fill="#7DBF00" d="M519.863,515.293c-10.177-31.395-2.089-121.049,87.664-135.58c41.734-6.756,67.541,16.085,71.759,37.016
			c4.729,23.475-7.349,46.227-26.876,53.927C603.791,489.822,569.344,451.232,519.863,515.293"/>
		<path fill="#7DBF00" d="M521.766,514.212c14.409-29.689,18.761-119.603-68.13-146.372c-40.401-12.448-69.114,6.617-76.175,26.764
			c-7.924,22.6,0.898,46.8,19.18,57.119C442.15,477.412,481.59,443.941,521.766,514.212"/>
		<polygon fill="#7DBF00" points="499.101,643.387 519.594,644.523 526.371,504.619 517.464,504.289 		"/>
		<path fill="#689E00" d="M521.394,504.467c0,0-0.69-1.741-1.909-4.63c-0.602-1.444-1.358-3.175-2.211-5.124
			c-0.88-1.945-1.846-4.11-2.97-6.417c-1.116-2.306-2.327-4.767-3.7-7.288c-1.342-2.536-2.848-5.123-4.425-7.748
			c-0.829-1.291-1.606-2.631-2.504-3.916c-0.832-1.323-1.755-2.602-2.665-3.899c-0.89-1.312-1.907-2.539-2.832-3.839l-1.502-1.863
			c-0.496-0.626-0.985-1.26-1.526-1.845c-1.042-1.21-2.062-2.442-3.167-3.586c-0.539-0.585-1.074-1.171-1.609-1.756
			c-0.563-0.556-1.125-1.113-1.684-1.669c-1.081-1.149-2.252-2.191-3.388-3.254c-1.1-1.104-2.315-2.051-3.448-3.069
			c-1.121-1.042-2.339-1.92-3.477-2.871c-0.583-0.457-1.129-0.959-1.72-1.381c-0.587-0.43-1.169-0.854-1.733-1.295
			c-0.569-0.435-1.13-0.866-1.684-1.29c-0.559-0.421-1.148-0.771-1.693-1.179c-1.116-0.783-2.185-1.569-3.245-2.286
			c-1.067-0.707-2.104-1.365-3.083-2.037c-0.492-0.331-0.962-0.682-1.441-0.974c-0.479-0.29-0.949-0.571-1.398-0.863
			c-1.812-1.118-3.379-2.229-4.732-3.009c-2.681-1.63-4.227-2.75-4.227-2.75s1.842-0.169,5.085-0.138
			c1.637-0.038,3.562,0.199,5.815,0.434c2.266,0.197,4.727,0.792,7.477,1.377c1.363,0.324,2.734,0.802,4.193,1.228
			c0.728,0.222,1.463,0.455,2.197,0.73c0.73,0.292,1.469,0.585,2.219,0.883c1.507,0.599,3.054,1.237,4.558,2.042
			c1.52,0.78,3.106,1.542,4.603,2.512c1.515,0.939,3.089,1.868,4.555,2.984c0.743,0.549,1.491,1.099,2.242,1.653
			c0.758,0.549,1.441,1.194,2.17,1.795c0.715,0.617,1.431,1.238,2.148,1.861c0.69,0.655,1.362,1.332,2.041,2.006
			c1.39,1.317,2.627,2.787,3.891,4.232c1.264,1.446,2.375,3.012,3.53,4.533c0.542,0.784,1.067,1.579,1.584,2.373
			c0.522,0.793,1.053,1.575,1.504,2.401c0.466,0.814,0.931,1.627,1.394,2.436c0.454,0.812,0.843,1.653,1.262,2.469
			c0.835,1.634,1.525,3.31,2.207,4.949c1.291,3.311,2.348,6.563,3.057,9.716c0.764,3.134,1.218,6.147,1.504,8.923
			c0.54,5.57,0.265,10.225-0.197,13.439C522.021,502.684,521.394,504.467,521.394,504.467"/>
		<path fill="#689E00" d="M521.061,505.605c0,0-0.294-1.867-0.146-5.11c0.128-3.246,0.697-7.873,2.239-13.251
			c0.784-2.681,1.773-5.562,3.09-8.506c1.267-2.971,2.897-5.98,4.764-9.004c0.97-1.488,1.949-3.01,3.066-4.467
			c0.561-0.726,1.095-1.483,1.688-2.2c0.603-0.71,1.206-1.426,1.812-2.142c0.593-0.731,1.256-1.403,1.911-2.089
			c0.654-0.687,1.312-1.375,1.988-2.046c1.412-1.286,2.788-2.625,4.292-3.82c1.506-1.193,2.989-2.414,4.594-3.457
			c0.787-0.543,1.573-1.087,2.368-1.605c0.819-0.482,1.637-0.964,2.451-1.443c0.822-0.458,1.612-0.967,2.459-1.371
			c0.839-0.409,1.674-0.816,2.502-1.22c1.646-0.833,3.359-1.46,5.021-2.112c1.649-0.683,3.346-1.146,4.98-1.638
			c1.629-0.521,3.264-0.868,4.854-1.185c0.793-0.157,1.575-0.313,2.342-0.467c0.771-0.137,1.538-0.233,2.294-0.32
			c1.513-0.156,2.947-0.379,4.346-0.451c2.81-0.078,5.339-0.219,7.602-0.001c2.259,0.176,4.194,0.291,5.798,0.624
			c3.195,0.556,4.975,1.057,4.975,1.057s-1.719,0.821-4.651,1.941c-1.473,0.52-3.214,1.331-5.199,2.102
			c-0.495,0.207-1.006,0.398-1.532,0.596c-0.521,0.201-1.048,0.46-1.593,0.696c-1.083,0.485-2.225,0.945-3.401,1.448
			c-1.17,0.513-2.368,1.092-3.603,1.661c-0.611,0.301-1.255,0.539-1.881,0.852c-0.621,0.318-1.251,0.64-1.888,0.966
			c-0.638,0.333-1.287,0.641-1.938,0.96c-0.658,0.309-1.288,0.703-1.943,1.046c-1.291,0.729-2.646,1.375-3.937,2.195
			c-1.302,0.795-2.665,1.508-3.949,2.395c-1.308,0.84-2.646,1.653-3.919,2.589c-0.651,0.446-1.303,0.89-1.957,1.338
			c-0.633,0.478-1.268,0.957-1.902,1.436c-1.295,0.925-2.518,1.951-3.763,2.952c-0.638,0.479-1.236,1.012-1.832,1.542l-1.818,1.557
			c-1.144,1.114-2.367,2.135-3.479,3.263c-1.129,1.113-2.268,2.204-3.325,3.354c-1.113,1.101-2.12,2.278-3.169,3.399
			c-2.026,2.293-3.979,4.567-5.755,6.818c-1.808,2.232-3.443,4.432-4.958,6.497c-1.521,2.065-2.864,4.022-4.081,5.777
			c-1.189,1.761-2.248,3.327-3.101,4.638C522.055,504.018,521.061,505.605,521.061,505.605"/>
	</g>
</g>
<g id="Layer_2">
	<g>
		<path fill="#5F9904" d="M510.842,690.525c14.058-42.305,4.018-163.488-117.073-184.004c-56.304-9.539-91.391,21.059-97.294,49.288
			c-6.621,31.664,9.464,62.516,35.767,73.109C397.724,655.291,444.635,603.506,510.842,690.525"/>
		<path fill="#5F9904" d="M507.525,693.525c-11.518-43.064,5.71-163.438,127.808-176.717c56.772-6.175,89.977,26.455,94.19,54.984
			c4.728,32.002-13.164,61.844-40.05,70.855C622.537,665.08,578.789,610.598,507.525,693.525"/>
		<polygon fill="#5F9904" points="527.159,846.857 499.44,847.477 500.5,659.078 518.246,659.822 		"/>
		<path fill="#3F8002" d="M509.627,676.777c0,0-0.038-0.621-0.008-1.781c0.028-1.16,0.115-2.861,0.384-5.006
			c0.507-4.295,1.707-10.391,4.205-17.428c1.264-3.508,2.806-7.268,4.771-11.096c1.903-3.867,4.275-7.766,6.951-11.672
			c1.381-1.922,2.778-3.893,4.35-5.768c0.786-0.936,1.54-1.912,2.369-2.832c0.838-0.912,1.68-1.832,2.527-2.752
			c0.827-0.941,1.743-1.805,2.651-2.682c0.905-0.879,1.816-1.76,2.748-2.623c1.94-1.639,3.831-3.361,5.886-4.879
			c2.054-1.52,4.079-3.078,6.257-4.402c1.071-0.689,2.136-1.379,3.213-2.041c1.108-0.611,2.214-1.221,3.313-1.828
			c1.115-0.578,2.185-1.23,3.321-1.736c1.129-0.516,2.256-1.029,3.374-1.539c2.216-1.059,4.517-1.84,6.745-2.662
			c2.215-0.863,4.486-1.438,6.676-2.057c2.179-0.658,4.365-1.086,6.49-1.48c1.06-0.197,2.104-0.395,3.133-0.586
			c1.03-0.174,2.055-0.285,3.062-0.395c2.018-0.191,3.939-0.471,5.805-0.559c3.746-0.084,7.128-0.273,10.146,0.012
			c3.012,0.223,5.601,0.355,7.737,0.775c4.264,0.693,6.644,1.291,6.644,1.291s-2.36,0.873-6.396,2.049
			c-2.022,0.533-4.432,1.436-7.174,2.275c-0.686,0.223-1.392,0.434-2.118,0.648c-0.725,0.221-1.455,0.518-2.21,0.783
			c-1.505,0.547-3.088,1.068-4.725,1.637c-1.63,0.586-3.298,1.27-5.023,1.932c-0.856,0.354-1.75,0.627-2.625,1
			c-0.868,0.381-1.752,0.768-2.647,1.156c-0.893,0.381-1.799,0.766-2.715,1.154c-0.919,0.369-1.806,0.857-2.727,1.275
			c-1.817,0.898-3.717,1.684-5.538,2.715c-1.834,0.998-3.75,1.885-5.565,3.016c-1.847,1.068-3.734,2.104-5.535,3.314
			c-0.917,0.572-1.838,1.15-2.762,1.729c-0.895,0.621-1.792,1.244-2.69,1.869c-1.826,1.205-3.559,2.555-5.313,3.873
			c-0.9,0.631-1.743,1.336-2.589,2.037l-2.562,2.064c-1.614,1.48-3.333,2.842-4.897,4.352c-1.586,1.488-3.182,2.949-4.666,4.494
			c-1.554,1.479-2.966,3.064-4.423,4.574c-2.827,3.094-5.527,6.164-7.973,9.209c-2.48,3.018-4.717,6-6.769,8.797
			c-2.06,2.795-3.867,5.445-5.488,7.816c-1.589,2.389-2.985,4.502-4.102,6.277c-1.124,1.771-2.004,3.189-2.601,4.166
			C509.946,676.252,509.627,676.777,509.627,676.777"/>
		<path fill="#3F8002" d="M510.038,676.912c0,0-0.247-0.562-0.709-1.617c-0.463-1.047-1.15-2.568-2.032-4.473
			c-0.875-1.904-1.983-4.186-3.243-6.76c-1.298-2.562-2.741-5.428-4.417-8.469c-1.668-3.043-3.493-6.291-5.559-9.607
			c-2.024-3.338-4.299-6.738-6.696-10.174c-1.246-1.689-2.438-3.445-3.785-5.115c-1.269-1.727-2.658-3.385-4.037-5.068
			c-1.354-1.701-2.877-3.273-4.286-4.955l-2.269-2.383c-0.746-0.805-1.488-1.615-2.298-2.357c-1.568-1.537-3.107-3.104-4.762-4.535
			c-0.808-0.738-1.616-1.475-2.42-2.209c-0.84-0.693-1.679-1.385-2.51-2.074c-1.629-1.436-3.364-2.709-5.054-4.01
			c-1.651-1.361-3.435-2.49-5.124-3.719c-1.669-1.262-3.451-2.291-5.134-3.416c-0.858-0.537-1.671-1.139-2.535-1.625
			c-0.858-0.506-1.705-1.006-2.542-1.498c-0.835-0.506-1.66-1.002-2.472-1.492c-0.819-0.486-1.668-0.875-2.47-1.338
			c-1.625-0.881-3.189-1.777-4.729-2.572c-1.547-0.777-3.048-1.502-4.469-2.242c-0.712-0.361-1.399-0.752-2.087-1.064
			c-0.691-0.311-1.365-0.609-2.014-0.924c-2.609-1.189-4.878-2.4-6.815-3.195c-3.846-1.695-6.073-2.871-6.073-2.871
			s2.439-0.277,6.755-0.408c2.173-0.135,4.757,0.074,7.772,0.246c3.031,0.115,6.357,0.744,10.061,1.318
			c1.838,0.332,3.706,0.859,5.68,1.314c0.983,0.24,1.984,0.486,2.984,0.793c0.995,0.326,2.005,0.656,3.028,0.99
			c2.053,0.672,4.166,1.381,6.241,2.32c2.091,0.9,4.267,1.766,6.348,2.914c2.103,1.105,4.282,2.182,6.339,3.521
			c1.041,0.652,2.089,1.311,3.142,1.969c1.061,0.652,2.036,1.436,3.064,2.156c1.012,0.746,2.027,1.496,3.046,2.246
			c0.98,0.799,1.947,1.621,2.917,2.445c1.985,1.598,3.79,3.408,5.626,5.184c1.838,1.775,3.486,3.73,5.197,5.607
			c0.81,0.979,1.596,1.973,2.38,2.963c0.784,0.988,1.58,1.963,2.277,3.004c0.718,1.025,1.433,2.047,2.145,3.061
			c0.702,1.021,1.321,2.088,1.978,3.119c1.312,2.064,2.439,4.199,3.558,6.287c2.138,4.223,3.979,8.398,5.36,12.482
			c1.446,4.053,2.482,7.982,3.276,11.625c1.554,7.303,1.943,13.504,1.882,17.828c-0.013,2.162-0.149,3.861-0.274,5.014
			C510.158,676.301,510.038,676.912,510.038,676.912"/>
	</g>
</g>
<g id="Layer_3">
	<g>
		<defs>
			<path id="SVGID_5_" d="M230,1.251c-127.026,0-230,102.974-230,230v563.954C0,914.239,90.425,1012.151,206.329,1024h611.342
				C933.574,1012.151,1024,914.239,1024,795.205V231.251c0-127.026-102.974-230-230-230H230z"/>
		</defs>
		<clipPath id="SVGID_6_">
			<use xlink:href="#SVGID_5_"  overflow="visible"/>
		</clipPath>
		<g clip-path="url(#SVGID_6_)">
			<path fill="#934E03" d="M888.906,1072.824c0,209.481-169.818,379.3-379.299,379.3c-209.479,0-379.298-169.818-379.298-379.3
				s169.818-379.299,379.298-379.299C719.088,693.525,888.906,863.343,888.906,1072.824"/>
			<path fill="#C27B2F" d="M566.465,844.966l6.205-9.551l27.455-31.034L624,783.134l37.004-22.203l32.23-12.653l7.756-2.971
				c-56.184-32.899-121.574-51.779-191.383-51.779c-81.521,0-157.029,25.727-218.867,69.49l53.829,111.504l28.886,38.072
				l29.017,18.652l20.726,5.182l38.343,7.256l18.801,5.171l13.189,7.636l6.595,12.494l5.9,26.032l2.43,14.23l8.249,7.767
				l6.328,3.687l3.469,7.639l2.086,6.593l-2.086,9.372l-5.203,16.312l-2.082,17.009l1.041,16.658l4.164,21.175l8.33,19.436
				l9.023,13.883l10.066,12.495l10.414,10.76l9.719,9.024l7.635,13.883l1.736,16.66l-3.471,20.825l-4.857,18.05l-8.332,17.354
				l-7.984,18.742l-9.719,17.611l-3.471,8.074l4.164,13.538l7.639,6.592l8.328,1.736l11.801-1.736l19.092-8.677l19.088-11.801
				l21.867-14.229l13.535-12.148l17.131-16.661l16.189-20.478l12.15-17.355l16.312-20.825l12.844-13.189l11.453-9.717l14.574-40.957
				l7.199-23.604l0.646-14.041l-1.797-15.2l-3.59-7.323l-10.779-7.602l-10.404-8.241l-8.355-10.026l-10.266-16.23l-13.848-22.208
				l-10.504-15.519l-11.938-15.279l-12.176-3.104l-14.086-3.819l-22.918-10.026l-15.76-6.446l-9.07,1.432l-9.309,4.537
				l-11.223,5.729l-9.787,1.434l-9.07-2.864l-6.207-5.015l-4.775-8.354l-4.061-11.222l-5.252-6.686l-8.596-4.057l-7.639-3.581
				l-4.15-5.732l-2.297-6.924l0.717-5.49l1.58-5.966l-3.252-3.823l-7.57-1.91l-8.425-0.478l-8.118,0.719l-8.595,0.953l6.925-11.697
				l-6.925,2.388h-9.31l-7.878-4.06l-5.73-4.773l-4.775-8.117l-1.91-10.982l2.15-11.221l2.626-4.297l4.058-2.149l28.888-4.297
				l11.458-4.535l14.327-2.15l7.387,1.194l7.176,4.06l5.969,8.595l3.104,13.129l0.238,15.042l7.881,1.433l9.547-1.194l7.164-8.595
				l0.479-11.938l-3.105-10.98l0.717-7.4V844.966z"/>
		</g>
	</g>
</g>
</svg>
