<?xml version="1.0" encoding="utf-8"?>
<!-- Generator: Adobe Illustrator 16.0.4, SVG Export Plug-In . SVG Version: 6.00 Build 0)  -->
<!DOCTYPE svg PUBLIC "-//W3C//DTD SVG 1.1//EN" "http://www.w3.org/Graphics/SVG/1.1/DTD/svg11.dtd">
<svg version="1.1" id="Layer_1" xmlns="http://www.w3.org/2000/svg" xmlns:xlink="http://www.w3.org/1999/xlink" x="0px" y="0px"
	 width="2000px" height="2000px" viewBox="0 0 2000 2000" enable-background="new 0 0 2000 2000" xml:space="preserve">
<g>
	<g>
		<g>
			<g>
				<g>
					<path fill="#CCCCCC" d="M679.86,1945.888c38.661,12.327,79.994-9.02,92.32-47.678l205.537-644.639l-559.987-178.549
						l-205.539,644.64c-12.326,38.657,9.02,79.99,47.68,92.316L679.86,1945.888z"/>
					<path fill="#CCCCCC" d="M208.338,1201.659c9.399-29.478,41.031-45.815,70.512-36.418l99.95,31.869l20.761-65.116
						l-99.949-31.867c-65.383-20.846-135.54,15.385-156.39,80.771l-43.795,137.357c-40.811,128,23.214,258.866,145.752,297.938
						l20.759-65.116c-86.024-27.429-130.565-120.574-101.397-212.06L208.338,1201.659z"/>
					<path fill="#EFBA1C" d="M678.447,1837.238c36.348,11.592,75.208-8.479,86.795-44.826L940.8,1241.801l-486.147-155.005
						l-175.558,550.606c-11.589,36.349,8.481,75.212,44.828,86.8L678.447,1837.238z"/>
					<g>
						<path fill="#FFFFFF" d="M855.563,932.042c-46.272-14.756-94.529-3.104-128.849,26.383
							c-13.459-20.364-33.656-36.466-58.726-44.46c-58.338-18.602-120.714,13.616-139.308,71.961
							c-45.124-14.388-93.368,10.528-107.757,55.652c-3.535,11.085-4.669,22.354-3.743,33.267l221.931,70.764
							C669,1158,677,1195,668.585,1222.867l-20.264,63.559c-6.95,21.793,5.698,45.143,28.112,51.019
							c21.018,5.509,42.432-8.104,49.032-28.803l2.691-6.167c3.141-9.847,13.667-15.28,23.511-12.142
							c9.843,3.138,15.28,13.665,12.14,23.508l-25.276,81.161c-6.948,21.79,5.698,45.141,28.112,51.017
							c21.02,5.508,42.432-8.104,49.031-28.802l46.828-150.372C870,1244.655,892,1228,916.071,1233.914l61.65,19.657
							c7.073-8.361,12.671-18.21,16.204-29.295c14.387-45.123-10.526-93.366-55.65-107.753c-0.325-0.105-0.654-0.16-0.98-0.259
							c2.164-4.776,4.149-9.677,5.779-14.793C965.694,1030.52,926.518,954.664,855.563,932.042z"/>
						<circle fill="#CC9900" cx="508.471" cy="1210.837" r="37.828"/>
					</g>
				</g>
			</g>
		</g>
		<g>
			<g>
				<g>
					<g>
						<path fill="#CCCCCC" d="M1316.143,1945.888l419.995-133.909c38.657-12.326,60.003-53.659,47.681-92.316l-205.544-644.64
							l-559.986,178.549l205.537,644.639C1236.152,1936.868,1277.484,1958.215,1316.143,1945.888z"/>
						<path fill="#CCCCCC" d="M1730.067,1551.077l20.761,65.116c122.534-39.071,186.561-169.938,145.748-297.938l-43.793-137.357
							c-20.851-65.387-91.009-101.617-156.389-80.771l-99.95,31.867l20.76,65.116l99.952-31.869
							c29.479-9.397,61.109,6.94,70.511,36.418l43.797,137.358C1860.633,1430.503,1816.091,1523.648,1730.067,1551.077z"/>
						<path fill="#EFBA1C" d="M1317.559,1837.238l354.522-113.036c36.348-11.588,56.419-50.451,44.827-86.8l-175.555-550.606
							l-486.151,155.005l175.562,550.611C1242.351,1828.759,1281.21,1848.83,1317.559,1837.238z"/>
						<g>
							<path fill="#FFFFFF" d="M1002.08,1224.276c3.534,11.085,9.13,20.934,16.205,29.295l36.917-11.771
								C1082,1234,1124,1237,1136.573,1275.83l66.035,207.114c6.603,20.698,28.018,34.31,49.032,28.802
								c22.414-5.876,35.062-29.227,28.115-51.017l-54.9-172.7c-3.137-9.843,2.298-20.37,12.145-23.508
								c9.846-3.139,20.37,2.295,23.51,12.142l10.03,31.979c6.601,20.699,28.014,34.312,49.032,28.803
								c22.414-5.876,35.058-29.226,28.114-51.019l-22.731-71.288c-6.9-31.138-1.955-57.138,25.891-67.601l227.978-72.691
								c0.928-10.912-0.211-22.182-3.742-33.267c-14.385-45.124-62.634-70.041-107.757-55.652
								c-18.593-58.345-80.97-90.562-139.308-71.961c-25.066,7.994-45.267,24.096-58.726,44.46
								c-34.319-29.487-82.581-41.139-128.85-26.383c-70.955,22.622-110.134,98.477-87.508,169.429
								c1.627,5.116,3.612,10.017,5.775,14.793c-0.325,0.099-0.653,0.153-0.979,0.259
								C1012.606,1130.91,987.69,1179.153,1002.08,1224.276z"/>
						</g>
					</g>
				</g>
			</g>
		</g>
	</g>
	<g>
		<path fill="#FFFFFF" d="M497.139,762.404C734.449,693.005,837.022,874.5,837.022,874.5
			c-78.636-260.23-309.705-327.061-426.28-271.468C294.166,658.621,341.746,807.852,497.139,762.404z"/>
		<path fill="#FFFFFF" d="M936.492,782.221c-1.969-334.346-123.396-571.767-270.97-641.695
			c-120.878-57.279-248.874,106.007-64.377,194.721C910.931,484.203,936.492,782.221,936.492,782.221z"/>
		<path fill="#FFFFFF" d="M1498.862,762.404c155.396,45.447,202.974-103.783,86.4-159.373
			c-116.575-55.592-347.64,11.238-426.283,271.468C1158.979,874.5,1261.559,693.005,1498.862,762.404z"/>
		<path fill="#FFFFFF" d="M1330.482,140.525c-147.573,69.929-268.997,307.349-270.972,641.695c0,0,25.562-298.018,335.353-446.975
			C1579.357,246.533,1451.36,83.246,1330.482,140.525z"/>
	</g>
</g>
<circle fill="#CC9900" cx="593.208" cy="1430.892" r="37.828"/>
<circle fill="#CC9900" cx="745.275" cy="1550.814" r="37.828"/>
<circle fill="#CC9900" cx="470.633" cy="1550.814" r="37.828"/>
<circle fill="#CC9900" cx="1487.536" cy="1210.837" r="37.828"/>
<circle fill="#CC9900" cx="1404.56" cy="1463.66" r="37.828"/>
<circle fill="#CC9900" cx="1579.133" cy="1485.087" r="37.828"/>
<circle fill="#CC9900" cx="1311.362" cy="1709.495" r="37.828"/>
</svg>
