<?xml version="1.0" encoding="utf-8"?>
<!-- Generator: Adobe Illustrator 16.0.4, SVG Export Plug-In . SVG Version: 6.00 Build 0)  -->
<!DOCTYPE svg PUBLIC "-//W3C//DTD SVG 1.1//EN" "http://www.w3.org/Graphics/SVG/1.1/DTD/svg11.dtd">
<svg version="1.1" id="Layer_1" xmlns="http://www.w3.org/2000/svg" xmlns:xlink="http://www.w3.org/1999/xlink" x="0px" y="0px"
	 width="2000px" height="2000px" viewBox="0 0 2000 2000" enable-background="new 0 0 2000 2000" xml:space="preserve">
<g>
	
		<path fill="none" stroke="#FFFFFF" stroke-linecap="round" stroke-linejoin="round" stroke-miterlimit="10" stroke-dasharray="0,3" d="
		M987.29,902.748"/>
</g>
<path fill="#D1D3D4" d="M1646.166,540.413c98.004,9.532,17.631,501.164,59.101,670.352c24.098,97.873,120.315,97.873,120.315,97.873
	s-578.916,166.085-1047.046,38.412C310.121,1219.391,506.06,849.028,506.06,849.028L1646.166,540.413z"/>
<polyline fill="#A67C52" points="373.304,3031.119 1105.627,728.368 1003.528,728.368 271.348,3031.119 "/>
<polyline fill="#A67C52" points="1586.727,3031.119 854.405,728.368 956.6,728.368 1688.683,3031.119 "/>
<rect x="335.317" y="684.565" fill="#A67C52" width="1302.177" height="937.679"/>
<rect x="392.794" y="747.267" fill="#E6E7E8" width="1187.227" height="815.523"/>
<rect x="324.681" y="1591.02" fill="#8C6239" width="1327.922" height="32.082"/>
<path fill="#F1F2F2" d="M1580.021,747.677c0,0,112.928-70.301,49.164-201.268L400.091,616.76c0,0-86.165,60.617-7.296,130.917
	H1580.021z"/>
<g>
	<polygon id="XMLID_590_" fill-rule="evenodd" clip-rule="evenodd" fill="#6DBABF" points="475.46,1171.312 533.282,1171.271 
		533.573,1484.145 475.75,1484.217 	"/>
	<polygon id="XMLID_589_" fill-rule="evenodd" clip-rule="evenodd" fill="#EB6026" points="572.216,1043.376 630.037,1043.335 
		630.409,1484.047 572.548,1484.119 	"/>
	<polygon id="XMLID_588_" fill-rule="evenodd" clip-rule="evenodd" fill="#EFAF3E" points="669.076,1106.112 726.916,1106.043 
		727.249,1483.967 669.406,1484.005 	"/>
	<polygon id="XMLID_587_" fill-rule="evenodd" clip-rule="evenodd" fill="#6DBABF" points="766.018,1197.961 823.839,1197.905 
		824.088,1483.864 766.245,1483.923 	"/>
	<polygon id="XMLID_586_" fill-rule="evenodd" clip-rule="evenodd" fill="#EB6026" points="862.772,1103.678 920.595,1103.611 
		920.927,1483.795 863.105,1483.822 	"/>
	<polygon id="XMLID_585_" fill-rule="evenodd" clip-rule="evenodd" fill="#EFAF3E" points="959.57,1031.796 1017.371,1031.739 
		1017.764,1483.668 959.923,1483.726 	"/>
	<polygon id="XMLID_584_" fill-rule="evenodd" clip-rule="evenodd" fill="#6DBABF" points="1056.326,955.459 1114.147,955.406 
		1114.624,1483.601 1056.781,1483.63 	"/>
	<polygon id="XMLID_583_" fill-rule="evenodd" clip-rule="evenodd" fill="#EB6026" points="1153.266,1058.54 1211.109,1058.498 
		1211.442,1483.487 1153.62,1483.557 	"/>
	<polygon id="XMLID_582_" fill-rule="evenodd" clip-rule="evenodd" fill="#EFAF3E" points="1250.169,1148.147 1308.032,1148.09 
		1308.281,1483.391 1250.459,1483.446 	"/>
</g>
<g id="XMLID_568_">
	<g id="XMLID_577_">
		<path id="XMLID_580_" fill-rule="evenodd" clip-rule="evenodd" fill="#EB6026" d="M1449.25,866.679l53.512,38.24
			c7.29-10.2,11.764-22.625,12.198-36.107l0.021-0.083l-65.731-2.101V866.679z"/>
		<path id="XMLID_579_" fill-rule="evenodd" clip-rule="evenodd" fill="#EFAF3E" d="M1449.25,866.627l65.731,2.101
			c1.118-36.263-27.317-66.592-63.579-67.782L1449.25,866.627z"/>
		<path id="XMLID_578_" fill-rule="evenodd" clip-rule="evenodd" fill="#6DBABF" d="M1449.25,866.627l2.152-65.681
			c-36.325-1.16-66.707,27.305-67.865,63.599c-1.181,36.293,27.274,66.685,63.557,67.865c22.821,0.746,43.283-10.25,55.668-27.491
			l-53.512-38.24V866.627z"/>
	</g>
	<g id="XMLID_573_">
		<path id="XMLID_576_" fill-rule="evenodd" clip-rule="evenodd" fill="#6DBABF" d="M1451.402,1131.088
			c-36.306-1.19-66.686,27.286-67.865,63.591c-1.181,36.284,27.274,66.673,63.6,67.854c22.778,0.727,43.262-10.22,55.625-27.48
			c7.311-10.221,11.764-22.627,12.22-36.106v-0.095C1516.1,1162.587,1487.644,1132.269,1451.402,1131.088z"/>
		<path id="XMLID_575_" fill-rule="evenodd" clip-rule="evenodd" fill="#EB6026" d="M1484.661,1252.219l-36.117-55.221
			l-62.461,18.161c7.747,26.59,31.853,46.421,61.054,47.373C1460.888,1262.968,1473.852,1259.147,1484.661,1252.219z"/>
		<path id="XMLID_574_" fill-rule="evenodd" clip-rule="evenodd" fill="#EFAF3E" d="M1448.544,1196.998l36.117,55.221
			c17.624-11.296,29.574-30.783,30.32-53.273c0.539-17.148-5.51-33.001-15.906-45.034l-49.825,42.88L1448.544,1196.998z"/>
	</g>
	<g id="XMLID_569_">
		<path id="XMLID_572_" fill-rule="evenodd" clip-rule="evenodd" fill="#6DBABF" d="M1451.402,966.023
			c-36.283-1.193-66.686,27.263-67.888,63.578c-1.158,36.304,27.297,66.673,63.6,67.854c22.801,0.757,43.284-10.22,55.647-27.48
			c7.331-10.2,11.764-22.604,12.22-36.098v-0.104C1516.141,997.532,1487.686,967.204,1451.402,966.023z"/>
		<path id="XMLID_571_" fill-rule="evenodd" clip-rule="evenodd" fill="#EFAF3E" d="M1451.402,966.023l-2.152,65.723l-0.332,0.341
			l0.082,0.081l63.475-18.555C1504.833,986.898,1480.665,966.976,1451.402,966.023z"/>
		<path id="XMLID_570_" fill-rule="evenodd" clip-rule="evenodd" fill="#EB6026" d="M1512.475,1013.613L1449,1032.168l-0.291,0.084
			l-47.384,44.494c11.493,12.251,27.669,20.119,45.789,20.709c20.69,0.685,39.412-8.251,51.961-22.779
			c9.485-10.986,15.409-25.162,15.906-40.799C1515.209,1026.836,1514.36,1020.045,1512.475,1013.613z"/>
	</g>
</g>
<g>
	<g>
		<path fill="#545453" d="M672.598,678.4l61.365-12.035c1.672,1.254,10.611,8.903,3.742,18.746l-31.409,6.159l-0.716,0.141
			l0.219,0.702c0.012,0.06,0.775,3.46-1.321,6.708c-1.764,2.886-5.155,4.816-10.062,5.778l-16.062,3.149l-0.668,0.131l-16.017,3.142
			c-4.939,0.969-8.807,0.463-11.562-1.538c-3.105-2.229-3.684-5.664-3.695-5.723l-0.125-0.723l-32.109,6.297
			c-9.929-6.497-4.625-16.99-3.615-18.769l61.366-12.036L672.598,678.4z"/>
		<path fill="#545453" d="M667.518,652.496l61.365-12.035c1.686,1.338,10.499,8.985,3.763,18.863l-61.427,12.045l-0.669,0.132
			l-61.429,12.047c-9.95-6.606-4.631-17.023-3.638-18.887l61.366-12.035L667.518,652.496z"/>
		<path fill="#545453" d="M662.001,624.365l61.365-12.035c1.673,1.271,10.611,8.901,3.737,18.728l-61.426,12.047l-0.671,0.131
			l-61.428,12.046c-9.923-6.462-4.619-16.955-3.612-18.751l61.366-12.034L662.001,624.365z"/>
		<path fill="#FFCC00" d="M582.096,216.917c7.674-1.374,75.617-11.219,128.762,31.02c31.944,25.284,52.641,64.416,61.574,116.23
			c0.083,0.435,7.617,44.29-17.431,89.387c-0.363,0.714-40.735,74.998-26.944,147.463l-68.018,13.339l-0.669,0.131l-68.033,13.342
			c-14.555-72.316-79.947-125.858-80.613-126.371c-40.238-32.268-49.786-75.754-49.87-76.188
			c-11.299-51.351-6.899-95.404,13.065-130.868c33.303-59.193,99.882-75.728,107.509-77.356
			C581.473,217.039,581.706,216.993,582.096,216.917z"/>
	</g>
	<g>
		
			<rect x="552.089" y="60.809" transform="matrix(0.9813 -0.1925 0.1925 0.9813 -13.0729 110.2261)" fill="#FFCC00" width="17.406" height="123.179"/>
		<polygon fill="#FFCC00" points="511.275,210.335 496.987,220.729 424.286,120.771 438.573,110.388 		"/>
		<polygon fill="#FFCC00" points="653.424,183.091 637.985,174.521 697.955,66.452 713.395,75.04 		"/>
	</g>
</g>
</svg>
