<?xml version="1.0" encoding="utf-8"?>
<!-- Generator: Adobe Illustrator 16.0.4, SVG Export Plug-In . SVG Version: 6.00 Build 0)  -->
<!DOCTYPE svg PUBLIC "-//W3C//DTD SVG 1.1//EN" "http://www.w3.org/Graphics/SVG/1.1/DTD/svg11.dtd">
<svg version="1.1" id="Layer_1" xmlns="http://www.w3.org/2000/svg" xmlns:xlink="http://www.w3.org/1999/xlink" x="0px" y="0px"
	 width="2000px" height="2000px" viewBox="0 0 2000 2000" enable-background="new 0 0 2000 2000" xml:space="preserve">
<g>
	<g>
		<path fill="#F4563C" d="M1531.257,1581.128c-7.911,20.351-30.823,30.435-51.171,22.524l-572.278-222.467
			c-20.349-7.91-30.335-30.782-22.423-51.133l273.748-704.197c7.91-20.351,31.031-31.265,51.379-23.355l572.279,222.467
			c20.348,7.909,30.125,31.612,22.214,51.963L1531.257,1581.128z"/>
		<path fill="#FF5D10" d="M973.049,1286.107l581.75,226.148c3.491-3.643,6.346-8.014,8.289-13.012l273.748-704.197
			c7.91-20.351-2.175-43.261-22.521-51.171L1242.035,521.41c-20.349-7.91-43.258,2.173-51.17,22.523l-273.748,704.197
			c-7.911,20.352,2.172,43.262,22.521,51.173l24.566,9.55L973.049,1286.107z"/>
		<path opacity="0.7" fill="#FFD01F" d="M1814.314,743.876l-258.848-100.623L1261.912,1398.4l292.887,113.855
			c3.491-3.643,6.346-8.014,8.289-13.012l273.748-704.197C1844.746,774.696,1834.661,751.786,1814.314,743.876z"/>
		<path fill="#5E3027" d="M1273.427,533.612l-31.392-12.202c-20.349-7.91-43.258,2.173-51.17,22.523l-305.579,786.081
			c-7.911,20.352,2.173,43.261,22.521,51.171l31.391,12.204L1273.427,533.612z"/>
		<path fill="#FFFFFF" d="M1532.585,1503.621l-559.536-217.514c-21.355-8.302-45.398,2.28-53.699,23.636
			c-8.301,21.354,2.281,45.396,23.637,53.698l559.536,217.514L1532.585,1503.621z"/>
	</g>
	
		<rect x="1283.396" y="740.677" transform="matrix(0.9321 0.3623 -0.3623 0.9321 378.9563 -494.4878)" fill="#FFFFFF" width="448.959" height="44.896"/>
	
		<rect x="1080.061" y="1264.719" transform="matrix(0.9321 0.3623 -0.3623 0.9321 554.6595 -385.2731)" fill="#FFFFFF" width="448.959" height="42.942"/>
	
		<rect x="1357.161" y="828.072" transform="matrix(0.9321 0.3623 -0.3623 0.9321 407.9893 -476.4468)" fill="#FFFFFF" width="234.239" height="42.943"/>
</g>
<g>
	<g>
		<path fill="#1EA5B0" d="M1099.212,1344.285c7.457,20.399-3.036,42.983-23.437,50.441L501.799,1604.54
			c-20.402,7.458-42.985-3.034-50.441-23.435L193.042,874.444c-7.457-20.401,3.035-42.983,23.436-50.44l573.977-209.814
			c20.4-7.458,42.985,3.035,50.442,23.436L1099.212,1344.285z"/>
		<path fill="#1EA5B0" d="M487.548,1487.973l583.207-213.188c0.216-5.018-0.52-10.157-2.35-15.167l-258.061-705.96
			c-7.459-20.4-30.046-30.893-50.441-23.438L186.189,739.938c-20.397,7.457-30.893,30.043-23.436,50.445l258.061,705.958
			c7.456,20.397,30.044,30.893,50.441,23.437l24.628-9.002L487.548,1487.973z"/>
		<path opacity="0.7" fill="#FFD01F" d="M759.903,530.22l-259.495,94.857l276.73,757.037l293.616-107.329
			c0.216-5.018-0.52-10.157-2.35-15.167l-258.061-705.96C802.886,533.258,780.299,522.766,759.903,530.22z"/>
		<path fill="#347A91" d="M217.659,728.434l-31.47,11.504c-20.397,7.457-30.893,30.043-23.436,50.445l288.068,788.048
			c7.456,20.397,30.043,30.892,50.441,23.436l31.469-11.503L217.659,728.434z"/>
		<path fill="#FFFFFF" d="M1048.486,1282.924l-560.938,205.049c-21.405,7.824-32.416,31.525-24.59,52.933
			c7.826,21.409,31.525,32.42,52.931,24.596l560.94-205.049L1048.486,1282.924z"/>
	</g>
	
		<rect x="326.62" y="734.788" transform="matrix(0.9392 -0.3433 0.3433 0.9392 -226.7169 234.7894)" fill="#FFFFFF" width="446.214" height="45.79"/>
	<polygon fill="#FF5D10" points="536.911,1518.656 587.394,1656.755 607.263,1622.502 639.776,1637.606 589.294,1499.508 	"/>
	<g>
		<circle fill="#FFFFFF" cx="658.284" cy="1053.218" r="212.949"/>
		<path fill="#FFF6D2" d="M585.174,853.214c-1.595,0.582-3.142,1.241-4.72,1.861l146.135,399.767
			c1.604-0.542,3.211-1.035,4.807-1.618c110.46-40.379,167.272-162.654,126.895-273.116
			C817.912,869.648,695.636,812.834,585.174,853.214z"/>
	</g>
</g>
<g display="none">
	<path display="inline" fill="#21475E" d="M906.202,23.712h170.074c35.933,0,65.056,29.124,65.056,65.052v232.158H841.147V88.764
		C841.147,52.836,870.271,23.712,906.202,23.712"/>
	<path display="inline" fill="#F9E382" d="M1107.531,528.031c0,61.877-50.169,112.044-112.042,112.044
		c-61.88,0-112.046-50.167-112.046-112.044c0-61.876,50.166-112.043,112.046-112.043
		C1057.362,415.988,1107.531,466.155,1107.531,528.031"/>
	<g display="inline">
		<defs>
			<polygon id="SVGID_1_" points="790.454,543.295 -83.972,2034.001 2084,2034.201 1230.08,541.362 			"/>
		</defs>
		<clipPath id="SVGID_2_">
			<use xlink:href="#SVGID_1_"  overflow="visible"/>
		</clipPath>
		<linearGradient id="SVGID_3_" gradientUnits="userSpaceOnUse" x1="975.9995" y1="208" x2="975.9995" y2="1186.0005">
			<stop  offset="0" style="stop-color:#FFFFFF"/>
			<stop  offset="0.8959" style="stop-color:#FFFFFF;stop-opacity:0"/>
		</linearGradient>
		<rect x="191" y="208" clip-path="url(#SVGID_2_)" fill="url(#SVGID_3_)" width="1570" height="978"/>
	</g>
	<path display="inline" fill="#2D5673" d="M1272.105,540.858H710.38V410.005c0-111.574,90.445-202.022,202.021-202.022h157.681
		c111.572,0,202.023,90.448,202.023,202.022V540.858z"/>
</g>
</svg>
